# This file is brought to you by Roblox Corporation
# Generated by Roblox Studio

mtllib Slap_big.mtl

g Handle1

v 1.81341 6.82953 70.3414 
v 2.16973 6.82484 70.2605 
v 2.28908 5.56241 70.9109 
v 2.00671 5.77665 71.036 
v 1.83074 5.46317 71.1543 
v 2.03997 5.19958 71.1623 
v 1.01309 5.15365 71.396 
v 0.975689 8.30067 68.6054 
v 1.38121 8.06499 69.1528 
v 1.20286 8.30232 69.0793 
v 1.06665 8.13647 69.0916 
v 1.30072 7.82423 69.1931 
v 1.1884 8.91626 69.8062 
v 1.27642 9.06462 69.8044 
v 1.7821 6.88983 70.146 
v 0.978627 5.00923 71.8209 
v 1.06114 6.12702 72.6716 
v 0.965978 6.00743 72.6918 
v 1.09539 5.95498 72.7438 
v 1.18494 6.01729 72.719 
v 1.25217 6.0837 72.6511 
v 0.942212 6.16353 72.5258 
v 0.867165 6.0475 72.5747 
v 1.62773 5.35815 71.2786 
v 1.81221 5.11485 71.3557 
v 1.62773 5.35815 71.2786 
v 1.83074 5.46317 71.1543 
v 1.58501 5.5684 70.9956 
v 1.58722 8.78679 70.7613 
v 1.73022 8.84895 70.7573 
v 1.47269 8.64467 70.7169 
v 1.58722 8.78679 70.7613 
v 1.17945 8.5352 68.8778 
v 1.04924 8.48522 68.9561 
v 1.04924 8.48522 68.9561 
v 0.952906 8.34281 69.0005 
v 0.954903 8.00373 68.9324 
v 1.65655 6.75636 69.4669 
v 1.35 7.12574 69.1322 
v 1.13027 7.6432 69.0139 
v 1.72417 7.48339 69.3037 
v 1.52265 7.84992 69.2065 
v 1.56926 7.2797 69.3344 
v 1.75292 6.51528 68.7225 
v 1.66085 6.73372 68.6197 
v 1.51702 6.62692 68.6648 
v 1.15076 7.2918 68.2288 
v 1.35142 7.01198 68.4286 
v 1.4363 7.21422 68.3473 
v 1.26262 7.44215 68.1888 
v 1.54298 7.01232 68.4632 
v 1.87432 6.25234 68.8433 
v 1.54714 6.34568 68.8636 
v 1.87432 6.25234 68.8433 
v 1.12615 7.54422 68.0421 
v 1.05881 7.43848 68.096 
v 2.36292 6.59851 70.1658 
v 2.36157 6.74012 70.0771 
v 2.15192 6.84956 70.1731 
v 2.16973 6.82484 70.2605 
v 2.49538 6.34569 70.3275 
v 2.02275 6.70683 69.4527 
v 2.21521 6.58092 69.3504 
v 2.35533 3.1294 70.4582 
v 1.64402 3.29535 70.8254 
v 1.92865 3.66314 70.9517 
v 1.68249 3.65488 71.0459 
v 1.2546 3.62349 70.8785 
v 1.36677 3.75128 71.0762 
v 1.86047 7.15555 69.3751 
v 1.25217 6.0837 72.6511 
v 0.898387 5.80875 72.5895 
v 1.54734 8.35938 70.7758 
v 1.69232 8.53183 70.8648 
v 1.18494 6.01729 72.719 
v 1.25253 5.85915 72.6343 
v 0.873724 5.54729 72.3945 
v 1.09134 5.79441 72.6719 
v 1.71274 7.93464 70.8503 
v 1.82161 8.2054 70.9168 
v 1.69232 8.53183 70.8648 
v 1.85598 8.65499 70.8104 
v 1.2658 8.97618 69.4091 
v 1.30012 5.64377 72.4481 
v 1.09481 5.54595 72.4962 
v 1.82161 8.2054 70.9168 
v 1.99264 8.34841 70.8368 
v 1.35661 5.45678 72.2449 
v 1.39467 6.23112 68.7753 
v 1.837 7.31613 70.8861 
v 2.15192 6.84956 70.1731 
v 1.90451 7.92375 70.9394 
v 2.10681 7.99569 70.8543 
v 1.9996 7.49868 70.9636 
v 1.90451 7.92375 70.9394 
v 1.39878 9.13375 69.7615 
v 1.27642 9.06462 69.8044 
v 1.12917 5.33503 72.3003 
v 1.8527 6.73223 70.8809 
v 1.9996 7.49868 70.9636 
v 2.21133 7.5784 70.8715 
v 1.4138 8.84532 69.9271 
v 1.54968 8.95662 69.8269 
v 1.83337 6.27819 70.9089 
v 2.09821 6.69342 70.9575 
v 2.05733 7.16986 70.9642 
v 2.05733 7.16986 70.9642 
v 2.28811 7.17489 70.8671 
v 1.73376 8.6605 69.8806 
v 1.58835 8.53871 69.997 
v 1.29498 8.65448 69.8895 
v 1.83548 4.62173 71.4224 
v 1.5078 4.76989 71.7808 
v 1.52412 4.38899 71.5406 
v 1.75037 7.52853 70.0713 
v 2.02615 7.35461 70.1342 
v 1.91207 7.7399 70.1063 
v 1.75229 5.88396 70.9442 
v 1.52163 8.23599 69.9815 
v 1.72762 8.24339 70.0427 
v 1.58835 8.53871 69.997 
v 2.08933 6.22947 70.9778 
v 2.09821 6.69342 70.9575 
v 2.34227 6.70037 70.8509 
v 1.91459 8.2969 69.9308 
v 1.72762 8.24339 70.0427 
v 1.99284 8.29946 69.6897 
v 1.22168 4.70136 71.754 
v 1.19432 4.36871 71.4248 
v 2.00671 5.77665 71.036 
v 2.08933 6.22947 70.9778 
v 2.34883 6.19536 70.8588 
v 1.4138 8.84532 69.9271 
v 1.91207 7.7399 70.1063 
v 2.10487 7.79634 69.9867 
v 1.20286 8.30232 69.0793 
v 1.33478 8.37355 68.9391 
v 1.46975 3.96441 71.2623 
v 1.80046 4.03775 71.2269 
v 2.12756 4.6828 71.1312 
v 1.19076 3.91287 71.0877 
v 2.50717 6.2585 70.6049 
v 2.02615 7.35461 70.1342 
v 2.24147 7.30176 70.0239 
v 1.50845 8.13996 68.9918 
v 1.38121 8.06499 69.1528 
v 2.08715 4.12352 71.0502 
v 1.71521 6.83148 69.6015 
v 1.52265 7.84992 69.2065 
v 1.68287 7.86896 69.0545 
v 2.11303 3.16487 70.7238 
v 2.23623 3.70591 70.7592 
v 1.73199 2.68216 70.7125 
v 2.05285 2.65295 70.6841 
v 1.56356 2.59018 70.432 
v 1.72417 7.48339 69.3037 
v 1.87906 7.50974 69.1464 
v 2.02275 6.70683 69.4527 
v 1.86047 7.15555 69.3751 
v 2.04847 7.08927 69.2441 
v 2.37675 6.21843 69.4083 
v 1.26262 7.44215 68.1888 
v 1.56286 7.26474 68.1889 
v 1.2146 4.94001 71.9524 
v 1.46891 5.04251 71.9262 
v 1.17348 5.15253 72.1284 
v 1.41378 5.27273 72.0736 
v 0.978627 5.00923 71.8209 
v 1.09539 5.95498 72.7438 
v 1.65655 6.75636 69.4669 
v 1.45797 6.6372 69.2546 
v 1.64402 3.29535 70.8254 
v 1.68249 3.65488 71.0459 
v 1.2546 3.62349 70.8785 
v 1.36677 3.75128 71.0762 
v 1.26386 3.17263 70.4275 
v 0.898387 5.80875 72.5895 
v 0.873724 5.54729 72.3945 
v 1.49001 8.32301 70.5615 
v 1.73148 8.53478 70.3319 
v 1.54729 8.48286 70.3875 
v 1.30012 5.64377 72.4481 
v 1.09481 5.54595 72.4962 
v 1.35661 5.45678 72.2449 
v 1.39467 6.23112 68.7753 
v 1.12917 5.33503 72.3003 
v 1.5078 4.76989 71.7808 
v 1.52412 4.38899 71.5406 
v 1.22168 4.70136 71.754 
v 1.19432 4.36871 71.4248 
v 1.19076 3.91287 71.0877 
v 0.941742 4.05299 70.7346 
v 1.71521 6.83148 69.6015 
v 2.05285 2.65295 70.6841 
v 2.12384 2.57686 70.4486 
v 2.16939 2.53873 70.012 
v 2.16146 2.52932 69.4988 
v 2.08131 2.56763 69.175 
v 0.896821 5.33019 72.192 
v 1.2146 4.94001 71.9524 
v 0.928299 5.18753 72.0413 
v 1.17348 5.15253 72.1284 
v 1.60055 2.53348 69.403 
v 1.76187 2.56599 69.1223 
v 1.73199 2.68216 70.7125 
v 1.56356 2.59018 70.432 
v 1.48357 2.56475 69.9266 
v 2.06629 6.12381 68.925 
v 2.07555 6.32785 68.9374 
v 2.21644 5.93888 68.9863 
v 2.28908 5.56241 70.9109 
v 2.00671 5.77665 71.036 
v 2.03997 5.19958 71.1623 
v 0.975689 8.30067 68.6054 
v 1.1113 8.361 68.5743 
v 0.978627 5.00923 71.8209 
v 1.09539 5.95498 72.7438 
v 1.62773 5.35815 71.2786 
v 1.81221 5.11485 71.3557 
v 1.62773 5.35815 71.2786 
v 1.44807 5.41609 71.3896 
v 1.63688 5.2559 71.4918 
v 1.74438 8.88803 70.599 
v 1.58722 8.78679 70.7613 
v 1.73022 8.84895 70.7573 
v 1.75134 8.83411 70.4441 
v 1.61833 8.77734 70.3976 
v 1.1481 8.4955 68.7021 
v 1.17945 8.5352 68.8778 
v 1.04924 8.48522 68.9561 
v 1.91572 6.41783 68.6067 
v 1.75292 6.51528 68.7225 
v 1.87432 6.25234 68.8433 
v 2.03823 6.10384 68.7465 
v 1.87432 6.25234 68.8433 
v 2.22852 4.74507 68.9492 
v 2.08399 4.231 68.9424 
v 2.10948 4.65752 68.8112 
v 2.63882 5.29934 70.1161 
v 2.59507 4.74554 69.976 
v 2.64906 5.31425 69.9397 
v 2.53595 5.13928 69.4755 
v 2.43783 4.52339 69.4019 
v 2.47555 5.02736 69.3248 
v 2.53016 5.14144 70.5733 
v 2.50801 4.65279 70.5073 
v 2.58983 5.24538 70.3857 
v 2.61578 5.27616 69.7576 
v 2.56836 5.83511 69.6625 
v 2.43247 6.29365 69.6023 
v 2.52516 6.30555 69.8599 
v 2.61891 5.86924 69.8942 
v 2.36292 6.59851 70.1658 
v 2.49733 6.35478 70.1162 
v 2.36157 6.74012 70.0771 
v 2.15192 6.84956 70.1731 
v 2.36728 6.59923 70.2612 
v 2.16973 6.82484 70.2605 
v 2.38395 6.73325 70.3506 
v 2.49538 6.34569 70.3275 
v 2.27189 6.50118 69.5276 
v 2.29566 6.67043 69.5848 
v 2.06137 6.05093 68.854 
v 2.15736 5.81221 68.8218 
v 2.02275 6.70683 69.4527 
v 2.24357 6.46546 69.4478 
v 2.21521 6.58092 69.3504 
v 2.52027 3.75611 70.0181 
v 2.44339 3.78446 70.4626 
v 2.35533 3.1294 70.4582 
v 2.4515 3.0806 70.0325 
v 1.51325 5.44002 71.6048 
v 1.17113 6.18793 72.5816 
v 1.26041 6.12728 72.3757 
v 1.12971 5.99902 71.9879 
v 1.25217 6.0837 72.6511 
v 1.32721 5.98624 72.5212 
v 1.32222 5.97482 72.1127 
v 1.12971 5.99902 71.9879 
v 1.18494 6.01729 72.719 
v 1.25253 5.85915 72.6343 
v 1.39006 5.81403 72.2989 
v 1.85598 8.65499 70.8104 
v 1.58334 5.24089 71.7719 
v 1.68251 4.98337 71.6447 
v 1.30012 5.64377 72.4481 
v 1.44495 5.64652 72.0802 
v 1.37311 5.80157 71.8858 
v 1.88032 8.63986 70.422 
v 1.92143 8.69724 70.6188 
v 1.99264 8.34841 70.8368 
v 1.39097 9.05752 69.4204 
v 1.2658 8.97618 69.4091 
v 1.39466 9.14605 69.579 
v 1.35661 5.45678 72.2449 
v 2.018 8.33552 70.4152 
v 2.07305 8.39288 70.627 
v 2.10681 7.99569 70.8543 
v 1.39878 9.13375 69.7615 
v 2.1357 7.98492 70.4113 
v 2.2007 8.02438 70.6325 
v 1.9996 7.49868 70.9636 
v 2.21133 7.5784 70.8715 
v 1.54968 8.95662 69.8269 
v 1.59727 8.96747 69.6024 
v 1.53981 8.86591 69.4069 
v 2.28811 7.17489 70.8671 
v 2.2398 7.57931 70.4061 
v 2.31186 7.60542 70.6394 
v 1.73376 8.6605 69.8806 
v 1.80131 8.67181 69.6445 
v 1.7263 8.5834 69.4336 
v 1.83548 4.62173 71.4224 
v 1.5078 4.76989 71.7808 
v 2.34227 6.70037 70.8509 
v 2.31296 7.19638 70.3923 
v 2.39276 7.1974 70.6328 
v 1.91459 8.2969 69.9308 
v 1.99284 8.29946 69.6897 
v 1.90058 8.24 69.4687 
v 2.34883 6.19536 70.8588 
v 2.45811 6.73037 70.612 
v 2.10487 7.79634 69.9867 
v 2.17962 7.78975 69.7367 
v 2.07268 7.74109 69.5075 
v 1.33478 8.37355 68.9391 
v 2.12756 4.6828 71.1312 
v 1.33824 8.31536 68.7167 
v 2.50717 6.2585 70.6049 
v 2.24147 7.30176 70.0239 
v 2.19205 7.23943 69.5502 
v 2.3101 7.27376 69.7785 
v 1.50845 8.13996 68.9918 
v 2.08715 4.12352 71.0502 
v 0.941742 4.05299 70.7346 
v 1.51507 8.07651 68.7559 
v 2.5185 5.72181 70.6112 
v 2.4132 6.72586 69.8236 
v 1.68287 7.86896 69.0545 
v 2.11303 3.16487 70.7238 
v 2.23623 3.70591 70.7592 
v 2.33604 4.30383 70.7911 
v 2.38643 4.8667 70.7921 
v 2.05285 2.65295 70.6841 
v 1.69834 7.79562 68.8167 
v 2.58239 5.81728 70.3549 
v 1.87906 7.50974 69.1464 
v 2.12384 2.57686 70.4486 
v 2.16939 2.53873 70.012 
v 1.89903 7.43361 68.9022 
v 1.7511 7.2951 68.7329 
v 2.61045 5.86112 70.1231 
v 2.04847 7.08927 69.2441 
v 2.16146 2.52932 69.4988 
v 2.36955 3.01418 69.5122 
v 2.07401 6.99997 69.0039 
v 1.92178 6.87191 68.8282 
v 2.11259 2.97167 69.1277 
v 2.08131 2.56763 69.175 
v 2.39722 3.62581 69.4906 
v 2.22056 6.49214 69.1102 
v 2.37675 6.21843 69.4083 
v 2.08927 3.49489 69.0801 
v 2.50726 5.73141 69.4398 
v 2.34547 6.06274 69.1819 
v 2.4435 5.5959 69.2458 
v 1.07215 7.34944 67.7978 
v 2.34307 5.45257 69.0717 
v 2.39025 4.90794 69.1873 
v 2.24091 5.31727 68.8821 
v 2.1112 5.21003 68.7075 
v 1.88689 5.6052 68.4818 
v 1.63371 5.62535 68.4604 
v 2.0735 5.66872 68.62 
v 1.85306 5.93036 68.3712 
v 1.79263 6.20121 68.2454 
v 2.0101 6.00382 68.5246 
v 1.37477 7.50217 68.0499 
v 1.26262 7.44215 68.1888 
v 1.38677 7.41977 67.8572 
v 1.48241 7.02168 67.8524 
v 1.71314 6.46674 68.1192 
v 1.92861 6.30095 68.3993 
v 1.56286 7.26474 68.1889 
v 1.58801 7.17529 67.9758 
v 1.61275 6.76133 67.9817 
v 1.83753 6.59021 68.2665 
v 1.8109 6.70408 68.4768 
v 1.66085 6.73372 68.6197 
v 1.69929 6.99663 68.331 
v 1.54298 7.01232 68.4632 
v 1.73107 6.89323 68.122 
v 1.41888 5.65532 71.7505 
v 1.2146 4.94001 71.9524 
v 1.46891 5.04251 71.9262 
v 1.41378 5.27273 72.0736 
v 1.50253 5.47115 71.9119 
v 2.06629 6.12381 68.925 
v 2.07555 6.32785 68.9374 
v 2.21644 5.93888 68.9863 
v 1.81341 6.82953 70.3414 
v 1.87501 7.33971 70.3421 
v 2.10978 7.21843 70.2849 
v 2.16973 6.82484 70.2605 
v 1.23238 8.16055 68.574 
v 1.07521 8.03315 68.5844 
v 0.975689 8.30067 68.6054 
v 1.1113 8.361 68.5743 
v 1.62773 5.35815 71.2786 
v 1.75134 8.83411 70.4441 
v 1.61833 8.77734 70.3976 
v 1.58722 8.78679 70.7613 
v 1.61833 8.77734 70.3976 
v 1.49984 8.66346 70.4023 
v 1.1481 8.4955 68.7021 
v 0.975689 8.30067 68.6054 
v 0.885148 8.19016 68.6951 
v 1.17945 8.5352 68.8778 
v 0.970086 7.94167 68.7192 
v 1.42818 7.01636 68.8585 
v 1.52587 6.47983 68.9942 
v 1.16985 7.58096 68.7497 
v 1.87432 6.25234 68.8433 
v 1.54714 6.34568 68.8636 
v 1.87432 6.25234 68.8433 
v 2.08399 4.231 68.9424 
v 2.10948 4.65752 68.8112 
v 2.43247 6.29365 69.6023 
v 2.36728 6.59923 70.2612 
v 2.16973 6.82484 70.2605 
v 2.38395 6.73325 70.3506 
v 2.49538 6.34569 70.3275 
v 2.27189 6.50118 69.5276 
v 2.05755 6.74871 69.5108 
v 2.29566 6.67043 69.5848 
v 1.85508 6.35382 68.8987 
v 2.02275 6.70683 69.4527 
v 1.36879 3.02225 69.2856 
v 1.30106 3.44968 69.1219 
v 1.35156 7.54537 68.6498 
v 1.55019 7.17101 68.721 
v 1.68958 6.83721 68.7951 
v 1.21905 7.76276 68.6108 
v 1.07521 8.03315 68.5844 
v 1.38219 7.91697 68.607 
v 1.21905 7.76276 68.6108 
v 1.12971 5.99902 71.9879 
v 0.88948 5.86525 71.9935 
v 0.84014 6.00906 72.1225 
v 1.49001 8.32301 70.5615 
v 1.73148 8.53478 70.3319 
v 1.54729 8.48286 70.3875 
v 1.2658 8.97618 69.4091 
v 1.17544 8.8383 69.4521 
v 1.88032 8.63986 70.422 
v 1.73148 8.53478 70.3319 
v 1.87775 8.18478 70.3113 
v 1.80514 7.84675 70.3521 
v 1.39097 9.05752 69.4204 
v 1.2658 8.97618 69.4091 
v 1.72274 6.76736 70.6327 
v 2.018 8.33552 70.4152 
v 1.87775 8.18478 70.3113 
v 2.1357 7.98492 70.4113 
v 1.96779 7.90536 70.3053 
v 2.05568 7.51062 70.2954 
v 1.96779 7.90536 70.3053 
v 1.53981 8.86591 69.4069 
v 1.39846 8.71956 69.3562 
v 1.71037 8.14877 69.391 
v 1.50612 8.14441 69.4612 
v 1.57839 8.42171 69.3664 
v 2.2398 7.57931 70.4061 
v 2.05568 7.51062 70.2954 
v 1.39846 8.71956 69.3562 
v 1.27778 8.561 69.4492 
v 1.7263 8.5834 69.4336 
v 1.57839 8.42171 69.3664 
v 2.31296 7.19638 70.3923 
v 2.10978 7.21843 70.2849 
v 1.99284 8.29946 69.6897 
v 1.90058 8.24 69.4687 
v 1.71037 8.14877 69.391 
v 1.87062 7.65095 69.4316 
v 1.7117 7.44727 69.5258 
v 2.07268 7.74109 69.5075 
v 1.87062 7.65095 69.4316 
v 1.33824 8.31536 68.7167 
v 2.19205 7.23943 69.5502 
v 1.96217 7.25892 69.4685 
v 1.96217 7.25892 69.4685 
v 1.51507 8.07651 68.7559 
v 1.71521 6.83148 69.6015 
v 1.69834 7.79562 68.8167 
v 1.55202 7.65195 68.659 
v 2.05755 6.74871 69.5108 
v 1.87906 7.50974 69.1464 
v 1.35156 7.54537 68.6498 
v 1.89903 7.43361 68.9022 
v 1.7511 7.2951 68.7329 
v 2.02275 6.70683 69.4527 
v 1.60055 2.53348 69.403 
v 1.92178 6.87191 68.8282 
v 1.55019 7.17101 68.721 
v 2.11259 2.97167 69.1277 
v 2.08131 2.56763 69.175 
v 1.7149 2.96229 69.0429 
v 2.22056 6.49214 69.1102 
v 1.68958 6.83721 68.7951 
v 2.37675 6.21843 69.4083 
v 1.76187 2.56599 69.1223 
v 1.7149 2.96229 69.0429 
v 2.08927 3.49489 69.0801 
v 1.67737 3.41796 68.9595 
v 1.25186 3.96314 68.9882 
v 1.67737 3.41796 68.9595 
v 1.63849 3.95883 68.84 
v 1.26303 4.62783 68.8718 
v 1.85508 6.35382 68.8987 
v 2.4435 5.5959 69.2458 
v 1.63849 3.95883 68.84 
v 1.60219 4.55454 68.6913 
v 1.33552 5.27454 68.7688 
v 1.07215 7.34944 67.7978 
v 1.01533 7.2789 67.889 
v 1.60219 4.55454 68.6913 
v 1.93424 4.60001 68.7229 
v 1.40287 5.76661 68.6455 
v 1.61645 5.16107 68.5732 
v 1.16751 7.4115 67.7446 
v 1.07215 7.34944 67.7978 
v 1.19386 7.53398 67.8291 
v 1.39485 6.35439 68.2491 
v 1.58107 6.19096 68.2042 
v 1.62507 5.93288 68.337 
v 1.61645 5.16107 68.5732 
v 1.90381 5.14908 68.5894 
v 1.63371 5.62535 68.4604 
v 2.1112 5.21003 68.7075 
v 1.88689 5.6052 68.4818 
v 1.63371 5.62535 68.4604 
v 1.09016 7.0821 67.9444 
v 2.0735 5.66872 68.62 
v 1.85306 5.93036 68.3712 
v 1.62507 5.93288 68.337 
v 1.26273 6.7569 68.0522 
v 1.30464 7.26445 67.7549 
v 1.17747 7.14532 67.8005 
v 1.58107 6.19096 68.2042 
v 1.79263 6.20121 68.2454 
v 2.0101 6.00382 68.5246 
v 1.38677 7.41977 67.8572 
v 1.48241 7.02168 67.8524 
v 1.33157 6.88943 67.8826 
v 1.42727 6.68619 67.9742 
v 1.52202 6.39653 68.1065 
v 1.71314 6.46674 68.1192 
v 1.52202 6.39653 68.1065 
v 1.58801 7.17529 67.9758 
v 1.61275 6.76133 67.9817 
v 1.42727 6.68619 67.9742 
v 1.33157 6.88943 67.8826 
v 2.06629 6.12381 68.925 
v 2.21644 5.93888 68.9863 
v 1.81341 6.82953 70.3414 
v 2.16973 6.82484 70.2605 
v 2.28908 5.56241 70.9109 
v 1.01309 5.15365 71.396 
v 1.08055 5.49044 71.5335 
v 1.20861 5.39381 71.35 
v 0.975689 8.30067 68.6054 
v 1.1113 8.361 68.5743 
v 1.7821 6.88983 70.146 
v 1.12791 5.17253 71.0503 
v 1.06114 6.12702 72.6716 
v 0.965978 6.00743 72.6918 
v 1.09539 5.95498 72.7438 
v 1.25217 6.0837 72.6511 
v 1.17113 6.18793 72.5816 
v 0.942212 6.16353 72.5258 
v 0.867165 6.0475 72.5747 
v 1.06186 6.23132 72.4755 
v 1.62773 5.35815 71.2786 
v 1.38065 5.39473 71.175 
v 1.62773 5.35815 71.2786 
v 1.83074 5.46317 71.1543 
v 1.58501 5.5684 70.9956 
v 1.44807 5.41609 71.3896 
v 1.63688 5.2559 71.4918 
v 1.44807 5.41609 71.3896 
v 1.74438 8.88803 70.599 
v 1.56646 8.8577 70.5715 
v 1.58722 8.78679 70.7613 
v 1.73022 8.84895 70.7573 
v 1.75134 8.83411 70.4441 
v 1.61833 8.77734 70.3976 
v 1.56646 8.8577 70.5715 
v 1.44926 8.66298 70.5498 
v 1.61833 8.77734 70.3976 
v 1.49984 8.66346 70.4023 
v 0.971373 8.46648 68.7607 
v 1.1481 8.4955 68.7021 
v 1.17945 8.5352 68.8778 
v 1.04924 8.48522 68.9561 
v 1.65655 6.75636 69.4669 
v 1.45797 6.6372 69.2546 
v 1.52587 6.47983 68.9942 
v 1.26262 7.44215 68.1888 
v 1.87432 6.25234 68.8433 
v 2.03823 6.10384 68.7465 
v 1.54714 6.34568 68.8636 
v 1.87432 6.25234 68.8433 
v 1.05881 7.43848 68.096 
v 1.41957 6.23388 68.9588 
v 1.32786 5.53038 70.5568 
v 2.36292 6.59851 70.1658 
v 2.16973 6.82484 70.2605 
v 2.38395 6.73325 70.3506 
v 2.06137 6.05093 68.854 
v 1.51325 5.44002 71.6048 
v 1.31791 5.55585 71.5241 
v 1.31791 5.55585 71.5241 
v 1.08442 6.16832 72.2648 
v 0.87845 6.08866 72.3098 
v 1.06186 6.23132 72.4755 
v 1.17113 6.18793 72.5816 
v 1.26041 6.12728 72.3757 
v 1.08442 6.16832 72.2648 
v 1.12971 5.99902 71.9879 
v 0.88948 5.86525 71.9935 
v 0.84014 6.00906 72.1225 
v 1.25217 6.0837 72.6511 
v 1.32222 5.97482 72.1127 
v 1.12971 5.99902 71.9879 
v 1.37311 5.80157 71.8858 
v 1.92143 8.69724 70.6188 
v 1.39097 9.05752 69.4204 
v 1.2658 8.97618 69.4091 
v 1.22648 9.09378 69.5924 
v 1.39466 9.14605 69.579 
v 1.39467 6.23112 68.7753 
v 2.15192 6.84956 70.1731 
v 1.39878 9.13375 69.7615 
v 1.27642 9.06462 69.8044 
v 1.54968 8.95662 69.8269 
v 1.59727 8.96747 69.6024 
v 1.5078 4.76989 71.7808 
v 1.99284 8.29946 69.6897 
v 2.00671 5.77665 71.036 
v 1.20286 8.30232 69.0793 
v 1.33478 8.37355 68.9391 
v 1.33824 8.31536 68.7167 
v 2.50717 6.2585 70.6049 
v 1.50845 8.13996 68.9918 
v 1.38121 8.06499 69.1528 
v 1.71521 6.83148 69.6015 
v 2.05755 6.74871 69.5108 
v 2.02275 6.70683 69.4527 
v 1.85508 6.35382 68.8987 
v 2.4435 5.5959 69.2458 
v 1.07215 7.34944 67.7978 
v 1.16751 7.4115 67.7446 
v 1.07215 7.34944 67.7978 
v 1.06586 7.48794 67.897 
v 1.19386 7.53398 67.8291 
v 1.22039 7.59694 67.9658 
v 1.12615 7.54422 68.0421 
v 1.37477 7.50217 68.0499 
v 1.26262 7.44215 68.1888 
v 1.38677 7.41977 67.8572 
v 1.56286 7.26474 68.1889 
v 1.4363 7.21422 68.3473 
v 1.69929 6.99663 68.331 
v 1.54298 7.01232 68.4632 
v 1.73107 6.89323 68.122 
v 1.41888 5.65532 71.7505 
v 1.23159 5.77752 71.7401 
v 0.96882 5.66469 71.7739 
v 1.23159 5.77752 71.7401 
v 1.81341 6.82953 70.3414 
v 1.87501 7.33971 70.3421 
v 1.01309 5.15365 71.396 
v 0.930192 5.24809 71.6525 
v 1.08055 5.49044 71.5335 
v 1.20861 5.39381 71.35 
v 1.06665 8.13647 69.0916 
v 1.1884 8.91626 69.8062 
v 1.27642 9.06462 69.8044 
v 1.22648 9.09378 69.5924 
v 1.1384 8.89196 69.6245 
v 1.7821 6.88983 70.146 
v 1.60199 6.49831 70.1961 
v 1.62408 6.44356 70.3878 
v 1.63651 6.88827 69.8653 
v 1.54648 6.53663 69.8764 
v 1.44389 6.24678 69.6904 
v 1.49767 6.13331 70.3118 
v 1.12791 5.17253 71.0503 
v 0.980233 4.62544 71.0687 
v 0.997417 4.83887 71.5573 
v 0.978627 5.00923 71.8209 
v 1.06114 6.12702 72.6716 
v 0.965978 6.00743 72.6918 
v 1.09539 5.95498 72.7438 
v 1.25217 6.0837 72.6511 
v 0.942212 6.16353 72.5258 
v 0.867165 6.0475 72.5747 
v 1.06186 6.23132 72.4755 
v 1.62773 5.35815 71.2786 
v 1.38065 5.39473 71.175 
v 1.62773 5.35815 71.2786 
v 1.58501 5.5684 70.9956 
v 1.56646 8.8577 70.5715 
v 1.44926 8.66298 70.5498 
v 1.47269 8.64467 70.7169 
v 1.58722 8.78679 70.7613 
v 1.61833 8.77734 70.3976 
v 1.49984 8.66346 70.4023 
v 0.975689 8.30067 68.6054 
v 0.885148 8.19016 68.6951 
v 0.880184 8.28327 68.8503 
v 0.971373 8.46648 68.7607 
v 1.04924 8.48522 68.9561 
v 0.952906 8.34281 69.0005 
v 0.970086 7.94167 68.7192 
v 0.954903 8.00373 68.9324 
v 1.51972 6.4753 69.5675 
v 1.65655 6.75636 69.4669 
v 1.45797 6.6372 69.2546 
v 1.42168 6.34605 69.3513 
v 1.35 7.12574 69.1322 
v 1.42818 7.01636 68.8585 
v 1.52587 6.47983 68.9942 
v 1.13027 7.6432 69.0139 
v 1.16985 7.58096 68.7497 
v 1.56926 7.2797 69.3344 
v 1.51702 6.62692 68.6648 
v 1.15076 7.2918 68.2288 
v 1.35142 7.01198 68.4286 
v 1.26262 7.44215 68.1888 
v 1.54714 6.34568 68.8636 
v 1.87432 6.25234 68.8433 
v 1.12615 7.54422 68.0421 
v 1.05881 7.43848 68.096 
v 1.41957 6.23388 68.9588 
v 1.3635 6.08873 69.0966 
v 1.41621 6.2794 69.097 
v 1.32786 5.53038 70.5568 
v 1.55178 5.96101 70.6483 
v 1.55288 6.52479 69.6909 
v 1.64402 3.29535 70.8254 
v 1.68249 3.65488 71.0459 
v 1.2546 3.62349 70.8785 
v 0.956546 3.64148 70.0961 
v 1.11611 3.24009 69.8261 
v 1.26386 3.17263 70.4275 
v 1.03356 3.62214 70.5291 
v 0.982153 3.60471 69.7961 
v 1.06506 3.54521 69.4938 
v 1.36879 3.02225 69.2856 
v 1.30106 3.44968 69.1219 
v 1.55019 7.17101 68.721 
v 0.87845 6.08866 72.3098 
v 1.12971 5.99902 71.9879 
v 0.88948 5.86525 71.9935 
v 0.84014 6.00906 72.1225 
v 0.800998 5.90062 72.4221 
v 0.898387 5.80875 72.5895 
v 0.787854 5.66154 72.1886 
v 1.54734 8.35938 70.7758 
v 0.873724 5.54729 72.3945 
v 1.49001 8.32301 70.5615 
v 1.73148 8.53478 70.3319 
v 1.54729 8.48286 70.3875 
v 1.71274 7.93464 70.8503 
v 1.2658 8.97618 69.4091 
v 1.17544 8.8383 69.4521 
v 1.62711 7.85275 70.5846 
v 1.80514 7.84675 70.3521 
v 1.39467 6.23112 68.7753 
v 1.71584 7.30357 70.6065 
v 1.72274 6.76736 70.6327 
v 1.837 7.31613 70.8861 
v 1.9996 7.49868 70.9636 
v 1.66048 6.34279 70.6682 
v 1.8527 6.73223 70.8809 
v 1.71037 8.14877 69.391 
v 1.50612 8.14441 69.4612 
v 1.83337 6.27819 70.9089 
v 1.27778 8.561 69.4492 
v 1.21654 8.55252 69.6771 
v 1.29498 8.65448 69.8895 
v 1.5078 4.76989 71.7808 
v 1.75037 7.52853 70.0713 
v 1.75229 5.88396 70.9442 
v 1.52163 8.23599 69.9815 
v 1.7117 7.44727 69.5258 
v 1.40564 8.10096 69.7356 
v 1.22168 4.70136 71.754 
v 1.19432 4.36871 71.4248 
v 2.00671 5.77665 71.036 
v 1.58838 7.46312 69.8069 
v 1.19076 3.91287 71.0877 
v 2.50717 6.2585 70.6049 
v 0.941742 4.05299 70.7346 
v 1.71521 6.83148 69.6015 
v 1.73199 2.68216 70.7125 
v 1.56356 2.59018 70.432 
v 1.01029 4.78163 70.4322 
v 0.897108 4.12776 70.2581 
v 1.48357 2.56475 69.9266 
v 1.04599 4.80915 69.8383 
v 0.941125 4.10836 69.8047 
v 2.02275 6.70683 69.4527 
v 1.60055 2.53348 69.403 
v 1.08688 4.74656 69.2942 
v 1.02604 4.04352 69.3609 
v 1.7149 2.96229 69.0429 
v 1.76187 2.56599 69.1223 
v 1.25186 3.96314 68.9882 
v 1.26232 5.53881 69.8327 
v 1.2304 5.45002 69.2246 
v 1.26303 4.62783 68.8718 
v 1.60219 4.55454 68.6913 
v 1.33552 5.27454 68.7688 
v 1.06586 7.48794 67.897 
v 1.07215 7.34944 67.7978 
v 1.01533 7.2789 67.889 
v 1.00991 7.3654 67.9931 
v 1.40287 5.76661 68.6455 
v 1.16751 7.4115 67.7446 
v 1.07215 7.34944 67.7978 
v 1.06586 7.48794 67.897 
v 1.42329 6.05022 68.4661 
v 1.39485 6.35439 68.2491 
v 1.58107 6.19096 68.2042 
v 1.62507 5.93288 68.337 
v 1.63371 5.62535 68.4604 
v 1.22039 7.59694 67.9658 
v 1.09016 7.0821 67.9444 
v 1.07025 7.15523 68.1188 
v 1.34245 6.50464 68.5081 
v 1.26273 6.7569 68.0522 
v 1.21652 6.85012 68.2901 
v 1.26262 7.44215 68.1888 
v 1.17747 7.14532 67.8005 
v 1.33157 6.88943 67.8826 
v 0.896821 5.33019 72.192 
v 0.928299 5.18753 72.0413 
v 0.842374 5.40271 71.9585 
v 0.96882 5.66469 71.7739 

vn -0.220472 0.0314961 -0.976378 
vn -0.220472 0.023622 -0.976378 
vn 0.661417 0.0393701 0.748031 
vn 0.456693 0.0787402 0.889764 
vn 0.401575 0.338583 0.850394 
vn 0.606299 0.188976 0.779528 
vn -0.92126 0.244094 -0.299213 
vn -0.141732 -0.0393701 -0.992126 
vn -0.125984 0.19685 0.968504 
vn -0.19685 0.267717 0.944882 
vn -0.141732 0.19685 0.968504 
vn -0.110236 0.212598 0.968504 
vn -0.858268 0.456693 0.228346 
vn -0.826772 0.496063 0.259843 
vn -0.874016 0.377953 0.299213 
vn -0.818898 -0.496063 0.275591 
vn -0.181102 0.637795 0.748031 
vn -0.417323 0.480315 0.771654 
vn -0.110236 0.362205 0.92126 
vn 0.102362 0.496063 0.866142 
vn 0.220472 0.614173 0.755906 
vn -0.425197 0.724409 0.543307 
vn -0.503937 0.590551 0.629921 
vn 0.267717 0.472441 0.84252 
vn 0.685039 0.322835 0.653543 
vn 0.267717 0.472441 0.84252 
vn 0.401575 0.338583 0.850394 
vn -0.0944882 0.795276 0.606299 
vn -0.299213 0.913386 0.275591 
vn -0.385827 0.905512 0.188976 
vn -0.818898 0.519685 0.228346 
vn -0.299213 0.913386 0.275591 
vn -0.283465 0.96063 -0.0551181 
vn -0.338583 0.944882 0.0393701 
vn -0.338583 0.944882 0.0393701 
vn -0.795276 0.582677 0.149606 
vn -0.889764 -0.267717 0.370079 
vn -0.748031 0.511811 0.417323 
vn -0.952756 -0.251969 -0.173228 
vn -0.905512 -0.433071 -0.015748 
vn -0.0708661 0.204724 0.976378 
vn -0.0787402 0.204724 0.976378 
vn -0.0866142 0.212598 0.976378 
vn -0.023622 0.417323 0.905512 
vn -0.0551181 0.448819 0.889764 
vn 0.023622 0.496063 0.866142 
vn -0.291339 0.448819 0.84252 
vn -0.19685 0.433071 0.88189 
vn -0.220472 0.433071 0.874016 
vn -0.314961 0.480315 0.818898 
vn -0.149606 0.456693 0.88189 
vn 0.708661 0.511811 0.480315 
vn 0.141732 0.527559 0.834646 
vn 0.708661 0.511811 0.480315 
vn -0.346457 0.590551 0.732283 
vn -0.354331 0.551181 0.755906 
vn 0.818898 0.496063 0.283465 
vn 0.80315 0.330709 0.496063 
vn 0.551181 0.448819 0.700787 
vn -0.220472 0.023622 -0.976378 
vn 0.968504 0.244094 -0.0393701 
vn 0.645669 0.582677 0.496063 
vn 0.866142 0.440945 0.244094 
vn 0.874016 -0.220472 0.425197 
vn -0.204724 -0.425197 0.88189 
vn 0.409449 -0.385827 0.826772 
vn 0.0944882 -0.551181 0.826772 
vn -0.574803 -0.559055 0.598425 
vn -0.299213 -0.637795 0.708661 
vn -0.0551181 0.188976 0.976378 
vn 0.220472 0.614173 0.755906 
vn -0.866142 -0.133858 0.480315 
vn -0.551181 0.0314961 0.834646 
vn -0.19685 0.15748 0.968504 
vn 0.102362 0.496063 0.866142 
vn 0.661417 -0.299213 0.692913 
vn -0.92126 -0.212598 0.322835 
vn -0.425197 -0.330709 0.84252 
vn -0.472441 -0.0314961 0.88189 
vn -0.472441 -0.0314961 0.88189 
vn -0.19685 0.15748 0.968504 
vn -0.00787402 0.330709 0.944882 
vn -0.850394 0.377953 -0.354331 
vn 0.905512 -0.15748 0.393701 
vn -0.354331 -0.535433 0.76378 
vn -0.472441 -0.0314961 0.88189 
vn 0.220472 0.220472 0.952756 
vn 0.92126 -0.141732 0.362205 
vn -0.716535 0.685039 0.0866142 
vn -0.913386 -0.141732 0.377953 
vn 0.551181 0.448819 0.700787 
vn 0.330709 0.173228 0.929134 
vn 0.322835 0.15748 0.929134 
vn -0.409449 -0.0314961 0.913386 
vn 0.330709 0.173228 0.929134 
vn -0.370079 0.913386 0.165354 
vn -0.826772 0.496063 0.259843 
vn 0.456693 -0.574803 0.677165 
vn -0.866142 0.0551181 0.496063 
vn -0.409449 -0.0314961 0.913386 
vn 0.362205 0.102362 0.929134 
vn 0.267717 0.456693 0.850394 
vn 0.133858 0.511811 0.850394 
vn -0.535433 0.125984 0.834646 
vn -0.283465 0.015748 0.96063 
vn -0.330709 -0.023622 0.944882 
vn -0.330709 -0.023622 0.944882 
vn 0.385827 0.0393701 0.92126 
vn 0.346457 0.385827 0.858268 
vn 0.354331 0.393701 0.850394 
vn -0.850394 -0.283465 0.448819 
vn 0.685039 -0.141732 0.716535 
vn 0.433071 -0.417323 0.795276 
vn 0.188976 -0.519685 0.834646 
vn -0.23622 0.023622 0.968504 
vn -0.149606 0.0708661 0.984252 
vn -0.251969 0.023622 0.968504 
vn -0.503937 0.314961 0.80315 
vn -0.283465 0.015748 0.96063 
vn -0.283465 0.015748 0.96063 
vn 0.354331 0.393701 0.850394 
vn -0.251969 0.102362 0.96063 
vn -0.283465 0.015748 0.96063 
vn 0.685039 0.0551181 0.724409 
vn 0.417323 0.322835 0.850394 
vn -0.283465 0.015748 0.96063 
vn 0.818898 0.370079 -0.440945 
vn -0.346457 -0.622047 0.700787 
vn -0.622047 -0.511811 0.598425 
vn 0.456693 0.0787402 0.889764 
vn -0.251969 0.102362 0.96063 
vn 0.661417 0.023622 0.755906 
vn 0.267717 0.456693 0.850394 
vn -0.251969 0.023622 0.968504 
vn 0.464567 0.23622 0.858268 
vn -0.19685 0.267717 0.944882 
vn 0.299213 0.645669 0.700787 
vn -0.0944882 -0.551181 0.826772 
vn 0.417323 -0.409449 0.811024 
vn 0.740157 -0.023622 0.669291 
vn -0.661417 -0.448819 0.598425 
vn 0.952756 0.0787402 0.291339 
vn -0.149606 0.0708661 0.984252 
vn 0.488189 0.188976 0.850394 
vn 0.511811 0.535433 0.669291 
vn -0.125984 0.19685 0.968504 
vn 0.661417 -0.244094 0.708661 
vn -0.937008 0.125984 -0.330709 
vn -0.0787402 0.204724 0.976378 
vn 0.566929 0.496063 0.653543 
vn 0.472441 -0.204724 0.858268 
vn 0.708661 -0.19685 0.677165 
vn 0.11811 -0.11811 0.984252 
vn 0.0787402 -0.0866142 0.992126 
vn -0.826772 -0.425197 0.377953 
vn -0.0708661 0.204724 0.976378 
vn 0.598425 0.440945 0.669291 
vn 0.645669 0.582677 0.496063 
vn -0.0551181 0.188976 0.976378 
vn 0.84252 0.385827 0.370079 
vn 0.905512 0.307087 -0.291339 
vn -0.314961 0.480315 0.818898 
vn 0.464567 0.653543 0.598425 
vn -0.102362 -0.629921 0.76378 
vn 0.606299 -0.299213 0.732283 
vn -0.307087 -0.708661 0.637795 
vn 0.433071 -0.535433 0.724409 
vn -0.818898 -0.496063 0.275591 
vn -0.110236 0.362205 0.92126 
vn -0.748031 0.511811 0.417323 
vn -0.850394 0.377953 0.362205 
vn -0.204724 -0.425197 0.88189 
vn 0.0944882 -0.551181 0.826772 
vn -0.574803 -0.559055 0.598425 
vn -0.299213 -0.637795 0.708661 
vn -0.795276 -0.464567 0.385827 
vn -0.866142 -0.133858 0.480315 
vn -0.92126 -0.212598 0.322835 
vn -0.96063 -0.19685 -0.188976 
vn -0.251969 0.0787402 -0.968504 
vn -0.291339 0 -0.96063 
vn 0.905512 -0.15748 0.393701 
vn -0.354331 -0.535433 0.76378 
vn 0.92126 -0.141732 0.362205 
vn -0.716535 0.685039 0.0866142 
vn 0.456693 -0.574803 0.677165 
vn 0.433071 -0.417323 0.795276 
vn 0.188976 -0.519685 0.834646 
vn -0.346457 -0.622047 0.700787 
vn -0.622047 -0.511811 0.598425 
vn -0.661417 -0.448819 0.598425 
vn -0.944882 -0.181102 0.259843 
vn -0.937008 0.125984 -0.330709 
vn 0.0787402 -0.0866142 0.992126 
vn 0.874016 -0.401575 0.275591 
vn 0.897638 -0.448819 0.0393701 
vn 0.92126 -0.322835 -0.212598 
vn 0.96063 -0.102362 -0.251969 
vn -0.307087 -0.692913 0.653543 
vn -0.102362 -0.629921 0.76378 
vn -0.322835 -0.716535 0.614173 
vn -0.307087 -0.708661 0.637795 
vn -0.874016 -0.456693 -0.165354 
vn -0.84252 -0.204724 -0.503937 
vn 0.11811 -0.11811 0.984252 
vn -0.826772 -0.425197 0.377953 
vn -0.88189 -0.472441 0 
vn 0.354331 0.0393701 -0.937008 
vn 0.488189 0.0393701 -0.874016 
vn 0.787402 0.204724 -0.582677 
vn 0.661417 0.0393701 0.748031 
vn 0.456693 0.0787402 0.889764 
vn 0.606299 0.188976 0.779528 
vn -0.141732 -0.0393701 -0.992126 
vn -0.181102 -0.102362 -0.976378 
vn -0.818898 -0.496063 0.275591 
vn -0.110236 0.362205 0.92126 
vn 0.267717 0.472441 0.84252 
vn 0.685039 0.322835 0.653543 
vn 0.267717 0.472441 0.84252 
vn 0.480315 0.795276 0.362205 
vn 0.795276 0.559055 0.244094 
vn -0.283465 0.913386 0.299213 
vn -0.299213 0.913386 0.275591 
vn -0.385827 0.905512 0.188976 
vn -0.165354 0.897638 -0.401575 
vn -0.204724 0.866142 -0.456693 
vn -0.283465 0.850394 -0.440945 
vn -0.283465 0.96063 -0.0551181 
vn -0.338583 0.944882 0.0393701 
vn 0.700787 0.527559 0.488189 
vn -0.023622 0.417323 0.905512 
vn 0.708661 0.511811 0.480315 
vn 0.897638 0.448819 0 
vn 0.708661 0.511811 0.480315 
vn 0.826772 -0.149606 -0.543307 
vn 0.598425 -0.212598 -0.771654 
vn 0.661417 -0.204724 -0.724409 
vn 0.992126 -0.0314961 0.11811 
vn 0.992126 -0.102362 -0.0393701 
vn 1 -0.023622 -0.0629921 
vn 0.952756 -0.0472441 -0.291339 
vn 0.92126 -0.125984 -0.377953 
vn 0.913386 -0.0708661 -0.401575 
vn 0.905512 -0.0393701 0.417323 
vn 0.944882 -0.0866142 0.307087 
vn 0.976378 -0.0393701 0.220472 
vn 0.976378 -0.0393701 -0.220472 
vn 0.952756 0.133858 -0.283465 
vn 0.866142 0.283465 -0.409449 
vn 0.96063 0.228346 -0.133858 
vn 0.984252 0.125984 -0.0944882 
vn 0.818898 0.496063 0.283465 
vn 0.952756 0.307087 0.0787402 
vn 0.80315 0.330709 0.496063 
vn 0.551181 0.448819 0.700787 
vn 0.708661 0.330709 -0.622047 
vn -0.220472 0.023622 -0.976378 
vn 0.779528 0.283465 -0.559055 
vn 0.968504 0.244094 -0.0393701 
vn 0.637795 0.370079 -0.677165 
vn 0.645669 0.188976 -0.740157 
vn 0.818898 0.496063 -0.291339 
vn 0.889764 0.188976 -0.425197 
vn 0.645669 0.582677 0.496063 
vn 0.645669 0.582677 0.496063 
vn 0.866142 0.440945 0.244094 
vn 0.992126 -0.0944882 -0.015748 
vn 0.929134 -0.11811 0.354331 
vn 0.874016 -0.220472 0.425197 
vn 0.96063 -0.259843 0.0393701 
vn 0.80315 0.574803 -0.15748 
vn 0.0551181 0.795276 0.606299 
vn 0.385827 0.905512 -0.173228 
vn -0.330709 0.566929 -0.755906 
vn 0.220472 0.614173 0.755906 
vn 0.80315 0.582677 0.11811 
vn 0.401575 0.818898 -0.417323 
vn -0.330709 0.566929 -0.755906 
vn 0.102362 0.496063 0.866142 
vn 0.661417 -0.299213 0.692913 
vn 0.92126 0.385827 -0.015748 
vn -0.00787402 0.330709 0.944882 
vn 0.92126 0.173228 0.346457 
vn 0.834646 0.0551181 0.543307 
vn 0.905512 -0.15748 0.393701 
vn 0.937008 0.354331 -0.0472441 
vn 0.929134 0.354331 -0.0629921 
vn 0.259843 0.330709 -0.905512 
vn 0.834646 0.543307 0.0393701 
vn 0.220472 0.220472 0.952756 
vn -0.370079 0.771654 -0.519685 
vn -0.850394 0.377953 -0.354331 
vn -0.307087 0.929134 -0.204724 
vn 0.92126 -0.141732 0.362205 
vn 0.409449 0.220472 -0.889764 
vn 0.826772 0.409449 0.393701 
vn 0.322835 0.15748 0.929134 
vn -0.370079 0.913386 0.165354 
vn 0.464567 0.165354 -0.866142 
vn 0.866142 0.299213 0.401575 
vn -0.409449 -0.0314961 0.913386 
vn 0.362205 0.102362 0.929134 
vn 0.133858 0.511811 0.850394 
vn 0.76378 0.622047 -0.15748 
vn 0.669291 0.559055 -0.488189 
vn 0.385827 0.0393701 0.92126 
vn 0.480315 0.125984 -0.866142 
vn 0.889764 0.204724 0.409449 
vn 0.346457 0.385827 0.858268 
vn 0.755906 0.456693 -0.464567 
vn 0.755906 0.456693 -0.464567 
vn 0.685039 -0.141732 0.716535 
vn 0.433071 -0.417323 0.795276 
vn 0.685039 0.0551181 0.724409 
vn 0.472441 0.125984 -0.874016 
vn 0.984252 0.15748 0.0629921 
vn 0.417323 0.322835 0.850394 
vn 0.818898 0.370079 -0.440945 
vn 0.818898 0.370079 -0.440945 
vn 0.661417 0.023622 0.755906 
vn 0.984252 0.149606 0.11811 
vn 0.464567 0.23622 0.858268 
vn 0.850394 0.267717 -0.456693 
vn 0.850394 0.267717 -0.448819 
vn 0.299213 0.645669 0.700787 
vn 0.740157 -0.023622 0.669291 
vn 0.700787 0.519685 -0.496063 
vn 0.952756 0.0787402 0.291339 
vn 0.488189 0.188976 0.850394 
vn 0.866142 0.173228 -0.464567 
vn 0.968504 0.204724 -0.133858 
vn 0.511811 0.535433 0.669291 
vn 0.661417 -0.244094 0.708661 
vn -0.944882 -0.181102 0.259843 
vn 0.574803 0.275591 -0.771654 
vn 0.897638 0 0.433071 
vn 0.96063 0.23622 -0.15748 
vn 0.566929 0.496063 0.653543 
vn 0.472441 -0.204724 0.858268 
vn 0.708661 -0.19685 0.677165 
vn 0.834646 -0.11811 0.535433 
vn 0.834646 -0.0314961 0.551181 
vn 0.0787402 -0.0866142 0.992126 
vn 0.598425 0.228346 -0.771654 
vn 0.984252 0.0708661 0.173228 
vn 0.598425 0.440945 0.669291 
vn 0.874016 -0.401575 0.275591 
vn 0.897638 -0.448819 0.0393701 
vn 0.653543 0.188976 -0.732283 
vn 0.677165 0.15748 -0.724409 
vn 0.984252 0.125984 0.0866142 
vn 0.84252 0.385827 0.370079 
vn 0.92126 -0.322835 -0.212598 
vn 0.92126 -0.220472 -0.322835 
vn 0.889764 0.228346 -0.393701 
vn 0.716535 0.0944882 -0.692913 
vn 0.88189 -0.244094 -0.401575 
vn 0.96063 -0.102362 -0.251969 
vn 0.913386 -0.0787402 -0.393701 
vn 0.88189 0.19685 -0.433071 
vn 0.905512 0.307087 -0.291339 
vn 0.818898 -0.0393701 -0.574803 
vn 0.937008 0.110236 -0.330709 
vn 0.866142 0.173228 -0.472441 
vn 0.889764 0.0629921 -0.448819 
vn -0.779528 0.338583 -0.527559 
vn 0.866142 0.0393701 -0.503937 
vn 0.874016 -0.102362 -0.480315 
vn 0.850394 -0.015748 -0.519685 
vn 0.692913 -0.11811 -0.716535 
vn 0.362205 -0.204724 -0.905512 
vn -0.669291 -0.19685 -0.716535 
vn 0.779528 -0.023622 -0.629921 
vn 0.110236 -0.362205 -0.92126 
vn 0.181102 -0.393701 -0.897638 
vn 0.866142 0.0629921 -0.496063 
vn 0.251969 0.771654 0.582677 
vn -0.314961 0.480315 0.818898 
vn 0.645669 0.488189 -0.582677 
vn 0.0393701 -0.307087 -0.952756 
vn 0.19685 -0.370079 -0.913386 
vn 0.755906 -0.102362 -0.645669 
vn 0.464567 0.653543 0.598425 
vn 0.637795 0.165354 -0.755906 
vn 0.173228 -0.354331 -0.92126 
vn 0.779528 -0.0393701 -0.629921 
vn 0.653543 0.511811 0.551181 
vn -0.0551181 0.448819 0.889764 
vn 0.559055 0.566929 0.606299 
vn -0.149606 0.456693 0.88189 
vn 0.76378 0 -0.645669 
vn 0.472441 0.677165 -0.566929 
vn -0.102362 -0.629921 0.76378 
vn 0.606299 -0.299213 0.732283 
vn 0.433071 -0.535433 0.724409 
vn 0.913386 -0.0866142 0.401575 
vn 0.354331 0.0393701 -0.937008 
vn 0.488189 0.0393701 -0.874016 
vn 0.787402 0.204724 -0.582677 
vn -0.220472 0.0314961 -0.976378 
vn -0.220472 0.0314961 -0.976378 
vn -0.220472 0.0314961 -0.976378 
vn -0.220472 0.023622 -0.976378 
vn -0.0551181 -0.0629921 -1 
vn -0.102362 0.0393701 -0.992126 
vn -0.141732 -0.0393701 -0.992126 
vn -0.181102 -0.102362 -0.976378 
vn 0.267717 0.472441 0.84252 
vn -0.165354 0.897638 -0.401575 
vn -0.204724 0.866142 -0.456693 
vn -0.299213 0.913386 0.275591 
vn -0.204724 0.866142 -0.456693 
vn -0.677165 0.700787 -0.228346 
vn -0.283465 0.850394 -0.440945 
vn -0.141732 -0.0393701 -0.992126 
vn -0.84252 0.448819 -0.299213 
vn -0.283465 0.96063 -0.0551181 
vn -0.92126 -0.393701 0.0314961 
vn -0.937008 -0.322835 -0.125984 
vn -0.968504 -0.204724 -0.125984 
vn -0.897638 -0.440945 -0.0393701 
vn 0.708661 0.511811 0.480315 
vn 0.141732 0.527559 0.834646 
vn 0.708661 0.511811 0.480315 
vn 0.598425 -0.212598 -0.771654 
vn 0.661417 -0.204724 -0.724409 
vn 0.866142 0.283465 -0.409449 
vn 0.708661 0.330709 -0.622047 
vn -0.220472 0.023622 -0.976378 
vn 0.779528 0.283465 -0.559055 
vn 0.968504 0.244094 -0.0393701 
vn 0.637795 0.370079 -0.677165 
vn 0.322835 0.0472441 -0.944882 
vn 0.645669 0.188976 -0.740157 
vn 0.165354 -0.102362 -0.984252 
vn 0.645669 0.582677 0.496063 
vn -0.866142 -0.425197 -0.267717 
vn -0.834646 -0.307087 -0.456693 
vn -0.496063 -0.417323 -0.755906 
vn -0.456693 -0.370079 -0.811024 
vn -0.448819 -0.370079 -0.811024 
vn -0.559055 -0.401575 -0.724409 
vn -0.102362 0.0393701 -0.992126 
vn 0.0393701 -0.0866142 -0.992126 
vn -0.559055 -0.401575 -0.724409 
vn -0.330709 0.566929 -0.755906 
vn -0.330709 0.566929 -0.755906 
vn -0.330709 0.566929 -0.755906 
vn -0.96063 -0.19685 -0.188976 
vn -0.251969 0.0787402 -0.968504 
vn -0.291339 0 -0.96063 
vn -0.850394 0.377953 -0.354331 
vn -0.834646 0.448819 -0.322835 
vn 0.259843 0.330709 -0.905512 
vn -0.251969 0.0787402 -0.968504 
vn -0.275591 -0.0551181 -0.96063 
vn -0.543307 -0.102362 -0.834646 
vn -0.370079 0.771654 -0.519685 
vn -0.850394 0.377953 -0.354331 
vn -0.976378 0.125984 0.165354 
vn 0.409449 0.220472 -0.889764 
vn -0.275591 -0.0551181 -0.96063 
vn 0.464567 0.165354 -0.866142 
vn 0.464567 0.165354 -0.866142 
vn -0.244094 -0.015748 -0.968504 
vn 0.464567 0.165354 -0.866142 
vn 0.669291 0.559055 -0.488189 
vn 0.0944882 0.244094 -0.968504 
vn -0.314961 -0.23622 -0.92126 
vn -0.322835 -0.204724 -0.92126 
vn -0.346457 -0.228346 -0.913386 
vn 0.480315 0.125984 -0.866142 
vn -0.244094 -0.015748 -0.968504 
vn 0.0944882 0.244094 -0.968504 
vn -0.401575 -0.212598 -0.889764 
vn 0.755906 0.456693 -0.464567 
vn -0.346457 -0.228346 -0.913386 
vn 0.472441 0.125984 -0.874016 
vn -0.220472 0.0314961 -0.976378 
vn 0.818898 0.370079 -0.440945 
vn 0.818898 0.370079 -0.440945 
vn -0.314961 -0.23622 -0.92126 
vn -0.322835 -0.181102 -0.929134 
vn -0.322835 -0.181102 -0.929134 
vn 0.850394 0.267717 -0.448819 
vn -0.322835 -0.181102 -0.929134 
vn 0.700787 0.519685 -0.496063 
vn 0.866142 0.173228 -0.464567 
vn 0.338583 0 -0.937008 
vn 0.338583 0 -0.937008 
vn 0.574803 0.275591 -0.771654 
vn -0.937008 0.125984 -0.330709 
vn 0.598425 0.228346 -0.771654 
vn 0.598425 0.23622 -0.76378 
vn 0.322835 0.0472441 -0.944882 
vn 0.598425 0.440945 0.669291 
vn -0.496063 -0.417323 -0.755906 
vn 0.653543 0.188976 -0.732283 
vn 0.677165 0.15748 -0.724409 
vn 0.645669 0.582677 0.496063 
vn -0.874016 -0.456693 -0.165354 
vn 0.716535 0.0944882 -0.692913 
vn -0.456693 -0.370079 -0.811024 
vn 0.88189 -0.244094 -0.401575 
vn 0.96063 -0.102362 -0.251969 
vn -0.677165 -0.354331 -0.637795 
vn 0.88189 0.19685 -0.433071 
vn -0.448819 -0.370079 -0.811024 
vn 0.905512 0.307087 -0.291339 
vn -0.84252 -0.204724 -0.503937 
vn -0.677165 -0.354331 -0.637795 
vn 0.818898 -0.0393701 -0.574803 
vn -0.496063 -0.291339 -0.818898 
vn -0.858268 -0.204724 -0.472441 
vn -0.496063 -0.291339 -0.818898 
vn -0.370079 -0.251969 -0.897638 
vn -0.897638 0 -0.440945 
vn 0.165354 -0.102362 -0.984252 
vn 0.889764 0.0629921 -0.448819 
vn -0.370079 -0.251969 -0.897638 
vn -0.440945 -0.181102 -0.88189 
vn -0.952756 0.0944882 -0.291339 
vn -0.779528 0.338583 -0.527559 
vn -0.92126 0.23622 -0.314961 
vn -0.440945 -0.181102 -0.88189 
vn 0.291339 -0.299213 -0.905512 
vn -0.984252 0.0708661 -0.165354 
vn -0.551181 -0.0944882 -0.826772 
vn -0.590551 0.488189 -0.637795 
vn -0.779528 0.338583 -0.527559 
vn -0.511811 0.700787 -0.488189 
vn -0.590551 -0.503937 -0.629921 
vn -0.614173 -0.472441 -0.629921 
vn -0.661417 -0.377953 -0.645669 
vn -0.551181 -0.0944882 -0.826772 
vn 0.291339 -0.204724 -0.937008 
vn -0.669291 -0.19685 -0.716535 
vn 0.692913 -0.11811 -0.716535 
vn 0.362205 -0.204724 -0.905512 
vn -0.669291 -0.19685 -0.716535 
vn -0.913386 -0.393701 0.0629921 
vn 0.779528 -0.023622 -0.629921 
vn 0.110236 -0.362205 -0.92126 
vn -0.661417 -0.377953 -0.645669 
vn -0.92126 -0.385827 -0.015748 
vn -0.244094 -0.19685 -0.952756 
vn -0.0866142 -0.251969 -0.968504 
vn -0.614173 -0.472441 -0.629921 
vn 0.181102 -0.393701 -0.897638 
vn 0.866142 0.0629921 -0.496063 
vn 0.645669 0.488189 -0.582677 
vn 0.0393701 -0.307087 -0.952756 
vn 0.110236 -0.330709 -0.937008 
vn -0.543307 -0.503937 -0.669291 
vn -0.574803 -0.488189 -0.653543 
vn 0.19685 -0.370079 -0.913386 
vn -0.574803 -0.488189 -0.653543 
vn 0.637795 0.165354 -0.755906 
vn 0.173228 -0.354331 -0.92126 
vn -0.543307 -0.503937 -0.669291 
vn 0.110236 -0.330709 -0.937008 
vn 0.354331 0.0393701 -0.937008 
vn 0.787402 0.204724 -0.582677 
vn -0.220472 0.0314961 -0.976378 
vn -0.220472 0.023622 -0.976378 
vn 0.661417 0.0393701 0.748031 
vn -0.92126 0.244094 -0.299213 
vn -0.755906 0.370079 -0.543307 
vn -0.653543 0.590551 -0.472441 
vn -0.141732 -0.0393701 -0.992126 
vn -0.181102 -0.102362 -0.976378 
vn -0.874016 0.377953 0.299213 
vn -0.850394 0.503937 -0.11811 
vn -0.181102 0.637795 0.748031 
vn -0.417323 0.480315 0.771654 
vn -0.110236 0.362205 0.92126 
vn 0.220472 0.614173 0.755906 
vn 0.0551181 0.795276 0.606299 
vn -0.425197 0.724409 0.543307 
vn -0.503937 0.590551 0.629921 
vn -0.212598 0.866142 0.456693 
vn 0.267717 0.472441 0.84252 
vn -0.456693 0.771654 -0.448819 
vn 0.267717 0.472441 0.84252 
vn 0.401575 0.338583 0.850394 
vn -0.0944882 0.795276 0.606299 
vn 0.480315 0.795276 0.362205 
vn 0.795276 0.559055 0.244094 
vn 0.480315 0.795276 0.362205 
vn -0.283465 0.913386 0.299213 
vn -0.212598 0.905512 0.362205 
vn -0.299213 0.913386 0.275591 
vn -0.385827 0.905512 0.188976 
vn -0.165354 0.897638 -0.401575 
vn -0.204724 0.866142 -0.456693 
vn -0.212598 0.905512 0.362205 
vn -0.850394 0.496063 0.173228 
vn -0.204724 0.866142 -0.456693 
vn -0.677165 0.700787 -0.228346 
vn -0.370079 0.661417 -0.653543 
vn -0.283465 0.850394 -0.440945 
vn -0.283465 0.96063 -0.0551181 
vn -0.338583 0.944882 0.0393701 
vn -0.748031 0.511811 0.417323 
vn -0.850394 0.377953 0.362205 
vn -0.968504 -0.204724 -0.125984 
vn -0.314961 0.480315 0.818898 
vn 0.708661 0.511811 0.480315 
vn 0.897638 0.448819 0 
vn 0.141732 0.527559 0.834646 
vn 0.708661 0.511811 0.480315 
vn -0.354331 0.551181 0.755906 
vn -0.874016 0.480315 -0.0708661 
vn -0.88189 0.433071 0.181102 
vn 0.818898 0.496063 0.283465 
vn -0.220472 0.023622 -0.976378 
vn 0.779528 0.283465 -0.559055 
vn 0.818898 0.496063 -0.291339 
vn 0.80315 0.574803 -0.15748 
vn 0.566929 0.779528 -0.259843 
vn 0.566929 0.779528 -0.259843 
vn -0.401575 0.866142 -0.299213 
vn -0.700787 0.692913 -0.173228 
vn -0.212598 0.866142 0.456693 
vn 0.0551181 0.795276 0.606299 
vn 0.385827 0.905512 -0.173228 
vn -0.401575 0.866142 -0.299213 
vn -0.330709 0.566929 -0.755906 
vn -0.330709 0.566929 -0.755906 
vn -0.330709 0.566929 -0.755906 
vn 0.220472 0.614173 0.755906 
vn 0.401575 0.818898 -0.417323 
vn -0.330709 0.566929 -0.755906 
vn 0.929134 0.354331 -0.0629921 
vn 0.834646 0.543307 0.0393701 
vn -0.370079 0.771654 -0.519685 
vn -0.850394 0.377953 -0.354331 
vn -0.866142 0.448819 0.220472 
vn -0.307087 0.929134 -0.204724 
vn -0.716535 0.685039 0.0866142 
vn 0.551181 0.448819 0.700787 
vn -0.370079 0.913386 0.165354 
vn -0.826772 0.496063 0.259843 
vn 0.133858 0.511811 0.850394 
vn 0.76378 0.622047 -0.15748 
vn 0.433071 -0.417323 0.795276 
vn 0.818898 0.370079 -0.440945 
vn 0.456693 0.0787402 0.889764 
vn -0.19685 0.267717 0.944882 
vn 0.299213 0.645669 0.700787 
vn 0.700787 0.519685 -0.496063 
vn 0.952756 0.0787402 0.291339 
vn 0.511811 0.535433 0.669291 
vn -0.125984 0.19685 0.968504 
vn -0.937008 0.125984 -0.330709 
vn 0.322835 0.0472441 -0.944882 
vn 0.645669 0.582677 0.496063 
vn 0.165354 -0.102362 -0.984252 
vn 0.889764 0.0629921 -0.448819 
vn -0.779528 0.338583 -0.527559 
vn -0.590551 0.488189 -0.637795 
vn -0.779528 0.338583 -0.527559 
vn -0.771654 0.574803 -0.283465 
vn -0.511811 0.700787 -0.488189 
vn -0.511811 0.84252 -0.188976 
vn -0.346457 0.590551 0.732283 
vn 0.251969 0.771654 0.582677 
vn -0.314961 0.480315 0.818898 
vn 0.645669 0.488189 -0.582677 
vn 0.464567 0.653543 0.598425 
vn -0.220472 0.433071 0.874016 
vn 0.559055 0.566929 0.606299 
vn -0.149606 0.456693 0.88189 
vn 0.76378 0 -0.645669 
vn 0.472441 0.677165 -0.566929 
vn 0.433071 0.716535 -0.543307 
vn -0.889764 0.125984 -0.433071 
vn 0.433071 0.716535 -0.543307 
vn -0.220472 0.0314961 -0.976378 
vn -0.220472 0.0314961 -0.976378 
vn -0.92126 0.244094 -0.299213 
vn -0.96063 0.0314961 -0.283465 
vn -0.755906 0.370079 -0.543307 
vn -0.653543 0.590551 -0.472441 
vn -0.141732 0.19685 0.968504 
vn -0.858268 0.456693 0.228346 
vn -0.826772 0.496063 0.259843 
vn -0.866142 0.448819 0.220472 
vn -0.889764 0.417323 0.188976 
vn -0.874016 0.377953 0.299213 
vn -0.897638 0.385827 0.212598 
vn -0.929134 0.338583 0.165354 
vn -0.984252 0.11811 0.133858 
vn -0.944882 0.307087 0.11811 
vn -0.952756 0.283465 0.0944882 
vn -0.929134 0.307087 0.19685 
vn -0.850394 0.503937 -0.11811 
vn -0.992126 -0.0314961 0.11811 
vn -0.937008 -0.307087 0.181102 
vn -0.818898 -0.496063 0.275591 
vn -0.181102 0.637795 0.748031 
vn -0.417323 0.480315 0.771654 
vn -0.110236 0.362205 0.92126 
vn 0.220472 0.614173 0.755906 
vn -0.425197 0.724409 0.543307 
vn -0.503937 0.590551 0.629921 
vn -0.212598 0.866142 0.456693 
vn 0.267717 0.472441 0.84252 
vn -0.456693 0.771654 -0.448819 
vn 0.267717 0.472441 0.84252 
vn -0.0944882 0.795276 0.606299 
vn -0.212598 0.905512 0.362205 
vn -0.850394 0.496063 0.173228 
vn -0.818898 0.519685 0.228346 
vn -0.299213 0.913386 0.275591 
vn -0.204724 0.866142 -0.456693 
vn -0.677165 0.700787 -0.228346 
vn -0.141732 -0.0393701 -0.992126 
vn -0.84252 0.448819 -0.299213 
vn -0.88189 0.354331 -0.314961 
vn -0.370079 0.661417 -0.653543 
vn -0.338583 0.944882 0.0393701 
vn -0.795276 0.582677 0.149606 
vn -0.92126 -0.393701 0.0314961 
vn -0.889764 -0.267717 0.370079 
vn -0.897638 0.401575 0.188976 
vn -0.748031 0.511811 0.417323 
vn -0.850394 0.377953 0.362205 
vn -0.976378 0.188976 0.11811 
vn -0.952756 -0.251969 -0.173228 
vn -0.937008 -0.322835 -0.125984 
vn -0.968504 -0.204724 -0.125984 
vn -0.905512 -0.433071 -0.015748 
vn -0.897638 -0.440945 -0.0393701 
vn -0.0866142 0.212598 0.976378 
vn 0.023622 0.496063 0.866142 
vn -0.291339 0.448819 0.84252 
vn -0.19685 0.433071 0.88189 
vn -0.314961 0.480315 0.818898 
vn 0.141732 0.527559 0.834646 
vn 0.708661 0.511811 0.480315 
vn -0.346457 0.590551 0.732283 
vn -0.354331 0.551181 0.755906 
vn -0.874016 0.480315 -0.0708661 
vn -0.976378 0.19685 -0.0393701 
vn -0.952756 0.283465 -0.133858 
vn -0.88189 0.433071 0.181102 
vn -0.84252 0.314961 0.440945 
vn -0.929134 0.377953 -0.0314961 
vn -0.204724 -0.425197 0.88189 
vn 0.0944882 -0.551181 0.826772 
vn -0.574803 -0.559055 0.598425 
vn -0.96063 -0.267717 0.0551181 
vn -0.897638 -0.433071 -0.0472441 
vn -0.795276 -0.464567 0.385827 
vn -0.874016 -0.385827 0.291339 
vn -0.968504 -0.220472 -0.125984 
vn -0.905512 -0.267717 -0.322835 
vn -0.866142 -0.425197 -0.267717 
vn -0.834646 -0.307087 -0.456693 
vn -0.456693 -0.370079 -0.811024 
vn -0.700787 0.692913 -0.173228 
vn -0.330709 0.566929 -0.755906 
vn -0.330709 0.566929 -0.755906 
vn -0.330709 0.566929 -0.755906 
vn -0.976378 0.0708661 0.19685 
vn -0.866142 -0.133858 0.480315 
vn -1 -0.0787402 -0.0393701 
vn -0.551181 0.0314961 0.834646 
vn -0.92126 -0.212598 0.322835 
vn -0.96063 -0.19685 -0.188976 
vn -0.251969 0.0787402 -0.968504 
vn -0.291339 0 -0.96063 
vn -0.472441 -0.0314961 0.88189 
vn -0.850394 0.377953 -0.354331 
vn -0.834646 0.448819 -0.322835 
vn -0.897638 -0.267717 0.346457 
vn -0.543307 -0.102362 -0.834646 
vn -0.716535 0.685039 0.0866142 
vn -0.897638 0.0551181 -0.433071 
vn -0.976378 0.125984 0.165354 
vn -0.913386 -0.141732 0.377953 
vn -0.409449 -0.0314961 0.913386 
vn -0.88189 0.188976 0.425197 
vn -0.866142 0.0551181 0.496063 
vn -0.314961 -0.23622 -0.92126 
vn -0.322835 -0.204724 -0.92126 
vn -0.535433 0.125984 0.834646 
vn -0.401575 -0.212598 -0.889764 
vn -0.937008 -0.338583 0.102362 
vn -0.850394 -0.283465 0.448819 
vn 0.433071 -0.417323 0.795276 
vn -0.23622 0.023622 0.968504 
vn -0.503937 0.314961 0.80315 
vn -0.283465 0.015748 0.96063 
vn -0.322835 -0.181102 -0.929134 
vn -0.80315 -0.267717 0.527559 
vn -0.346457 -0.622047 0.700787 
vn -0.622047 -0.511811 0.598425 
vn 0.456693 0.0787402 0.889764 
vn -0.818898 -0.173228 0.543307 
vn -0.661417 -0.448819 0.598425 
vn 0.952756 0.0787402 0.291339 
vn -0.944882 -0.181102 0.259843 
vn -0.937008 0.125984 -0.330709 
vn 0.11811 -0.11811 0.984252 
vn -0.826772 -0.425197 0.377953 
vn -0.968504 0.244094 0 
vn -1 0.00787402 0.015748 
vn -0.88189 -0.472441 0 
vn -0.976378 0.212598 -0.0629921 
vn -0.992126 0.023622 -0.125984 
vn 0.645669 0.582677 0.496063 
vn -0.874016 -0.456693 -0.165354 
vn -0.96063 0.110236 -0.244094 
vn -0.937008 -0.0708661 -0.346457 
vn -0.677165 -0.354331 -0.637795 
vn -0.84252 -0.204724 -0.503937 
vn -0.858268 -0.204724 -0.472441 
vn -0.952756 0.291339 0.0472441 
vn -0.976378 0.19685 -0.11811 
vn -0.897638 0 -0.440945 
vn -0.440945 -0.181102 -0.88189 
vn -0.952756 0.0944882 -0.291339 
vn -0.771654 0.574803 -0.283465 
vn -0.779528 0.338583 -0.527559 
vn -0.92126 0.23622 -0.314961 
vn -0.937008 0.23622 -0.244094 
vn -0.984252 0.0708661 -0.165354 
vn -0.590551 0.488189 -0.637795 
vn -0.779528 0.338583 -0.527559 
vn -0.771654 0.574803 -0.283465 
vn -0.629921 -0.464567 -0.629921 
vn -0.590551 -0.503937 -0.629921 
vn -0.614173 -0.472441 -0.629921 
vn -0.661417 -0.377953 -0.645669 
vn -0.669291 -0.19685 -0.716535 
vn -0.511811 0.84252 -0.188976 
vn -0.913386 -0.393701 0.0629921 
vn -0.92126 -0.204724 0.338583 
vn -0.984252 -0.173228 -0.0472441 
vn -0.92126 -0.385827 -0.015748 
vn -0.92126 -0.377953 -0.015748 
vn -0.314961 0.480315 0.818898 
vn -0.0866142 -0.251969 -0.968504 
vn 0.110236 -0.330709 -0.937008 
vn -0.307087 -0.692913 0.653543 
vn -0.322835 -0.716535 0.614173 
vn -0.984252 -0.110236 -0.149606 
vn -0.889764 0.125984 -0.433071 

vt 17.9881 -39.124 
vt 17.9436 -39.1234 
vt 17.9287 -38.9656 
vt 17.964 -38.9924 
vt 17.986 -38.9532 
vt 17.9598 -38.9202 
vt 18.0882 -38.9145 
vt 18.0929 -39.3079 
vt 18.0422 -39.2784 
vt 18.0645 -39.3081 
vt 18.0815 -39.2873 
vt 18.0522 -39.2483 
vt 18.0663 -39.3848 
vt 18.0553 -39.4034 
vt 17.992 -39.1315 
vt 18.0925 -38.8964 
vt 18.0822 -39.0362 
vt 18.0941 -39.0212 
vt 18.0779 -39.0147 
vt 18.0667 -39.0224 
vt 18.0583 -39.0308 
vt 18.097 -39.0407 
vt 18.1064 -39.0262 
vt 18.0113 -38.9401 
vt 17.9883 -38.9096 
vt 18.0113 -38.9401 
vt 17.986 -38.9532 
vt 18.0167 -38.9663 
vt 18.0164 -39.3686 
vt 17.9985 -39.3764 
vt 18.0307 -39.3509 
vt 18.0164 -39.3686 
vt 18.0674 -39.3372 
vt 18.0837 -39.3309 
vt 18.0837 -39.3309 
vt 18.0957 -39.3131 
vt 18.0955 -39.2708 
vt 18.0077 -39.1148 
vt 18.0461 -39.161 
vt 18.0735 -39.2257 
vt 17.9993 -39.2057 
vt 18.0245 -39.2515 
vt 18.0187 -39.1803 
vt 17.9957 -39.0847 
vt 18.0072 -39.112 
vt 18.0252 -39.0987 
vt 18.071 -39.1818 
vt 18.0459 -39.1468 
vt 18.0353 -39.1721 
vt 18.057 -39.2006 
vt 18.0219 -39.1468 
vt 17.9805 -39.0518 
vt 18.0214 -39.0635 
vt 17.9805 -39.0518 
vt 18.074 -39.2133 
vt 18.0825 -39.2001 
vt 17.9194 -39.0951 
vt 17.9196 -39.1128 
vt 17.9458 -39.1265 
vt 17.9436 -39.1234 
vt 17.9029 -39.0635 
vt 17.962 -39.1086 
vt 17.9379 -39.0929 
vt 17.9204 -38.6615 
vt 18.0093 -38.6822 
vt 17.9737 -38.7282 
vt 18.0045 -38.7271 
vt 18.058 -38.7232 
vt 18.044 -38.7392 
vt 17.9823 -39.1647 
vt 18.0583 -39.0308 
vt 18.1025 -38.9964 
vt 18.0214 -39.3152 
vt 18.0033 -39.3368 
vt 18.0667 -39.0224 
vt 18.0582 -39.0027 
vt 18.1056 -38.9637 
vt 18.0784 -38.9946 
vt 18.0007 -39.2621 
vt 17.9871 -39.296 
vt 18.0033 -39.3368 
vt 17.9828 -39.3522 
vt 18.0566 -39.3923 
vt 18.0523 -38.9758 
vt 18.078 -38.9635 
vt 17.9871 -39.296 
vt 17.9657 -39.3138 
vt 18.0452 -38.9524 
vt 18.0405 -39.0492 
vt 17.9852 -39.1848 
vt 17.9458 -39.1265 
vt 17.9767 -39.2608 
vt 17.9515 -39.2698 
vt 17.9649 -39.2076 
vt 17.9767 -39.2608 
vt 18.04 -39.412 
vt 18.0553 -39.4034 
vt 18.0737 -38.9372 
vt 17.9832 -39.1118 
vt 17.9649 -39.2076 
vt 17.9384 -39.2176 
vt 18.0381 -39.376 
vt 18.0211 -39.3899 
vt 17.9856 -39.0551 
vt 17.9525 -39.107 
vt 17.9576 -39.1665 
vt 17.9576 -39.1665 
vt 17.9288 -39.1672 
vt 17.9981 -39.3529 
vt 18.0163 -39.3376 
vt 18.0529 -39.3521 
vt 17.9854 -38.848 
vt 18.0263 -38.8665 
vt 18.0243 -38.8189 
vt 17.996 -39.2114 
vt 17.9615 -39.1896 
vt 17.9758 -39.2378 
vt 17.9958 -39.0058 
vt 18.0246 -39.2998 
vt 17.9989 -39.3007 
vt 18.0163 -39.3376 
vt 17.9536 -39.049 
vt 17.9525 -39.107 
vt 17.922 -39.1078 
vt 17.9755 -39.3074 
vt 17.9989 -39.3007 
vt 17.9657 -39.3077 
vt 18.0621 -38.858 
vt 18.0655 -38.8164 
vt 17.964 -38.9924 
vt 17.9536 -39.049 
vt 17.9212 -39.0447 
vt 18.0381 -39.376 
vt 17.9758 -39.2378 
vt 17.9517 -39.2448 
vt 18.0645 -39.3081 
vt 18.048 -39.317 
vt 18.0311 -38.7658 
vt 17.9897 -38.775 
vt 17.9489 -38.8556 
vt 18.066 -38.7594 
vt 17.9014 -39.0526 
vt 17.9615 -39.1896 
vt 17.9346 -39.183 
vt 18.0263 -39.2878 
vt 18.0422 -39.2784 
vt 17.9539 -38.7857 
vt 18.0004 -39.1242 
vt 18.0245 -39.2515 
vt 18.0045 -39.2539 
vt 17.9507 -38.6659 
vt 17.9353 -38.7335 
vt 17.9983 -38.6056 
vt 17.9582 -38.6019 
vt 18.0194 -38.5941 
vt 17.9993 -39.2057 
vt 17.9799 -39.209 
vt 17.962 -39.1086 
vt 17.9823 -39.1647 
vt 17.9588 -39.1564 
vt 17.9177 -39.0476 
vt 18.057 -39.2006 
vt 18.0195 -39.1784 
vt 18.063 -38.8878 
vt 18.0312 -38.9006 
vt 18.0681 -38.9144 
vt 18.0381 -38.9294 
vt 17.8029 -39.0925 
vt 17.6876 -39.0779 
vt 18.0972 -39.0077 
vt 18.1237 -39.0326 
vt 17.9274 -39.0093 
vt 17.8998 -39.0045 
vt 17.9207 -39.058 
vt 17.896 -39.044 
vt 17.9771 -39.0568 
vt 17.7068 -39.1025 
vt 17.7312 -39.1056 
vt 17.9603 -39.0286 
vt 17.989 -38.9984 
vt 17.9821 -39.0214 
vt 17.7245 -39.0523 
vt 17.7185 -39.078 
vt 17.7499 -39.0452 
vt 18.1836 -39.0405 
vt 17.743 -39.0737 
vt 17.8079 -39.0263 
vt 17.838 -39.0243 
vt 17.8113 -39.0621 
vt 17.8524 -39.0655 
vt 17.8946 -39.066 
vt 17.9387 -39.0971 
vt 18.0803 -39.0004 
vt 17.945 -38.9582 
vt 17.9745 -38.9493 
vt 18.029 -38.9436 
vt 18.0932 -38.9446 
vt 18.1337 -38.9546 
vt 17.7565 -39.1027 
vt 17.7865 -39.063 
vt 17.7754 -39.0988 
vt 17.7645 -39.0681 
vt 18.1052 -39.0147 
vt 18.1402 -38.9946 
vt 17.9415 -38.9983 
vt 17.9765 -39.0194 
vt 18.0397 -39.0294 
vt 17.8351 -39.0358 
vt 17.8366 -39.0613 
vt 17.8428 -39.0126 
vt 18.0833 -38.9656 
vt 18.099 -38.9924 
vt 18.1148 -38.9202 
vt 17.7951 -39.3079 
vt 17.7913 -39.3154 
vt 18.1971 -38.8964 
vt 18.3124 -39.0147 
vt 18.1293 -38.9401 
vt 18.1389 -38.9096 
vt 18.1293 -38.9401 
vt 18.1432 -38.9473 
vt 18.1559 -38.9273 
vt 18.0443 -39.3813 
vt 18.0646 -39.3686 
vt 18.0641 -39.3764 
vt 18.025 -39.3746 
vt 18.0192 -39.3675 
vt 17.8072 -39.3322 
vt 17.8292 -39.3372 
vt 17.839 -39.3309 
vt 17.7953 -39.0725 
vt 17.8098 -39.0847 
vt 17.8249 -39.0518 
vt 17.8128 -39.0333 
vt 17.8249 -39.0518 
vt 17.8381 -38.8634 
vt 17.8373 -38.7992 
vt 17.8209 -38.8525 
vt 17.984 -38.9327 
vt 17.9665 -38.8635 
vt 17.9619 -38.9346 
vt 17.9039 -38.9127 
vt 17.8947 -38.8357 
vt 17.8851 -38.8987 
vt 18.0411 -38.913 
vt 18.0329 -38.8519 
vt 18.0177 -38.926 
vt 17.9392 -38.9298 
vt 17.9273 -38.9997 
vt 17.9198 -39.057 
vt 17.952 -39.0585 
vt 17.9562 -39.0039 
vt 17.9902 -39.0951 
vt 17.984 -39.0646 
vt 17.9791 -39.1128 
vt 17.9911 -39.1265 
vt 18.0021 -39.0952 
vt 18.002 -39.1234 
vt 18.0133 -39.1119 
vt 18.0104 -39.0635 
vt 17.9104 -39.0829 
vt 17.9176 -39.1041 
vt 17.8262 -39.0267 
vt 17.8222 -38.9968 
vt 17.9011 -39.1086 
vt 17.9004 -39.0785 
vt 17.8883 -39.0929 
vt 17.9717 -38.7398 
vt 18.0273 -38.7433 
vt 18.0267 -38.6615 
vt 17.9735 -38.6554 
vt 18.1701 -38.9503 
vt 18.2922 -39.0438 
vt 18.2664 -39.0362 
vt 18.218 -39.0202 
vt 18.3009 -39.0308 
vt 18.2846 -39.0186 
vt 18.2336 -39.0171 
vt 18.218 -39.0202 
vt 18.3094 -39.0224 
vt 18.2988 -39.0027 
vt 18.2568 -38.997 
vt 18.0708 -39.3522 
vt 18.191 -38.9254 
vt 18.1751 -38.8932 
vt 18.2755 -38.9758 
vt 18.2295 -38.9761 
vt 18.2052 -38.9955 
vt 18.0222 -39.3503 
vt 18.0468 -39.3574 
vt 18.0741 -39.3138 
vt 17.897 -39.4025 
vt 17.8956 -39.3923 
vt 17.9168 -39.4135 
vt 18.2501 -38.9524 
vt 18.0214 -39.3122 
vt 18.0478 -39.3194 
vt 18.0763 -39.2698 
vt 17.9397 -39.412 
vt 18.0209 -39.2684 
vt 18.0485 -39.2733 
vt 18.0899 -39.2076 
vt 18.0784 -39.2176 
vt 17.9478 -39.3899 
vt 17.9198 -39.3912 
vt 17.8953 -39.3785 
vt 18.0779 -39.1672 
vt 18.0202 -39.2177 
vt 18.0494 -39.221 
vt 17.9545 -39.3529 
vt 17.925 -39.3543 
vt 17.8987 -39.3432 
vt 18.1473 -38.848 
vt 18.1921 -38.8665 
vt 18.0758 -39.1078 
vt 18.0185 -39.1698 
vt 18.0486 -39.17 
vt 17.9608 -39.3074 
vt 17.9307 -39.3077 
vt 17.9031 -39.3003 
vt 18.0768 -39.0447 
vt 18.046 -39.1116 
vt 17.9678 -39.2448 
vt 17.9366 -39.244 
vt 17.9079 -39.2379 
vt 17.8369 -39.317 
vt 18.1109 -38.8556 
vt 17.8091 -39.3097 
vt 18.0451 -39.0526 
vt 17.9725 -39.183 
vt 17.9132 -39.1752 
vt 17.9418 -39.1795 
vt 17.8434 -39.2878 
vt 18.1007 -38.7857 
vt 18.0613 -38.7769 
vt 17.814 -39.2799 
vt 18.0459 -38.9855 
vt 17.9474 -39.111 
vt 17.8513 -39.2539 
vt 18.0599 -38.6659 
vt 18.0644 -38.7335 
vt 18.0683 -38.8083 
vt 18.0685 -38.8786 
vt 18.055 -38.6019 
vt 17.8216 -39.2447 
vt 18.0138 -38.9975 
vt 17.8628 -39.209 
vt 18.0255 -38.5924 
vt 17.971 -38.5876 
vt 17.8322 -39.1995 
vt 17.8111 -39.1822 
vt 17.9849 -39.0029 
vt 17.875 -39.1564 
vt 17.9068 -38.5865 
vt 17.9085 -38.6471 
vt 17.845 -39.1453 
vt 17.823 -39.1293 
vt 17.8604 -38.6418 
vt 17.8663 -38.5912 
vt 17.9058 -38.7235 
vt 17.8582 -39.0818 
vt 17.8955 -39.0476 
vt 17.8545 -38.7071 
vt 17.8994 -38.9867 
vt 17.8672 -39.0281 
vt 17.8752 -38.9698 
vt 17.6942 -39.189 
vt 17.8534 -38.9519 
vt 17.8679 -38.8838 
vt 17.8297 -38.9349 
vt 17.8079 -38.9215 
vt 17.7797 -38.9709 
vt 17.777 -38.9735 
vt 17.797 -38.9789 
vt 17.7659 -39.0116 
vt 17.7501 -39.0454 
vt 17.785 -39.0208 
vt 17.7257 -39.2081 
vt 17.7431 -39.2006 
vt 17.7016 -39.1978 
vt 17.701 -39.148 
vt 17.7344 -39.0786 
vt 17.7694 -39.0579 
vt 17.7431 -39.1784 
vt 17.7164 -39.1672 
vt 17.7172 -39.1155 
vt 17.7528 -39.0941 
vt 17.7791 -39.1083 
vt 17.7969 -39.112 
vt 17.7608 -39.1449 
vt 17.7774 -39.1468 
vt 17.7347 -39.1319 
vt 18.1883 -38.9772 
vt 18.2135 -38.8878 
vt 18.2102 -38.9006 
vt 18.2287 -38.9294 
vt 18.2085 -38.9542 
vt 18.0435 -39.0358 
vt 18.0446 -39.0613 
vt 18.0622 -39.0126 
vt 18.0119 -39.124 
vt 18.0196 -39.1878 
vt 18.0489 -39.1726 
vt 18.0564 -39.1234 
vt 17.9392 -39.2904 
vt 17.9196 -39.2744 
vt 17.9071 -39.3079 
vt 17.9241 -39.3154 
vt 17.9887 -38.9401 
vt 18.0041 -39.3746 
vt 17.9875 -39.3675 
vt 17.9836 -39.3686 
vt 17.9875 -39.3675 
vt 17.9727 -39.3532 
vt 17.9287 -39.3322 
vt 17.9071 -39.3079 
vt 17.8958 -39.2941 
vt 17.9326 -39.3372 
vt 17.9064 -39.263 
vt 17.9637 -39.1473 
vt 17.9759 -39.0803 
vt 17.9314 -39.2179 
vt 18.0195 -39.0518 
vt 17.9786 -39.0635 
vt 18.0195 -39.0518 
vt 18.0457 -38.7992 
vt 18.0489 -38.8525 
vt 18.0892 -39.057 
vt 18.0811 -39.0952 
vt 18.0564 -39.1234 
vt 18.0832 -39.1119 
vt 18.0971 -39.0635 
vt 18.0692 -39.0829 
vt 18.0424 -39.1139 
vt 18.0721 -39.1041 
vt 18.0171 -39.0645 
vt 18.038 -39.1086 
vt 17.9563 -38.6481 
vt 17.9478 -38.7015 
vt 17.9541 -39.2135 
vt 17.979 -39.1667 
vt 17.9964 -39.1249 
vt 17.9376 -39.2406 
vt 17.9196 -39.2744 
vt 17.958 -39.2599 
vt 17.9376 -39.2406 
vt 17.9264 -39.0202 
vt 17.8964 -39.0034 
vt 17.8902 -39.0214 
vt 17.9714 -39.3107 
vt 18.0016 -39.3371 
vt 17.9786 -39.3306 
vt 17.9434 -39.3923 
vt 17.9321 -39.3751 
vt 18.0202 -39.3503 
vt 18.0016 -39.3371 
vt 18.0199 -39.2934 
vt 18.0108 -39.2511 
vt 17.9591 -39.4025 
vt 17.9434 -39.3923 
vt 18.0005 -39.1162 
vt 18.0374 -39.3122 
vt 18.0199 -39.2934 
vt 18.0522 -39.2684 
vt 18.0312 -39.2585 
vt 18.0421 -39.2091 
vt 18.0312 -39.2585 
vt 17.9777 -39.3785 
vt 17.96 -39.3602 
vt 17.999 -39.2889 
vt 17.9735 -39.2883 
vt 17.9825 -39.323 
vt 18.0652 -39.2177 
vt 18.0421 -39.2091 
vt 17.96 -39.3602 
vt 17.9449 -39.3404 
vt 18.001 -39.3432 
vt 17.9825 -39.323 
vt 18.0743 -39.1698 
vt 18.0489 -39.1726 
vt 18.0343 -39.3077 
vt 18.0228 -39.3003 
vt 17.999 -39.2889 
vt 18.019 -39.2267 
vt 17.9991 -39.2012 
vt 18.0443 -39.2379 
vt 18.019 -39.2267 
vt 17.9525 -39.3097 
vt 18.0592 -39.1752 
vt 18.0305 -39.1777 
vt 18.0305 -39.1777 
vt 17.9746 -39.2799 
vt 17.9996 -39.1242 
vt 17.9975 -39.2447 
vt 17.9792 -39.2268 
vt 18.0424 -39.1139 
vt 18.0201 -39.209 
vt 17.9541 -39.2135 
vt 18.0226 -39.1995 
vt 18.0041 -39.1822 
vt 18.038 -39.1086 
vt 17.9853 -38.587 
vt 18.0254 -39.1293 
vt 17.979 -39.1667 
vt 18.0493 -38.6418 
vt 18.0454 -38.5912 
vt 17.9996 -38.6406 
vt 18.0628 -39.0818 
vt 17.9964 -39.1249 
vt 18.0823 -39.0476 
vt 18.0054 -38.591 
vt 17.9996 -38.6406 
vt 18.0464 -38.7071 
vt 17.9949 -38.6975 
vt 17.9417 -38.7657 
vt 17.9949 -38.6975 
vt 17.99 -38.7651 
vt 17.9431 -38.8488 
vt 18.0171 -39.0645 
vt 18.0906 -38.9698 
vt 17.99 -38.7651 
vt 17.9855 -38.8396 
vt 17.9521 -38.9296 
vt 17.9192 -39.189 
vt 17.9121 -39.1801 
vt 17.9855 -38.8396 
vt 18.027 -38.8453 
vt 17.9605 -38.9911 
vt 17.9872 -38.9154 
vt 17.9311 -39.1967 
vt 17.9192 -39.189 
vt 17.9344 -39.212 
vt 17.9595 -39.0646 
vt 17.9828 -39.0442 
vt 17.9883 -39.0119 
vt 17.9872 -38.9154 
vt 18.0232 -38.9139 
vt 17.9894 -38.9735 
vt 18.0491 -38.9215 
vt 18.021 -38.9709 
vt 17.9894 -38.9735 
vt 17.9215 -39.1556 
vt 18.0444 -38.9789 
vt 18.0168 -39.0116 
vt 17.9883 -39.0119 
vt 17.943 -39.1149 
vt 17.9483 -39.1783 
vt 17.9324 -39.1635 
vt 17.9828 -39.0442 
vt 18.0093 -39.0454 
vt 18.0364 -39.0208 
vt 17.9585 -39.1978 
vt 17.9705 -39.148 
vt 17.9516 -39.1315 
vt 17.9636 -39.1061 
vt 17.9754 -39.0699 
vt 17.9993 -39.0786 
vt 17.9754 -39.0699 
vt 17.9837 -39.1672 
vt 17.9868 -39.1155 
vt 17.9636 -39.1061 
vt 17.9516 -39.1315 
vt 17.8351 -38.9565 
vt 17.8428 -38.9378 
vt 18.0121 -38.9881 
vt 18.002 -38.9436 
vt 18.0833 -38.9287 
vt 18.144 -39.0882 
vt 18.1612 -39.0797 
vt 18.1382 -39.0637 
vt 17.7951 -39.0929 
vt 17.7913 -39.0759 
vt 17.9877 -38.9921 
vt 18.1008 -39.0738 
vt 18.3034 -39.0822 
vt 18.3059 -39.0941 
vt 18.3124 -39.0779 
vt 18.3009 -39.0583 
vt 18.2922 -39.0684 
vt 18.2852 -39.097 
vt 18.2913 -39.1064 
vt 18.2789 -39.0821 
vt 18.1293 -39.0113 
vt 18.1163 -39.0422 
vt 18.1293 -39.0113 
vt 18.1138 -38.986 
vt 18.0939 -39.0167 
vt 18.1432 -39.0338 
vt 18.1559 -39.0102 
vt 18.1432 -39.0338 
vt 18.0443 -38.9968 
vt 18.0409 -39.019 
vt 18.0646 -39.0164 
vt 18.0641 -38.9985 
vt 18.025 -38.9959 
vt 18.0192 -39.0125 
vt 18.0409 -39.019 
vt 18.0382 -39.0337 
vt 18.0192 -39.0125 
vt 18.0198 -39.0273 
vt 17.8146 -39.0934 
vt 17.8072 -39.0713 
vt 17.8292 -39.0674 
vt 17.839 -39.0837 
vt 17.9028 -39.0077 
vt 17.8763 -39.0326 
vt 17.8437 -39.0241 
vt 17.7431 -39.057 
vt 17.8249 -38.9805 
vt 17.8128 -38.96 
vt 17.8274 -39.0214 
vt 17.8249 -38.9805 
vt 17.7315 -39.0825 
vt 17.8393 -39.0374 
vt 18.0391 -39.0488 
vt 17.9902 -38.9194 
vt 18.002 -38.9436 
vt 18.0133 -38.9168 
vt 17.8262 -38.9571 
vt 18.1701 -39.0257 
vt 18.16 -39.0501 
vt 18.16 -39.0501 
vt 18.2526 -39.0793 
vt 18.2582 -39.105 
vt 18.2789 -39.0821 
vt 18.2922 -39.0684 
vt 18.2664 -39.0573 
vt 18.2526 -39.0793 
vt 18.218 -39.0736 
vt 18.2187 -39.1036 
vt 18.2348 -39.1098 
vt 18.3009 -39.0583 
vt 18.2336 -39.0495 
vt 18.218 -39.0736 
vt 18.2052 -39.0432 
vt 18.0468 -38.9746 
vt 17.897 -39.0409 
vt 17.8956 -39.0566 
vt 17.9185 -39.0615 
vt 17.9168 -39.0405 
vt 17.8164 -39.0405 
vt 17.9911 -38.9458 
vt 17.9397 -39.04 
vt 17.945 -39.0553 
vt 17.9478 -39.0211 
vt 17.9198 -39.0152 
vt 18.1921 -39.0263 
vt 17.9307 -38.9657 
vt 18.099 -38.964 
vt 17.8544 -39.0645 
vt 17.8369 -39.048 
vt 17.8091 -39.0475 
vt 18.0451 -38.9014 
vt 17.8434 -39.0263 
vt 17.8636 -39.0422 
vt 17.9197 -39.0004 
vt 17.9083 -38.9576 
vt 17.9011 -38.962 
vt 17.8318 -38.9829 
vt 17.8752 -38.9094 
vt 17.6942 -39.0808 
vt 17.6876 -39.0689 
vt 17.6942 -39.0808 
vt 17.7066 -39.0816 
vt 17.6981 -39.0656 
vt 17.7152 -39.0623 
vt 17.7247 -39.074 
vt 17.7257 -39.043 
vt 17.7431 -39.057 
vt 17.7016 -39.0415 
vt 17.7431 -39.0195 
vt 17.7629 -39.0353 
vt 17.7608 -39.0024 
vt 17.7774 -39.0219 
vt 17.7347 -38.9984 
vt 18.1883 -39.0374 
vt 18.187 -39.0609 
vt 18.1912 -39.0937 
vt 18.187 -39.0609 
vt 17.9879 -39.124 
vt 17.9878 -39.1878 
vt 17.856 -38.9145 
vt 17.824 -38.9263 
vt 17.8388 -38.9566 
vt 17.8618 -38.9445 
vt 18.1441 -39.2873 
vt 18.0548 -39.3848 
vt 18.055 -39.4034 
vt 18.0815 -39.407 
vt 18.0775 -39.3818 
vt 18.0123 -39.1315 
vt 18.006 -39.0826 
vt 17.9821 -39.0757 
vt 18.0474 -39.1313 
vt 18.046 -39.0874 
vt 18.0692 -39.0511 
vt 17.9916 -39.037 
vt 17.8992 -38.9169 
vt 17.8969 -38.8485 
vt 17.8359 -38.8751 
vt 17.8029 -38.8964 
vt 17.6966 -39.0362 
vt 17.6941 -39.0212 
vt 17.6876 -39.0147 
vt 17.6991 -39.0308 
vt 17.7148 -39.0407 
vt 17.7087 -39.0262 
vt 17.7211 -39.0492 
vt 17.8707 -38.9401 
vt 17.8837 -38.9446 
vt 17.8707 -38.9401 
vt 17.9061 -38.9663 
vt 17.9591 -39.3775 
vt 17.9618 -39.3532 
vt 17.9409 -39.3509 
vt 17.9354 -39.3686 
vt 17.9808 -39.3675 
vt 17.9802 -39.3532 
vt 18.2049 -39.3079 
vt 18.1936 -39.2941 
vt 18.1742 -39.3057 
vt 18.1854 -39.3286 
vt 18.161 -39.3309 
vt 18.1555 -39.3131 
vt 18.1906 -39.263 
vt 18.164 -39.2708 
vt 18.0846 -39.0797 
vt 18.0972 -39.1148 
vt 18.1237 -39.0999 
vt 18.1116 -39.0635 
vt 18.139 -39.161 
vt 18.1732 -39.1473 
vt 18.1563 -39.0803 
vt 18.1538 -39.2257 
vt 18.1868 -39.2179 
vt 18.1137 -39.1803 
vt 18.1974 -39.0987 
vt 18.2519 -39.1818 
vt 18.227 -39.1468 
vt 18.2569 -39.2006 
vt 18.1726 -39.0635 
vt 18.1751 -39.0518 
vt 18.2753 -39.2133 
vt 18.2685 -39.2001 
vt 18.1607 -39.0495 
vt 18.1435 -39.0314 
vt 18.1434 -39.0552 
vt 17.9609 -38.9616 
vt 17.9495 -39.0154 
vt 18.0692 -39.0859 
vt 17.9274 -38.6822 
vt 17.8998 -38.7271 
vt 17.9207 -38.7232 
vt 18.0185 -38.7255 
vt 18.0523 -38.6753 
vt 17.9771 -38.6669 
vt 17.9644 -38.7231 
vt 18.056 -38.7209 
vt 18.0938 -38.7134 
vt 18.1198 -38.6481 
vt 18.1403 -38.7015 
vt 18.1904 -39.1667 
vt 17.7418 -39.0314 
vt 17.782 -39.0202 
vt 17.7813 -39.0034 
vt 17.7652 -39.0214 
vt 17.7278 -39.0079 
vt 17.7068 -38.9964 
vt 17.757 -38.978 
vt 17.9336 -39.3152 
vt 17.7312 -38.9637 
vt 17.9603 -39.3107 
vt 17.989 -39.3371 
vt 17.9821 -39.3306 
vt 17.9242 -39.2621 
vt 18.1044 -39.3923 
vt 18.099 -39.3751 
vt 17.9575 -39.2519 
vt 17.9865 -39.2511 
vt 18.1836 -39.0492 
vt 17.9547 -39.1832 
vt 17.9514 -39.1162 
vt 17.9198 -39.1848 
vt 17.9101 -39.2076 
vt 17.947 -39.0631 
vt 17.9204 -39.1118 
vt 18.1067 -39.2889 
vt 18.0979 -39.2883 
vt 17.9169 -39.0551 
vt 18.0994 -39.3404 
vt 18.0709 -39.3394 
vt 18.0443 -39.3521 
vt 17.8079 -38.8665 
vt 18.0216 -39.2114 
vt 17.9125 -39.0058 
vt 18.0328 -39.2998 
vt 18.0898 -39.2012 
vt 18.0636 -39.2829 
vt 17.8113 -38.858 
vt 17.8524 -38.8164 
vt 17.901 -38.9924 
vt 18.0547 -39.2032 
vt 17.8946 -38.7594 
vt 17.9549 -39.0526 
vt 17.9387 -38.7769 
vt 18.0803 -39.1242 
vt 17.9415 -38.6056 
vt 17.9765 -38.5941 
vt 17.9765 -38.868 
vt 17.9983 -38.7863 
vt 18.0397 -38.5909 
vt 18.0507 -38.8714 
vt 18.0549 -38.7838 
vt 18.0989 -39.1086 
vt 18.1052 -38.587 
vt 18.1188 -38.8636 
vt 18.1104 -38.7757 
vt 18.1502 -38.6406 
vt 18.1402 -38.591 
vt 18.157 -38.7657 
vt 18.0514 -38.9626 
vt 18.1274 -38.9515 
vt 18.1716 -38.8488 
vt 18.1941 -38.8396 
vt 18.1844 -38.9296 
vt 18.2934 -39.2063 
vt 18.3058 -39.189 
vt 18.2944 -39.1801 
vt 18.2814 -39.191 
vt 18.1998 -38.9911 
vt 18.3124 -39.1967 
vt 18.3058 -39.189 
vt 18.2934 -39.2063 
vt 18.2223 -39.0266 
vt 18.2494 -39.0646 
vt 18.255 -39.0442 
vt 18.2384 -39.0119 
vt 18.223 -38.9735 
vt 18.2848 -39.2199 
vt 18.2875 -39.1556 
vt 18.2657 -39.1647 
vt 18.217 -39.0834 
vt 18.274 -39.1149 
vt 18.2443 -39.1266 
vt 18.2569 -39.2006 
vt 18.3055 -39.1635 
vt 18.2952 -39.1315 
vt 17.7565 -38.9366 
vt 17.7754 -38.9187 
vt 17.7857 -38.9456 
vt 17.8088 -38.9784 

usemtl Handle1Mtl

f 3/3/3 4/4/4 5/5/5 
f 5/5/5 6/6/6 3/3/3 
f 9/9/9 10/10/10 11/11/11 
f 11/11/11 12/12/12 9/9/9 
f 17/17/17 18/18/18 19/19/19 
f 19/19/19 20/20/20 17/17/17 
f 17/17/17 20/20/20 21/21/21 
f 5/5/5 24/24/24 25/25/25 
f 25/25/25 6/6/6 5/5/5 
f 41/41/41 42/42/42 12/12/12 
f 12/12/12 43/43/43 41/41/41 
f 40/40/40 12/12/12 11/11/11 
f 39/39/39 43/43/43 12/12/12 
f 12/12/12 40/40/40 39/39/39 
f 44/44/44 45/45/45 46/46/46 
f 47/47/47 48/48/48 49/49/49 
f 49/49/49 50/50/50 47/47/47 
f 51/51/51 49/49/49 48/48/48 
f 44/44/44 46/46/46 53/53/53 
f 53/53/53 54/54/54 44/44/44 
f 50/50/50 55/55/55 56/56/56 
f 56/56/56 47/47/47 50/50/50 
f 59/59/59 57/57/57 58/58/58 
f 65/65/65 66/66/66 67/67/67 
f 68/68/68 65/65/65 67/67/67 
f 43/43/43 70/70/70 41/41/41 
f 31/31/31 73/73/73 74/74/74 
f 74/74/74 32/32/32 31/31/31 
f 12/12/12 42/42/42 9/9/9 
f 78/78/78 19/19/19 18/18/18 
f 18/18/18 72/72/72 78/78/78 
f 73/73/73 79/79/79 80/80/80 
f 80/80/80 74/74/74 73/73/73 
f 29/29/29 81/81/81 82/82/82 
f 82/82/82 30/30/30 29/29/29 
f 76/76/76 75/75/75 19/19/19 
f 19/19/19 78/78/78 76/76/76 
f 10/10/10 35/35/35 36/36/36 
f 36/36/36 11/11/11 10/10/10 
f 85/85/85 78/78/78 72/72/72 
f 72/72/72 77/77/77 85/85/85 
f 81/81/81 86/86/86 87/87/87 
f 87/87/87 82/82/82 81/81/81 
f 84/84/84 76/76/76 78/78/78 
f 78/78/78 85/85/85 84/84/84 
f 86/86/86 92/92/92 93/93/93 
f 93/93/93 87/87/87 86/86/86 
f 79/79/79 90/90/90 94/94/94 
f 94/94/94 95/95/95 79/79/79 
f 84/84/84 85/85/85 98/98/98 
f 92/92/92 100/100/100 101/101/101 
f 101/101/101 93/93/93 92/92/92 
f 97/97/97 102/102/102 103/103/103 
f 103/103/103 96/96/96 97/97/97 
f 99/99/99 105/105/105 106/106/106 
f 106/106/106 90/90/90 99/99/99 
f 107/107/107 108/108/108 101/101/101 
f 101/101/101 100/100/100 107/107/107 
f 109/109/109 103/103/103 102/102/102 
f 102/102/102 110/110/110 109/109/109 
f 113/113/113 114/114/114 112/112/112 
f 115/115/115 116/116/116 117/117/117 
f 119/119/119 120/120/120 121/121/121 
f 104/104/104 122/122/122 105/105/105 
f 105/105/105 99/99/99 104/104/104 
f 123/123/123 124/124/124 108/108/108 
f 108/108/108 107/107/107 123/123/123 
f 125/125/125 109/109/109 110/110/110 
f 110/110/110 126/126/126 125/125/125 
f 117/117/117 120/120/120 119/119/119 
f 119/119/119 115/115/115 117/117/117 
f 114/114/114 113/113/113 128/128/128 
f 118/118/118 130/130/130 122/122/122 
f 122/122/122 104/104/104 118/118/118 
f 131/131/131 132/132/132 124/124/124 
f 124/124/124 123/123/123 131/131/131 
f 111/111/111 119/119/119 121/121/121 
f 121/121/121 133/133/133 111/111/111 
f 134/134/134 135/135/135 125/125/125 
f 125/125/125 126/126/126 134/134/134 
f 137/137/137 33/33/33 34/34/34 
f 114/114/114 138/138/138 139/139/139 
f 139/139/139 112/112/112 114/114/114 
f 13/13/13 111/111/111 133/133/133 
f 133/133/133 14/14/14 13/13/13 
f 140/140/140 6/6/6 25/25/25 
f 129/129/129 141/141/141 138/138/138 
f 138/138/138 114/114/114 129/129/129 
f 132/132/132 131/131/131 4/4/4 
f 4/4/4 3/3/3 132/132/132 
f 116/116/116 115/115/115 15/15/15 
f 15/15/15 91/91/91 116/116/116 
f 143/143/143 144/144/144 135/135/135 
f 135/135/135 134/134/134 143/143/143 
f 145/145/145 137/137/137 136/136/136 
f 112/112/112 139/139/139 147/147/147 
f 144/144/144 143/143/143 59/59/59 
f 59/59/59 58/58/58 144/144/144 
f 149/149/149 150/150/150 145/145/145 
f 145/145/145 146/146/146 149/149/149 
f 151/151/151 152/152/152 66/66/66 
f 66/66/66 65/65/65 151/151/151 
f 66/66/66 147/147/147 139/139/139 
f 139/139/139 67/67/67 66/66/66 
f 151/151/151 65/65/65 153/153/153 
f 153/153/153 154/154/154 151/151/151 
f 150/150/150 149/149/149 156/156/156 
f 156/156/156 157/157/157 150/150/150 
f 147/147/147 66/66/66 152/152/152 
f 79/79/79 95/95/95 80/80/80 
f 157/157/157 156/156/156 159/159/159 
f 159/159/159 160/160/160 157/157/157 
f 70/70/70 43/43/43 38/38/38 
f 38/38/38 158/158/158 70/70/70 
f 160/160/160 159/159/159 62/62/62 
f 62/62/62 63/63/63 160/160/160 
f 90/90/90 106/106/106 94/94/94 
f 46/46/46 45/45/45 51/51/51 
f 51/51/51 48/48/48 46/46/46 
f 118/118/118 28/28/28 27/27/27 
f 27/27/27 130/130/130 118/118/118 
f 128/128/128 164/164/164 16/16/16 
f 113/113/113 165/165/165 164/164/164 
f 164/164/164 128/128/128 113/113/113 
f 88/88/88 98/98/98 166/166/166 
f 166/166/166 167/167/167 88/88/88 
f 166/166/166 164/164/164 165/165/165 
f 165/165/165 167/167/167 166/166/166 
f 138/138/138 69/69/69 67/67/67 
f 67/67/67 139/139/139 138/138/138 
f 141/141/141 69/69/69 138/138/138 
f 173/173/173 175/175/175 174/174/174 
f 181/181/181 180/180/180 179/179/179 
f 186/186/186 184/184/184 182/182/182 
f 189/189/189 190/190/190 188/188/188 
f 176/176/176 172/172/172 174/174/174 
f 178/178/178 199/199/199 186/186/186 
f 186/186/186 183/183/183 178/178/178 
f 199/199/199 201/201/201 202/202/202 
f 202/202/202 186/186/186 199/199/199 
f 200/200/200 202/202/202 201/201/201 
f 201/201/201 168/168/168 200/200/200 
f 174/174/174 175/175/175 191/191/191 
f 203/203/203 204/204/204 198/198/198 
f 198/198/198 197/197/197 203/203/203 
f 195/195/195 194/194/194 205/205/205 
f 205/205/205 206/206/206 195/195/195 
f 207/207/207 203/203/203 197/197/197 
f 197/197/197 196/196/196 207/207/207 
f 196/196/196 195/195/195 206/206/206 
f 206/206/206 207/207/207 196/196/196 
f 222/222/222 219/219/219 218/218/218 
f 231/231/231 232/232/232 233/233/233 
f 233/233/233 234/234/234 231/231/231 
f 236/236/236 237/237/237 238/238/238 
f 239/239/239 240/240/240 241/241/241 
f 242/242/242 243/243/243 244/244/244 
f 245/245/245 246/246/246 247/247/247 
f 241/241/241 240/240/240 248/248/248 
f 249/249/249 250/250/250 251/251/251 
f 251/251/251 252/252/252 249/249/249 
f 253/253/253 254/254/254 255/255/255 
f 260/260/260 257/257/257 259/259/259 
f 263/263/263 264/264/264 234/234/234 
f 265/265/265 266/266/266 267/267/267 
f 268/268/268 269/269/269 270/270/270 
f 270/270/270 271/271/271 268/268/268 
f 272/272/272 222/222/222 221/221/221 
f 273/273/273 276/276/276 277/277/277 
f 277/277/277 274/274/274 273/273/273 
f 276/276/276 280/280/280 281/281/281 
f 281/281/281 277/277/277 276/276/276 
f 282/282/282 278/278/278 274/274/274 
f 274/274/274 277/277/277 282/282/282 
f 222/222/222 272/272/272 284/284/284 
f 284/284/284 285/285/285 222/222/222 
f 277/277/277 281/281/281 286/286/286 
f 286/286/286 282/282/282 277/277/277 
f 287/287/287 288/288/288 278/278/278 
f 278/278/278 282/282/282 287/287/287 
f 225/225/225 283/283/283 290/290/290 
f 282/282/282 286/286/286 295/295/295 
f 295/295/295 287/287/287 282/282/282 
f 290/290/290 289/289/289 226/226/226 
f 226/226/226 223/223/223 290/290/290 
f 283/283/283 291/291/291 297/297/297 
f 297/297/297 290/290/290 283/283/283 
f 297/297/297 296/296/296 289/289/289 
f 289/289/289 290/290/290 297/297/297 
f 301/301/301 297/297/297 291/291/291 
f 291/291/291 298/298/298 301/301/301 
f 305/305/305 306/306/306 292/292/292 
f 301/301/301 300/300/300 296/296/296 
f 296/296/296 297/297/297 301/301/301 
f 298/298/298 303/303/303 309/309/309 
f 309/309/309 301/301/301 298/298/298 
f 311/311/311 312/312/312 306/306/306 
f 306/306/306 305/305/305 311/311/311 
f 313/313/313 285/285/285 314/314/314 
f 307/307/307 317/317/317 309/309/309 
f 309/309/309 303/303/303 307/307/307 
f 309/309/309 308/308/308 300/300/300 
f 300/300/300 301/301/301 309/309/309 
f 304/304/304 310/310/310 311/311/311 
f 311/311/311 305/305/305 304/304/304 
f 311/311/311 319/319/319 320/320/320 
f 320/320/320 312/312/312 311/311/311 
f 315/315/315 322/322/322 317/317/317 
f 317/317/317 307/307/307 315/315/315 
f 317/317/317 316/316/316 308/308/308 
f 308/308/308 309/309/309 317/317/317 
f 310/310/310 318/318/318 319/319/319 
f 319/319/319 311/311/311 310/310/310 
f 319/319/319 324/324/324 325/325/325 
f 325/325/325 320/320/320 319/319/319 
f 219/219/219 313/313/313 327/327/327 
f 315/315/315 321/321/321 329/329/329 
f 329/329/329 322/322/322 315/315/315 
f 322/322/322 259/259/259 316/316/316 
f 316/316/316 317/317/317 322/322/322 
f 324/324/324 319/319/319 318/318/318 
f 318/318/318 323/323/323 324/324/324 
f 331/331/331 325/325/325 324/324/324 
f 324/324/324 332/332/332 331/331/331 
f 229/229/229 326/326/326 328/328/328 
f 334/334/334 327/327/327 313/313/313 
f 321/321/321 211/211/211 337/337/337 
f 337/337/337 329/329/329 321/321/321 
f 260/260/260 259/259/259 322/322/322 
f 322/322/322 329/329/329 260/260/260 
f 258/258/258 257/257/257 253/253/253 
f 253/253/253 256/256/256 258/258/258 
f 330/330/330 332/332/332 324/324/324 
f 324/324/324 323/323/323 330/330/330 
f 262/262/262 331/331/331 332/332/332 
f 332/332/332 338/338/338 262/262/262 
f 333/333/333 336/336/336 328/328/328 
f 328/328/328 326/326/326 333/333/333 
f 342/342/342 343/343/343 327/327/327 
f 327/327/327 334/334/334 342/342/342 
f 211/211/211 343/343/343 245/245/245 
f 245/245/245 337/337/337 211/211/211 
f 346/346/346 260/260/260 329/329/329 
f 329/329/329 337/337/337 346/346/346 
f 257/257/257 260/260/260 254/254/254 
f 254/254/254 253/253/253 257/257/257 
f 332/332/332 330/330/330 255/255/255 
f 255/255/255 338/338/338 332/332/332 
f 339/339/339 345/345/345 336/336/336 
f 336/336/336 333/333/333 339/339/339 
f 341/341/341 342/342/342 334/334/334 
f 246/246/246 343/343/343 342/342/342 
f 271/271/271 270/270/270 348/348/348 
f 348/348/348 349/349/349 271/271/271 
f 247/247/247 346/346/346 337/337/337 
f 337/337/337 245/245/245 247/247/247 
f 260/260/260 346/346/346 352/352/352 
f 352/352/352 254/254/254 260/260/260 
f 338/338/338 255/255/255 254/254/254 
f 254/254/254 251/251/251 338/338/338 
f 345/345/345 339/339/339 347/347/347 
f 347/347/347 350/350/350 345/345/345 
f 269/269/269 246/246/246 342/342/342 
f 342/342/342 341/341/341 269/269/269 
f 247/247/247 246/246/246 240/240/240 
f 240/240/240 239/239/239 247/247/247 
f 349/349/349 354/354/354 355/355/355 
f 355/355/355 271/271/271 349/349/349 
f 351/351/351 350/350/350 356/356/356 
f 356/356/356 357/357/357 351/351/351 
f 346/346/346 247/247/247 239/239/239 
f 239/239/239 352/352/352 346/346/346 
f 251/251/251 254/254/254 352/352/352 
f 352/352/352 252/252/252 251/251/251 
f 261/261/261 266/266/266 265/265/265 
f 350/350/350 347/347/347 353/353/353 
f 353/353/353 356/356/356 350/350/350 
f 268/268/268 240/240/240 246/246/246 
f 246/246/246 269/269/269 268/268/268 
f 358/358/358 355/355/355 354/354/354 
f 354/354/354 359/359/359 358/358/358 
f 360/360/360 268/268/268 271/271/271 
f 271/271/271 355/355/355 360/360/360 
f 357/357/357 356/356/356 361/361/361 
f 361/361/361 209/209/209 357/357/357 
f 241/241/241 252/252/252 352/352/352 
f 352/352/352 239/239/239 241/241/241 
f 266/266/266 261/261/261 250/250/250 
f 250/250/250 362/362/362 266/266/266 
f 356/356/356 353/353/353 267/267/267 
f 267/267/267 361/361/361 356/356/356 
f 243/243/243 240/240/240 268/268/268 
f 268/268/268 360/360/360 243/243/243 
f 363/363/363 360/360/360 355/355/355 
f 355/355/355 358/358/358 363/363/363 
f 242/242/242 248/248/248 240/240/240 
f 240/240/240 243/243/243 242/242/242 
f 248/248/248 249/249/249 252/252/252 
f 252/252/252 241/241/241 248/248/248 
f 362/362/362 250/250/250 249/249/249 
f 249/249/249 364/364/364 362/362/362 
f 361/361/361 267/267/267 362/362/362 
f 362/362/362 365/365/365 361/361/361 
f 237/237/237 243/243/243 360/360/360 
f 360/360/360 363/363/363 237/237/237 
f 364/364/364 249/249/249 248/248/248 
f 248/248/248 242/242/242 364/364/364 
f 365/365/365 362/362/362 364/364/364 
f 364/364/364 366/366/366 365/365/365 
f 213/213/213 327/327/327 343/343/343 
f 343/343/343 211/211/211 213/213/213 
f 366/366/366 364/364/364 242/242/242 
f 242/242/242 244/244/244 366/366/366 
f 208/208/208 263/263/263 233/233/233 
f 368/368/368 366/366/366 244/244/244 
f 244/244/244 369/369/369 368/368/368 
f 236/236/236 369/369/369 243/243/243 
f 243/243/243 237/237/237 236/236/236 
f 263/263/263 208/208/208 210/210/210 
f 210/210/210 264/264/264 263/263/263 
f 370/370/370 368/368/368 369/369/369 
f 369/369/369 236/236/236 370/370/370 
f 371/371/371 370/370/370 236/236/236 
f 236/236/236 238/238/238 371/371/371 
f 264/264/264 210/210/210 368/368/368 
f 368/368/368 370/370/370 264/264/264 
f 374/374/374 264/264/264 370/370/370 
f 370/370/370 371/371/371 374/374/374 
f 372/372/372 375/375/375 377/377/377 
f 264/264/264 374/374/374 377/377/377 
f 377/377/377 234/234/234 264/264/264 
f 375/375/375 376/376/376 383/383/383 
f 383/383/383 377/377/377 375/375/375 
f 250/250/250 262/262/262 338/338/338 
f 338/338/338 251/251/251 250/250/250 
f 362/362/362 267/267/267 266/266/266 
f 377/377/377 383/383/383 231/231/231 
f 231/231/231 234/234/234 377/377/377 
f 376/376/376 382/382/382 387/387/387 
f 387/387/387 383/383/383 376/376/376 
f 232/232/232 231/231/231 388/388/388 
f 388/388/388 389/389/389 232/232/232 
f 385/385/385 380/380/380 378/378/378 
f 378/378/378 384/384/384 385/385/385 
f 386/386/386 381/381/381 385/385/385 
f 385/385/385 392/392/392 386/386/386 
f 382/382/382 386/386/386 392/392/392 
f 392/392/392 387/387/387 382/382/382 
f 383/383/383 387/387/387 388/388/388 
f 388/388/388 231/231/231 383/383/383 
f 388/388/388 390/390/390 391/391/391 
f 391/391/391 389/389/389 388/388/388 
f 392/392/392 385/385/385 384/384/384 
f 384/384/384 390/390/390 392/392/392 
f 387/387/387 392/392/392 390/390/390 
f 390/390/390 388/388/388 387/387/387 
f 366/366/366 368/368/368 210/210/210 
f 210/210/210 365/365/365 366/366/366 
f 243/243/243 369/369/369 244/244/244 
f 285/285/285 313/313/313 219/219/219 
f 219/219/219 222/222/222 285/285/285 
f 365/365/365 210/210/210 209/209/209 
f 209/209/209 361/361/361 365/365/365 
f 245/245/245 343/343/343 246/246/246 
f 270/270/270 269/269/269 341/341/341 
f 341/341/341 340/340/340 270/270/270 
f 270/270/270 340/340/340 344/344/344 
f 344/344/344 348/348/348 270/270/270 
f 285/285/285 284/284/284 395/395/395 
f 395/395/395 314/314/314 285/285/285 
f 287/287/287 295/295/295 396/396/396 
f 396/396/396 397/397/397 287/287/287 
f 288/288/288 287/287/287 397/397/397 
f 397/397/397 393/393/393 288/288/288 
f 272/272/272 393/393/393 397/397/397 
f 397/397/397 284/284/284 272/272/272 
f 284/284/284 397/397/397 396/396/396 
f 396/396/396 395/395/395 284/284/284 
f 398/398/398 399/399/399 400/400/400 
f 401/401/401 402/402/402 403/403/403 
f 403/403/403 404/404/404 401/401/401 
f 405/405/405 406/406/406 407/407/407 
f 407/407/407 408/408/408 405/405/405 
f 429/429/429 430/430/430 431/431/431 
f 433/433/433 434/434/434 435/435/435 
f 428/428/428 433/433/433 435/435/435 
f 398/398/398 436/436/436 399/399/399 
f 422/422/422 440/440/440 441/441/441 
f 441/441/441 420/420/420 422/422/422 
f 442/442/442 420/420/420 441/441/441 
f 440/440/440 422/422/422 443/443/443 
f 443/443/443 422/422/422 419/419/419 
f 419/419/419 444/444/444 443/443/443 
f 444/444/444 419/419/419 417/417/417 
f 417/417/417 416/416/416 444/444/444 
f 445/445/445 446/446/446 406/406/406 
f 406/406/406 405/405/405 445/445/445 
f 447/447/447 448/448/448 449/449/449 
f 414/414/414 413/413/413 451/451/451 
f 451/451/451 452/452/452 414/414/414 
f 411/411/411 410/410/410 455/455/455 
f 455/455/455 456/456/456 411/411/411 
f 451/451/451 457/457/457 458/458/458 
f 451/451/451 458/458/458 450/450/450 
f 462/462/462 463/463/463 456/456/456 
f 456/456/456 455/455/455 462/462/462 
f 464/464/464 465/465/465 463/463/463 
f 463/463/463 462/462/462 464/464/464 
f 466/466/466 402/402/402 458/458/458 
f 458/458/458 467/467/467 466/466/466 
f 468/468/468 469/469/469 460/460/460 
f 460/460/460 459/459/459 468/468/468 
f 470/470/470 471/471/471 472/472/472 
f 473/473/473 474/474/474 465/465/465 
f 465/465/465 464/464/464 473/473/473 
f 454/454/454 453/453/453 475/475/475 
f 475/475/475 476/476/476 454/454/454 
f 472/472/472 471/471/471 476/476/476 
f 476/476/476 475/475/475 472/472/472 
f 477/477/477 478/478/478 469/469/469 
f 469/469/469 468/468/468 477/477/477 
f 473/473/473 479/479/479 480/480/480 
f 480/480/480 474/474/474 473/473/473 
f 482/482/482 483/483/483 478/478/478 
f 478/478/478 477/477/477 482/482/482 
f 484/484/484 485/485/485 471/471/471 
f 471/471/471 470/470/470 484/484/484 
f 430/430/430 480/480/480 479/479/479 
f 479/479/479 431/431/431 430/430/430 
f 486/486/486 487/487/487 483/483/483 
f 483/483/483 482/482/482 486/486/486 
f 488/488/488 405/405/405 408/408/408 
f 408/408/408 415/415/415 488/488/488 
f 486/486/486 489/489/489 490/490/490 
f 490/490/490 487/487/487 486/486/486 
f 491/491/491 485/485/485 484/484/484 
f 405/405/405 488/488/488 492/492/492 
f 492/492/492 445/445/445 405/405/405 
f 434/434/434 490/490/490 489/489/489 
f 489/489/489 435/435/435 434/434/434 
f 445/445/445 492/492/492 494/494/494 
f 494/494/494 495/495/495 445/445/445 
f 493/493/493 485/485/485 491/491/491 
f 491/491/491 496/496/496 493/493/493 
f 467/467/467 458/458/458 457/457/457 
f 446/446/446 445/445/445 495/495/495 
f 495/495/495 498/498/498 446/446/446 
f 494/494/494 499/499/499 500/500/500 
f 500/500/500 495/495/495 494/494/494 
f 495/495/495 500/500/500 504/504/504 
f 504/504/504 498/498/498 495/495/495 
f 437/437/437 434/434/434 433/433/433 
f 502/502/502 438/438/438 507/507/507 
f 500/500/500 503/503/503 509/509/509 
f 509/509/509 504/504/504 500/500/500 
f 403/403/403 402/402/402 466/466/466 
f 505/505/505 506/506/506 511/511/511 
f 511/511/511 512/512/512 505/505/505 
f 438/438/438 439/439/439 514/514/514 
f 514/514/514 507/507/507 438/438/438 
f 436/436/436 509/509/509 503/503/503 
f 503/503/503 399/399/399 436/436/436 
f 512/512/512 516/516/516 513/513/513 
f 513/513/513 505/505/505 512/512/512 
f 439/439/439 515/515/515 517/517/517 
f 517/517/517 514/514/514 439/439/439 
f 421/421/421 420/420/420 442/442/442 
f 442/442/442 519/519/519 421/421/421 
f 513/513/513 516/516/516 521/521/521 
f 521/521/521 426/426/426 513/513/513 
f 522/522/522 517/517/517 515/515/515 
f 515/515/515 518/518/518 522/522/522 
f 519/519/519 425/425/425 424/424/424 
f 526/526/526 527/527/527 426/426/426 
f 426/426/426 521/521/521 526/526/526 
f 529/529/529 522/522/522 518/518/518 
f 518/518/518 523/523/523 529/529/529 
f 423/423/423 436/436/436 398/398/398 
f 536/536/536 537/537/537 527/527/527 
f 527/527/527 526/526/526 536/536/536 
f 538/538/538 529/529/529 523/523/523 
f 523/523/523 528/528/528 538/538/538 
f 427/427/427 527/527/527 537/537/537 
f 537/537/537 539/539/539 427/427/427 
f 540/540/540 537/537/537 536/536/536 
f 536/536/536 541/541/541 540/540/540 
f 539/539/539 537/537/537 540/540/540 
f 540/540/540 543/543/543 539/539/539 
f 544/544/544 540/540/540 541/541/541 
f 541/541/541 545/545/545 544/544/544 
f 531/531/531 530/530/530 547/547/547 
f 547/547/547 548/548/548 531/531/531 
f 545/545/545 549/549/549 550/550/550 
f 550/550/550 544/544/544 545/545/545 
f 551/551/551 543/543/543 540/540/540 
f 552/552/552 547/547/547 530/530/530 
f 530/530/530 532/532/532 552/552/552 
f 548/548/548 547/547/547 553/553/553 
f 553/553/553 554/554/554 548/548/548 
f 555/555/555 556/556/556 533/533/533 
f 533/533/533 546/546/546 555/555/555 
f 557/557/557 550/550/550 549/549/549 
f 549/549/549 558/558/558 557/557/557 
f 559/559/559 553/553/553 547/547/547 
f 547/547/547 552/552/552 559/559/559 
f 554/554/554 553/553/553 560/560/560 
f 560/560/560 561/561/561 554/554/554 
f 560/560/560 557/557/557 558/558/558 
f 558/558/558 561/561/561 560/560/560 
f 527/527/527 427/427/427 426/426/426 
f 534/534/534 533/533/533 556/556/556 
f 562/562/562 546/546/546 542/542/542 
f 555/555/555 546/546/546 562/562/562 
f 578/578/578 579/579/579 575/575/575 
f 576/576/576 575/575/575 580/580/580 
f 580/580/580 581/581/581 576/576/576 
f 575/575/575 579/579/579 582/582/582 
f 582/582/582 580/580/580 575/575/575 
f 570/570/570 584/584/584 574/574/574 
f 585/585/585 586/586/586 587/587/587 
f 587/587/587 584/584/584 585/585/585 
f 583/583/583 588/588/588 589/589/589 
f 590/590/590 585/585/585 584/584/584 
f 584/584/584 570/570/570 590/590/590 
f 591/591/591 592/592/592 593/593/593 
f 593/593/593 594/594/594 591/591/591 
f 595/595/595 596/596/596 592/592/592 
f 592/592/592 591/591/591 595/595/595 
f 599/599/599 600/600/600 598/598/598 
f 601/601/601 602/602/602 572/572/572 
f 572/572/572 571/571/571 601/601/601 
f 603/603/603 602/602/602 601/601/601 
f 601/601/601 604/604/604 603/603/603 
f 588/588/588 621/621/621 620/620/620 
f 570/570/570 569/569/569 622/622/622 
f 622/622/622 590/590/590 570/570/570 
f 582/582/582 623/623/623 624/624/624 
f 624/624/624 580/580/580 582/582/582 
f 625/625/625 626/626/626 627/627/627 
f 627/627/627 628/628/628 625/625/625 
f 629/629/629 631/631/631 624/624/624 
f 623/623/623 629/629/629 624/624/624 
f 628/628/628 627/627/627 633/633/633 
f 633/633/633 634/634/634 628/628/628 
f 636/636/636 591/591/591 594/594/594 
f 637/637/637 638/638/638 639/639/639 
f 639/639/639 640/640/640 637/637/637 
f 614/614/614 611/611/611 641/641/641 
f 642/642/642 573/573/573 565/565/565 
f 565/565/565 566/566/566 642/642/642 
f 643/643/643 640/640/640 639/639/639 
f 639/639/639 644/644/644 643/643/643 
f 637/637/637 640/640/640 646/646/646 
f 643/643/643 645/645/645 646/646/646 
f 646/646/646 640/640/640 643/643/643 
f 604/604/604 650/650/650 651/651/651 
f 652/652/652 602/602/602 603/603/603 
f 650/650/650 655/655/655 654/654/654 
f 658/658/658 605/605/605 656/656/656 
f 656/656/656 657/657/657 658/658/658 
f 611/611/611 607/607/607 659/659/659 
f 664/664/664 665/665/665 662/662/662 
f 666/666/666 665/665/665 664/664/664 
f 664/664/664 667/667/667 666/666/666 
f 668/668/668 666/666/666 667/667/667 
f 667/667/667 669/669/669 668/668/668 
f 587/587/587 615/615/615 574/574/574 
f 574/574/574 584/584/584 587/587/587 
f 671/671/671 668/668/668 669/669/669 
f 669/669/669 672/672/672 671/671/671 
f 670/670/670 665/665/665 666/666/666 
f 666/666/666 668/668/668 670/670/670 
f 610/610/610 609/609/609 619/619/619 
f 673/673/673 671/671/671 672/672/672 
f 672/672/672 674/674/674 673/673/673 
f 635/635/635 676/676/676 677/677/677 
f 634/634/634 633/633/633 635/635/635 
f 635/635/635 677/677/677 634/634/634 
f 678/678/678 630/630/630 629/629/629 
f 629/629/629 679/679/679 678/678/678 
f 569/569/569 678/678/678 679/679/679 
f 679/679/679 622/622/622 569/569/569 
f 676/676/676 620/620/620 621/621/621 
f 621/621/621 677/677/677 676/676/676 
f 682/682/682 683/683/683 684/684/684 
f 684/684/684 685/685/685 682/682/682 
f 687/687/687 688/688/688 689/689/689 
f 689/689/689 690/690/690 687/687/687 
f 680/680/680 691/691/691 692/692/692 
f 692/692/692 693/693/693 680/680/680 
f 691/691/691 694/694/694 695/695/695 
f 695/695/695 692/692/692 691/691/691 
f 695/695/695 696/696/696 697/697/697 
f 697/697/697 692/692/692 695/695/695 
f 682/682/682 698/698/698 699/699/699 
f 699/699/699 700/700/700 682/682/682 
f 700/700/700 701/701/701 683/683/683 
f 683/683/683 682/682/682 700/700/700 
f 698/698/698 682/682/682 685/685/685 
f 713/713/713 714/714/714 715/715/715 
f 715/715/715 716/716/716 713/713/713 
f 714/714/714 713/713/713 717/717/717 
f 719/719/719 720/720/720 721/721/721 
f 721/721/721 722/722/722 719/719/719 
f 723/723/723 722/722/722 721/721/721 
f 721/721/721 724/724/724 723/723/723 
f 720/720/720 725/725/725 726/726/726 
f 726/726/726 721/721/721 720/720/720 
f 727/727/727 728/728/728 729/729/729 
f 729/729/729 730/730/730 727/727/727 
f 729/729/729 731/731/731 732/732/732 
f 732/732/732 733/733/733 729/729/729 
f 734/734/734 726/726/726 725/725/725 
f 725/725/725 735/735/735 734/734/734 
f 726/726/726 686/686/686 724/724/724 
f 724/724/724 721/721/721 726/726/726 
f 731/731/731 729/729/729 728/728/728 
f 728/728/728 736/736/736 731/731/731 
f 731/731/731 734/734/734 735/735/735 
f 735/735/735 732/732/732 731/731/731 
f 686/686/686 726/726/726 734/734/734 
f 745/745/745 746/746/746 747/747/747 
f 746/746/746 696/696/696 730/730/730 
f 730/730/730 747/747/747 746/746/746 
f 729/729/729 733/733/733 747/747/747 
f 747/747/747 730/730/730 729/729/729 
f 697/697/697 748/748/748 749/749/749 
f 692/692/692 697/697/697 693/693/693 
f 750/750/750 696/696/696 695/695/695 
f 754/754/754 755/755/755 756/756/756 
f 756/756/756 757/757/757 754/754/754 
f 758/758/758 755/755/755 754/754/754 
f 758/758/758 759/759/759 755/755/755 
f 760/760/760 755/755/755 759/759/759 
f 759/759/759 761/761/761 760/760/760 
f 763/763/763 767/767/767 707/707/707 
f 707/707/707 706/706/706 763/763/763 
f 768/768/768 703/703/703 707/707/707 
f 707/707/707 767/767/767 768/768/768 
f 766/766/766 765/765/765 769/769/769 
f 766/766/766 769/769/769 767/767/767 
f 763/763/763 766/766/766 767/767/767 
f 771/771/771 768/768/768 767/767/767 
f 767/767/767 769/769/769 771/771/771 
f 772/772/772 770/770/770 715/715/715 
f 715/715/715 714/714/714 772/772/772 
f 774/774/774 772/772/772 714/714/714 
f 714/714/714 718/718/718 774/774/774 
f 776/776/776 777/777/777 690/690/690 
f 690/690/690 689/689/689 776/776/776 
f 778/778/778 775/775/775 770/770/770 
f 770/770/770 772/772/772 778/778/778 
f 779/779/779 778/778/778 772/772/772 
f 746/746/746 745/745/745 780/780/780 
f 781/781/781 681/681/681 680/680/680 
f 680/680/680 782/782/782 781/781/781 
f 778/778/778 781/781/781 783/783/783 
f 783/783/783 775/775/775 778/778/778 
f 696/696/696 727/727/727 730/730/730 
f 696/696/696 750/750/750 727/727/727 
f 781/781/781 778/778/778 779/779/779 
f 779/779/779 681/681/681 781/781/781 
f 782/782/782 680/680/680 693/693/693 
f 693/693/693 785/785/785 782/782/782 
f 782/782/782 786/786/786 783/783/783 
f 783/783/783 781/781/781 782/782/782 
f 785/785/785 693/693/693 697/697/697 
f 697/697/697 749/749/749 785/785/785 
f 785/785/785 789/789/789 786/786/786 
f 786/786/786 782/782/782 785/785/785 
f 791/791/791 792/792/792 687/687/687 
f 687/687/687 690/690/690 791/791/791 
f 749/749/749 795/795/795 789/789/789 
f 789/789/789 785/785/785 749/749/749 
f 777/777/777 790/790/790 791/791/791 
f 791/791/791 690/690/690 777/777/777 
f 796/796/796 792/792/792 791/791/791 
f 791/791/791 798/798/798 796/796/796 
f 788/788/788 798/798/798 791/791/791 
f 791/791/791 790/790/790 788/788/788 
f 798/798/798 802/802/802 794/794/794 
f 794/794/794 796/796/796 798/798/798 
f 797/797/797 802/802/802 798/798/798 
f 798/798/798 788/788/788 797/797/797 
f 794/794/794 802/802/802 694/694/694 
f 694/694/694 691/691/691 794/794/794 
f 753/753/753 757/757/757 756/756/756 
f 699/699/699 805/805/805 803/803/803 
f 803/803/803 800/800/800 699/699/699 
f 802/802/802 797/797/797 806/806/806 
f 806/806/806 694/694/694 802/802/802 
f 750/750/750 695/695/695 694/694/694 
f 694/694/694 806/806/806 750/750/750 
f 807/807/807 751/751/751 756/756/756 
f 756/756/756 808/808/808 807/807/807 
f 809/809/809 810/810/810 805/805/805 
f 805/805/805 699/699/699 809/809/809 
f 728/728/728 727/727/727 750/750/750 
f 750/750/750 806/806/806 728/728/728 
f 811/811/811 808/808/808 756/756/756 
f 756/756/756 755/755/755 811/811/811 
f 812/812/812 813/813/813 810/810/810 
f 810/810/810 809/809/809 812/812/812 
f 757/757/757 805/805/805 810/810/810 
f 810/810/810 754/754/754 757/757/757 
f 811/811/811 755/755/755 760/760/760 
f 760/760/760 815/815/815 811/811/811 
f 816/816/816 817/817/817 813/813/813 
f 813/813/813 812/812/812 816/816/816 
f 754/754/754 810/810/810 813/813/813 
f 813/813/813 758/758/758 754/754/754 
f 818/818/818 819/819/819 815/815/815 
f 758/758/758 813/813/813 817/817/817 
f 817/817/817 759/759/759 758/758/758 
f 817/817/817 820/820/820 761/761/761 
f 761/761/761 759/759/759 817/817/817 
f 697/697/697 696/696/696 821/821/821 
f 821/821/821 748/748/748 697/697/697 
f 822/822/822 816/816/816 812/812/812 
f 812/812/812 821/821/821 822/822/822 
f 817/817/817 816/816/816 823/823/823 
f 823/823/823 820/820/820 817/817/817 
f 733/733/733 741/741/741 745/745/745 
f 745/745/745 747/747/747 733/733/733 
f 822/822/822 821/821/821 696/696/696 
f 696/696/696 746/746/746 822/822/822 
f 700/700/700 699/699/699 800/800/800 
f 800/800/800 799/799/799 700/700/700 
f 825/825/825 823/823/823 816/816/816 
f 816/816/816 822/822/822 825/825/825 
f 826/826/826 827/827/827 828/828/828 
f 828/828/828 829/829/829 826/826/826 
f 830/830/830 825/825/825 822/822/822 
f 822/822/822 746/746/746 830/830/830 
f 831/831/831 832/832/832 833/833/833 
f 753/753/753 803/803/803 805/805/805 
f 805/805/805 757/757/757 753/753/753 
f 834/834/834 835/835/835 836/836/836 
f 836/836/836 837/837/837 834/834/834 
f 780/780/780 834/834/834 830/830/830 
f 830/830/830 746/746/746 780/780/780 
f 809/809/809 699/699/699 698/698/698 
f 698/698/698 748/748/748 809/809/809 
f 837/837/837 838/838/838 830/830/830 
f 830/830/830 834/834/834 837/837/837 
f 828/828/828 840/840/840 841/841/841 
f 841/841/841 829/829/829 828/828/828 
f 743/743/743 826/826/826 829/829/829 
f 829/829/829 744/744/744 743/743/743 
f 842/842/842 835/835/835 834/834/834 
f 834/834/834 780/780/780 842/842/842 
f 841/841/841 840/840/840 843/843/843 
f 843/843/843 844/844/844 841/841/841 
f 841/841/841 738/738/738 744/744/744 
f 744/744/744 829/829/829 841/841/841 
f 821/821/821 812/812/812 809/809/809 
f 809/809/809 748/748/748 821/821/821 
f 737/737/737 842/842/842 780/780/780 
f 780/780/780 741/741/741 737/737/737 
f 844/844/844 843/843/843 835/835/835 
f 835/835/835 842/842/842 844/844/844 
f 844/844/844 739/739/739 738/738/738 
f 738/738/738 841/841/841 844/844/844 
f 749/749/749 748/748/748 712/712/712 
f 712/712/712 795/795/795 749/749/749 
f 739/739/739 844/844/844 842/842/842 
f 842/842/842 737/737/737 739/739/739 
f 840/840/840 846/846/846 847/847/847 
f 846/846/846 840/840/840 828/828/828 
f 828/828/828 827/827/827 846/846/846 
f 701/701/701 700/700/700 799/799/799 
f 849/849/849 848/848/848 850/850/850 
f 769/769/769 850/850/850 848/848/848 
f 848/848/848 771/771/771 769/769/769 
f 850/850/850 769/769/769 765/765/765 
f 765/765/765 851/851/851 850/850/850 
f 850/850/850 683/683/683 701/701/701 
f 701/701/701 849/849/849 850/850/850 
f 851/851/851 684/684/684 683/683/683 
f 683/683/683 850/850/850 851/851/851 

g Stick1

v 1.84151 2.69505 70.06 
v 1.84148 1.13215 70.06 
v 1.84151 2.69505 69.8979 
v 1.84149 1.13215 69.8979 
v 1.62696 1.13215 70.06 
v 1.84148 1.13215 70.06 
v 1.62698 2.69505 70.06 
v 1.84151 2.69505 70.06 
v 1.84148 1.13215 70.06 
v 1.62696 1.13215 70.06 
v 1.84149 1.13215 69.8979 
v 1.62696 1.13215 69.8979 
v 1.62696 1.13215 70.06 
v 1.62698 2.69505 70.06 
v 1.62696 1.13215 69.8979 
v 1.62699 2.69505 69.8979 
v 1.62699 2.69505 69.8979 
v 1.84151 2.69505 69.8979 
v 1.62696 1.13215 69.8979 
v 1.84149 1.13215 69.8979 
v 1.62698 2.69505 70.06 
v 1.84151 2.69505 70.06 
v 1.62699 2.69505 69.8979 
v 1.84151 2.69505 69.8979 

vn 1 0 0 
vn 1 0 0 
vn 1 0 0 
vn 1 0 0 
vn 0 0 1 
vn 0 0 1 
vn 0 0 1 
vn 0 0 1 
vn 0 -1 0 
vn 0 -1 0 
vn 0 -1 0 
vn 0 -1 0 
vn -1 0 0 
vn -1 0 0 
vn -1 0 0 
vn -1 0 0 
vn 0 0 -1 
vn 0 0 -1 
vn 0 0 -1 
vn 0 0 -1 
vn 0 1 0 
vn 0 1 0 
vn 0 1 0 
vn 0 1 0 

vt 1.44536 -0.5 
vt 1.25 -0.5 
vt 1.44536 -0.520267 
vt 1.25 -0.520267 
vt 1.27682 -0.5 
vt 1.25 -0.5 
vt 1.27682 -0.695362 
vt 1.25 -0.695362 
vt 1.27682 -0.5 
vt 1.25 -0.5 
vt 1.27682 -0.520267 
vt 1.25 -0.520267 
vt 1.44536 -0.5 
vt 1.25 -0.5 
vt 1.44536 -0.520267 
vt 1.25 -0.520267 
vt 1.27682 -0.5 
vt 1.25 -0.5 
vt 1.27682 -0.695362 
vt 1.25 -0.695362 
vt 1.27682 -0.5 
vt 1.25 -0.5 
vt 1.27682 -0.520267 
vt 1.25 -0.520267 

usemtl Stick1Mtl

f 852/852/852 853/853/853 854/854/854 
f 854/854/854 853/853/853 855/855/855 
f 856/856/856 857/857/857 858/858/858 
f 858/858/858 857/857/857 859/859/859 
f 860/860/860 861/861/861 862/862/862 
f 862/862/862 861/861/861 863/863/863 
f 864/864/864 865/865/865 866/866/866 
f 866/866/866 865/865/865 867/867/867 
f 868/868/868 869/869/869 870/870/870 
f 870/870/870 869/869/869 871/871/871 
f 872/872/872 873/873/873 874/874/874 
f 874/874/874 873/873/873 875/875/875 

