# This file is brought to you by Roblox Corporation
# Generated by Roblox Studio

mtllib Bonk.mtl

g Handle1

v -3.17634 4.35477 3.03983 
v -3.16572 4.34539 3.24971 
v -3.11285 4.34539 3.23801 
v -3.21947 4.34539 3.24451 
v -3.06508 4.34539 3.21015 
v -3.26962 4.34539 3.22271 
v -3.02641 4.34539 3.16852 
v -3.31237 4.34539 3.18612 
v -3.00088 4.34227 3.11593 
v -3.34391 4.34539 3.13769 
v -2.98824 4.34227 3.05767 
v -3.36198 4.34539 3.08135 
v -2.99084 4.34227 2.99906 
v -3.36192 4.33914 3.02205 
v -3.00895 4.34539 2.94248 
v -3.35261 4.34227 2.96405 
v -3.0404 4.34539 2.89403 
v -3.32654 4.34539 2.91116 
v -3.0828 4.34539 2.85718 
v -3.28862 4.34539 2.8664 
v -3.24139 4.34539 2.83745 
v -3.1329 4.34539 2.83369 
v -3.18689 4.34539 2.82684 
v -3.1329 4.34539 2.83369 
v -3.0828 4.34539 2.85718 
v -3.06787 4.29852 2.82767 
v -3.0404 4.34539 2.89403 
v -3.1763 -1.21476 3.03998 
v -3.35612 -1.20226 2.84915 
v -3.28934 -1.20226 2.81139 
v -3.40842 -1.20226 2.9023 
v -3.21339 -1.20226 2.79225 
v -3.44171 -1.20226 2.96658 
v -3.13444 -1.20226 2.7932 
v -3.45331 -1.20226 3.0369 
v -3.05888 -1.20226 2.81399 
v -3.44307 -1.20226 3.10733 
v -2.99286 -1.20226 2.85322 
v -3.41097 -1.20226 3.17242 
v -2.94163 -1.20226 2.90755 
v -3.35975 -1.20226 3.22671 
v -2.90934 -1.20226 2.9726 
v -3.29373 -1.20226 3.26594 
v -2.89829 -1.20226 3.04315 
v -3.21814 -1.20226 3.28692 
v -2.90987 -1.20226 3.11357 
v -3.1392 -1.20226 3.28768 
v -2.94417 -1.20226 3.17772 
v -2.99649 -1.20226 3.23078 
v -3.06322 -1.20226 3.26853 
v -2.9826 -1.16359 2.84279 
v -2.99286 -1.20226 2.85322 
v -3.05888 -1.20226 2.81399 
v -2.92846 -1.16359 2.90012 
v -2.94163 -1.20226 2.90755 
v -2.89334 -1.16398 2.96884 
v -2.90934 -1.20226 2.9726 
v -2.88012 -1.16359 3.04382 
v -2.87845 -1.09523 3.04431 
v -2.89829 -1.20226 3.04315 
v -2.89015 -1.09562 3.11852 
v -2.89014 -1.16359 3.11861 
v -2.89642 -1.06867 3.04362 
v -2.92577 -1.09484 3.18648 
v -2.94064 -1.06789 3.17859 
v -2.90969 -1.06906 3.11344 
v -2.94417 -1.20226 3.17772 
v -2.90987 -1.20226 3.11357 
v -2.92772 -1.16398 3.18662 
v -2.95932 -1.04094 3.09968 
v -2.98851 -1.04133 3.15123 
v -3.00283 1.97977 3.18975 
v -3.02859 1.49383 3.16742 
v -3.00224 1.49383 3.11607 
v -2.97192 1.97977 3.12946 
v -2.96515 4.24539 3.12847 
v -2.99781 4.24539 3.19293 
v -2.95744 1.97977 3.06196 
v -2.98996 1.49383 3.05862 
v -2.95159 4.24539 3.06142 
v -2.97399 4.29852 3.12616 
v -2.95906 4.29852 3.06066 
v -3.00285 4.29852 3.18856 
v -3.02641 4.34539 3.16852 
v -3.00088 4.34227 3.11593 
v -2.95442 4.24539 2.99136 
v -2.96383 4.29852 2.99311 
v -2.99084 4.34227 2.99906 
v -2.98824 4.34227 3.05767 
v -2.96072 1.97977 2.99272 
v -2.98138 1.97977 2.9273 
v -2.98395 4.29852 2.9285 
v -2.97661 4.24539 2.92512 
v -3.00895 4.34539 2.94248 
v -3.02077 4.29852 2.87262 
v -3.01522 4.24539 2.86698 
v -2.99272 1.49383 2.99966 
v -3.01047 1.49383 2.94399 
v -3.01798 1.97977 2.87104 
v -3.06327 4.24539 2.81774 
v -3.06735 1.97977 2.82838 
v -3.12543 1.97977 2.80292 
v -3.12245 4.24539 2.78415 
v -3.04152 1.49383 2.89611 
v -3.08353 1.49383 2.85979 
v -3.10424 0.685235 3.15032 
v -3.06696 1.49383 3.2085 
v -3.1147 1.49383 3.23457 
v -3.07915 0.685235 3.12333 
v -3.02859 1.49383 3.16742 
v -3.45331 -1.20226 3.0369 
v -3.44307 -1.20226 3.10733 
v -3.45807 -1.16359 3.11112 
v -3.46922 -1.16359 3.03668 
v -3.45712 -1.09562 3.11089 
v -3.45671 -1.16359 2.96248 
v -3.44171 -1.20226 2.96658 
v -3.46823 -1.09562 3.03665 
v -3.45293 -1.06867 3.03683 
v -3.45588 -1.09562 2.96273 
v -3.44108 -1.06867 2.96676 
v -3.40842 -1.20226 2.9023 
v -3.42129 -1.16359 2.89455 
v -3.42061 -1.09562 2.89503 
v -3.40776 -1.06867 2.90268 
v -3.36348 -1.04172 2.92888 
v -3.39043 -1.04172 2.98074 
v -3.35623 -0.947577 2.99023 
v -3.33358 -0.947577 2.94662 
v -3.36624 -1.16359 2.83844 
v -3.35612 -1.20226 2.84915 
v -3.28934 -1.20226 2.81139 
v -3.21339 -1.20226 2.79225 
v -3.21548 -1.16359 2.77834 
v -3.13208 -1.16359 2.7793 
v -3.13223 -1.09562 2.78012 
v -3.13444 -1.20226 2.7932 
v -3.21536 -1.09562 2.77911 
v -3.13457 -1.06867 2.79382 
v -3.21328 -1.06867 2.79302 
v -3.1425 -1.04172 2.84083 
v -3.29566 -1.16359 2.79863 
v -3.29533 -1.09562 2.79936 
v -3.36562 -1.09562 2.83912 
v -3.28902 -1.06867 2.81213 
v -3.2062 -1.04172 2.84017 
v -3.35563 -1.06867 2.84966 
v -3.26746 -1.04172 2.85563 
v -3.32135 -1.04172 2.88605 
v -3.20144 -0.947577 2.87205 
v -3.29817 -0.947577 2.91063 
v -3.25292 -0.947577 2.8851 
v -3.14793 -0.947577 2.87273 
v -3.09671 -0.947577 2.8868 
v -3.21843 -0.609296 2.91699 
v -3.18546 -0.609296 2.9088 
v -3.248 -0.609296 2.9351 
v -3.18218 0.0539854 2.92161 
v -3.23891 0.0539854 2.94401 
v -3.21199 0.0539854 2.92825 
v -3.15176 -0.609296 2.91119 
v -3.05196 -0.947577 2.91342 
v -3.12004 -0.609296 2.92404 
v -3.15185 0.0539854 2.92459 
v -3.18301 0.685235 2.904 
v -3.24821 0.685235 2.92968 
v -3.21728 0.685235 2.91163 
v -3.23833 1.49383 2.84425 
v -3.18609 1.49383 2.83305 
v -3.14817 0.685235 2.90738 
v -3.1331 1.49383 2.83818 
v -3.12354 0.0539854 2.93685 
v -3.11564 0.685235 2.92148 
v -3.09286 -0.609296 2.94632 
v -3.09947 0.0539854 2.9575 
v -3.08353 1.49383 2.85979 
v -3.04152 1.49383 2.89611 
v -3.08799 0.685235 2.94526 
v -3.07243 -0.609296 2.97613 
v -3.08161 0.0539854 2.98482 
v -3.06748 0.685235 2.97665 
v -3.01047 1.49383 2.94399 
v -2.99272 1.49383 2.99966 
v -3.05579 0.685235 3.01317 
v -3.07144 0.0539854 3.01661 
v -3.05392 0.685235 3.05188 
v -2.98996 1.49383 3.05862 
v -3.06185 0.685235 3.08959 
v -3.00224 1.49383 3.11607 
v -3.02859 1.49383 3.16742 
v -3.07915 0.685235 3.12333 
v -3.1331 1.49383 2.83818 
v -3.18766 1.97977 2.79743 
v -3.18609 1.49383 2.83305 
v -3.12553 4.30164 2.79758 
v -3.1892 4.24539 2.78084 
v -3.24901 1.97977 2.81043 
v -3.23833 1.49383 2.84425 
v -3.18914 4.30164 2.79313 
v -3.24955 4.29852 2.81072 
v -3.25241 4.24539 2.8031 
v -3.18689 4.34539 2.82684 
v -3.30858 4.24539 2.83561 
v -3.24139 4.34539 2.83745 
v -3.28862 4.34539 2.8664 
v -3.30357 4.29852 2.84405 
v -3.30453 1.97977 2.84223 
v -3.28552 1.49383 2.87161 
v -3.35662 4.24539 2.88622 
v -3.34966 1.97977 2.89025 
v -3.32381 1.49383 2.91257 
v -3.34949 4.29852 2.89181 
v -3.32654 4.34539 2.91116 
v -3.38675 4.24539 2.94816 
v -3.35261 4.34227 2.96405 
v -3.3783 4.29852 2.95222 
v -3.38207 1.97977 2.95051 
v -3.35027 1.49383 2.96384 
v -3.39696 1.97977 3.01903 
v -3.39487 4.29852 3.01856 
v -3.40135 4.24539 3.01777 
v -3.36192 4.33914 3.02205 
v -3.36198 4.34539 3.08135 
v -3.39098 4.29852 3.08781 
v -3.39709 4.24539 3.08918 
v -3.37017 4.29852 3.15298 
v -3.34391 4.34539 3.13769 
v -3.37575 4.24539 3.1562 
v -3.33804 4.24539 3.21375 
v -3.31237 4.34539 3.18612 
v -3.33352 4.29852 3.20899 
v -3.39321 1.97977 3.08756 
v -3.37122 1.97977 3.1549 
v -3.33205 1.97977 3.21339 
v -3.28567 1.97977 3.2543 
v -3.28733 4.24539 3.25727 
v -3.26962 4.34539 3.22271 
v -3.28422 4.29852 3.25127 
v -3.22761 4.24539 3.28323 
v -3.26895 1.49383 3.22032 
v -3.22729 1.97977 3.27802 
v -3.21936 1.49383 3.24201 
v -3.34195 1.49383 3.13591 
v -3.31112 1.49383 3.18422 
v -3.35988 1.49383 3.08033 
v -3.36074 1.49383 3.02146 
v -3.16643 1.49383 3.24726 
v -3.16373 4.24539 3.28942 
v -3.16676 1.97977 3.28599 
v -3.10682 1.97977 3.27601 
v -3.1147 1.49383 3.23457 
v -3.16407 4.29852 3.28254 
v -3.10086 4.24539 3.27536 
v -3.04408 4.24539 3.24234 
v -3.04794 1.97977 3.23906 
v -3.06696 1.49383 3.2085 
v -3.10296 4.29852 3.26879 
v -3.22618 4.29852 3.27644 
v -3.16572 4.34539 3.24971 
v -3.11285 4.34539 3.23801 
v -3.04777 4.29852 3.23665 
v -3.21947 4.34539 3.24451 
v -3.00285 4.29852 3.18856 
v -3.06508 4.34539 3.21015 
v -3.02641 4.34539 3.16852 
v -2.99781 4.24539 3.19293 
v -3.00283 1.97977 3.18975 
v -3.02859 1.49383 3.16742 
v -3.28552 1.49383 2.87161 
v -3.27335 0.685235 2.95662 
v -3.32381 1.49383 2.91257 
v -3.29057 0.685235 2.9903 
v -3.26079 0.0539854 2.96745 
v -3.35027 1.49383 2.96384 
v -3.2717 -0.609296 2.96179 
v -3.27579 0.0539854 2.99677 
v -3.29859 0.685235 3.02803 
v -3.36074 1.49383 3.02146 
v -3.28769 -0.609296 2.9948 
v -3.29462 -0.609296 3.03142 
v -3.28274 0.0539854 3.02963 
v -3.3643 -0.947577 3.03783 
v -3.35716 -0.947577 3.08564 
v -3.29201 -0.609296 3.06876 
v -3.28107 0.0539854 3.06332 
v -3.27998 -0.609296 3.10376 
v -3.2708 0.0539854 3.0951 
v -3.29663 0.685235 3.06674 
v -3.39162 -1.04172 3.09434 
v -3.36551 -1.04172 3.14681 
v -3.40006 -1.04172 3.03745 
v -3.3353 -0.947577 3.12973 
v -3.44231 -1.06867 3.10715 
v -3.41025 -1.06867 3.172 
v -3.32427 -1.04172 3.1906 
v -3.30065 -0.947577 3.16651 
v -3.2596 -0.609296 3.13359 
v -3.27099 -1.04172 3.22226 
v -3.2559 -0.947577 3.19312 
v -3.35924 -1.06867 3.22622 
v -3.42343 -1.09562 3.17938 
v -3.36952 -1.09562 3.23656 
v -3.37001 -1.16359 3.23714 
v -3.42415 -1.16359 3.1798 
v -3.29985 -1.09562 3.27792 
v -3.29335 -1.06867 3.26527 
v -3.21803 -1.06867 3.28611 
v -3.21006 -1.04172 3.23909 
v -3.22038 -1.09562 3.29981 
v -3.30032 -1.16359 3.2786 
v -3.35975 -1.20226 3.22671 
v -3.41097 -1.20226 3.17242 
v -3.29373 -1.20226 3.26594 
v -3.21814 -1.20226 3.28692 
v -3.22048 -1.16359 3.30062 
v -3.13724 -1.09562 3.30082 
v -3.13712 -1.16359 3.30159 
v -3.1392 -1.20226 3.28768 
v -3.06322 -1.20226 3.26853 
v -3.0569 -1.16359 3.28129 
v -3.05728 -1.09562 3.28057 
v -3.13929 -1.06867 3.2871 
v -2.99649 -1.20226 3.23078 
v -2.98624 -1.16359 3.24167 
v -2.98654 -1.09562 3.24112 
v -2.99685 -1.06867 3.23045 
v -3.06356 -1.06867 3.26799 
v -3.08508 -1.04172 3.22439 
v -3.14637 -1.04172 3.23975 
v -3.15115 -0.947577 3.20787 
v -3.03115 -1.04172 3.19395 
v -3.09967 -0.947577 3.19493 
v -2.94064 -1.06789 3.17859 
v -2.98851 -1.04133 3.15123 
v -2.92577 -1.09484 3.18648 
v -2.92772 -1.16398 3.18662 
v -2.94417 -1.20226 3.17772 
v -3.05363 -0.947577 3.16966 
v -3.13405 -0.609296 3.16291 
v -3.10452 -0.609296 3.14481 
v -3.01789 -0.947577 3.13361 
v -3.08076 -0.609296 3.11812 
v -3.14047 0.0539854 3.15165 
v -3.11353 0.0539854 3.13599 
v -3.16701 -0.609296 3.1711 
v -3.1703 0.0539854 3.1583 
v -3.1352 0.685235 3.16827 
v -3.16947 0.685235 3.1759 
v -3.09173 0.0539854 3.11246 
v -3.20061 0.0539854 3.15531 
v -3.2043 0.685235 3.17252 
v -3.21936 1.49383 3.24201 
v -3.16643 1.49383 3.24726 
v -3.2007 -0.609296 3.16872 
v -3.20466 -0.947577 3.20729 
v -3.23242 -0.609296 3.15586 
v -3.22893 0.0539854 3.14305 
v -3.23683 0.685235 3.15843 
v -3.26895 1.49383 3.22032 
v -3.31112 1.49383 3.18422 
v -3.253 0.0539854 3.12241 
v -3.26442 0.685235 3.13468 
v -3.28493 0.685235 3.10327 
v -3.34195 1.49383 3.13591 
v -3.35988 1.49383 3.08033 
v -3.06977 0.0539854 3.05028 
v -3.07672 0.0539854 3.08314 
v -3.06481 -0.609296 3.08516 
v -3.05779 -0.609296 3.04849 
v -3.09173 0.0539854 3.11246 
v -3.08076 -0.609296 3.11812 
v -2.99627 -0.947577 3.08973 
v -2.98705 -0.947577 3.04251 
v -3.06041 -0.609296 3.01115 
v -2.94991 -1.04094 3.04278 
v -2.95919 -1.04094 2.9857 
v -2.99493 -0.947577 2.99442 
v -3.01789 -0.947577 3.13361 
v -2.94217 -1.06828 2.9079 
v -2.9869 -1.04133 2.93314 
v -3.0172 -0.947577 2.95023 
v -2.90669 -1.06789 2.973 
v -3.02824 -1.04172 2.88931 
v -2.99335 -1.06867 2.8538 
v -2.92918 -1.09562 2.90055 
v -2.89009 -1.09523 2.96926 
v -2.98309 -1.09562 2.84337 
v -3.05263 -1.09562 2.80218 
v -3.05916 -1.06867 2.81464 
v -3.08151 -1.04172 2.85775 
v -3.05229 -1.16359 2.80133 

vn 0.00787402 1 0 
vn 0.0314961 0.858268 0.511811 
vn 0.19685 0.858268 0.480315 
vn -0.133858 0.858268 0.496063 
vn 0.330709 0.850394 0.409449 
vn -0.267717 0.858268 0.440945 
vn 0.448819 0.850394 0.283465 
vn -0.393701 0.850394 0.346457 
vn 0.519685 0.84252 0.141732 
vn -0.472441 0.850394 0.220472 
vn 0.527559 0.850394 0.0472441 
vn -0.511811 0.858268 0.0551181 
vn 0.543307 0.834646 -0.0787402 
vn -0.488189 0.866142 -0.0787402 
vn 0.496063 0.84252 -0.212598 
vn -0.527559 0.84252 -0.11811 
vn 0.417323 0.84252 -0.338583 
vn -0.448819 0.850394 -0.267717 
vn 0.291339 0.866142 -0.417323 
vn -0.354331 0.834646 -0.409449 
vn -0.204724 0.84252 -0.503937 
vn 0.15748 0.874016 -0.464567 
vn -0.0393701 0.866142 -0.503937 
vn 0.15748 0.874016 -0.464567 
vn 0.291339 0.866142 -0.417323 
vn 0.543307 0.385827 -0.748031 
vn 0.417323 0.84252 -0.338583 
vn 0.00787402 -1 0 
vn -0.370079 -0.787402 -0.488189 
vn -0.220472 -0.787402 -0.574803 
vn -0.488189 -0.795276 -0.362205 
vn -0.0629921 -0.787402 -0.614173 
vn -0.574803 -0.795276 -0.188976 
vn 0.0944882 -0.787402 -0.606299 
vn -0.606299 -0.795276 0 
vn 0.244094 -0.787402 -0.566929 
vn -0.582677 -0.795276 0.188976 
vn 0.385827 -0.787402 -0.480315 
vn -0.496063 -0.795276 0.354331 
vn 0.503937 -0.787402 -0.346457 
vn -0.377953 -0.787402 0.488189 
vn 0.574803 -0.795276 -0.181102 
vn -0.23622 -0.787402 0.566929 
vn 0.590551 -0.811024 -0.00787402 
vn -0.0866142 -0.787402 0.614173 
vn 0.535433 -0.826772 0.188976 
vn 0.0708661 -0.787402 0.614173 
vn 0.464567 -0.811024 0.346457 
vn 0.370079 -0.787402 0.488189 
vn 0.228346 -0.787402 0.574803 
vn 0.614173 -0.173228 -0.76378 
vn 0.385827 -0.787402 -0.480315 
vn 0.244094 -0.787402 -0.566929 
vn 0.811024 -0.181102 -0.559055 
vn 0.503937 -0.787402 -0.346457 
vn 0.929134 -0.212598 -0.307087 
vn 0.574803 -0.795276 -0.181102 
vn 0.976378 -0.220472 -0.00787402 
vn 0.968504 0.259843 0 
vn 0.590551 -0.811024 -0.00787402 
vn 0.913386 0.291339 0.291339 
vn 0.92126 -0.228346 0.307087 
vn 0.685039 0.732283 0.00787402 
vn 0.76378 0.251969 0.590551 
vn 0.551181 0.716535 0.425197 
vn 0.637795 0.740157 0.212598 
vn 0.464567 -0.811024 0.346457 
vn 0.535433 -0.826772 0.188976 
vn 0.771654 -0.220472 0.598425 
vn 0.685039 0.685039 0.244094 
vn 0.582677 0.677165 0.448819 
vn 0.818898 -0.0393701 0.574803 
vn 0.818898 -0.0787402 0.574803 
vn 0.937008 -0.0708661 0.338583 
vn 0.944882 -0.0314961 0.338583 
vn 0.944882 0.0708661 0.330709 
vn 0.818898 0.0551181 0.574803 
vn 0.992126 -0.0393701 0.0787402 
vn 0.992126 -0.0708661 0.0787402 
vn 0.992126 0.0629921 0.0787402 
vn 0.889764 0.338583 0.307087 
vn 0.937008 0.346457 0.0787402 
vn 0.787402 0.330709 0.519685 
vn 0.448819 0.850394 0.283465 
vn 0.519685 0.84252 0.141732 
vn 0.984252 0.0708661 -0.181102 
vn 0.92126 0.346457 -0.165354 
vn 0.543307 0.834646 -0.0787402 
vn 0.527559 0.850394 0.0472441 
vn 0.984252 -0.0393701 -0.173228 
vn 0.905512 -0.0393701 -0.425197 
vn 0.850394 0.330709 -0.401575 
vn 0.897638 0.0708661 -0.433071 
vn 0.496063 0.84252 -0.212598 
vn 0.724409 0.338583 -0.590551 
vn 0.779528 0.0708661 -0.629921 
vn 0.984252 -0.0708661 -0.173228 
vn 0.905512 -0.0787402 -0.425197 
vn 0.755906 -0.0472441 -0.653543 
vn 0.606299 0.0787402 -0.787402 
vn 0.543307 -0.0472441 -0.84252 
vn 0.259843 -0.0472441 -0.968504 
vn 0.275591 0.102362 -0.952756 
vn 0.755906 -0.0787402 -0.653543 
vn 0.535433 -0.0787402 -0.84252 
vn 0.622047 -0.0551181 0.779528 
vn 0.614173 -0.0787402 0.787402 
vn 0.362205 -0.0866142 0.929134 
vn 0.818898 -0.0551181 0.574803 
vn 0.818898 -0.0787402 0.574803 
vn -0.606299 -0.795276 0 
vn -0.582677 -0.795276 0.188976 
vn -0.937008 -0.188976 0.299213 
vn -0.984252 -0.19685 -0.00787402 
vn -0.92126 0.251969 0.299213 
vn -0.929134 -0.188976 -0.314961 
vn -0.574803 -0.795276 -0.188976 
vn -0.968504 0.259843 -0.00787402 
vn -0.708661 0.708661 0 
vn -0.92126 0.251969 -0.307087 
vn -0.669291 0.708661 -0.220472 
vn -0.488189 -0.795276 -0.362205 
vn -0.795276 -0.181102 -0.574803 
vn -0.787402 0.244094 -0.566929 
vn -0.574803 0.700787 -0.425197 
vn -0.590551 0.677165 -0.433071 
vn -0.692913 0.685039 -0.23622 
vn -0.913386 0.275591 -0.299213 
vn -0.787402 0.259843 -0.566929 
vn -0.598425 -0.181102 -0.779528 
vn -0.370079 -0.787402 -0.488189 
vn -0.220472 -0.787402 -0.574803 
vn -0.0629921 -0.787402 -0.614173 
vn -0.110236 -0.165354 -0.976378 
vn 0.141732 -0.165354 -0.976378 
vn 0.133858 0.228346 -0.96063 
vn 0.0944882 -0.787402 -0.606299 
vn -0.110236 0.228346 -0.968504 
vn 0.110236 0.677165 -0.724409 
vn -0.0866142 0.685039 -0.724409 
vn 0.110236 0.653543 -0.748031 
vn -0.362205 -0.173228 -0.913386 
vn -0.354331 0.23622 -0.905512 
vn -0.590551 0.23622 -0.771654 
vn -0.267717 0.685039 -0.677165 
vn -0.0866142 0.653543 -0.755906 
vn -0.433071 0.692913 -0.574803 
vn -0.275591 0.661417 -0.700787 
vn -0.456693 0.669291 -0.590551 
vn -0.110236 0.220472 -0.968504 
vn -0.590551 0.23622 -0.771654 
vn -0.362205 0.228346 -0.905512 
vn 0.149606 0.212598 -0.968504 
vn 0.385827 0.220472 -0.897638 
vn -0.385827 0.0629921 -0.92126 
vn -0.0866142 0.0708661 -0.992126 
vn -0.637795 0.0787402 -0.76378 
vn -0.0629921 -0.00787402 -1 
vn -0.622047 -0.015748 -0.779528 
vn -0.362205 -0.015748 -0.929134 
vn 0.228346 0.0629921 -0.968504 
vn 0.614173 0.23622 -0.748031 
vn 0.503937 0.0708661 -0.858268 
vn 0.259843 0 -0.968504 
vn -0.0629921 -0.0629921 -1 
vn -0.622047 -0.0629921 -0.779528 
vn -0.362205 -0.0629921 -0.929134 
vn -0.354331 -0.0787402 -0.929134 
vn -0.0551181 -0.0787402 -0.992126 
vn 0.251969 -0.0629921 -0.968504 
vn 0.251969 -0.0787402 -0.96063 
vn 0.535433 0 -0.850394 
vn 0.535433 -0.0629921 -0.84252 
vn 0.732283 0.0866142 -0.669291 
vn 0.755906 0 -0.653543 
vn 0.535433 -0.0787402 -0.84252 
vn 0.755906 -0.0787402 -0.653543 
vn 0.755906 -0.0629921 -0.653543 
vn 0.889764 0.0944882 -0.440945 
vn 0.905512 0 -0.425197 
vn 0.905512 -0.0551181 -0.425197 
vn 0.905512 -0.0787402 -0.425197 
vn 0.984252 -0.0708661 -0.173228 
vn 0.984252 -0.0629921 -0.181102 
vn 0.984252 0 -0.181102 
vn 0.992126 -0.0551181 0.0787402 
vn 0.992126 -0.0708661 0.0787402 
vn 0.937008 -0.0551181 0.338583 
vn 0.937008 -0.0708661 0.338583 
vn 0.818898 -0.0787402 0.574803 
vn 0.818898 -0.0551181 0.574803 
vn 0.251969 -0.0787402 -0.96063 
vn -0.0551181 -0.0472441 -1 
vn -0.0551181 -0.0787402 -0.992126 
vn 0.259843 0.417323 -0.874016 
vn -0.133858 0.0944882 -0.984252 
vn -0.354331 -0.0472441 -0.937008 
vn -0.354331 -0.0787402 -0.929134 
vn -0.102362 0.409449 -0.905512 
vn -0.370079 0.354331 -0.858268 
vn -0.409449 0.0708661 -0.905512 
vn -0.0393701 0.866142 -0.503937 
vn -0.614173 0.0708661 -0.787402 
vn -0.204724 0.84252 -0.503937 
vn -0.354331 0.834646 -0.409449 
vn -0.590551 0.338583 -0.732283 
vn -0.614173 -0.0472441 -0.787402 
vn -0.622047 -0.0787402 -0.779528 
vn -0.818898 0.0787402 -0.566929 
vn -0.811024 -0.0472441 -0.582677 
vn -0.818898 -0.0787402 -0.574803 
vn -0.771654 0.354331 -0.527559 
vn -0.448819 0.850394 -0.267717 
vn -0.944882 0.0708661 -0.322835 
vn -0.527559 0.84252 -0.11811 
vn -0.88189 0.370079 -0.299213 
vn -0.937008 -0.0472441 -0.346457 
vn -0.944882 -0.0787402 -0.322835 
vn -1 -0.0472441 -0.0787402 
vn -0.92126 0.385827 -0.0866142 
vn -1 0.0551181 -0.0708661 
vn -0.488189 0.866142 -0.0787402 
vn -0.511811 0.858268 0.0551181 
vn -0.929134 0.330709 0.173228 
vn -0.984252 0.0551181 0.188976 
vn -0.850394 0.330709 0.409449 
vn -0.472441 0.850394 0.220472 
vn -0.897638 0.0551181 0.433071 
vn -0.748031 0.0551181 0.661417 
vn -0.393701 0.850394 0.346457 
vn -0.700787 0.338583 0.622047 
vn -0.984252 -0.0472441 0.188976 
vn -0.897638 -0.0472441 0.440945 
vn -0.748031 -0.0472441 0.661417 
vn -0.519685 -0.0472441 0.850394 
vn -0.519685 0.0629921 0.850394 
vn -0.267717 0.858268 0.440945 
vn -0.496063 0.338583 0.80315 
vn -0.244094 0.0551181 0.968504 
vn -0.527559 -0.0787402 0.850394 
vn -0.244094 -0.0472441 0.968504 
vn -0.244094 -0.0866142 0.968504 
vn -0.897638 -0.0787402 0.425197 
vn -0.748031 -0.0787402 0.653543 
vn -0.984252 -0.0787402 0.173228 
vn -0.992126 -0.0787402 -0.0787402 
vn 0.0787402 -0.0866142 0.992126 
vn 0.0708661 0.0629921 0.992126 
vn 0.023622 -0.0472441 1 
vn 0.362205 -0.0472441 0.929134 
vn 0.362205 -0.0866142 0.929134 
vn 0.0629921 0.346457 0.937008 
vn 0.362205 0.0551181 0.929134 
vn 0.622047 0.0551181 0.779528 
vn 0.637795 -0.0393701 0.771654 
vn 0.614173 -0.0787402 0.787402 
vn 0.338583 0.338583 0.874016 
vn -0.228346 0.346457 0.913386 
vn 0.0314961 0.858268 0.511811 
vn 0.19685 0.858268 0.480315 
vn 0.582677 0.338583 0.732283 
vn -0.133858 0.858268 0.496063 
vn 0.787402 0.330709 0.519685 
vn 0.330709 0.850394 0.409449 
vn 0.448819 0.850394 0.283465 
vn 0.818898 0.0551181 0.574803 
vn 0.818898 -0.0393701 0.574803 
vn 0.818898 -0.0787402 0.574803 
vn -0.622047 -0.0787402 -0.779528 
vn -0.818898 -0.0629921 -0.574803 
vn -0.818898 -0.0787402 -0.574803 
vn -0.944882 -0.0629921 -0.330709 
vn -0.818898 -0.00787402 -0.574803 
vn -0.944882 -0.0866142 -0.322835 
vn -0.826772 0.0944882 -0.559055 
vn -0.944882 0 -0.330709 
vn -0.992126 -0.0629921 -0.0787402 
vn -0.992126 -0.0787402 -0.0787402 
vn -0.944882 0.102362 -0.307087 
vn -0.992126 0.110236 -0.0551181 
vn -1 -0.00787402 -0.0787402 
vn -0.96063 0.283465 0 
vn -0.92126 0.267717 0.283465 
vn -0.976378 0.102362 0.19685 
vn -0.984252 -0.00787402 0.188976 
vn -0.88189 0.0944882 0.456693 
vn -0.897638 0 0.433071 
vn -0.984252 -0.0629921 0.181102 
vn -0.692913 0.685039 0.220472 
vn -0.598425 0.677165 0.433071 
vn -0.724409 0.685039 -0.00787402 
vn -0.795276 0.251969 0.551181 
vn -0.677165 0.700787 0.220472 
vn -0.590551 0.692913 0.409449 
vn -0.456693 0.661417 0.590551 
vn -0.598425 0.23622 0.76378 
vn -0.724409 0.0787402 0.685039 
vn -0.291339 0.661417 0.692913 
vn -0.377953 0.228346 0.897638 
vn -0.448819 0.685039 0.566929 
vn -0.795276 0.244094 0.559055 
vn -0.606299 0.23622 0.755906 
vn -0.606299 -0.173228 0.771654 
vn -0.811024 -0.181102 0.559055 
vn -0.377953 0.228346 0.897638 
vn -0.283465 0.677165 0.677165 
vn -0.0944882 0.677165 0.732283 
vn -0.102362 0.645669 0.755906 
vn -0.125984 0.228346 0.96063 
vn -0.385827 -0.165354 0.905512 
vn -0.377953 -0.787402 0.488189 
vn -0.496063 -0.795276 0.354331 
vn -0.23622 -0.787402 0.566929 
vn -0.0866142 -0.787402 0.614173 
vn -0.133858 -0.165354 0.976378 
vn 0.11811 0.228346 0.968504 
vn 0.11811 -0.165354 0.976378 
vn 0.0708661 -0.787402 0.614173 
vn 0.228346 -0.787402 0.574803 
vn 0.370079 -0.165354 0.913386 
vn 0.362205 0.228346 0.905512 
vn 0.0944882 0.677165 0.732283 
vn 0.370079 -0.787402 0.488189 
vn 0.582677 -0.181102 0.795276 
vn 0.574803 0.23622 0.787402 
vn 0.425197 0.692913 0.582677 
vn 0.275591 0.677165 0.677165 
vn 0.275591 0.653543 0.700787 
vn 0.0944882 0.645669 0.755906 
vn 0.11811 0.212598 0.968504 
vn 0.448819 0.661417 0.598425 
vn 0.362205 0.220472 0.905512 
vn 0.551181 0.716535 0.425197 
vn 0.582677 0.677165 0.448819 
vn 0.76378 0.251969 0.590551 
vn 0.771654 -0.220472 0.598425 
vn 0.464567 -0.811024 0.346457 
vn 0.582677 0.23622 0.771654 
vn 0.385827 0.0629921 0.92126 
vn 0.637795 0.0787402 0.76378 
vn 0.787402 0.251969 0.566929 
vn 0.826772 0.0866142 0.559055 
vn 0.362205 -0.00787402 0.929134 
vn 0.622047 -0.00787402 0.779528 
vn 0.0944882 0.0551181 0.992126 
vn 0.0708661 0 1 
vn 0.362205 -0.0551181 0.929134 
vn 0.0708661 -0.0629921 0.992126 
vn 0.818898 -0.00787402 0.574803 
vn -0.244094 -0.00787402 0.968504 
vn -0.244094 -0.0551181 0.968504 
vn -0.244094 -0.0866142 0.968504 
vn 0.0787402 -0.0866142 0.992126 
vn -0.212598 0.0629921 0.976378 
vn -0.125984 0.212598 0.968504 
vn -0.503937 0.0708661 0.858268 
vn -0.519685 -0.015748 0.850394 
vn -0.527559 -0.0629921 0.850394 
vn -0.527559 -0.0787402 0.850394 
vn -0.748031 -0.0787402 0.653543 
vn -0.748031 0 0.661417 
vn -0.748031 -0.0629921 0.661417 
vn -0.897638 -0.0629921 0.433071 
vn -0.897638 -0.0787402 0.425197 
vn -0.984252 -0.0787402 0.173228 
vn 1 0 0.0787402 
vn 0.944882 0 0.338583 
vn 0.944882 0.102362 0.314961 
vn 0.992126 0.102362 0.0629921 
vn 0.818898 -0.00787402 0.574803 
vn 0.826772 0.0866142 0.559055 
vn 0.905512 0.275591 0.314961 
vn 0.96063 0.283465 0.015748 
vn 0.976378 0.102362 -0.19685 
vn 0.724409 0.685039 0 
vn 0.692913 0.685039 -0.228346 
vn 0.913386 0.275591 -0.291339 
vn 0.787402 0.251969 0.566929 
vn 0.574803 0.700787 -0.425197 
vn 0.606299 0.669291 -0.433071 
vn 0.795276 0.259843 -0.551181 
vn 0.661417 0.716535 -0.212598 
vn 0.464567 0.661417 -0.582677 
vn 0.456693 0.685039 -0.566929 
vn 0.787402 0.23622 -0.566929 
vn 0.92126 0.23622 -0.307087 
vn 0.606299 0.23622 -0.755906 
vn 0.385827 0.228346 -0.889764 
vn 0.291339 0.677165 -0.669291 
vn 0.299213 0.661417 -0.692913 
vn 0.393701 -0.165354 -0.905512 

vt 0.921387 0.348633 
vt 0.958008 0.400879 
vt 0.941895 0.40918 
vt 0.97168 0.388672 
vt 0.923828 0.412109 
vt 0.980957 0.373047 
vt 0.905762 0.410156 
vt 0.985352 0.355469 
vt 0.888672 0.40332 
vt 0.984863 0.337402 
vt 0.874512 0.39209 
vt 0.979004 0.320312 
vt 0.864258 0.377441 
vt 0.968262 0.305664 
vt 0.858398 0.359863 
vt 0.954102 0.293945 
vt 0.857422 0.341797 
vt 0.9375 0.287109 
vt 0.861816 0.324219 
vt 0.918945 0.28418 
vt 0.900879 0.287109 
vt 0.871094 0.308594 
vt 0.884277 0.295898 
vt 0.166138 0.979187 
vt 0.145386 0.978775 
vt 0.145142 0.959961 
vt 0.125 0.978302 
vt 0.91748 0.512451 
vt 0.973145 0.565918 
vt 0.955566 0.579102 
vt 0.98584 0.548096 
vt 0.935059 0.587158 
vt 0.993164 0.527588 
vt 0.913086 0.589111 
vt 0.994629 0.505859 
vt 0.891602 0.584717 
vt 0.989258 0.484375 
vt 0.87207 0.574707 
vt 0.978516 0.465332 
vt 0.855957 0.55957 
vt 0.962891 0.450195 
vt 0.845215 0.540527 
vt 0.943359 0.44043 
vt 0.839844 0.519287 
vt 0.921387 0.436035 
vt 0.841309 0.497559 
vt 0.899414 0.437988 
vt 0.848633 0.477051 
vt 0.861816 0.458984 
vt 0.878906 0.445801 
vt 0.586426 0.042969 
vt 0.581543 0.022949 
vt 0.604004 0.018066 
vt 0.564453 0.04834 
vt 0.559082 0.02832 
vt 0.543457 0.054688 
vt 0.537109 0.034668 
vt 0.521973 0.062012 
vt 0.533691 0.095703 
vt 0.515625 0.04248 
vt 0.513672 0.103516 
vt 0.500977 0.070312 
vt 0.540039 0.108398 
vt 0.493408 0.113281 
vt 0.501953 0.127441 
vt 0.520508 0.116699 
vt 0.473389 0.057129 
vt 0.494385 0.050293 
vt 0.479248 0.078613 
vt 0.53418 0.133301 
vt 0.52002 0.143555 
vt 0.024796 0.175293 
vt 0.052582 0.01123 
vt 0.070312 0.014648 
vt 0.045807 0.177246 
vt 0.041443 0.942993 
vt 0.01918 0.945068 
vt 0.06665 0.179199 
vt 0.088196 0.016602 
vt 0.06189 0.942017 
vt 0.043304 0.961365 
vt 0.063477 0.960205 
vt 0.022247 0.964539 
vt 0.028625 0.983643 
vt 0.046631 0.979401 
vt 0.08252 0.941498 
vt 0.083618 0.959656 
vt 0.0849 0.977448 
vt 0.065674 0.977509 
vt 0.087463 0.180664 
vt 0.108154 0.181641 
vt 0.103943 0.959656 
vt 0.103088 0.941284 
vt 0.104858 0.978043 
vt 0.124634 0.959747 
vt 0.124084 0.941284 
vt 0.106201 0.018066 
vt 0.124268 0.019531 
vt 0.128784 0.182617 
vt 0.14502 0.941376 
vt 0.149292 0.183594 
vt 0.169678 0.184082 
vt 0.166138 0.94162 
vt 0.142456 0.02002 
vt 0.160645 0.020996 
vt 0.842285 0.67627 
vt 0.895996 0.942139 
vt 0.87793 0.944275 
vt 0.854492 0.674561 
vt 0.913574 0.938995 
vt 0.762207 0.010254 
vt 0.784668 0.012207 
vt 0.782227 0.032715 
vt 0.760254 0.030762 
vt 0.777832 0.068359 
vt 0.73877 0.029785 
vt 0.739258 0.00927699 
vt 0.757324 0.066406 
vt 0.755859 0.081543 
vt 0.736816 0.06543 
vt 0.736328 0.080566 
vt 0.716797 0.008789 
vt 0.716797 0.029297 
vt 0.716797 0.064941 
vt 0.716797 0.080566 
vt 0.716309 0.103516 
vt 0.734863 0.104004 
vt 0.733398 0.155273 
vt 0.716309 0.155273 
vt 0.694824 0.029785 
vt 0.694336 0.008789 
vt 0.671387 0.010254 
vt 0.648926 0.011719 
vt 0.651367 0.032715 
vt 0.629395 0.035156 
vt 0.635254 0.070312 
vt 0.626465 0.014648 
vt 0.655762 0.067871 
vt 0.637695 0.084961 
vt 0.657715 0.083008 
vt 0.64209 0.106934 
vt 0.67334 0.030762 
vt 0.675781 0.066406 
vt 0.696289 0.06543 
vt 0.677246 0.081543 
vt 0.660645 0.105469 
vt 0.696777 0.080566 
vt 0.679199 0.104492 
vt 0.697754 0.103516 
vt 0.666016 0.156738 
vt 0.699707 0.155273 
vt 0.682617 0.155762 
vt 0.649414 0.157715 
vt 0.633301 0.159668 
vt 0.688477 0.239258 
vt 0.674805 0.239746 
vt 0.702148 0.23877 
vt 0.683105 0.46582 
vt 0.705078 0.465332 
vt 0.693848 0.465332 
vt 0.661133 0.240234 
vt 0.617188 0.161621 
vt 0.647949 0.241211 
vt 0.672852 0.466309 
vt 0.676758 0.676758 
vt 0.702148 0.676514 
vt 0.689453 0.676758 
vt 0.677734 0.948547 
vt 0.659668 0.948334 
vt 0.663574 0.677002 
vt 0.641113 0.947998 
vt 0.662109 0.466797 
vt 0.650879 0.677002 
vt 0.634766 0.242676 
vt 0.651367 0.467285 
vt 0.623047 0.947571 
vt 0.60498 0.94696 
vt 0.638184 0.677246 
vt 0.621582 0.244141 
vt 0.641113 0.467773 
vt 0.625488 0.677246 
vt 0.586914 0.946106 
vt 0.568848 0.944946 
vt 0.612793 0.677002 
vt 0.630371 0.46875 
vt 0.600586 0.676514 
vt 0.550781 0.943359 
vt 0.587891 0.675537 
vt 0.532715 0.941162 
vt 0.515137 0.937958 
vt 0.575684 0.673828 
vt 0.178833 0.021484 
vt 0.190063 0.18457 
vt 0.197021 0.021484 
vt 0.16626 0.960205 
vt 0.187256 0.942017 
vt 0.210449 0.18457 
vt 0.21521 0.021973 
vt 0.187378 0.960541 
vt 0.20813 0.960693 
vt 0.208374 0.942291 
vt 0.187012 0.979248 
vt 0.228638 0.942352 
vt 0.20813 0.978897 
vt 0.228638 0.978851 
vt 0.22876 0.960632 
vt 0.230713 0.185059 
vt 0.233521 0.021973 
vt 0.249878 0.942291 
vt 0.250977 0.185059 
vt 0.251709 0.021973 
vt 0.249756 0.960632 
vt 0.249756 0.97908 
vt 0.270264 0.942261 
vt 0.270508 0.978561 
vt 0.270264 0.960663 
vt 0.271729 0.185059 
vt 0.27002 0.021973 
vt 0.292236 0.185059 
vt 0.290771 0.960632 
vt 0.291016 0.942169 
vt 0.290771 0.978699 
vt 0.311279 0.979187 
vt 0.311523 0.960541 
vt 0.311768 0.942078 
vt 0.332275 0.96048 
vt 0.331787 0.979263 
vt 0.33252 0.942017 
vt 0.353027 0.941956 
vt 0.352295 0.979263 
vt 0.352783 0.960449 
vt 0.3125 0.18457 
vt 0.333496 0.18457 
vt 0.35498 0.184082 
vt 0.374268 0.183594 
vt 0.373779 0.941986 
vt 0.372803 0.979309 
vt 0.373291 0.960419 
vt 0.394531 0.942078 
vt 0.361328 0.020996 
vt 0.394775 0.182617 
vt 0.379395 0.02002 
vt 0.324707 0.021484 
vt 0.343018 0.021484 
vt 0.306641 0.021973 
vt 0.28833 0.021973 
vt 0.397705 0.019043 
vt 0.415527 0.942413 
vt 0.414795 0.181641 
vt 0.434814 0.180176 
vt 0.415527 0.017578 
vt 0.414307 0.960815 
vt 0.436523 0.943054 
vt 0.457764 0.944305 
vt 0.457275 0.178711 
vt 0.43335 0.015625 
vt 0.434814 0.961456 
vt 0.393799 0.960541 
vt 0.412842 0.979736 
vt 0.432617 0.980362 
vt 0.455566 0.96286 
vt 0.392822 0.979446 
vt 0.476318 0.96579 
vt 0.451904 0.981735 
vt 0.469971 0.985153 
vt 0.479248 0.946289 
vt 0.47876 0.176758 
vt 0.451172 0.012207 
vt 0.695801 0.9487 
vt 0.714844 0.676514 
vt 0.714355 0.948792 
vt 0.728027 0.676758 
vt 0.71582 0.465332 
vt 0.732422 0.948792 
vt 0.716309 0.23877 
vt 0.726562 0.465332 
vt 0.740723 0.676758 
vt 0.750977 0.948761 
vt 0.72998 0.23877 
vt 0.744141 0.239258 
vt 0.737305 0.46582 
vt 0.75 0.15625 
vt 0.766602 0.157227 
vt 0.757812 0.239746 
vt 0.748047 0.46582 
vt 0.771484 0.240723 
vt 0.758789 0.466309 
vt 0.753418 0.677002 
vt 0.772461 0.105957 
vt 0.791016 0.107422 
vt 0.753906 0.104492 
vt 0.783203 0.158203 
vt 0.775879 0.083496 
vt 0.79541 0.085449 
vt 0.80957 0.109863 
vt 0.799805 0.160156 
vt 0.784668 0.241699 
vt 0.827637 0.112793 
vt 0.815918 0.162109 
vt 0.814941 0.088379 
vt 0.797852 0.070801 
vt 0.818359 0.07373 
vt 0.825684 0.039062 
vt 0.804199 0.035645 
vt 0.838379 0.078125 
vt 0.834473 0.092285 
vt 0.854004 0.097168 
vt 0.846191 0.116699 
vt 0.858398 0.083008 
vt 0.847168 0.043457 
vt 0.830078 0.019043 
vt 0.807129 0.015137 
vt 0.852051 0.023438 
vt 0.874512 0.029297 
vt 0.868652 0.048828 
vt 0.878418 0.088867 
vt 0.890137 0.055664 
vt 0.896484 0.036133 
vt 0.917969 0.043457 
vt 0.911133 0.062988 
vt 0.898926 0.096191 
vt 0.873535 0.102539 
vt 0.938477 0.051758 
vt 0.932129 0.071777 
vt 0.918945 0.104492 
vt 0.912109 0.117676 
vt 0.892578 0.109375 
vt 0.881348 0.126465 
vt 0.86377 0.121094 
vt 0.84668 0.16748 
vt 0.897949 0.133789 
vt 0.861816 0.170898 
vt 0.931152 0.128418 
vt 0.912598 0.144043 
vt 0.939941 0.114746 
vt 0.953613 0.080078 
vt 0.959473 0.059082 
vt 0.875977 0.175293 
vt 0.835938 0.249023 
vt 0.848145 0.251465 
vt 0.889648 0.180664 
vt 0.860352 0.254883 
vt 0.811035 0.469727 
vt 0.821777 0.470215 
vt 0.823242 0.246582 
vt 0.800781 0.46875 
vt 0.82959 0.677246 
vt 0.817383 0.67749 
vt 0.832031 0.470215 
vt 0.790527 0.468262 
vt 0.804688 0.677734 
vt 0.841797 0.946808 
vt 0.859863 0.94574 
vt 0.811035 0.244629 
vt 0.831543 0.164551 
vt 0.797852 0.243164 
vt 0.779785 0.467773 
vt 0.791992 0.67749 
vt 0.82373 0.94754 
vt 0.805664 0.948059 
vt 0.769531 0.466797 
vt 0.779297 0.67749 
vt 0.766113 0.677246 
vt 0.787109 0.948395 
vt 0.769043 0.948639 
vt 0.620117 0.469238 
vt 0.609863 0.469727 
vt 0.584473 0.250977 
vt 0.59668 0.248047 
vt 0.599121 0.469727 
vt 0.572266 0.254395 
vt 0.557129 0.174805 
vt 0.570801 0.17041 
vt 0.608887 0.246094 
vt 0.55127 0.125977 
vt 0.569336 0.120605 
vt 0.585938 0.166992 
vt 0.543457 0.180176 
vt 0.579102 0.096191 
vt 0.587402 0.116211 
vt 0.601074 0.164062 
vt 0.55957 0.102051 
vt 0.605469 0.112305 
vt 0.598633 0.091797 
vt 0.574707 0.082031 
vt 0.554199 0.088379 
vt 0.594727 0.077148 
vt 0.615234 0.073242 
vt 0.618164 0.087891 
vt 0.624023 0.109375 
vt 0.60791 0.038574 

usemtl Handle1Mtl

f 1/1/1 2/2/2 3/3/3 
f 1/1/1 4/4/4 2/2/2 
f 3/3/3 5/5/5 1/1/1 
f 1/1/1 6/6/6 4/4/4 
f 1/1/1 5/5/5 7/7/7 
f 1/1/1 8/8/8 6/6/6 
f 1/1/1 7/7/7 9/9/9 
f 1/1/1 10/10/10 8/8/8 
f 9/9/9 11/11/11 1/1/1 
f 10/10/10 1/1/1 12/12/12 
f 11/11/11 13/13/13 1/1/1 
f 1/1/1 14/14/14 12/12/12 
f 13/13/13 15/15/15 1/1/1 
f 1/1/1 16/16/16 14/14/14 
f 15/15/15 17/17/17 1/1/1 
f 1/1/1 18/18/18 16/16/16 
f 1/1/1 17/17/17 19/19/19 
f 1/1/1 20/20/20 18/18/18 
f 1/1/1 21/21/21 20/20/20 
f 1/1/1 19/19/19 22/22/22 
f 1/1/1 22/22/22 23/23/23 
f 21/21/21 1/1/1 23/23/23 
f 24/24/24 25/25/25 26/26/26 
f 26/26/26 25/25/25 27/27/27 
f 28/28/28 29/29/29 30/30/30 
f 28/28/28 31/31/31 29/29/29 
f 28/28/28 30/30/30 32/32/32 
f 28/28/28 33/33/33 31/31/31 
f 32/32/32 34/34/34 28/28/28 
f 28/28/28 35/35/35 33/33/33 
f 28/28/28 34/34/34 36/36/36 
f 28/28/28 37/37/37 35/35/35 
f 36/36/36 38/38/38 28/28/28 
f 28/28/28 39/39/39 37/37/37 
f 28/28/28 38/38/38 40/40/40 
f 28/28/28 41/41/41 39/39/39 
f 40/40/40 42/42/42 28/28/28 
f 43/43/43 41/41/41 28/28/28 
f 28/28/28 42/42/42 44/44/44 
f 28/28/28 45/45/45 43/43/43 
f 44/44/44 46/46/46 28/28/28 
f 47/47/47 45/45/45 28/28/28 
f 28/28/28 46/46/46 48/48/48 
f 48/48/48 49/49/49 28/28/28 
f 49/49/49 50/50/50 28/28/28 
f 47/47/47 28/28/28 50/50/50 
f 51/51/51 52/52/52 53/53/53 
f 52/52/52 51/51/51 54/54/54 
f 54/54/54 55/55/55 52/52/52 
f 54/54/54 56/56/56 57/57/57 
f 57/57/57 55/55/55 54/54/54 
f 57/57/57 56/56/56 58/58/58 
f 59/59/59 58/58/58 56/56/56 
f 58/58/58 60/60/60 57/57/57 
f 58/58/58 59/59/59 61/61/61 
f 60/60/60 58/58/58 62/62/62 
f 61/61/61 62/62/62 58/58/58 
f 61/61/61 59/59/59 63/63/63 
f 62/62/62 61/61/61 64/64/64 
f 65/65/65 64/64/64 61/61/61 
f 61/61/61 66/66/66 65/65/65 
f 63/63/63 66/66/66 61/61/61 
f 67/67/67 68/68/68 62/62/62 
f 62/62/62 69/69/69 67/67/67 
f 64/64/64 69/69/69 62/62/62 
f 62/62/62 68/68/68 60/60/60 
f 65/65/65 66/66/66 70/70/70 
f 70/70/70 66/66/66 63/63/63 
f 70/70/70 71/71/71 65/65/65 
f 72/72/72 73/73/73 74/74/74 
f 74/74/74 75/75/75 72/72/72 
f 72/72/72 75/75/75 76/76/76 
f 76/76/76 77/77/77 72/72/72 
f 78/78/78 75/75/75 74/74/74 
f 74/74/74 79/79/79 78/78/78 
f 80/80/80 76/76/76 75/75/75 
f 75/75/75 78/78/78 80/80/80 
f 77/77/77 76/76/76 81/81/81 
f 82/82/82 81/81/81 76/76/76 
f 76/76/76 80/80/80 82/82/82 
f 81/81/81 83/83/83 77/77/77 
f 84/84/84 83/83/83 81/81/81 
f 85/85/85 81/81/81 82/82/82 
f 81/81/81 85/85/85 84/84/84 
f 82/82/82 80/80/80 86/86/86 
f 86/86/86 87/87/87 82/82/82 
f 82/82/82 87/87/87 88/88/88 
f 88/88/88 89/89/89 82/82/82 
f 82/82/82 89/89/89 85/85/85 
f 80/80/80 78/78/78 90/90/90 
f 90/90/90 86/86/86 80/80/80 
f 86/86/86 90/90/90 91/91/91 
f 92/92/92 87/87/87 86/86/86 
f 91/91/91 93/93/93 86/86/86 
f 86/86/86 93/93/93 92/92/92 
f 88/88/88 87/87/87 92/92/92 
f 92/92/92 94/94/94 88/88/88 
f 95/95/95 92/92/92 93/93/93 
f 94/94/94 92/92/92 95/95/95 
f 96/96/96 93/93/93 91/91/91 
f 93/93/93 96/96/96 95/95/95 
f 91/91/91 90/90/90 97/97/97 
f 97/97/97 98/98/98 91/91/91 
f 99/99/99 91/91/91 98/98/98 
f 91/91/91 99/99/99 96/96/96 
f 97/97/97 90/90/90 78/78/78 
f 78/78/78 79/79/79 97/97/97 
f 95/95/95 96/96/96 100/100/100 
f 100/100/100 96/96/96 99/99/99 
f 100/100/100 26/26/26 95/95/95 
f 27/27/27 95/95/95 26/26/26 
f 95/95/95 27/27/27 94/94/94 
f 99/99/99 101/101/101 100/100/100 
f 100/100/100 101/101/101 102/102/102 
f 26/26/26 100/100/100 103/103/103 
f 102/102/102 103/103/103 100/100/100 
f 98/98/98 104/104/104 99/99/99 
f 99/99/99 104/104/104 105/105/105 
f 105/105/105 101/101/101 99/99/99 
f 106/106/106 107/107/107 108/108/108 
f 106/106/106 109/109/109 110/110/110 
f 110/110/110 107/107/107 106/106/106 
f 111/111/111 112/112/112 113/113/113 
f 113/113/113 114/114/114 111/111/111 
f 114/114/114 113/113/113 115/115/115 
f 111/111/111 114/114/114 116/116/116 
f 116/116/116 117/117/117 111/111/111 
f 115/115/115 118/118/118 114/114/114 
f 116/116/116 114/114/114 118/118/118 
f 119/119/119 118/118/118 115/115/115 
f 118/118/118 120/120/120 116/116/116 
f 121/121/121 120/120/120 118/118/118 
f 118/118/118 119/119/119 121/121/121 
f 122/122/122 117/117/117 116/116/116 
f 116/116/116 123/123/123 122/122/122 
f 123/123/123 116/116/116 120/120/120 
f 120/120/120 124/124/124 123/123/123 
f 125/125/125 124/124/124 120/120/120 
f 120/120/120 121/121/121 125/125/125 
f 126/126/126 125/125/125 121/121/121 
f 121/121/121 127/127/127 126/126/126 
f 126/126/126 127/127/127 128/128/128 
f 128/128/128 129/129/129 126/126/126 
f 130/130/130 123/123/123 124/124/124 
f 122/122/122 123/123/123 130/130/130 
f 130/130/130 131/131/131 122/122/122 
f 132/132/132 131/131/131 130/130/130 
f 133/133/133 134/134/134 135/135/135 
f 136/136/136 135/135/135 134/134/134 
f 135/135/135 137/137/137 133/133/133 
f 134/134/134 138/138/138 136/136/136 
f 139/139/139 136/136/136 138/138/138 
f 138/138/138 140/140/140 139/139/139 
f 141/141/141 139/139/139 140/140/140 
f 142/142/142 143/143/143 138/138/138 
f 138/138/138 134/134/134 142/142/142 
f 140/140/140 138/138/138 143/143/143 
f 132/132/132 142/142/142 134/134/134 
f 134/134/134 133/133/133 132/132/132 
f 142/142/142 130/130/130 144/144/144 
f 130/130/130 142/142/142 132/132/132 
f 144/144/144 143/143/143 142/142/142 
f 145/145/145 143/143/143 144/144/144 
f 143/143/143 145/145/145 140/140/140 
f 146/146/146 140/140/140 145/145/145 
f 140/140/140 146/146/146 141/141/141 
f 144/144/144 147/147/147 145/145/145 
f 148/148/148 145/145/145 147/147/147 
f 145/145/145 148/148/148 146/146/146 
f 144/144/144 124/124/124 125/125/125 
f 124/124/124 144/144/144 130/130/130 
f 125/125/125 147/147/147 144/144/144 
f 147/147/147 125/125/125 126/126/126 
f 126/126/126 149/149/149 147/147/147 
f 147/147/147 149/149/149 148/148/148 
f 150/150/150 146/146/146 148/148/148 
f 148/148/148 149/149/149 151/151/151 
f 148/148/148 152/152/152 150/150/150 
f 151/151/151 152/152/152 148/148/148 
f 141/141/141 146/146/146 150/150/150 
f 150/150/150 153/153/153 141/141/141 
f 141/141/141 153/153/153 154/154/154 
f 150/150/150 152/152/152 155/155/155 
f 155/155/155 156/156/156 150/150/150 
f 153/153/153 150/150/150 156/156/156 
f 155/155/155 152/152/152 151/151/151 
f 151/151/151 149/149/149 126/126/126 
f 151/151/151 157/157/157 155/155/155 
f 157/157/157 151/151/151 129/129/129 
f 126/126/126 129/129/129 151/151/151 
f 158/158/158 156/156/156 155/155/155 
f 159/159/159 160/160/160 155/155/155 
f 155/155/155 157/157/157 159/159/159 
f 155/155/155 160/160/160 158/158/158 
f 156/156/156 161/161/161 153/153/153 
f 161/161/161 156/156/156 158/158/158 
f 154/154/154 153/153/153 161/161/161 
f 162/162/162 154/154/154 163/163/163 
f 161/161/161 163/163/163 154/154/154 
f 158/158/158 164/164/164 161/161/161 
f 163/163/163 161/161/161 164/164/164 
f 165/165/165 158/158/158 160/160/160 
f 164/164/164 158/158/158 165/165/165 
f 166/166/166 167/167/167 160/160/160 
f 160/160/160 159/159/159 166/166/166 
f 160/160/160 167/167/167 165/165/165 
f 165/165/165 167/167/167 168/168/168 
f 168/168/168 169/169/169 165/165/165 
f 165/165/165 170/170/170 164/164/164 
f 165/165/165 169/169/169 171/171/171 
f 171/171/171 170/170/170 165/165/165 
f 164/164/164 172/172/172 163/163/163 
f 164/164/164 170/170/170 173/173/173 
f 173/173/173 172/172/172 164/164/164 
f 163/163/163 174/174/174 162/162/162 
f 174/174/174 163/163/163 172/172/172 
f 172/172/172 175/175/175 174/174/174 
f 175/175/175 172/172/172 173/173/173 
f 173/173/173 170/170/170 171/171/171 
f 171/171/171 176/176/176 173/173/173 
f 173/173/173 176/176/176 177/177/177 
f 177/177/177 178/178/178 173/173/173 
f 173/173/173 178/178/178 175/175/175 
f 179/179/179 174/174/174 175/175/175 
f 175/175/175 180/180/180 179/179/179 
f 181/181/181 180/180/180 175/175/175 
f 175/175/175 178/178/178 181/181/181 
f 178/178/178 177/177/177 182/182/182 
f 182/182/182 181/181/181 178/178/178 
f 183/183/183 184/184/184 181/181/181 
f 181/181/181 182/182/182 183/183/183 
f 185/185/185 180/180/180 181/181/181 
f 181/181/181 184/184/184 185/185/185 
f 179/179/179 180/180/180 185/185/185 
f 185/185/185 184/184/184 186/186/186 
f 186/186/186 184/184/184 183/183/183 
f 183/183/183 187/187/187 186/186/186 
f 188/188/188 186/186/186 187/187/187 
f 187/187/187 189/189/189 188/188/188 
f 188/188/188 189/189/189 190/190/190 
f 190/190/190 191/191/191 188/188/188 
f 102/102/102 101/101/101 105/105/105 
f 105/105/105 192/192/192 102/102/102 
f 103/103/103 102/102/102 193/193/193 
f 194/194/194 193/193/193 102/102/102 
f 102/102/102 192/192/192 194/194/194 
f 103/103/103 195/195/195 26/26/26 
f 193/193/193 196/196/196 103/103/103 
f 195/195/195 103/103/103 196/196/196 
f 196/196/196 193/193/193 197/197/197 
f 198/198/198 197/197/197 193/193/193 
f 193/193/193 194/194/194 198/198/198 
f 196/196/196 199/199/199 195/195/195 
f 200/200/200 199/199/199 196/196/196 
f 196/196/196 201/201/201 200/200/200 
f 197/197/197 201/201/201 196/196/196 
f 26/26/26 195/195/195 24/24/24 
f 202/202/202 24/24/24 195/195/195 
f 195/195/195 199/199/199 202/202/202 
f 202/202/202 199/199/199 200/200/200 
f 200/200/200 201/201/201 203/203/203 
f 200/200/200 204/204/204 202/202/202 
f 205/205/205 204/204/204 200/200/200 
f 203/203/203 206/206/206 200/200/200 
f 200/200/200 206/206/206 205/205/205 
f 203/203/203 201/201/201 197/197/197 
f 207/207/207 197/197/197 198/198/198 
f 197/197/197 207/207/207 203/203/203 
f 198/198/198 208/208/208 207/207/207 
f 209/209/209 203/203/203 207/207/207 
f 207/207/207 210/210/210 209/209/209 
f 207/207/207 208/208/208 211/211/211 
f 211/211/211 210/210/210 207/207/207 
f 212/212/212 206/206/206 203/203/203 
f 203/203/203 209/209/209 212/212/212 
f 205/205/205 206/206/206 212/212/212 
f 212/212/212 213/213/213 205/205/205 
f 212/212/212 209/209/209 214/214/214 
f 215/215/215 213/213/213 212/212/212 
f 214/214/214 216/216/216 212/212/212 
f 212/212/212 216/216/216 215/215/215 
f 214/214/214 209/209/209 210/210/210 
f 210/210/210 217/217/217 214/214/214 
f 218/218/218 217/217/217 210/210/210 
f 210/210/210 211/211/211 218/218/218 
f 214/214/214 217/217/217 219/219/219 
f 220/220/220 216/216/216 214/214/214 
f 214/214/214 221/221/221 220/220/220 
f 219/219/219 221/221/221 214/214/214 
f 216/216/216 220/220/220 222/222/222 
f 222/222/222 215/215/215 216/216/216 
f 223/223/223 222/222/222 220/220/220 
f 220/220/220 224/224/224 223/223/223 
f 224/224/224 220/220/220 221/221/221 
f 225/225/225 221/221/221 219/219/219 
f 221/221/221 225/225/225 224/224/224 
f 223/223/223 224/224/224 226/226/226 
f 226/226/226 224/224/224 225/225/225 
f 226/226/226 227/227/227 223/223/223 
f 225/225/225 228/228/228 226/226/226 
f 226/226/226 228/228/228 229/229/229 
f 230/230/230 227/227/227 226/226/226 
f 229/229/229 231/231/231 226/226/226 
f 226/226/226 231/231/231 230/230/230 
f 219/219/219 232/232/232 225/225/225 
f 225/225/225 232/232/232 233/233/233 
f 233/233/233 228/228/228 225/225/225 
f 229/229/229 228/228/228 233/233/233 
f 233/233/233 234/234/234 229/229/229 
f 229/229/229 234/234/234 235/235/235 
f 231/231/231 229/229/229 236/236/236 
f 235/235/235 236/236/236 229/229/229 
f 237/237/237 230/230/230 231/231/231 
f 231/231/231 238/238/238 237/237/237 
f 236/236/236 238/238/238 231/231/231 
f 238/238/238 236/236/236 239/239/239 
f 239/239/239 236/236/236 235/235/235 
f 240/240/240 235/235/235 234/234/234 
f 235/235/235 241/241/241 239/239/239 
f 242/242/242 241/241/241 235/235/235 
f 235/235/235 240/240/240 242/242/242 
f 234/234/234 233/233/233 243/243/243 
f 243/243/243 244/244/244 234/234/234 
f 234/234/234 244/244/244 240/240/240 
f 233/233/233 232/232/232 245/245/245 
f 245/245/245 243/243/243 233/233/233 
f 245/245/245 232/232/232 219/219/219 
f 219/219/219 246/246/246 245/245/245 
f 219/219/219 217/217/217 218/218/218 
f 218/218/218 246/246/246 219/219/219 
f 241/241/241 242/242/242 247/247/247 
f 248/248/248 239/239/239 241/241/241 
f 241/241/241 249/249/249 248/248/248 
f 247/247/247 249/249/249 241/241/241 
f 250/250/250 249/249/249 247/247/247 
f 247/247/247 251/251/251 250/250/250 
f 248/248/248 249/249/249 250/250/250 
f 239/239/239 248/248/248 252/252/252 
f 252/252/252 248/248/248 253/253/253 
f 250/250/250 253/253/253 248/248/248 
f 254/254/254 253/253/253 250/250/250 
f 250/250/250 255/255/255 254/254/254 
f 256/256/256 255/255/255 250/250/250 
f 250/250/250 251/251/251 256/256/256 
f 253/253/253 257/257/257 252/252/252 
f 257/257/257 253/253/253 254/254/254 
f 252/252/252 258/258/258 239/239/239 
f 258/258/258 252/252/252 259/259/259 
f 259/259/259 252/252/252 257/257/257 
f 257/257/257 260/260/260 259/259/259 
f 260/260/260 257/257/257 261/261/261 
f 254/254/254 261/261/261 257/257/257 
f 259/259/259 262/262/262 258/258/258 
f 237/237/237 238/238/238 258/258/258 
f 239/239/239 258/258/258 238/238/238 
f 258/258/258 262/262/262 237/237/237 
f 263/263/263 261/261/261 254/254/254 
f 261/261/261 264/264/264 260/260/260 
f 261/261/261 263/263/263 265/265/265 
f 265/265/265 264/264/264 261/261/261 
f 254/254/254 266/266/266 263/263/263 
f 267/267/267 266/266/266 254/254/254 
f 254/254/254 255/255/255 267/267/267 
f 267/267/267 255/255/255 256/256/256 
f 256/256/256 268/268/268 267/267/267 
f 166/166/166 269/269/269 168/168/168 
f 168/168/168 167/167/167 166/166/166 
f 166/166/166 270/270/270 271/271/271 
f 270/270/270 166/166/166 159/159/159 
f 271/271/271 269/269/269 166/166/166 
f 272/272/272 270/270/270 273/273/273 
f 270/270/270 272/272/272 274/274/274 
f 274/274/274 271/271/271 270/270/270 
f 159/159/159 273/273/273 270/270/270 
f 275/275/275 273/273/273 159/159/159 
f 159/159/159 157/157/157 275/275/275 
f 273/273/273 276/276/276 272/272/272 
f 276/276/276 273/273/273 275/275/275 
f 277/277/277 272/272/272 276/276/276 
f 272/272/272 277/277/277 278/278/278 
f 278/278/278 274/274/274 272/272/272 
f 276/276/276 279/279/279 280/280/280 
f 280/280/280 281/281/281 276/276/276 
f 275/275/275 279/279/279 276/276/276 
f 276/276/276 281/281/281 277/277/277 
f 128/128/128 279/279/279 275/275/275 
f 129/129/129 275/275/275 157/157/157 
f 275/275/275 129/129/129 128/128/128 
f 282/282/282 280/280/280 279/279/279 
f 279/279/279 128/128/128 282/282/282 
f 280/280/280 282/282/282 283/283/283 
f 283/283/283 284/284/284 280/280/280 
f 280/280/280 284/284/284 285/285/285 
f 285/285/285 281/281/281 280/280/280 
f 277/277/277 281/281/281 285/285/285 
f 285/285/285 284/284/284 286/286/286 
f 286/286/286 287/287/287 285/285/285 
f 285/285/285 288/288/288 277/277/277 
f 288/288/288 285/285/285 287/287/287 
f 286/286/286 284/284/284 283/283/283 
f 283/283/283 289/289/289 290/290/290 
f 291/291/291 289/289/289 283/283/283 
f 290/290/290 292/292/292 283/283/283 
f 283/283/283 292/292/292 286/286/286 
f 283/283/283 282/282/282 291/291/291 
f 291/291/291 282/282/282 128/128/128 
f 121/121/121 119/119/119 291/291/291 
f 291/291/291 127/127/127 121/121/121 
f 291/291/291 119/119/119 293/293/293 
f 128/128/128 127/127/127 291/291/291 
f 293/293/293 289/289/289 291/291/291 
f 294/294/294 290/290/290 289/289/289 
f 289/289/289 293/293/293 294/294/294 
f 295/295/295 290/290/290 294/294/294 
f 290/290/290 295/295/295 296/296/296 
f 296/296/296 292/292/292 290/290/290 
f 292/292/292 296/296/296 297/297/297 
f 297/297/297 286/286/286 292/292/292 
f 296/296/296 295/295/295 298/298/298 
f 298/298/298 299/299/299 296/296/296 
f 297/297/297 296/296/296 299/299/299 
f 294/294/294 300/300/300 295/295/295 
f 298/298/298 295/295/295 300/300/300 
f 294/294/294 301/301/301 302/302/302 
f 302/302/302 300/300/300 294/294/294 
f 301/301/301 294/294/294 293/293/293 
f 115/115/115 293/293/293 119/119/119 
f 293/293/293 115/115/115 301/301/301 
f 303/303/303 302/302/302 301/301/301 
f 301/301/301 304/304/304 303/303/303 
f 304/304/304 301/301/301 115/115/115 
f 305/305/305 302/302/302 303/303/303 
f 300/300/300 302/302/302 305/305/305 
f 305/305/305 306/306/306 300/300/300 
f 300/300/300 306/306/306 298/298/298 
f 307/307/307 308/308/308 298/298/298 
f 298/298/298 306/306/306 307/307/307 
f 299/299/299 298/298/298 308/308/308 
f 309/309/309 307/307/307 306/306/306 
f 306/306/306 305/305/305 309/309/309 
f 309/309/309 305/305/305 310/310/310 
f 303/303/303 310/310/310 305/305/305 
f 310/310/310 303/303/303 311/311/311 
f 311/311/311 303/303/303 304/304/304 
f 304/304/304 312/312/312 311/311/311 
f 112/112/112 312/312/312 304/304/304 
f 304/304/304 113/113/113 112/112/112 
f 115/115/115 113/113/113 304/304/304 
f 311/311/311 313/313/313 310/310/310 
f 314/314/314 315/315/315 310/310/310 
f 310/310/310 315/315/315 309/309/309 
f 310/310/310 313/313/313 314/314/314 
f 307/307/307 309/309/309 316/316/316 
f 317/317/317 316/316/316 309/309/309 
f 309/309/309 315/315/315 317/317/317 
f 317/317/317 315/315/315 314/314/314 
f 314/314/314 318/318/318 317/317/317 
f 319/319/319 320/320/320 317/317/317 
f 316/316/316 317/317/317 320/320/320 
f 317/317/317 318/318/318 319/319/319 
f 320/320/320 321/321/321 316/316/316 
f 322/322/322 316/316/316 321/321/321 
f 316/316/316 322/322/322 307/307/307 
f 323/323/323 324/324/324 320/320/320 
f 320/320/320 319/319/319 323/323/323 
f 321/321/321 320/320/320 324/324/324 
f 324/324/324 325/325/325 321/321/321 
f 321/321/321 325/325/325 326/326/326 
f 326/326/326 327/327/327 321/321/321 
f 321/321/321 327/327/327 322/322/322 
f 322/322/322 327/327/327 328/328/328 
f 307/307/307 322/322/322 329/329/329 
f 328/328/328 329/329/329 322/322/322 
f 329/329/329 308/308/308 307/307/307 
f 330/330/330 329/329/329 328/328/328 
f 308/308/308 329/329/329 330/330/330 
f 328/328/328 327/327/327 326/326/326 
f 326/326/326 331/331/331 328/328/328 
f 332/332/332 328/328/328 331/331/331 
f 328/328/328 332/332/332 330/330/330 
f 333/333/333 326/326/326 325/325/325 
f 326/326/326 333/333/333 334/334/334 
f 334/334/334 331/331/331 326/326/326 
f 335/335/335 325/325/325 324/324/324 
f 325/325/325 335/335/335 333/333/333 
f 324/324/324 336/336/336 335/335/335 
f 336/336/336 324/324/324 323/323/323 
f 323/323/323 337/337/337 336/336/336 
f 331/331/331 338/338/338 332/332/332 
f 338/338/338 331/331/331 334/334/334 
f 330/330/330 332/332/332 339/339/339 
f 340/340/340 339/339/339 332/332/332 
f 332/332/332 338/338/338 340/340/340 
f 334/334/334 341/341/341 338/338/338 
f 338/338/338 341/341/341 342/342/342 
f 342/342/342 340/340/340 338/338/338 
f 343/343/343 339/339/339 340/340/340 
f 340/340/340 344/344/344 343/343/343 
f 344/344/344 340/340/340 342/342/342 
f 345/345/345 339/339/339 343/343/343 
f 339/339/339 345/345/345 330/330/330 
f 343/343/343 346/346/346 345/345/345 
f 347/347/347 343/343/343 344/344/344 
f 348/348/348 346/346/346 343/343/343 
f 343/343/343 347/347/347 348/348/348 
f 342/342/342 349/349/349 344/344/344 
f 344/344/344 106/106/106 347/347/347 
f 344/344/344 349/349/349 109/109/109 
f 109/109/109 106/106/106 344/344/344 
f 108/108/108 347/347/347 106/106/106 
f 348/348/348 347/347/347 108/108/108 
f 350/350/350 346/346/346 348/348/348 
f 348/348/348 351/351/351 350/350/350 
f 352/352/352 351/351/351 348/348/348 
f 108/108/108 353/353/353 348/348/348 
f 348/348/348 353/353/353 352/352/352 
f 354/354/354 345/345/345 346/346/346 
f 346/346/346 350/350/350 354/354/354 
f 330/330/330 345/345/345 354/354/354 
f 354/354/354 355/355/355 330/330/330 
f 299/299/299 355/355/355 354/354/354 
f 354/354/354 356/356/356 299/299/299 
f 357/357/357 356/356/356 354/354/354 
f 354/354/354 350/350/350 357/357/357 
f 350/350/350 351/351/351 358/358/358 
f 358/358/358 357/357/357 350/350/350 
f 358/358/358 351/351/351 352/352/352 
f 352/352/352 359/359/359 358/358/358 
f 358/358/358 359/359/359 360/360/360 
f 361/361/361 357/357/357 358/358/358 
f 358/358/358 362/362/362 361/361/361 
f 360/360/360 362/362/362 358/358/358 
f 297/297/297 356/356/356 357/357/357 
f 357/357/357 361/361/361 297/297/297 
f 299/299/299 356/356/356 297/297/297 
f 308/308/308 355/355/355 299/299/299 
f 330/330/330 355/355/355 308/308/308 
f 286/286/286 297/297/297 361/361/361 
f 361/361/361 287/287/287 286/286/286 
f 363/363/363 287/287/287 361/361/361 
f 361/361/361 362/362/362 363/363/363 
f 364/364/364 363/363/363 362/362/362 
f 362/362/362 360/360/360 364/364/364 
f 287/287/287 363/363/363 288/288/288 
f 365/365/365 288/288/288 363/363/363 
f 363/363/363 364/364/364 365/365/365 
f 277/277/277 288/288/288 365/365/365 
f 365/365/365 278/278/278 277/277/277 
f 366/366/366 367/367/367 368/368/368 
f 185/185/185 366/366/366 369/369/369 
f 368/368/368 369/369/369 366/366/366 
f 186/186/186 366/366/366 185/185/185 
f 367/367/367 366/366/366 186/186/186 
f 186/186/186 188/188/188 367/367/367 
f 367/367/367 188/188/188 191/191/191 
f 191/191/191 370/370/370 367/367/367 
f 368/368/368 367/367/367 370/370/370 
f 370/370/370 371/371/371 368/368/368 
f 372/372/372 368/368/368 371/371/371 
f 368/368/368 372/372/372 373/373/373 
f 373/373/373 369/369/369 368/368/368 
f 369/369/369 374/374/374 185/185/185 
f 374/374/374 369/369/369 373/373/373 
f 375/375/375 373/373/373 372/372/372 
f 373/373/373 375/375/375 376/376/376 
f 376/376/376 377/377/377 373/373/373 
f 373/373/373 377/377/377 374/374/374 
f 71/71/71 70/70/70 372/372/372 
f 372/372/372 70/70/70 375/375/375 
f 371/371/371 378/378/378 372/372/372 
f 372/372/372 378/378/378 71/71/71 
f 63/63/63 375/375/375 70/70/70 
f 376/376/376 375/375/375 63/63/63 
f 379/379/379 380/380/380 376/376/376 
f 376/376/376 380/380/380 381/381/381 
f 376/376/376 382/382/382 379/379/379 
f 381/381/381 377/377/377 376/376/376 
f 63/63/63 382/382/382 376/376/376 
f 374/374/374 377/377/377 381/381/381 
f 381/381/381 179/179/179 374/374/374 
f 185/185/185 374/374/374 179/179/179 
f 383/383/383 162/162/162 381/381/381 
f 381/381/381 380/380/380 383/383/383 
f 381/381/381 162/162/162 174/174/174 
f 174/174/174 179/179/179 381/381/381 
f 384/384/384 383/383/383 380/380/380 
f 380/380/380 379/379/379 384/384/384 
f 384/384/384 379/379/379 385/385/385 
f 386/386/386 385/385/385 379/379/379 
f 379/379/379 382/382/382 386/386/386 
f 386/386/386 382/382/382 63/63/63 
f 385/385/385 386/386/386 56/56/56 
f 56/56/56 386/386/386 59/59/59 
f 63/63/63 59/59/59 386/386/386 
f 51/51/51 387/387/387 385/385/385 
f 385/385/385 387/387/387 384/384/384 
f 385/385/385 54/54/54 51/51/51 
f 56/56/56 54/54/54 385/385/385 
f 388/388/388 389/389/389 384/384/384 
f 384/384/384 387/387/387 388/388/388 
f 384/384/384 389/389/389 390/390/390 
f 390/390/390 383/383/383 384/384/384 
f 162/162/162 383/383/383 390/390/390 
f 139/139/139 141/141/141 390/390/390 
f 390/390/390 389/389/389 139/139/139 
f 154/154/154 390/390/390 141/141/141 
f 390/390/390 154/154/154 162/162/162 
f 139/139/139 389/389/389 388/388/388 
f 135/135/135 136/136/136 388/388/388 
f 388/388/388 136/136/136 139/139/139 
f 388/388/388 391/391/391 135/135/135 
f 391/391/391 388/388/388 387/387/387 
f 387/387/387 51/51/51 391/391/391 
f 137/137/137 135/135/135 391/391/391 
f 391/391/391 53/53/53 137/137/137 
f 53/53/53 391/391/391 51/51/51 

