# This file is brought to you by Roblox Corporation
# Generated by Roblox Studio

mtllib Slap_14.mtl

g Handle1

v 30.7311 3.00142 21.7 
v 30.7328 2.99824 21.7999 
v 30.7344 3.10132 21.7031 
v 30.7361 3.09814 21.803 
v 32.4915 2.94012 21.7682 
v 30.7328 2.99824 21.7999 
v 32.4898 2.94331 21.6682 
v 30.7311 3.00142 21.7 
v 30.7328 2.99824 21.7999 
v 32.4915 2.94012 21.7682 
v 30.7361 3.09814 21.803 
v 32.4949 3.04002 21.7713 
v 32.4915 2.94012 21.7682 
v 32.4898 2.94331 21.6682 
v 32.4949 3.04002 21.7713 
v 32.4932 3.0432 21.6713 
v 32.4932 3.0432 21.6713 
v 30.7344 3.10132 21.7031 
v 32.4949 3.04002 21.7713 
v 30.7361 3.09814 21.803 
v 32.4898 2.94331 21.6682 
v 30.7311 3.00142 21.7 
v 32.4932 3.0432 21.6713 
v 30.7344 3.10132 21.7031 

vn -1 0.0314961 0.015748 
vn -1 0.0314961 0.015748 
vn -1 0.0314961 0.015748 
vn -1 0.0314961 0.015748 
vn -0.0314961 -1 -0.0314961 
vn -0.0314961 -1 -0.0314961 
vn -0.0314961 -1 -0.0314961 
vn -0.0314961 -1 -0.0314961 
vn 0.015748 -0.0314961 1 
vn 0.015748 -0.0314961 1 
vn 0.015748 -0.0314961 1 
vn 0.015748 -0.0314961 1 
vn 1 -0.0314961 -0.015748 
vn 1 -0.0314961 -0.015748 
vn 1 -0.0314961 -0.015748 
vn 1 -0.0314961 -0.015748 
vn 0.0314961 1 0.0314961 
vn 0.0314961 1 0.0314961 
vn 0.0314961 1 0.0314961 
vn 0.0314961 1 0.0314961 
vn -0.015748 0.0314961 -1 
vn -0.015748 0.0314961 -1 
vn -0.015748 0.0314961 -1 
vn -0.015748 0.0314961 -1 

vt -0.0678156 0.918252 
vt -0.0803156 0.918252 
vt -0.0678156 0.905752 
vt -0.0803156 0.905752 
vt 0.139684 0.918252 
vt -0.0803156 0.918252 
vt 0.139684 0.905752 
vt -0.0803156 0.905752 
vt 0.139684 0.918252 
vt -0.0803156 0.918252 
vt 0.139684 0.905752 
vt -0.0803156 0.905752 
vt -0.0678156 0.918252 
vt -0.0803156 0.918252 
vt -0.0678156 0.905752 
vt -0.0803156 0.905752 
vt 0.139684 0.918252 
vt -0.0803156 0.918252 
vt 0.139684 0.905752 
vt -0.0803156 0.905752 
vt 0.139684 0.918252 
vt -0.0803156 0.918252 
vt 0.139684 0.905752 
vt -0.0803156 0.905752 

usemtl Handle1Mtl

f 1/1/1 2/2/2 3/3/3 
f 3/3/3 2/2/2 4/4/4 
f 5/5/5 6/6/6 7/7/7 
f 7/7/7 6/6/6 8/8/8 
f 9/9/9 10/10/10 11/11/11 
f 11/11/11 10/10/10 12/12/12 
f 13/13/13 14/14/14 15/15/15 
f 15/15/15 14/14/14 16/16/16 
f 17/17/17 18/18/18 19/19/19 
f 19/19/19 18/18/18 20/20/20 
f 21/21/21 22/22/22 23/23/23 
f 23/23/23 22/22/22 24/24/24 

g Hand1

v 28.4451 3.42825 21.8257 
v 28.4423 3.38757 21.5996 
v 29.166 3.75023 21.5236 
v 29.0507 3.82239 21.706 
v 29.2318 3.88281 21.8159 
v 29.3784 3.88685 21.6815 
v 29.4199 4.00329 22.3325 
v 27.5898 2.41446 22.3367 
v 27.7293 2.74123 22.0888 
v 27.5958 2.69869 22.2023 
v 27.6911 2.70016 22.2866 
v 27.8667 2.7589 22.1378 
v 27.2641 3.13879 22.231 
v 27.1794 3.14229 22.1771 
v 28.4075 3.31345 21.8425 
v 29.5102 4.25067 22.3606 
v 28.8956 4.77512 22.3357 
v 28.9645 4.78292 22.3948 
v 28.9938 4.81523 22.3137 
v 28.9572 4.80357 22.2574 
v 28.9176 4.76605 22.2145 
v 28.8734 4.68742 22.4083 
v 28.9407 4.71259 22.4553 
v 29.2957 3.95018 21.9451 
v 29.4324 3.99482 21.8277 
v 29.2957 3.95018 21.9451 
v 29.2318 3.88281 21.8159 
v 29.1719 3.78622 21.9689 
v 27.3518 3.70797 21.996 
v 27.3151 3.70966 21.9064 
v 27.4323 3.67686 22.0659 
v 27.3518 3.70797 21.996 
v 27.4607 2.58368 22.2157 
v 27.4919 2.62635 22.2987 
v 27.4919 2.62635 22.2987 
v 27.5741 2.64796 22.3588 
v 27.764 2.60151 22.3528 
v 28.4707 2.90773 21.9077 
v 28.259 2.71094 22.0985 
v 27.9671 2.6464 22.2401 
v 28.0566 2.82632 21.8695 
v 27.8501 2.77175 21.9985 
v 28.1738 2.83756 21.9656 
v 28.5909 2.4659 21.8308 
v 28.4666 2.40747 21.8892 
v 28.5293 2.42918 21.9796 
v 28.1495 2.17693 22.2091 
v 28.3092 2.29368 22.0835 
v 28.1926 2.25117 22.0306 
v 28.0627 2.15842 22.1394 
v 28.3076 2.3179 21.9634 
v 28.7403 2.53469 21.7538 
v 28.6916 2.54184 21.9614 
v 28.7403 2.53469 21.7538 
v 28.0037 2.071 22.2238 
v 28.0652 2.09946 22.2661 
v 28.566 3.33137 21.4738 
v 28.4844 3.28164 21.4745 
v 28.4268 3.33613 21.6095 
v 28.4423 3.38757 21.5996 
v 28.7104 3.42473 21.3908 
v 28.4944 2.90575 21.6762 
v 28.5614 2.8469 21.5517 
v 30.5288 3.43907 21.4487 
v 30.4501 3.64459 21.9054 
v 30.2421 3.73169 21.7321 
v 30.2512 3.78221 21.8889 
v 30.2702 3.67423 22.1552 
v 30.2008 3.79553 22.0894 
v 28.2415 2.86509 21.7816 
v 28.9176 4.76605 22.2145 
v 29.0753 4.7175 22.4335 
v 27.5936 3.70778 22.017 
v 27.4965 3.7664 21.9291 
v 28.9572 4.80357 22.2574 
v 29.044 4.75194 22.2116 
v 29.2192 4.59703 22.4428 
v 29.0829 4.76971 22.3132 
v 27.8329 3.74713 21.9098 
v 27.6803 3.79361 21.8452 
v 27.4965 3.7664 21.9291 
v 27.4242 3.73988 21.8262 
v 27.2216 2.90715 22.1755 
v 29.1612 4.63905 22.176 
v 29.2196 4.66147 22.3053 
v 27.6803 3.79361 21.8452 
v 27.5962 3.75253 21.7374 
v 29.2621 4.51678 22.1347 
v 28.7561 2.48457 22.0547 
v 28.1812 3.75923 21.8259 
v 28.4268 3.33613 21.6095 
v 27.8387 3.80338 21.7905 
v 27.7943 3.75855 21.6622 
v 28.078 3.81165 21.7267 
v 27.8387 3.80338 21.7905 
v 27.1383 3.12073 22.0998 
v 27.1794 3.14229 22.1771 
v 29.3343 4.54261 22.2779 
v 28.5103 3.74558 21.8099 
v 28.078 3.81165 21.7267 
v 28.0289 3.76302 21.5924 
v 27.3041 3.21337 22.0905 
v 27.2379 3.159 22.0041 
v 28.7671 3.75325 21.818 
v 28.531 3.79499 21.6562 
v 28.2629 3.80704 21.687 
v 28.2629 3.80704 21.687 
v 28.2556 3.75443 21.5398 
v 27.404 3.18886 21.8861 
v 27.4766 3.25239 21.9787 
v 27.4123 3.18524 22.1627 
v 29.7117 4.02545 21.8093 
v 29.6387 4.23313 22.0239 
v 29.8486 4.0846 22.0053 
v 28.0461 3.28067 21.8676 
v 28.1425 3.32008 21.6932 
v 27.9258 3.30847 21.7685 
v 28.9911 3.76514 21.8657 
v 27.6477 3.23625 22.0173 
v 27.6426 3.27663 21.8887 
v 27.4766 3.25239 21.9787 
v 28.7932 3.79814 21.6575 
v 28.531 3.79499 21.6562 
v 28.5224 3.73715 21.5005 
v 27.6081 3.21533 21.7694 
v 27.6426 3.27663 21.8887 
v 27.6011 3.07467 21.7156 
v 29.6799 4.21029 22.203 
v 29.8613 4.00931 22.2108 
v 29.0507 3.82239 21.706 
v 28.7932 3.79814 21.6575 
v 28.8073 3.73249 21.4914 
v 27.3041 3.21337 22.0905 
v 27.9258 3.30847 21.7685 
v 27.8896 3.24285 21.6454 
v 27.5958 2.69869 22.2023 
v 27.5515 2.61994 22.1173 
v 30.0832 3.91138 22.0301 
v 30.0376 3.89848 21.8218 
v 29.6683 3.86061 21.6205 
v 30.1118 3.80183 22.2022 
v 28.765 3.587 21.3876 
v 28.1425 3.32008 21.6932 
v 28.1678 3.25831 21.5549 
v 27.6824 2.65016 22.0064 
v 27.7293 2.74123 22.0888 
v 29.9826 3.80156 21.6387 
v 28.4304 2.98971 21.874 
v 27.8501 2.77175 21.9985 
v 27.8346 2.6856 21.8949 
v 30.5166 3.59162 21.6066 
v 30.2108 3.62505 21.5351 
v 30.7928 3.56829 21.8416 
v 30.8053 3.55746 21.6386 
v 30.8409 3.39773 21.9417 
v 28.0566 2.82632 21.8695 
v 28.037 2.73712 21.7693 
v 28.4944 2.90575 21.6762 
v 28.2415 2.86509 21.7816 
v 28.2743 2.79031 21.66 
v 28.7653 2.87755 21.4473 
v 28.0627 2.15842 22.1394 
v 28.1596 2.16115 21.9484 
v 29.5493 4.3317 22.2136 
v 29.4882 4.32325 22.0539 
v 29.4334 4.43865 22.2449 
v 29.3619 4.41342 22.0937 
v 29.5102 4.25067 22.3606 
v 28.9938 4.81523 22.3137 
v 28.4707 2.90773 21.9077 
v 28.5358 2.77622 22.0278 
v 30.4501 3.64459 21.9054 
v 30.2512 3.78221 21.8889 
v 30.2702 3.67423 22.1552 
v 30.2008 3.79553 22.0894 
v 30.5155 3.39986 22.1364 
v 29.0753 4.7175 22.4335 
v 29.2192 4.59703 22.4428 
v 27.6105 3.57952 22.0488 
v 27.4839 3.45282 21.8946 
v 27.5163 3.48094 22.0112 
v 29.1612 4.63905 22.176 
v 29.2196 4.66147 22.3053 
v 29.2621 4.51678 22.1347 
v 28.7561 2.48457 22.0547 
v 29.3343 4.54261 22.2779 
v 29.6387 4.23313 22.0239 
v 29.8486 4.0846 22.0053 
v 29.6799 4.21029 22.203 
v 29.8613 4.00931 22.2108 
v 30.1118 3.80183 22.2022 
v 30.0284 3.59108 22.3541 
v 28.4304 2.98971 21.874 
v 30.8053 3.55746 21.6386 
v 30.8427 3.41851 21.5887 
v 30.8551 3.16105 21.5516 
v 30.8503 2.85787 21.547 
v 30.8232 2.66591 21.592 
v 29.3374 4.47395 22.4223 
v 29.5493 4.3317 22.2136 
v 29.4145 4.38301 22.3982 
v 29.4334 4.43865 22.2449 
v 30.8521 2.79018 21.8988 
v 30.8265 2.62837 21.7923 
v 30.7928 3.56829 21.8416 
v 30.8409 3.39773 21.9417 
v 30.8461 3.09739 21.9825 
v 28.8124 2.5844 21.6331 
v 28.6974 2.59567 21.6295 
v 28.9163 2.62014 21.5377 
v 29.166 3.75023 21.5236 
v 29.0507 3.82239 21.706 
v 29.3784 3.88685 21.6815 
v 27.5898 2.41446 22.3367 
v 27.5537 2.39995 22.2513 
v 29.5102 4.25067 22.3606 
v 28.9938 4.81523 22.3137 
v 29.2957 3.95018 21.9451 
v 29.4324 3.99482 21.8277 
v 29.2957 3.95018 21.9451 
v 29.2671 4.01316 22.0609 
v 29.3575 4.07424 21.9422 
v 27.2898 3.61727 21.895 
v 27.3518 3.70797 21.996 
v 27.3151 3.70966 21.9064 
v 27.317 3.52498 21.8872 
v 27.3496 3.49384 21.9696 
v 27.48 2.47864 22.2318 
v 27.4607 2.58368 22.2157 
v 27.4919 2.62635 22.2987 
v 28.6418 2.399 21.7251 
v 28.5909 2.4659 21.8308 
v 28.7403 2.53469 21.7538 
v 28.8204 2.47809 21.6472 
v 28.7403 2.53469 21.7538 
v 29.5888 2.57619 21.5172 
v 29.8802 2.5597 21.6029 
v 29.6368 2.49076 21.5888 
v 29.2949 3.28333 21.2858 
v 29.605 3.18949 21.3051 
v 29.2829 3.17973 21.2763 
v 29.3736 2.90032 21.3372 
v 29.7206 2.84341 21.3914 
v 29.4344 2.80806 21.3713 
v 29.3942 3.54802 21.3611 
v 29.6688 3.4995 21.3689 
v 29.3312 3.44043 21.3211 
v 29.3011 3.07089 21.2935 
v 28.9845 3.02423 21.3273 
v 28.7261 2.99459 21.4165 
v 28.7235 3.14865 21.363 
v 28.9693 3.16266 21.3001 
v 28.566 3.33137 21.4738 
v 28.7011 3.30024 21.3857 
v 28.4844 3.28164 21.4745 
v 28.4268 3.33613 21.6095 
v 28.5675 3.38774 21.4729 
v 28.4423 3.38757 21.5996 
v 28.4935 3.44332 21.4654 
v 28.7104 3.42473 21.3908 
v 28.6093 2.95115 21.5184 
v 28.5147 2.98853 21.5062 
v 28.8521 2.54102 21.6341 
v 28.9851 2.51948 21.5706 
v 28.4944 2.90575 21.6762 
v 28.6281 2.90281 21.5345 
v 28.5614 2.8469 21.5517 
v 30.1648 3.19437 21.343 
v 30.1584 3.45566 21.3999 
v 30.5288 3.43907 21.4487 
v 30.5468 3.18889 21.3797 
v 29.2572 4.14187 22.0241 
v 28.8583 4.72538 22.2653 
v 28.8875 4.6045 22.2046 
v 28.9536 4.37069 22.2785 
v 28.9176 4.76605 22.2145 
v 28.9692 4.68907 22.1638 
v 28.9676 4.44772 22.1593 
v 28.9536 4.37069 22.2785 
v 28.9572 4.80357 22.2574 
v 29.044 4.75194 22.2116 
v 29.0613 4.55596 22.1183 
v 27.4242 3.73988 21.8262 
v 29.3721 4.23818 21.9809 
v 29.5137 4.16032 21.9135 
v 29.1612 4.63905 22.176 
v 29.1508 4.42487 22.078 
v 29.0603 4.3116 22.1212 
v 27.4248 3.51093 21.8035 
v 27.3959 3.62892 21.7818 
v 27.5962 3.75253 21.7374 
v 27.1746 2.91786 22.0977 
v 27.2216 2.90715 22.1755 
v 27.1278 3.01315 22.0992 
v 29.2621 4.51678 22.1347 
v 27.5949 3.50399 21.7135 
v 27.5661 3.63113 21.6833 
v 27.7943 3.75855 21.6622 
v 27.1383 3.12073 22.0998 
v 27.7913 3.49754 21.6357 
v 27.7727 3.63008 21.5992 
v 28.078 3.81165 21.7267 
v 28.0289 3.76302 21.5924 
v 27.2379 3.159 22.0041 
v 27.2268 3.0277 21.9701 
v 27.2808 2.90931 22.0017 
v 28.2556 3.75443 21.5398 
v 28.0189 3.48895 21.5659 
v 28.008 3.62859 21.525 
v 27.404 3.18886 21.8861 
v 27.3922 3.05114 21.8393 
v 27.4387 2.9235 21.8818 
v 29.7117 4.02545 21.8093 
v 29.6387 4.23313 22.0239 
v 28.5224 3.73715 21.5005 
v 28.2338 3.47519 21.5156 
v 28.2372 3.61871 21.4698 
v 27.6081 3.21533 21.7694 
v 27.6011 3.07467 21.7156 
v 27.6312 2.94135 21.7691 
v 28.8073 3.73249 21.4914 
v 28.4995 3.59905 21.4234 
v 27.8896 3.24285 21.6454 
v 27.8875 3.09668 21.5936 
v 27.9116 2.95836 21.6563 
v 27.5515 2.61994 22.1173 
v 29.6683 3.86061 21.6205 
v 27.5798 2.48768 22.1104 
v 28.765 3.587 21.3876 
v 28.1678 3.25831 21.5549 
v 28.1941 2.97662 21.5767 
v 28.178 3.11432 21.5069 
v 27.6824 2.65016 22.0064 
v 29.9826 3.80156 21.6387 
v 30.0284 3.59108 22.3541 
v 27.7134 2.50991 21.9972 
v 29.0677 3.58097 21.3751 
v 28.4869 3.13284 21.4371 
v 27.8346 2.6856 21.8949 
v 30.5166 3.59162 21.6066 
v 30.2108 3.62505 21.5351 
v 29.8731 3.65701 21.4789 
v 29.5551 3.66912 21.4529 
v 30.8053 3.55746 21.6386 
v 27.8711 2.54426 21.88 
v 29.0081 3.4328 21.331 
v 28.037 2.73712 21.7693 
v 30.8427 3.41851 21.5887 
v 30.8551 3.16105 21.5516 
v 28.0749 2.59198 21.7514 
v 28.1512 2.4865 21.8401 
v 28.9785 3.29741 21.3095 
v 28.2743 2.79031 21.66 
v 30.8503 2.85787 21.547 
v 30.5749 2.87902 21.4211 
v 28.3196 2.64741 21.6386 
v 28.39 2.53832 21.73 
v 30.594 2.64617 21.5755 
v 30.8232 2.66591 21.592 
v 30.2291 2.87823 21.4095 
v 28.6066 2.70364 21.543 
v 28.7653 2.87755 21.4473 
v 30.2981 2.62734 21.5946 
v 29.0392 2.88968 21.3606 
v 28.8489 2.74043 21.4612 
v 29.1125 2.77142 21.3959 
v 28.1093 1.92209 22.2513 
v 29.191 2.66399 21.4545 
v 29.5 2.72301 21.4213 
v 29.2646 2.54754 21.514 
v 29.323 2.43988 21.5914 
v 29.098 2.30956 21.7327 
v 29.089 2.29226 21.892 
v 29.063 2.39604 21.6183 
v 28.9128 2.24968 21.7553 
v 28.7582 2.17931 21.7938 
v 28.8727 2.34472 21.6599 
v 28.0249 2.07977 22.0668 
v 28.0627 2.15842 22.1394 
v 28.0675 1.96478 22.0548 
v 28.2909 1.95644 21.9904 
v 28.6067 2.1082 21.8443 
v 28.7035 2.27472 21.7119 
v 28.1596 2.16115 21.9484 
v 28.2056 2.03425 21.9277 
v 28.4389 2.03051 21.908 
v 28.5387 2.19989 21.7698 
v 28.4789 2.32558 21.7917 
v 28.4666 2.40747 21.8892 
v 28.3122 2.24278 21.8623 
v 28.3076 2.3179 21.9634 
v 28.366 2.11814 21.8374 
v 29.1396 4.22998 22.0884 
v 29.5493 4.3317 22.2136 
v 29.4882 4.32325 22.0539 
v 29.3619 4.41342 22.0937 
v 29.2458 4.32346 22.0368 
v 28.8124 2.5844 21.6331 
v 28.6974 2.59567 21.6295 
v 28.9163 2.62014 21.5377 
v 28.4451 3.42825 21.8257 
v 28.1567 3.43941 21.7921 
v 28.2214 3.40814 21.6419 
v 28.4423 3.38757 21.5996 
v 27.6655 2.39849 22.1729 
v 27.7392 2.39912 22.2708 
v 27.5898 2.41446 22.3367 
v 27.5537 2.39995 22.2513 
v 29.2957 3.95018 21.9451 
v 27.317 3.52498 21.8872 
v 27.3496 3.49384 21.9696 
v 27.3518 3.70797 21.996 
v 27.3496 3.49384 21.9696 
v 27.4152 3.49213 22.0432 
v 27.48 2.47864 22.2318 
v 27.5898 2.41446 22.3367 
v 27.6549 2.46354 22.3943 
v 27.4607 2.58368 22.2157 
v 27.7946 2.47484 22.3386 
v 28.3144 2.54899 22.0431 
v 28.6187 2.621 21.9786 
v 27.9966 2.49013 22.2096 
v 28.7403 2.53469 21.7538 
v 28.6916 2.54184 21.9614 
v 28.7403 2.53469 21.7538 
v 29.8802 2.5597 21.6029 
v 29.6368 2.49076 21.5888 
v 28.7261 2.99459 21.4165 
v 28.5675 3.38774 21.4729 
v 28.4423 3.38757 21.5996 
v 28.4935 3.44332 21.4654 
v 28.7104 3.42473 21.3908 
v 28.6093 2.95115 21.5184 
v 28.4716 2.94152 21.6557 
v 28.5147 2.98853 21.5062 
v 28.6844 2.56888 21.768 
v 28.4944 2.90575 21.6762 
v 30.5765 2.72538 22.0477 
v 30.3329 2.6354 22.0917 
v 28.0127 2.43412 22.0929 
v 28.2232 2.47314 21.9652 
v 28.4114 2.51344 21.8753 
v 27.8907 2.41252 22.1779 
v 27.7392 2.39912 22.2708 
v 27.8019 2.41645 22.0766 
v 27.8907 2.41252 22.1779 
v 28.9536 4.37069 22.2785 
v 29.0317 4.36664 22.4287 
v 28.9537 4.44449 22.4636 
v 27.6105 3.57952 22.0488 
v 27.4839 3.45282 21.8946 
v 27.5163 3.48094 22.0112 
v 27.2216 2.90715 22.1755 
v 27.3012 2.92816 22.2319 
v 27.4248 3.51093 21.8035 
v 27.4839 3.45282 21.8946 
v 27.6793 3.43703 21.7985 
v 27.8716 3.45339 21.8415 
v 27.1746 2.91786 22.0977 
v 27.2216 2.90715 22.1755 
v 28.4869 3.59718 21.8876 
v 27.5949 3.50399 21.7135 
v 27.6793 3.43703 21.7985 
v 27.7913 3.49754 21.6357 
v 27.8359 3.4301 21.7388 
v 28.0574 3.41871 21.6792 
v 27.8359 3.4301 21.7388 
v 27.2808 2.90931 22.0017 
v 27.3639 2.87383 22.0884 
v 27.6832 2.88993 21.8866 
v 27.6892 2.92723 22.0166 
v 27.5302 2.87788 21.9721 
v 28.0189 3.48895 21.5659 
v 28.0574 3.41871 21.6792 
v 27.3639 2.87383 22.0884 
v 27.4564 2.9233 22.1645 
v 27.4387 2.9235 21.8818 
v 27.5302 2.87788 21.9721 
v 28.2338 3.47519 21.5156 
v 28.2214 3.40814 21.6419 
v 27.6011 3.07467 21.7156 
v 27.6312 2.94135 21.7691 
v 27.6832 2.88993 21.8866 
v 27.9631 2.90784 21.7813 
v 28.0816 2.95648 21.8811 
v 27.9116 2.95836 21.6563 
v 27.9631 2.90784 21.7813 
v 27.5798 2.48768 22.1104 
v 28.1941 2.97662 21.5767 
v 28.184 2.92418 21.7203 
v 28.184 2.92418 21.7203 
v 27.7134 2.50991 21.9972 
v 28.4304 2.98971 21.874 
v 27.8711 2.54426 21.88 
v 27.9506 2.44558 21.9678 
v 28.4716 2.94152 21.6557 
v 28.037 2.73712 21.7693 
v 28.0127 2.43412 22.0929 
v 28.0749 2.59198 21.7514 
v 28.1512 2.4865 21.8401 
v 28.4944 2.90575 21.6762 
v 30.8521 2.79018 21.8988 
v 28.39 2.53832 21.73 
v 28.2232 2.47314 21.9652 
v 30.594 2.64617 21.5755 
v 30.8232 2.66591 21.592 
v 30.6018 2.58797 21.8245 
v 28.6066 2.70364 21.543 
v 28.4114 2.51344 21.8753 
v 28.7653 2.87755 21.4473 
v 30.8265 2.62837 21.7923 
v 30.6018 2.58797 21.8245 
v 30.2981 2.62734 21.5946 
v 30.3436 2.5465 21.8512 
v 30.0412 2.56506 22.1255 
v 30.3436 2.5465 21.8512 
v 30.0365 2.4853 21.879 
v 29.6638 2.50898 22.1231 
v 28.6844 2.56888 21.768 
v 29.1125 2.77142 21.3959 
v 30.0365 2.4853 21.879 
v 29.6979 2.40789 21.9052 
v 29.2962 2.46169 22.0821 
v 28.1093 1.92209 22.2513 
v 28.1515 1.97349 22.2881 
v 29.6979 2.40789 21.9052 
v 29.6693 2.43403 21.697 
v 29.0154 2.39949 22.0424 
v 29.3533 2.34982 21.9003 
v 28.0722 1.89382 22.1908 
v 28.1093 1.92209 22.2513 
v 28.0045 1.94649 22.177 
v 28.6761 2.17637 22.0461 
v 28.7654 2.15052 21.9262 
v 28.9131 2.22498 21.8983 
v 29.3533 2.34982 21.9003 
v 29.3573 2.36489 21.7193 
v 29.089 2.29226 21.892 
v 29.323 2.43988 21.5914 
v 29.098 2.30956 21.7327 
v 29.089 2.29226 21.892 
v 28.2628 2.00399 22.2399 
v 29.063 2.39604 21.6183 
v 28.9128 2.24968 21.7553 
v 28.9131 2.22498 21.8983 
v 28.4466 2.06504 22.1298 
v 28.1539 1.89987 22.1031 
v 28.2234 1.92199 22.1829 
v 28.7654 2.15052 21.9262 
v 28.7582 2.17931 21.7938 
v 28.8727 2.34472 21.6599 
v 28.0675 1.96478 22.0548 
v 28.2909 1.95644 21.9904 
v 28.3677 1.96881 22.0847 
v 28.4831 2.02095 22.024 
v 28.6481 2.09554 21.9638 
v 28.6067 2.1082 21.8443 
v 28.6481 2.09554 21.9638 
v 28.2056 2.03425 21.9277 
v 28.4389 2.03051 21.908 
v 28.4831 2.02095 22.024 
v 28.3677 1.96881 22.0847 
v 28.8124 2.5844 21.6331 
v 28.9163 2.62014 21.5377 
v 28.4451 3.42825 21.8257 
v 28.4423 3.38757 21.5996 
v 29.166 3.75023 21.5236 
v 29.4199 4.00329 22.3325 
v 29.232 4.09207 22.296 
v 29.2814 3.98455 22.2109 
v 27.5898 2.41446 22.3367 
v 27.5537 2.39995 22.2513 
v 28.4075 3.31345 21.8425 
v 29.4012 3.80195 22.254 
v 28.8956 4.77512 22.3357 
v 28.9645 4.78292 22.3948 
v 28.9938 4.81523 22.3137 
v 28.9176 4.76605 22.2145 
v 28.8583 4.72538 22.2653 
v 28.8734 4.68742 22.4083 
v 28.9407 4.71259 22.4553 
v 28.8329 4.66135 22.3327 
v 29.2957 3.95018 21.9451 
v 29.2756 3.88474 22.0992 
v 29.2957 3.95018 21.9451 
v 29.2318 3.88281 21.8159 
v 29.1719 3.78622 21.9689 
v 29.2671 4.01316 22.0609 
v 29.3575 4.07424 21.9422 
v 29.2671 4.01316 22.0609 
v 27.2898 3.61727 21.895 
v 27.3082 3.59688 22.0063 
v 27.3518 3.70797 21.996 
v 27.3151 3.70966 21.9064 
v 27.317 3.52498 21.8872 
v 27.3496 3.49384 21.9696 
v 27.3082 3.59688 22.0063 
v 27.4189 3.57814 22.0778 
v 27.3496 3.49384 21.9696 
v 27.4152 3.49213 22.0432 
v 27.4994 2.50909 22.344 
v 27.48 2.47864 22.2318 
v 27.4607 2.58368 22.2157 
v 27.4919 2.62635 22.2987 
v 28.4707 2.90773 21.9077 
v 28.5358 2.77622 22.0278 
v 28.6187 2.621 21.9786 
v 28.0627 2.15842 22.1394 
v 28.7403 2.53469 21.7538 
v 28.8204 2.47809 21.6472 
v 28.6916 2.54184 21.9614 
v 28.7403 2.53469 21.7538 
v 28.0652 2.09946 22.2661 
v 28.7579 2.59341 22.0424 
v 29.1874 3.52139 22.1225 
v 28.566 3.33137 21.4738 
v 28.4423 3.38757 21.5996 
v 28.4935 3.44332 21.4654 
v 28.8521 2.54102 21.6341 
v 29.2572 4.14187 22.0241 
v 29.1923 4.0925 22.1469 
v 29.1923 4.0925 22.1469 
v 28.864 4.53632 22.3139 
v 28.9121 4.55728 22.4437 
v 28.8329 4.66135 22.3327 
v 28.8583 4.72538 22.2653 
v 28.8875 4.6045 22.2046 
v 28.864 4.53632 22.3139 
v 28.9536 4.37069 22.2785 
v 29.0317 4.36664 22.4287 
v 28.9537 4.44449 22.4636 
v 28.9176 4.76605 22.2145 
v 28.9676 4.44772 22.1593 
v 28.9536 4.37069 22.2785 
v 29.0603 4.3116 22.1212 
v 27.3959 3.62892 21.7818 
v 27.1746 2.91786 22.0977 
v 27.2216 2.90715 22.1755 
v 27.1593 3.01671 22.2049 
v 27.1278 3.01315 22.0992 
v 28.7561 2.48457 22.0547 
v 28.4268 3.33613 21.6095 
v 27.1383 3.12073 22.0998 
v 27.1794 3.14229 22.1771 
v 27.2379 3.159 22.0041 
v 27.2268 3.0277 21.9701 
v 29.6387 4.23313 22.0239 
v 27.6011 3.07467 21.7156 
v 29.0507 3.82239 21.706 
v 27.5958 2.69869 22.2023 
v 27.5515 2.61994 22.1173 
v 27.5798 2.48768 22.1104 
v 28.765 3.587 21.3876 
v 27.6824 2.65016 22.0064 
v 27.7293 2.74123 22.0888 
v 28.4304 2.98971 21.874 
v 28.4716 2.94152 21.6557 
v 28.4944 2.90575 21.6762 
v 28.6844 2.56888 21.768 
v 29.1125 2.77142 21.3959 
v 28.1093 1.92209 22.2513 
v 28.0722 1.89382 22.1908 
v 28.1093 1.92209 22.2513 
v 28.0332 1.98311 22.2585 
v 28.0045 1.94649 22.177 
v 27.9715 2.02886 22.1635 
v 28.0037 2.071 22.2238 
v 28.0249 2.07977 22.0668 
v 28.0627 2.15842 22.1394 
v 28.0675 1.96478 22.0548 
v 28.1596 2.16115 21.9484 
v 28.1926 2.25117 22.0306 
v 28.3122 2.24278 21.8623 
v 28.3076 2.3179 21.9634 
v 28.366 2.11814 21.8374 
v 29.1396 4.22998 22.0884 
v 29.0725 4.22237 22.2075 
v 29.1396 4.2349 22.3726 
v 29.0725 4.22237 22.2075 
v 28.4451 3.42825 21.8257 
v 28.1567 3.43941 21.7921 
v 29.4199 4.00329 22.3325 
v 29.3726 4.15477 22.3904 
v 29.232 4.09207 22.296 
v 29.2814 3.98455 22.2109 
v 27.6911 2.70016 22.2866 
v 27.2641 3.13879 22.231 
v 27.1794 3.14229 22.1771 
v 27.1593 3.01671 22.2049 
v 27.2747 3.03011 22.259 
v 28.4075 3.31345 21.8425 
v 28.6313 3.33214 21.9529 
v 28.6658 3.44467 21.942 
v 28.4044 3.14484 21.9291 
v 28.604 3.14307 21.9824 
v 28.7649 3.02584 22.0407 
v 28.8406 3.39149 22.0171 
v 29.4012 3.80195 22.254 
v 29.7117 3.79964 22.3418 
v 29.6009 4.09229 22.3421 
v 29.5102 4.25067 22.3606 
v 28.8956 4.77512 22.3357 
v 28.9645 4.78292 22.3948 
v 28.9938 4.81523 22.3137 
v 28.9176 4.76605 22.2145 
v 28.8734 4.68742 22.4083 
v 28.9407 4.71259 22.4553 
v 28.8329 4.66135 22.3327 
v 29.2957 3.95018 21.9451 
v 29.2756 3.88474 22.0992 
v 29.2957 3.95018 21.9451 
v 29.1719 3.78622 21.9689 
v 27.3082 3.59688 22.0063 
v 27.4189 3.57814 22.0778 
v 27.4323 3.67686 22.0659 
v 27.3518 3.70797 21.996 
v 27.3496 3.49384 21.9696 
v 27.4152 3.49213 22.0432 
v 27.5898 2.41446 22.3367 
v 27.6549 2.46354 22.3943 
v 27.6055 2.55677 22.4012 
v 27.4994 2.50909 22.344 
v 27.4919 2.62635 22.2987 
v 27.5741 2.64796 22.3588 
v 27.7946 2.47484 22.3386 
v 27.764 2.60151 22.3528 
v 28.6327 2.95909 21.993 
v 28.4707 2.90773 21.9077 
v 28.5358 2.77622 22.0278 
v 28.7024 2.82714 22.0494 
v 28.259 2.71094 22.0985 
v 28.3144 2.54899 22.0431 
v 28.6187 2.621 21.9786 
v 27.9671 2.6464 22.2401 
v 27.9966 2.49013 22.2096 
v 28.1738 2.83756 21.9656 
v 28.5293 2.42918 21.9796 
v 28.1495 2.17693 22.2091 
v 28.3092 2.29368 22.0835 
v 28.0627 2.15842 22.1394 
v 28.6916 2.54184 21.9614 
v 28.7403 2.53469 21.7538 
v 28.0037 2.071 22.2238 
v 28.0652 2.09946 22.2661 
v 28.7579 2.59341 22.0424 
v 28.8431 2.67089 22.0788 
v 28.735 2.67571 22.0475 
v 29.1874 3.52139 22.1225 
v 28.9439 3.58791 21.9874 
v 28.6069 3.03352 21.9748 
v 30.4501 3.64459 21.9054 
v 30.2512 3.78221 21.8889 
v 30.2702 3.67423 22.1552 
v 30.2477 3.20693 22.3288 
v 30.4671 3.04328 22.2191 
v 30.5155 3.39986 22.1364 
v 30.2664 3.46359 22.288 
v 30.2623 3.02968 22.3067 
v 30.2889 2.85189 22.2483 
v 30.5765 2.72538 22.0477 
v 30.3329 2.6354 22.0917 
v 28.2232 2.47314 21.9652 
v 28.9121 4.55728 22.4437 
v 28.9536 4.37069 22.2785 
v 29.0317 4.36664 22.4287 
v 28.9537 4.44449 22.4636 
v 29.0212 4.61844 22.4927 
v 29.0753 4.7175 22.4335 
v 29.1516 4.47596 22.4942 
v 27.5936 3.70778 22.017 
v 29.2192 4.59703 22.4428 
v 27.6105 3.57952 22.0488 
v 27.4839 3.45282 21.8946 
v 27.5163 3.48094 22.0112 
v 27.8329 3.74713 21.9098 
v 27.2216 2.90715 22.1755 
v 27.3012 2.92816 22.2319 
v 27.8747 3.5871 21.9581 
v 27.8716 3.45339 21.8415 
v 28.7561 2.48457 22.0547 
v 28.184 3.59157 21.897 
v 28.4869 3.59718 21.8876 
v 28.1812 3.75923 21.8259 
v 28.078 3.81165 21.7267 
v 28.7278 3.609 21.9232 
v 28.5103 3.74558 21.8099 
v 27.6832 2.88993 21.8866 
v 27.6892 2.92723 22.0166 
v 28.7671 3.75325 21.818 
v 27.4564 2.9233 22.1645 
v 27.4664 3.05642 22.2072 
v 27.4123 3.18524 22.1627 
v 29.6387 4.23313 22.0239 
v 28.0461 3.28067 21.8676 
v 28.9911 3.76514 21.8657 
v 27.6477 3.23625 22.0173 
v 28.0816 2.95648 21.8811 
v 27.7203 3.08632 22.0845 
v 29.6799 4.21029 22.203 
v 29.8613 4.00931 22.2108 
v 29.0507 3.82239 21.706 
v 28.0795 3.12015 21.9642 
v 30.1118 3.80183 22.2022 
v 28.765 3.587 21.3876 
v 30.0284 3.59108 22.3541 
v 28.4304 2.98971 21.874 
v 30.7928 3.56829 21.8416 
v 30.8409 3.39773 21.9417 
v 29.6107 3.42757 22.3127 
v 29.9773 3.31036 22.3742 
v 30.8461 3.09739 21.9825 
v 29.583 3.07835 22.2795 
v 29.9788 3.04333 22.3379 
v 28.4944 2.90575 21.6762 
v 30.8521 2.79018 21.8988 
v 29.6071 2.75694 22.2431 
v 30.0056 2.78196 22.2755 
v 30.6018 2.58797 21.8245 
v 30.8265 2.62837 21.7923 
v 30.0412 2.56506 22.1255 
v 29.169 3.09296 22.1505 
v 29.2074 2.73187 22.1585 
v 29.6638 2.50898 22.1231 
v 29.6979 2.40789 21.9052 
v 29.2962 2.46169 22.0821 
v 28.0332 1.98311 22.2585 
v 28.1093 1.92209 22.2513 
v 28.1515 1.97349 22.2881 
v 28.1049 2.03639 22.2943 
v 29.0154 2.39949 22.0424 
v 28.0722 1.89382 22.1908 
v 28.1093 1.92209 22.2513 
v 28.0332 1.98311 22.2585 
v 28.8517 2.29933 22.0291 
v 28.6761 2.17637 22.0461 
v 28.7654 2.15052 21.9262 
v 28.9131 2.22498 21.8983 
v 29.089 2.29226 21.892 
v 27.9715 2.02886 22.1635 
v 28.2628 2.00399 22.2399 
v 28.2253 2.10789 22.2564 
v 28.597 2.33093 22.0854 
v 28.4466 2.06504 22.1298 
v 28.3992 2.20624 22.1643 
v 28.0627 2.15842 22.1394 
v 28.2234 1.92199 22.1829 
v 28.3677 1.96881 22.0847 
v 29.3374 4.47395 22.4223 
v 29.4145 4.38301 22.3982 
v 29.2924 4.33645 22.453 
v 29.1396 4.2349 22.3726 

vn -0.0551181 -0.984252 0.181102 
vn -0.0551181 -0.984252 0.181102 
vn -0.0314961 0.795276 -0.606299 
vn -0.0629921 0.913386 -0.401575 
vn -0.330709 0.874016 -0.346457 
vn -0.181102 0.818898 -0.551181 
vn -0.267717 -0.338583 0.905512 
vn 0.00787402 -0.992126 0.102362 
vn -0.173228 0.976378 0.149606 
vn -0.244094 0.944882 0.220472 
vn -0.173228 0.968504 0.165354 
vn -0.188976 0.976378 0.133858 
vn -0.480315 0.228346 0.850394 
vn -0.511811 0.259843 0.818898 
vn -0.385827 0.299213 0.866142 
vn 0.559055 0.23622 0.795276 
vn -0.629921 0.748031 0.19685 
vn -0.472441 0.779528 0.425197 
vn -0.346457 0.929134 0.133858 
vn -0.480315 0.874016 -0.0629921 
vn -0.614173 0.771654 -0.173228 
vn -0.716535 0.551181 0.425197 
vn -0.590551 0.629921 0.503937 
vn -0.464567 0.858268 -0.220472 
vn -0.330709 0.700787 -0.629921 
vn -0.464567 0.858268 -0.220472 
vn -0.330709 0.874016 -0.346457 
vn -0.787402 0.606299 0.11811 
vn -0.913386 0.291339 0.299213 
vn -0.905512 0.204724 0.377953 
vn -0.535433 0.228346 0.811024 
vn -0.913386 0.291339 0.299213 
vn -0.96063 -0.0314961 0.275591 
vn -0.944882 0.0629921 0.322835 
vn -0.944882 0.0629921 0.322835 
vn -0.606299 0.149606 0.779528 
vn 0.322835 0.346457 0.88189 
vn -0.519685 0.417323 0.740157 
vn 0.291339 -0.220472 0.929134 
vn 0.488189 -0.0629921 0.874016 
vn -0.181102 0.976378 0.102362 
vn -0.181102 0.976378 0.110236 
vn -0.188976 0.976378 0.110236 
vn -0.401575 0.913386 0.0629921 
vn -0.433071 0.897638 0.0866142 
vn -0.488189 0.874016 0.015748 
vn -0.433071 0.84252 0.307087 
vn -0.417323 0.88189 0.212598 
vn -0.417323 0.874016 0.23622 
vn -0.464567 0.818898 0.330709 
vn -0.440945 0.88189 0.173228 
vn -0.543307 0.527559 -0.653543 
vn -0.519685 0.850394 -0.0944882 
vn -0.543307 0.527559 -0.653543 
vn -0.582677 0.732283 0.354331 
vn -0.543307 0.755906 0.362205 
vn -0.543307 0.330709 -0.771654 
vn -0.354331 0.551181 -0.755906 
vn -0.456693 0.740157 -0.496063 
vn -0.0551181 -0.984252 0.181102 
vn -0.291339 0 -0.96063 
vn -0.606299 0.543307 -0.582677 
vn -0.488189 0.299213 -0.826772 
vn 0.244094 0.464567 -0.850394 
vn 0.472441 0.858268 0.212598 
vn 0.425197 0.826772 -0.362205 
vn 0.598425 0.795276 -0.0708661 
vn 0.614173 0.566929 0.551181 
vn 0.685039 0.669291 0.283465 
vn -0.165354 0.984252 0.0866142 
vn -0.614173 0.771654 -0.173228 
vn 0.181102 0.472441 0.866142 
vn 0.00787402 0.834646 0.551181 
vn -0.133858 0.968504 0.220472 
vn -0.480315 0.874016 -0.0629921 
vn 0.330709 0.716535 -0.614173 
vn 0.267717 0.299213 0.913386 
vn 0.377953 0.826772 0.417323 
vn 0.0629921 0.88189 0.472441 
vn 0.0787402 0.874016 0.472441 
vn -0.133858 0.968504 0.220472 
vn -0.314961 0.944882 0.0472441 
vn -0.409449 -0.385827 0.826772 
vn 0.173228 0.433071 -0.88189 
vn 0.590551 0.724409 0.346457 
vn 0.0787402 0.874016 0.472441 
vn -0.19685 0.96063 -0.173228 
vn 0.149606 0.401575 -0.905512 
vn -0.708661 0.0944882 0.692913 
vn 0.188976 0.370079 0.913386 
vn -0.456693 0.740157 -0.496063 
vn -0.15748 0.944882 -0.275591 
vn -0.141732 0.952756 -0.267717 
vn 0.0708661 0.905512 0.417323 
vn -0.15748 0.944882 -0.275591 
vn -0.913386 0.173228 0.362205 
vn -0.511811 0.259843 0.818898 
vn 0.614173 0.669291 -0.417323 
vn -0.0314961 0.496063 0.866142 
vn 0.0708661 0.905512 0.417323 
vn -0.0787402 0.944882 -0.314961 
vn -0.448819 0.866142 -0.212598 
vn -0.503937 0.858268 -0.0866142 
vn -0.0944882 0.84252 0.535433 
vn 0.015748 0.952756 0.299213 
vn 0.0629921 0.937008 0.346457 
vn 0.0629921 0.937008 0.346457 
vn -0.015748 0.944882 -0.338583 
vn -0.377953 0.88189 -0.291339 
vn -0.385827 0.874016 -0.291339 
vn 0.338583 0.433071 0.834646 
vn 0.165354 0.748031 -0.637795 
vn 0.456693 0.795276 -0.393701 
vn 0.566929 0.811024 -0.15748 
vn 0.015748 0.968504 0.251969 
vn -0.0393701 0.984252 0.173228 
vn 0.00787402 0.96063 0.267717 
vn -0.299213 0.811024 0.503937 
vn 0.015748 0.952756 0.299213 
vn 0.023622 0.952756 0.299213 
vn -0.385827 0.874016 -0.291339 
vn -0.0708661 0.96063 0.267717 
vn 0.015748 0.952756 0.299213 
vn -0.0472441 0.771654 -0.637795 
vn -0.322835 0.874016 -0.354331 
vn 0.023622 0.952756 0.299213 
vn -0.425197 -0.417323 -0.80315 
vn 0.669291 0.661417 0.330709 
vn 0.566929 0.566929 0.598425 
vn -0.0629921 0.913386 -0.401575 
vn -0.0708661 0.96063 0.267717 
vn -0.00787402 0.795276 -0.606299 
vn -0.448819 0.866142 -0.212598 
vn 0.00787402 0.96063 0.267717 
vn -0.228346 0.88189 -0.409449 
vn -0.244094 0.944882 0.220472 
vn -0.653543 0.724409 -0.23622 
vn 0.598425 0.795276 0.102362 
vn 0.448819 0.811024 -0.370079 
vn 0.0314961 0.716535 -0.700787 
vn 0.511811 0.566929 0.645669 
vn -0.0866142 0.338583 -0.937008 
vn -0.0393701 0.984252 0.173228 
vn -0.181102 0.88189 -0.425197 
vn -0.543307 0.708661 -0.456693 
vn -0.173228 0.976378 0.149606 
vn 0.275591 0.732283 -0.622047 
vn -0.133858 -0.377953 0.913386 
vn -0.181102 0.976378 0.110236 
vn -0.511811 0.692913 -0.503937 
vn 0.23622 0.874016 -0.425197 
vn 0.220472 0.708661 -0.669291 
vn 0.15748 0.984252 -0.0866142 
vn 0.125984 0.992126 -0.0472441 
vn 0.480315 0.354331 0.80315 
vn -0.181102 0.976378 0.102362 
vn -0.456693 0.708661 -0.535433 
vn -0.606299 0.543307 -0.582677 
vn -0.165354 0.984252 0.0866142 
vn -0.417323 0.425197 -0.80315 
vn -0.362205 -0.259843 -0.889764 
vn -0.464567 0.818898 0.330709 
vn -0.669291 0.629921 -0.401575 
vn 0.677165 0.724409 0.110236 
vn 0.338583 0.755906 -0.559055 
vn 0.748031 0.598425 0.283465 
vn 0.582677 0.716535 -0.393701 
vn 0.559055 0.23622 0.795276 
vn -0.346457 0.929134 0.133858 
vn -0.519685 0.417323 0.740157 
vn -0.385827 0.362205 0.850394 
vn 0.472441 0.858268 0.212598 
vn 0.598425 0.795276 -0.0708661 
vn 0.614173 0.566929 0.551181 
vn 0.685039 0.669291 0.283465 
vn 0.527559 0.354331 0.771654 
vn 0.181102 0.472441 0.866142 
vn 0.267717 0.299213 0.913386 
vn 0.228346 -0.23622 0.944882 
vn -0.110236 -0.968504 0.204724 
vn -0.0314961 -0.968504 0.244094 
vn 0.173228 0.433071 -0.88189 
vn 0.590551 0.724409 0.346457 
vn 0.149606 0.401575 -0.905512 
vn -0.708661 0.0944882 0.692913 
vn 0.614173 0.669291 -0.417323 
vn 0.456693 0.795276 -0.393701 
vn 0.566929 0.811024 -0.15748 
vn 0.669291 0.661417 0.330709 
vn 0.566929 0.566929 0.598425 
vn 0.511811 0.566929 0.645669 
vn 0.220472 0.23622 0.944882 
vn -0.133858 -0.377953 0.913386 
vn 0.125984 0.992126 -0.0472441 
vn 0.433071 0.299213 -0.850394 
vn 0.472441 0.0551181 -0.88189 
vn 0.330709 -0.212598 -0.92126 
vn 0.0866142 -0.23622 -0.968504 
vn 0.732283 0.614173 0.291339 
vn 0.677165 0.724409 0.110236 
vn 0.76378 0.566929 0.299213 
vn 0.748031 0.598425 0.283465 
vn 0.503937 -0.220472 0.834646 
vn 0.212598 -0.559055 0.80315 
vn 0.15748 0.984252 -0.0866142 
vn 0.480315 0.354331 0.80315 
vn 0.527559 -0.0472441 0.850394 
vn -0.0787402 -0.929134 -0.362205 
vn -0.0787402 -0.866142 -0.488189 
vn -0.251969 -0.574803 -0.779528 
vn -0.0314961 0.795276 -0.606299 
vn -0.0629921 0.913386 -0.401575 
vn -0.181102 0.818898 -0.551181 
vn 0.00787402 -0.992126 0.102362 
vn 0.0787402 -0.984252 0.133858 
vn 0.559055 0.23622 0.795276 
vn -0.346457 0.929134 0.133858 
vn -0.464567 0.858268 -0.220472 
vn -0.330709 0.700787 -0.629921 
vn -0.464567 0.858268 -0.220472 
vn -0.818898 0.393701 -0.417323 
vn -0.606299 0.291339 -0.740157 
vn -0.905512 0.307087 0.283465 
vn -0.913386 0.291339 0.299213 
vn -0.905512 0.204724 0.377953 
vn -0.92126 -0.362205 0.149606 
vn -0.889764 -0.425197 0.188976 
vn -0.874016 -0.409449 0.259843 
vn -0.96063 -0.0314961 0.275591 
vn -0.944882 0.0629921 0.322835 
vn -0.551181 0.535433 -0.637795 
vn -0.401575 0.913386 0.0629921 
vn -0.543307 0.527559 -0.653543 
vn -0.503937 0.0472441 -0.866142 
vn -0.543307 0.527559 -0.653543 
vn 0.133858 -0.543307 -0.826772 
vn 0.188976 -0.771654 -0.606299 
vn 0.181102 -0.732283 -0.661417 
vn 0.023622 0.149606 -0.984252 
vn 0.0944882 -0.015748 -0.992126 
vn 0 -0.0314961 -1 
vn 0.0314961 -0.275591 -0.96063 
vn 0.110236 -0.370079 -0.92126 
vn 0.0472441 -0.401575 -0.913386 
vn 0.0393701 0.464567 -0.88189 
vn 0.0944882 0.346457 -0.929134 
vn 0.0314961 0.259843 -0.96063 
vn 0.015748 -0.204724 -0.976378 
vn -0.173228 -0.267717 -0.944882 
vn -0.338583 -0.393701 -0.858268 
vn -0.275591 -0.102362 -0.952756 
vn -0.165354 -0.0629921 -0.984252 
vn -0.543307 0.330709 -0.771654 
vn -0.346457 0.11811 -0.929134 
vn -0.354331 0.551181 -0.755906 
vn -0.456693 0.740157 -0.496063 
vn -0.385827 -0.606299 -0.692913 
vn -0.0551181 -0.984252 0.181102 
vn -0.338583 -0.543307 -0.76378 
vn -0.291339 0 -0.96063 
vn -0.425197 -0.653543 -0.622047 
vn -0.23622 -0.732283 -0.637795 
vn -0.559055 -0.251969 -0.787402 
vn -0.244094 -0.409449 -0.88189 
vn -0.606299 0.543307 -0.582677 
vn -0.606299 0.543307 -0.582677 
vn -0.488189 0.299213 -0.826772 
vn 0.0866142 0.015748 -1 
vn 0.125984 0.393701 -0.905512 
vn 0.244094 0.464567 -0.850394 
vn 0.275591 0.0629921 -0.96063 
vn -0.637795 -0.11811 -0.76378 
vn -0.787402 0.614173 -0.015748 
vn -0.929134 -0.125984 -0.338583 
vn -0.606299 -0.740157 0.291339 
vn -0.614173 0.771654 -0.173228 
vn -0.637795 0.165354 -0.755906 
vn -0.858268 -0.362205 -0.362205 
vn -0.606299 -0.740157 0.291339 
vn -0.480315 0.874016 -0.0629921 
vn 0.330709 0.716535 -0.614173 
vn -0.440945 0.023622 -0.897638 
vn -0.314961 0.944882 0.0472441 
vn -0.19685 0.393701 -0.897638 
vn -0.0551181 0.598425 -0.80315 
vn 0.173228 0.433071 -0.88189 
vn -0.409449 -0.00787402 -0.913386 
vn -0.409449 -0.023622 -0.913386 
vn -0.377953 -0.889764 -0.259843 
vn -0.598425 0.0866142 -0.795276 
vn -0.19685 0.96063 -0.173228 
vn -0.80315 -0.488189 0.338583 
vn -0.409449 -0.385827 0.826772 
vn -0.944882 -0.181102 0.283465 
vn 0.149606 0.401575 -0.905512 
vn -0.267717 -0.874016 -0.409449 
vn -0.440945 0.440945 -0.779528 
vn -0.141732 0.952756 -0.267717 
vn -0.913386 0.173228 0.362205 
vn -0.212598 -0.858268 -0.464567 
vn -0.330709 0.456693 -0.826772 
vn 0.0708661 0.905512 0.417323 
vn -0.0787402 0.944882 -0.314961 
vn -0.503937 0.858268 -0.0866142 
vn -0.677165 -0.11811 -0.724409 
vn -0.614173 -0.456693 -0.645669 
vn -0.015748 0.944882 -0.338583 
vn -0.173228 -0.858268 -0.480315 
vn -0.220472 0.464567 -0.858268 
vn -0.377953 0.88189 -0.291339 
vn -0.519685 -0.433071 -0.732283 
vn -0.519685 -0.433071 -0.732283 
vn 0.165354 0.748031 -0.637795 
vn 0.456693 0.795276 -0.393701 
vn -0.0472441 0.771654 -0.637795 
vn -0.165354 -0.866142 -0.472441 
vn -0.188976 0.102362 -0.976378 
vn -0.322835 0.874016 -0.354331 
vn -0.425197 -0.417323 -0.80315 
vn -0.425197 -0.417323 -0.80315 
vn -0.00787402 0.795276 -0.606299 
vn -0.181102 0.165354 -0.968504 
vn -0.228346 0.88189 -0.409449 
vn -0.322835 -0.433071 -0.84252 
vn -0.322835 -0.433071 -0.84252 
vn -0.653543 0.724409 -0.23622 
vn 0.0314961 0.716535 -0.700787 
vn -0.574803 -0.464567 -0.669291 
vn -0.0866142 0.338583 -0.937008 
vn -0.181102 0.88189 -0.425197 
vn -0.228346 -0.448819 -0.866142 
vn -0.251969 -0.102362 -0.96063 
vn -0.543307 0.708661 -0.456693 
vn 0.275591 0.732283 -0.622047 
vn 0.220472 0.23622 0.944882 
vn -0.322835 -0.755906 -0.566929 
vn 0 0.488189 -0.874016 
vn -0.283465 -0.125984 -0.952756 
vn -0.511811 0.692913 -0.503937 
vn 0.23622 0.874016 -0.425197 
vn 0.220472 0.708661 -0.669291 
vn 0.133858 0.582677 -0.80315 
vn 0.0393701 0.606299 -0.795276 
vn 0.125984 0.992126 -0.0472441 
vn -0.283465 -0.755906 -0.590551 
vn -0.0944882 0.220472 -0.968504 
vn -0.456693 0.708661 -0.535433 
vn 0.433071 0.299213 -0.850394 
vn 0.472441 0.0551181 -0.88189 
vn -0.244094 -0.724409 -0.645669 
vn -0.204724 -0.716535 -0.669291 
vn -0.15748 0.125984 -0.976378 
vn -0.417323 0.425197 -0.80315 
vn 0.330709 -0.212598 -0.92126 
vn 0.212598 -0.314961 -0.92126 
vn -0.275591 -0.377953 -0.88189 
vn -0.141732 -0.685039 -0.716535 
vn 0.23622 -0.401575 -0.88189 
vn 0.0866142 -0.23622 -0.968504 
vn 0.0551181 -0.385827 -0.92126 
vn -0.244094 -0.417323 -0.874016 
vn -0.362205 -0.259843 -0.889764 
vn 0.00787402 -0.574803 -0.818898 
vn -0.149606 -0.314961 -0.937008 
vn -0.220472 -0.456693 -0.858268 
vn -0.102362 -0.448819 -0.889764 
vn -0.377953 -0.551181 0.740157 
vn -0.0787402 -0.503937 -0.866142 
vn 0.0787402 -0.480315 -0.874016 
vn -0.015748 -0.519685 -0.858268 
vn 0.0866142 -0.716535 -0.692913 
vn 0.181102 -0.905512 -0.377953 
vn 0.19685 -0.76378 0.614173 
vn -0.00787402 -0.629921 -0.779528 
vn 0.346457 -0.929134 -0.141732 
vn 0.377953 -0.905512 -0.204724 
vn -0.102362 -0.488189 -0.866142 
vn -0.771654 0.606299 -0.204724 
vn -0.464567 0.818898 0.330709 
vn -0.551181 -0.551181 -0.622047 
vn 0.291339 -0.952756 -0.0708661 
vn 0.346457 -0.913386 -0.220472 
vn 0.0787402 -0.653543 -0.755906 
vn -0.669291 0.629921 -0.401575 
vn -0.212598 -0.748031 -0.629921 
vn 0.338583 -0.92126 -0.19685 
vn 0.00787402 -0.629921 -0.779528 
vn -0.535433 0.598425 -0.598425 
vn -0.433071 0.897638 0.0866142 
vn -0.582677 0.645669 -0.496063 
vn -0.440945 0.88189 0.173228 
vn -0.0393701 -0.645669 -0.76378 
vn -0.724409 -0.527559 -0.440945 
vn 0.677165 0.724409 0.110236 
vn 0.338583 0.755906 -0.559055 
vn 0.582677 0.716535 -0.393701 
vn 0.0866142 0.448819 -0.889764 
vn -0.0787402 -0.929134 -0.362205 
vn -0.0787402 -0.866142 -0.488189 
vn -0.251969 -0.574803 -0.779528 
vn -0.0551181 -0.984252 0.181102 
vn -0.0551181 -0.984252 0.181102 
vn -0.0551181 -0.984252 0.181102 
vn -0.0551181 -0.984252 0.181102 
vn 0.0314961 -1 0.015748 
vn -0.0787402 -0.992126 0.0629921 
vn 0.00787402 -0.992126 0.102362 
vn 0.0787402 -0.984252 0.133858 
vn -0.464567 0.858268 -0.220472 
vn -0.92126 -0.362205 0.149606 
vn -0.889764 -0.425197 0.188976 
vn -0.913386 0.291339 0.299213 
vn -0.889764 -0.425197 0.188976 
vn -0.732283 -0.228346 0.645669 
vn -0.874016 -0.409449 0.259843 
vn 0.00787402 -0.992126 0.102362 
vn -0.480315 -0.314961 0.818898 
vn -0.96063 -0.0314961 0.275591 
vn 0.448819 -0.015748 0.897638 
vn 0.370079 -0.173228 0.913386 
vn 0.244094 -0.173228 0.952756 
vn 0.496063 -0.0866142 0.866142 
vn -0.543307 0.527559 -0.653543 
vn -0.519685 0.850394 -0.0944882 
vn -0.543307 0.527559 -0.653543 
vn 0.188976 -0.771654 -0.606299 
vn 0.181102 -0.732283 -0.661417 
vn -0.338583 -0.393701 -0.858268 
vn -0.385827 -0.606299 -0.692913 
vn -0.0551181 -0.984252 0.181102 
vn -0.338583 -0.543307 -0.76378 
vn -0.291339 0 -0.96063 
vn -0.425197 -0.653543 -0.622047 
vn -0.0866142 -0.937008 -0.330709 
vn -0.23622 -0.732283 -0.637795 
vn 0.0708661 -0.976378 -0.181102 
vn -0.606299 0.543307 -0.582677 
vn 0.464567 -0.322835 0.826772 
vn 0.330709 -0.511811 0.795276 
vn 0.425197 -0.795276 0.440945 
vn 0.370079 -0.834646 0.401575 
vn 0.370079 -0.84252 0.393701 
vn 0.409449 -0.76378 0.503937 
vn -0.0787402 -0.992126 0.0629921 
vn 0.0629921 -0.992126 -0.0708661 
vn 0.409449 -0.76378 0.503937 
vn -0.606299 -0.740157 0.291339 
vn -0.606299 -0.740157 0.291339 
vn -0.606299 -0.740157 0.291339 
vn 0.228346 -0.23622 0.944882 
vn -0.110236 -0.968504 0.204724 
vn -0.0314961 -0.968504 0.244094 
vn -0.409449 -0.385827 0.826772 
vn -0.480315 -0.338583 0.811024 
vn -0.377953 -0.889764 -0.259843 
vn -0.110236 -0.968504 0.204724 
vn 0.0314961 -0.976378 0.228346 
vn 0.0944882 -0.866142 0.488189 
vn -0.80315 -0.488189 0.338583 
vn -0.409449 -0.385827 0.826772 
vn -0.11811 0.149606 0.984252 
vn -0.267717 -0.874016 -0.409449 
vn 0.0314961 -0.976378 0.228346 
vn -0.212598 -0.858268 -0.464567 
vn -0.212598 -0.858268 -0.464567 
vn -0.00787402 -0.976378 0.19685 
vn -0.212598 -0.858268 -0.464567 
vn -0.614173 -0.456693 -0.645669 
vn -0.291339 -0.952756 -0.110236 
vn 0.220472 -0.937008 0.259843 
vn 0.19685 -0.944882 0.275591 
vn 0.212598 -0.929134 0.291339 
vn -0.173228 -0.858268 -0.480315 
vn -0.00787402 -0.976378 0.19685 
vn -0.291339 -0.952756 -0.110236 
vn 0.19685 -0.92126 0.346457 
vn -0.519685 -0.433071 -0.732283 
vn 0.212598 -0.929134 0.291339 
vn -0.165354 -0.866142 -0.472441 
vn -0.0551181 -0.984252 0.181102 
vn -0.425197 -0.417323 -0.80315 
vn -0.425197 -0.417323 -0.80315 
vn 0.220472 -0.937008 0.259843 
vn 0.165354 -0.952756 0.267717 
vn 0.165354 -0.952756 0.267717 
vn -0.322835 -0.433071 -0.84252 
vn 0.165354 -0.952756 0.267717 
vn -0.574803 -0.464567 -0.669291 
vn -0.228346 -0.448819 -0.866142 
vn -0.0314961 -0.937008 -0.346457 
vn -0.0314961 -0.937008 -0.346457 
vn -0.322835 -0.755906 -0.566929 
vn -0.133858 -0.377953 0.913386 
vn -0.283465 -0.755906 -0.590551 
vn -0.283465 -0.755906 -0.590551 
vn -0.0866142 -0.937008 -0.330709 
vn -0.456693 0.708661 -0.535433 
vn 0.425197 -0.795276 0.440945 
vn -0.244094 -0.724409 -0.645669 
vn -0.204724 -0.716535 -0.669291 
vn -0.606299 0.543307 -0.582677 
vn 0.503937 -0.220472 0.834646 
vn -0.141732 -0.685039 -0.716535 
vn 0.370079 -0.834646 0.401575 
vn 0.23622 -0.401575 -0.88189 
vn 0.0866142 -0.23622 -0.968504 
vn 0.370079 -0.685039 0.622047 
vn -0.244094 -0.417323 -0.874016 
vn 0.370079 -0.84252 0.393701 
vn -0.362205 -0.259843 -0.889764 
vn 0.212598 -0.559055 0.80315 
vn 0.370079 -0.685039 0.622047 
vn 0.00787402 -0.574803 -0.818898 
vn 0.283465 -0.850394 0.433071 
vn 0.220472 -0.527559 0.818898 
vn 0.283465 -0.850394 0.433071 
vn 0.23622 -0.92126 0.314961 
vn 0 -0.488189 0.874016 
vn 0.0708661 -0.976378 -0.181102 
vn -0.102362 -0.448819 -0.889764 
vn 0.23622 -0.92126 0.314961 
vn 0.173228 -0.905512 0.385827 
vn -0.0944882 -0.338583 0.937008 
vn -0.377953 -0.551181 0.740157 
vn -0.251969 -0.354331 0.897638 
vn 0.173228 -0.905512 0.385827 
vn 0.275591 -0.913386 -0.307087 
vn -0.0629921 -0.204724 0.976378 
vn 0.0866142 -0.858268 0.496063 
vn -0.527559 -0.645669 0.551181 
vn -0.377953 -0.551181 0.740157 
vn -0.740157 -0.480315 0.472441 
vn 0.519685 -0.669291 0.527559 
vn 0.496063 -0.669291 0.559055 
vn 0.385827 -0.692913 0.606299 
vn 0.0866142 -0.858268 0.496063 
vn 0.181102 -0.937008 -0.307087 
vn 0.19685 -0.76378 0.614173 
vn 0.0866142 -0.716535 -0.692913 
vn 0.181102 -0.905512 -0.377953 
vn 0.19685 -0.76378 0.614173 
vn 0.448819 0.023622 0.889764 
vn -0.00787402 -0.629921 -0.779528 
vn 0.346457 -0.929134 -0.141732 
vn 0.385827 -0.692913 0.606299 
vn 0.440945 -0.0551181 0.897638 
vn 0.181102 -0.96063 0.19685 
vn 0.228346 -0.976378 0.0472441 
vn 0.496063 -0.669291 0.559055 
vn 0.377953 -0.905512 -0.204724 
vn -0.102362 -0.488189 -0.866142 
vn -0.551181 -0.551181 -0.622047 
vn 0.291339 -0.952756 -0.0708661 
vn 0.307087 -0.944882 -0.141732 
vn 0.511811 -0.708661 0.488189 
vn 0.503937 -0.692913 0.511811 
vn 0.346457 -0.913386 -0.220472 
vn 0.503937 -0.692913 0.511811 
vn -0.212598 -0.748031 -0.629921 
vn 0.338583 -0.92126 -0.19685 
vn 0.511811 -0.708661 0.488189 
vn 0.307087 -0.944882 -0.141732 
vn -0.0787402 -0.929134 -0.362205 
vn -0.251969 -0.574803 -0.779528 
vn -0.0551181 -0.984252 0.181102 
vn -0.0551181 -0.984252 0.181102 
vn -0.0314961 0.795276 -0.606299 
vn -0.267717 -0.338583 0.905512 
vn -0.409449 -0.566929 0.716535 
vn -0.629921 -0.480315 0.614173 
vn 0.00787402 -0.992126 0.102362 
vn 0.0787402 -0.984252 0.133858 
vn -0.385827 0.299213 0.866142 
vn -0.535433 -0.133858 0.834646 
vn -0.629921 0.748031 0.19685 
vn -0.472441 0.779528 0.425197 
vn -0.346457 0.929134 0.133858 
vn -0.614173 0.771654 -0.173228 
vn -0.787402 0.614173 -0.015748 
vn -0.716535 0.551181 0.425197 
vn -0.590551 0.629921 0.503937 
vn -0.858268 0.464567 0.220472 
vn -0.464567 0.858268 -0.220472 
vn -0.80315 -0.425197 0.425197 
vn -0.464567 0.858268 -0.220472 
vn -0.330709 0.874016 -0.346457 
vn -0.787402 0.606299 0.11811 
vn -0.818898 0.393701 -0.417323 
vn -0.606299 0.291339 -0.740157 
vn -0.818898 0.393701 -0.417323 
vn -0.905512 0.307087 0.283465 
vn -0.905512 0.370079 0.220472 
vn -0.913386 0.291339 0.299213 
vn -0.905512 0.204724 0.377953 
vn -0.92126 -0.362205 0.149606 
vn -0.889764 -0.425197 0.188976 
vn -0.905512 0.370079 0.220472 
vn -0.511811 0.173228 0.84252 
vn -0.889764 -0.425197 0.188976 
vn -0.732283 -0.228346 0.645669 
vn -0.700787 -0.629921 0.330709 
vn -0.874016 -0.409449 0.259843 
vn -0.96063 -0.0314961 0.275591 
vn -0.944882 0.0629921 0.322835 
vn -0.519685 0.417323 0.740157 
vn -0.385827 0.362205 0.850394 
vn 0.244094 -0.173228 0.952756 
vn -0.464567 0.818898 0.330709 
vn -0.543307 0.527559 -0.653543 
vn -0.503937 0.0472441 -0.866142 
vn -0.519685 0.850394 -0.0944882 
vn -0.543307 0.527559 -0.653543 
vn -0.543307 0.755906 0.362205 
vn -0.511811 -0.0787402 0.858268 
vn -0.448819 0.181102 0.874016 
vn -0.543307 0.330709 -0.771654 
vn -0.0551181 -0.984252 0.181102 
vn -0.338583 -0.543307 -0.76378 
vn -0.559055 -0.251969 -0.787402 
vn -0.637795 -0.11811 -0.76378 
vn -0.826772 -0.212598 -0.519685 
vn -0.826772 -0.212598 -0.519685 
vn -0.889764 -0.275591 0.370079 
vn -0.724409 -0.173228 0.669291 
vn -0.858268 0.464567 0.220472 
vn -0.787402 0.614173 -0.015748 
vn -0.929134 -0.125984 -0.338583 
vn -0.889764 -0.275591 0.370079 
vn -0.606299 -0.740157 0.291339 
vn -0.606299 -0.740157 0.291339 
vn -0.606299 -0.740157 0.291339 
vn -0.614173 0.771654 -0.173228 
vn -0.858268 -0.362205 -0.362205 
vn -0.606299 -0.740157 0.291339 
vn -0.409449 -0.023622 -0.913386 
vn -0.598425 0.0866142 -0.795276 
vn -0.80315 -0.488189 0.338583 
vn -0.409449 -0.385827 0.826772 
vn -0.472441 0.220472 0.858268 
vn -0.944882 -0.181102 0.283465 
vn -0.708661 0.0944882 0.692913 
vn -0.456693 0.740157 -0.496063 
vn -0.913386 0.173228 0.362205 
vn -0.511811 0.259843 0.818898 
vn -0.503937 0.858268 -0.0866142 
vn -0.677165 -0.11811 -0.724409 
vn 0.456693 0.795276 -0.393701 
vn -0.425197 -0.417323 -0.80315 
vn -0.0629921 0.913386 -0.401575 
vn -0.244094 0.944882 0.220472 
vn -0.653543 0.724409 -0.23622 
vn -0.574803 -0.464567 -0.669291 
vn -0.0866142 0.338583 -0.937008 
vn -0.543307 0.708661 -0.456693 
vn -0.173228 0.976378 0.149606 
vn -0.133858 -0.377953 0.913386 
vn -0.0866142 -0.937008 -0.330709 
vn -0.606299 0.543307 -0.582677 
vn 0.0708661 -0.976378 -0.181102 
vn -0.102362 -0.448819 -0.889764 
vn -0.377953 -0.551181 0.740157 
vn -0.527559 -0.645669 0.551181 
vn -0.377953 -0.551181 0.740157 
vn -0.606299 -0.291339 0.740157 
vn -0.740157 -0.480315 0.472441 
vn -0.858268 -0.173228 0.480315 
vn -0.582677 0.732283 0.354331 
vn -0.771654 0.606299 -0.204724 
vn -0.464567 0.818898 0.330709 
vn -0.551181 -0.551181 -0.622047 
vn -0.669291 0.629921 -0.401575 
vn -0.417323 0.874016 0.23622 
vn -0.582677 0.645669 -0.496063 
vn -0.440945 0.88189 0.173228 
vn -0.0393701 -0.645669 -0.76378 
vn -0.724409 -0.527559 -0.440945 
vn -0.771654 -0.496063 -0.401575 
vn -0.133858 -0.480315 0.866142 
vn -0.771654 -0.496063 -0.401575 
vn -0.0551181 -0.984252 0.181102 
vn -0.0551181 -0.984252 0.181102 
vn -0.267717 -0.338583 0.905512 
vn -0.023622 -0.330709 0.944882 
vn -0.409449 -0.566929 0.716535 
vn -0.629921 -0.480315 0.614173 
vn -0.173228 0.968504 0.165354 
vn -0.480315 0.228346 0.850394 
vn -0.511811 0.259843 0.818898 
vn -0.472441 0.220472 0.858268 
vn -0.433071 0.181102 0.88189 
vn -0.385827 0.299213 0.866142 
vn -0.401575 0.204724 0.889764 
vn -0.346457 0.15748 0.92126 
vn -0.110236 0.110236 0.984252 
vn -0.314961 0.102362 0.944882 
vn -0.291339 0.0787402 0.952756 
vn -0.314961 0.188976 0.929134 
vn -0.535433 -0.133858 0.834646 
vn 0.0551181 0.0944882 0.992126 
vn 0.362205 0.149606 0.92126 
vn 0.559055 0.23622 0.795276 
vn -0.629921 0.748031 0.19685 
vn -0.472441 0.779528 0.425197 
vn -0.346457 0.929134 0.133858 
vn -0.614173 0.771654 -0.173228 
vn -0.716535 0.551181 0.425197 
vn -0.590551 0.629921 0.503937 
vn -0.858268 0.464567 0.220472 
vn -0.464567 0.858268 -0.220472 
vn -0.80315 -0.425197 0.425197 
vn -0.464567 0.858268 -0.220472 
vn -0.787402 0.606299 0.11811 
vn -0.905512 0.370079 0.220472 
vn -0.511811 0.173228 0.84252 
vn -0.535433 0.228346 0.811024 
vn -0.913386 0.291339 0.299213 
vn -0.889764 -0.425197 0.188976 
vn -0.732283 -0.228346 0.645669 
vn 0.00787402 -0.992126 0.102362 
vn -0.480315 -0.314961 0.818898 
vn -0.377953 -0.346457 0.858268 
vn -0.700787 -0.629921 0.330709 
vn -0.944882 0.0629921 0.322835 
vn -0.606299 0.149606 0.779528 
vn 0.448819 -0.015748 0.897638 
vn 0.322835 0.346457 0.88189 
vn -0.417323 0.181102 0.889764 
vn -0.519685 0.417323 0.740157 
vn -0.385827 0.362205 0.850394 
vn -0.188976 0.102362 0.976378 
vn 0.291339 -0.220472 0.929134 
vn 0.370079 -0.173228 0.913386 
vn 0.244094 -0.173228 0.952756 
vn 0.488189 -0.0629921 0.874016 
vn 0.496063 -0.0866142 0.866142 
vn -0.188976 0.976378 0.110236 
vn -0.488189 0.874016 0.015748 
vn -0.433071 0.84252 0.307087 
vn -0.417323 0.88189 0.212598 
vn -0.464567 0.818898 0.330709 
vn -0.519685 0.850394 -0.0944882 
vn -0.543307 0.527559 -0.653543 
vn -0.582677 0.732283 0.354331 
vn -0.543307 0.755906 0.362205 
vn -0.511811 -0.0787402 0.858268 
vn -0.204724 -0.0629921 0.976378 
vn -0.299213 -0.165354 0.937008 
vn -0.448819 0.181102 0.874016 
vn -0.314961 0.448819 0.84252 
vn -0.393701 -0.0472441 0.913386 
vn 0.472441 0.858268 0.212598 
vn 0.598425 0.795276 -0.0708661 
vn 0.614173 0.566929 0.551181 
vn 0.314961 0.015748 0.944882 
vn 0.488189 -0.0944882 0.866142 
vn 0.527559 0.354331 0.771654 
vn 0.448819 0.259843 0.858268 
vn 0.251969 -0.173228 0.952756 
vn 0.299213 -0.377953 0.874016 
vn 0.464567 -0.322835 0.826772 
vn 0.330709 -0.511811 0.795276 
vn 0.370079 -0.834646 0.401575 
vn -0.724409 -0.173228 0.669291 
vn -0.606299 -0.740157 0.291339 
vn -0.606299 -0.740157 0.291339 
vn -0.606299 -0.740157 0.291339 
vn -0.0551181 0.181102 0.984252 
vn 0.181102 0.472441 0.866142 
vn 0.102362 -0.0787402 0.992126 
vn 0.00787402 0.834646 0.551181 
vn 0.267717 0.299213 0.913386 
vn 0.228346 -0.23622 0.944882 
vn -0.110236 -0.968504 0.204724 
vn -0.0314961 -0.968504 0.244094 
vn 0.0629921 0.88189 0.472441 
vn -0.409449 -0.385827 0.826772 
vn -0.480315 -0.338583 0.811024 
vn 0.322835 0.322835 0.889764 
vn 0.0944882 -0.866142 0.488189 
vn -0.708661 0.0944882 0.692913 
vn -0.0629921 -0.480315 0.874016 
vn -0.11811 0.149606 0.984252 
vn 0.188976 0.370079 0.913386 
vn 0.0708661 0.905512 0.417323 
vn -0.181102 0.425197 0.889764 
vn -0.0314961 0.496063 0.866142 
vn 0.220472 -0.937008 0.259843 
vn 0.19685 -0.944882 0.275591 
vn -0.0944882 0.84252 0.535433 
vn 0.19685 -0.92126 0.346457 
vn 0.393701 0.0629921 0.913386 
vn 0.338583 0.433071 0.834646 
vn 0.456693 0.795276 -0.393701 
vn 0.015748 0.968504 0.251969 
vn -0.299213 0.811024 0.503937 
vn 0.015748 0.952756 0.299213 
vn 0.165354 -0.952756 0.267717 
vn 0.322835 0.511811 0.795276 
vn 0.669291 0.661417 0.330709 
vn 0.566929 0.566929 0.598425 
vn -0.0629921 0.913386 -0.401575 
vn 0.220472 0.535433 0.811024 
vn 0.511811 0.566929 0.645669 
vn -0.0866142 0.338583 -0.937008 
vn 0.220472 0.23622 0.944882 
vn -0.133858 -0.377953 0.913386 
vn 0.15748 0.984252 -0.0866142 
vn 0.480315 0.354331 0.80315 
vn -0.251969 -0.023622 0.968504 
vn 0.00787402 -0.015748 1 
vn 0.527559 -0.0472441 0.850394 
vn -0.220472 -0.0866142 0.968504 
vn -0.015748 -0.165354 0.984252 
vn -0.606299 0.543307 -0.582677 
vn 0.503937 -0.220472 0.834646 
vn -0.11811 -0.283465 0.952756 
vn 0.0787402 -0.401575 0.913386 
vn 0.370079 -0.685039 0.622047 
vn 0.212598 -0.559055 0.80315 
vn 0.220472 -0.527559 0.818898 
vn -0.307087 0.023622 0.952756 
vn -0.204724 -0.149606 0.968504 
vn 0 -0.488189 0.874016 
vn 0.173228 -0.905512 0.385827 
vn -0.0944882 -0.338583 0.937008 
vn -0.606299 -0.291339 0.740157 
vn -0.377953 -0.551181 0.740157 
vn -0.251969 -0.354331 0.897638 
vn -0.251969 -0.283465 0.929134 
vn -0.0629921 -0.204724 0.976378 
vn -0.527559 -0.645669 0.551181 
vn -0.377953 -0.551181 0.740157 
vn -0.606299 -0.291339 0.740157 
vn 0.480315 -0.669291 0.566929 
vn 0.519685 -0.669291 0.527559 
vn 0.496063 -0.669291 0.559055 
vn 0.385827 -0.692913 0.606299 
vn 0.19685 -0.76378 0.614173 
vn -0.858268 -0.173228 0.480315 
vn 0.448819 0.023622 0.889764 
vn 0.251969 0.322835 0.913386 
vn 0.204724 -0.0866142 0.976378 
vn 0.440945 -0.0551181 0.897638 
vn 0.433071 -0.0629921 0.897638 
vn -0.464567 0.818898 0.330709 
vn 0.228346 -0.976378 0.0472441 
vn 0.307087 -0.944882 -0.141732 
vn 0.732283 0.614173 0.291339 
vn 0.76378 0.566929 0.299213 
vn 0.133858 -0.19685 0.968504 
vn -0.133858 -0.480315 0.866142 

vt 3.26505 3.049 
vt 3.23696 3.04933 
vt 3.22755 3.13841 
vt 3.24981 3.12329 
vt 3.26368 3.14541 
vt 3.24718 3.16401 
vt 3.32813 3.16725 
vt 3.33109 2.94519 
vt 3.29912 2.96182 
vt 3.31318 2.94508 
vt 3.32391 2.95678 
vt 3.30546 2.97881 
vt 3.31432 2.90176 
vt 3.30738 2.89129 
vt 3.26751 3.04474 
vt 3.33085 3.17744 
vt 3.32434 3.09857 
vt 3.33184 3.10701 
vt 3.32164 3.11071 
vt 3.31458 3.10631 
vt 3.30928 3.10162 
vt 3.33372 3.09599 
vt 3.33963 3.10418 
vt 3.27968 3.15282 
vt 3.26514 3.16999 
vt 3.27968 3.15282 
vt 3.26368 3.14541 
vt 3.28305 3.13798 
vt 3.28288 2.91089 
vt 3.27161 2.90651 
vt 3.29191 2.92092 
vt 3.28288 2.91089 
vt 3.31502 2.92865 
vt 3.32529 2.93217 
vt 3.32529 2.93217 
vt 3.33288 2.94222 
vt 3.33272 2.96615 
vt 3.27741 3.05416 
vt 3.30158 3.0281 
vt 3.3189 2.99159 
vt 3.27208 3.00286 
vt 3.28797 2.977 
vt 3.28429 3.01723 
vt 3.26981 3.07117 
vt 3.27707 3.05576 
vt 3.28841 3.06329 
vt 3.31729 3.01638 
vt 3.30147 3.03612 
vt 3.29478 3.02185 
vt 3.30847 3.00577 
vt 3.28637 3.0361 
vt 3.26024 3.08972 
vt 3.28604 3.08314 
vt 3.26024 3.08972 
vt 3.31923 2.99857 
vt 3.32453 3.00603 
vt 3.22173 3.0653 
vt 3.22183 3.05531 
vt 3.23836 3.04758 
vt 3.23696 3.04933 
vt 3.21129 3.08314 
vt 3.24854 3.05765 
vt 3.23337 3.06654 
vt 3.22232 3.31008 
vt 3.27839 3.29837 
vt 3.25596 3.27242 
vt 3.27536 3.273 
vt 3.30909 3.27522 
vt 3.30025 3.2662 
vt 3.26134 3.02599 
vt 3.30928 3.10162 
vt 3.33717 3.12102 
vt 3.28602 2.94105 
vt 3.27459 2.92888 
vt 3.31458 3.10631 
vt 3.30925 3.11747 
vt 3.33912 3.13947 
vt 3.32196 3.12204 
vt 3.27298 2.97102 
vt 3.2644 2.95192 
vt 3.27459 2.92888 
vt 3.26169 2.92019 
vt 3.30822 2.89753 
vt 3.3055 3.13267 
vt 3.32169 3.13957 
vt 3.2644 2.95192 
vt 3.25092 2.94182 
vt 3.30105 3.14586 
vt 3.29806 3.09122 
vt 3.26319 3.01466 
vt 3.23836 3.04758 
vt 3.25786 2.97179 
vt 3.24192 2.96671 
vt 3.25037 3.00178 
vt 3.25786 2.97179 
vt 3.29773 2.88641 
vt 3.30738 2.89129 
vt 3.31898 3.15445 
vt 3.26195 3.05586 
vt 3.25037 3.00178 
vt 3.23368 2.99616 
vt 3.29655 2.90676 
vt 3.28584 2.89891 
vt 3.26347 3.0879 
vt 3.24259 3.0586 
vt 3.24582 3.02498 
vt 3.24582 3.02498 
vt 3.22762 3.02463 
vt 3.27133 2.9198 
vt 3.28279 2.9284 
vt 3.30592 2.92023 
vt 3.2633 3.20478 
vt 3.28913 3.19433 
vt 3.28785 3.2212 
vt 3.27002 2.99968 
vt 3.24828 3.01195 
vt 3.25727 2.98476 
vt 3.26986 3.11572 
vt 3.28805 2.94976 
vt 3.27181 2.94923 
vt 3.28279 2.9284 
vt 3.24329 3.09134 
vt 3.24259 3.0586 
vt 3.22335 3.05811 
vt 3.25707 2.94546 
vt 3.27181 2.94923 
vt 3.2509 2.94528 
vt 3.31169 3.19916 
vt 3.31384 3.22263 
vt 3.24981 3.12329 
vt 3.24329 3.09134 
vt 3.22284 3.09374 
vt 3.29655 2.90676 
vt 3.25727 2.98476 
vt 3.24207 2.98078 
vt 3.31318 2.94508 
vt 3.30278 2.94005 
vt 3.29213 3.25116 
vt 3.26606 3.24599 
vt 3.24028 3.20047 
vt 3.31412 3.2548 
vt 3.21036 3.08929 
vt 3.24828 3.01195 
vt 3.2313 3.01568 
vt 3.28909 2.95653 
vt 3.29912 2.96182 
vt 3.24346 3.23993 
vt 3.27279 3.04886 
vt 3.28797 2.977 
vt 3.27534 2.97566 
vt 3.24142 3.30758 
vt 3.23171 3.2694 
vt 3.27146 3.34164 
vt 3.24617 3.3437 
vt 3.28474 3.34813 
vt 3.27208 3.00286 
vt 3.25987 3.001 
vt 3.24854 3.05765 
vt 3.26134 3.02599 
vt 3.24652 3.03067 
vt 3.22064 3.09212 
vt 3.30847 3.00577 
vt 3.2848 3.01829 
vt 3.31224 3.18232 
vt 3.2922 3.17509 
vt 3.31549 3.16733 
vt 3.29654 3.15885 
vt 3.1561 3.06066 
vt 3.08796 3.06987 
vt 3.32993 3.1141 
vt 3.3456 3.09844 
vt 3.22962 3.11312 
vt 3.21333 3.11615 
vt 3.2257 3.08242 
vt 3.2111 3.09126 
vt 3.259 3.08315 
vt 3.09935 3.05434 
vt 3.11375 3.05239 
vt 3.2491 3.10097 
vt 3.26605 3.12 
vt 3.26195 3.10549 
vt 3.10979 3.08601 
vt 3.10624 3.06982 
vt 3.1248 3.09046 
vt 3.38099 3.09345 
vt 3.12071 3.07253 
vt 3.15907 3.10238 
vt 3.17681 3.10366 
vt 3.16105 3.07982 
vt 3.18535 3.07767 
vt 3.21024 3.07739 
vt 3.23632 3.05776 
vt 3.31999 3.11872 
vt 3.24005 3.14534 
vt 3.25744 3.15094 
vt 3.28968 3.15453 
vt 3.32757 3.15391 
vt 3.35148 3.14759 
vt 3.12871 3.05421 
vt 3.1464 3.07927 
vt 3.13983 3.0567 
vt 3.1334 3.07602 
vt 3.33465 3.10969 
vt 3.35537 3.1224 
vt 3.23796 3.12005 
vt 3.25866 3.10677 
vt 3.29598 3.10047 
vt 3.17512 3.09879 
vt 3.17603 3.0844 
vt 3.17964 3.11184 
vt 3.32175 3.13841 
vt 3.33099 3.12329 
vt 3.34032 3.16401 
vt 3.15152 2.94519 
vt 3.14922 2.94094 
vt 3.38895 3.17744 
vt 3.4571 3.11071 
vt 3.34891 3.15282 
vt 3.3546 3.16999 
vt 3.34891 3.15282 
vt 3.3571 3.14873 
vt 3.36465 3.16003 
vt 3.29872 2.90375 
vt 3.3107 2.91089 
vt 3.31041 2.90651 
vt 3.28728 2.90755 
vt 3.28385 2.91156 
vt 3.15866 2.93145 
vt 3.17163 2.92865 
vt 3.17741 2.93217 
vt 3.15161 3.07805 
vt 3.16016 3.07117 
vt 3.16908 3.08972 
vt 3.16193 3.1002 
vt 3.16908 3.08972 
vt 3.1769 3.19608 
vt 3.1764 3.23235 
vt 3.16671 3.20225 
vt 3.26306 3.15697 
vt 3.25272 3.19604 
vt 3.25004 3.15592 
vt 3.21577 3.16826 
vt 3.21033 3.21172 
vt 3.20463 3.17616 
vt 3.29682 3.16811 
vt 3.29195 3.20259 
vt 3.28297 3.16077 
vt 3.23659 3.1586 
vt 3.22957 3.11916 
vt 3.22513 3.08681 
vt 3.24415 3.08597 
vt 3.24668 3.11675 
vt 3.26674 3.0653 
vt 3.26307 3.08249 
vt 3.26019 3.05531 
vt 3.26728 3.04758 
vt 3.27378 3.06525 
vt 3.27373 3.04933 
vt 3.28038 3.05579 
vt 3.27868 3.08314 
vt 3.21961 3.07217 
vt 3.22384 3.06022 
vt 3.16987 3.10394 
vt 3.16749 3.12078 
vt 3.21408 3.05765 
vt 3.21372 3.07469 
vt 3.20653 3.06654 
vt 3.25583 3.26586 
vt 3.28865 3.26386 
vt 3.28832 3.31008 
vt 3.25689 3.31352 
vt 3.37299 3.14704 
vt 3.44512 3.09427 
vt 3.42991 3.09855 
vt 3.40128 3.1076 
vt 3.45025 3.10162 
vt 3.44066 3.1085 
vt 3.41049 3.10931 
vt 3.40128 3.1076 
vt 3.45527 3.10631 
vt 3.44901 3.11747 
vt 3.42424 3.12065 
vt 3.31433 2.92019 
vt 3.38533 3.16109 
vt 3.37594 3.17926 
vt 3.43526 3.13267 
vt 3.40809 3.13247 
vt 3.39374 3.12153 
vt 3.28566 2.92126 
vt 3.30018 2.91721 
vt 3.31629 2.94182 
vt 3.2117 2.89179 
vt 3.21086 2.89753 
vt 3.22341 2.88554 
vt 3.42026 3.14586 
vt 3.28515 2.94273 
vt 3.30079 2.93869 
vt 3.31757 2.96671 
vt 3.23689 2.88641 
vt 3.28487 2.96747 
vt 3.3012 2.96469 
vt 3.32565 3.00178 
vt 3.31884 2.99616 
vt 3.24171 2.89891 
vt 3.22513 2.89814 
vt 3.2107 2.90531 
vt 3.31852 3.02463 
vt 3.28448 2.99609 
vt 3.30171 2.99425 
vt 3.24567 2.9198 
vt 3.22824 2.91901 
vt 3.21267 2.92524 
vt 3.35952 3.20478 
vt 3.38599 3.19433 
vt 3.31733 3.05811 
vt 3.28346 3.02311 
vt 3.30122 3.02304 
vt 3.24938 2.94546 
vt 3.23158 2.94528 
vt 3.21526 2.94947 
vt 3.3179 3.09374 
vt 3.29968 3.05599 
vt 3.25351 2.98078 
vt 3.23505 2.98124 
vt 3.21812 2.98468 
vt 3.17616 2.94005 
vt 3.33802 3.20047 
vt 3.15973 2.94416 
vt 3.29915 3.08929 
vt 3.25626 3.01568 
vt 3.22128 3.02007 
vt 3.23813 3.01765 
vt 3.18005 2.95653 
vt 3.33204 3.23993 
vt 3.30874 3.24491 
vt 3.16263 2.96101 
vt 3.29962 3.12716 
vt 3.24147 3.05631 
vt 3.18467 2.97566 
vt 3.30794 3.30758 
vt 3.31055 3.2694 
vt 3.3129 3.22721 
vt 3.31298 3.18749 
vt 3.30501 3.3437 
vt 3.16712 2.98083 
vt 3.2807 3.12042 
vt 3.19147 3.001 
vt 3.28762 3.34907 
vt 3.25538 3.35176 
vt 3.17343 3.00637 
vt 3.16093 3.01615 
vt 3.26358 3.11733 
vt 3.19868 3.03067 
vt 3.21748 3.35242 
vt 3.21848 3.31821 
vt 3.18094 3.03697 
vt 3.16797 3.04601 
vt 3.19008 3.32121 
vt 3.19357 3.34972 
vt 3.21688 3.27505 
vt 3.18879 3.0728 
vt 3.2108 3.09212 
vt 3.18657 3.28429 
vt 3.21313 3.12648 
vt 3.19408 3.1031 
vt 3.1988 3.13604 
vt 3.09188 3.01231 
vt 3.18595 3.14616 
vt 3.19449 3.18458 
vt 3.17195 3.1557 
vt 3.15905 3.16327 
vt 3.14239 3.13539 
vt 3.14081 3.13396 
vt 3.15259 3.1309 
vt 3.13422 3.11244 
vt 3.12494 3.09333 
vt 3.14555 3.10726 
vt 3.11049 3.00154 
vt 3.12076 3.00577 
vt 3.09627 3.00735 
vt 3.09591 3.03544 
vt 3.11562 3.0746 
vt 3.1363 3.08629 
vt 3.12076 3.01829 
vt 3.10503 3.0246 
vt 3.10546 3.05381 
vt 3.12649 3.06588 
vt 3.14202 3.05785 
vt 3.15257 3.05576 
vt 3.13126 3.03721 
vt 3.14101 3.0361 
vt 3.11582 3.0445 
vt 3.38375 3.13185 
vt 3.39866 3.18232 
vt 3.39673 3.17509 
vt 3.40761 3.15885 
vt 3.39567 3.14485 
vt 3.29994 3.09879 
vt 3.30067 3.0844 
vt 3.31178 3.11184 
vt 3.28001 3.049 
vt 3.28487 3.013 
vt 3.30337 3.02156 
vt 3.3081 3.04933 
vt 3.2342 2.95508 
vt 3.22182 2.96407 
vt 3.21397 2.94519 
vt 3.22466 2.94094 
vt 3.26538 3.15282 
vt 3.27512 2.90755 
vt 3.26463 2.91156 
vt 3.26218 2.91089 
vt 3.26463 2.91156 
vt 3.25529 2.91959 
vt 3.22756 2.93145 
vt 3.21397 2.94519 
vt 3.20683 2.95299 
vt 3.23003 2.92865 
vt 3.21353 2.97053 
vt 3.24964 3.03582 
vt 3.25734 3.07367 
vt 3.22928 2.99598 
vt 3.28481 3.08972 
vt 3.25902 3.08314 
vt 3.28481 3.08972 
vt 3.30134 3.23235 
vt 3.30335 3.20225 
vt 3.32881 3.08681 
vt 3.32367 3.06525 
vt 3.3081 3.04933 
vt 3.32499 3.05579 
vt 3.33377 3.08314 
vt 3.31615 3.07217 
vt 3.29926 3.0547 
vt 3.31803 3.06022 
vt 3.28329 3.08256 
vt 3.29651 3.05765 
vt 3.24496 3.31764 
vt 3.23962 3.28748 
vt 3.2436 2.99849 
vt 3.25926 3.0249 
vt 3.27025 3.04846 
vt 3.23315 2.98315 
vt 3.22182 2.96407 
vt 3.24601 2.97227 
vt 3.23315 2.98315 
vt 3.22612 3.1076 
vt 3.20718 3.11704 
vt 3.20329 3.10689 
vt 3.25452 2.94362 
vt 3.27355 2.92867 
vt 3.25903 2.93234 
vt 3.23684 2.89753 
vt 3.22972 2.90726 
vt 3.28528 2.92126 
vt 3.27355 2.92867 
vt 3.28508 2.95337 
vt 3.27936 2.97722 
vt 3.24671 2.89179 
vt 3.23684 2.89753 
vt 3.27286 3.05338 
vt 3.29614 2.94273 
vt 3.28508 2.95337 
vt 3.30542 2.96747 
vt 3.29218 2.97309 
vt 3.29911 3.00094 
vt 3.29218 2.97309 
vt 3.25844 2.90531 
vt 3.2473 2.91564 
vt 3.27189 2.95591 
vt 3.25579 2.95622 
vt 3.26148 2.93665 
vt 3.31362 2.99609 
vt 3.29911 3.00094 
vt 3.2473 2.91564 
vt 3.23778 2.92682 
vt 3.27314 2.92524 
vt 3.26148 2.93665 
vt 3.31939 3.02311 
vt 3.30337 3.02156 
vt 3.29415 2.94528 
vt 3.28688 2.94947 
vt 3.27189 2.95591 
vt 3.28452 2.99104 
vt 3.27199 3.00541 
vt 3.30045 2.98468 
vt 3.28452 2.99104 
vt 3.24255 2.94416 
vt 3.30986 3.02007 
vt 3.29174 3.0187 
vt 3.29174 3.0187 
vt 3.25649 2.96101 
vt 3.27227 3.04886 
vt 3.27094 2.98083 
vt 3.2594 2.99097 
vt 3.29926 3.0547 
vt 3.28518 3.001 
vt 3.2436 2.99849 
vt 3.28676 3.00637 
vt 3.2751 3.01615 
vt 3.29651 3.05765 
vt 3.26323 3.35213 
vt 3.28855 3.04601 
vt 3.25926 3.0249 
vt 3.3036 3.32121 
vt 3.30113 3.34972 
vt 3.27225 3.32187 
vt 3.31211 3.0728 
vt 3.27025 3.04846 
vt 3.32442 3.09212 
vt 3.27595 3.34983 
vt 3.27225 3.32187 
vt 3.30176 3.28429 
vt 3.26929 3.28972 
vt 3.23575 3.25125 
vt 3.26929 3.28972 
vt 3.26622 3.25155 
vt 3.23663 3.20435 
vt 3.28329 3.08256 
vt 3.32968 3.13604 
vt 3.26622 3.25155 
vt 3.26336 3.20952 
vt 3.24234 3.15872 
vt 3.22157 3.01231 
vt 3.2171 3.01729 
vt 3.26336 3.20952 
vt 3.28954 3.20631 
vt 3.24765 3.124 
vt 3.26448 3.16672 
vt 3.22909 3.00793 
vt 3.22157 3.01231 
vt 3.23117 2.99929 
vt 3.24701 3.08252 
vt 3.26169 3.09406 
vt 3.26516 3.11227 
vt 3.26448 3.16672 
vt 3.28714 3.16757 
vt 3.26584 3.13396 
vt 3.30349 3.16327 
vt 3.2858 3.13539 
vt 3.26584 3.13396 
vt 3.22299 3.03118 
vt 3.30051 3.1309 
vt 3.28314 3.11244 
vt 3.26516 3.11227 
vt 3.2366 3.05412 
vt 3.2399 3.01831 
vt 3.22988 3.02672 
vt 3.26169 3.09406 
vt 3.27837 3.09333 
vt 3.29551 3.10726 
vt 3.24638 3.00735 
vt 3.25392 3.03544 
vt 3.24202 3.04477 
vt 3.24957 3.05911 
vt 3.25704 3.07955 
vt 3.2721 3.0746 
vt 3.25704 3.07955 
vt 3.26224 3.0246 
vt 3.26419 3.05381 
vt 3.24957 3.05911 
vt 3.24202 3.04477 
vt 3.17512 3.1464 
vt 3.17964 3.15823 
vt 3.2797 3.12646 
vt 3.27373 3.15455 
vt 3.32175 3.16396 
vt 3.35757 3.06338 
vt 3.36773 3.0687 
vt 3.35418 3.07879 
vt 3.15152 3.06042 
vt 3.14922 3.07111 
vt 3.26527 3.124 
vt 3.33205 3.07243 
vt 3.45176 3.06717 
vt 3.45326 3.05967 
vt 3.4571 3.06987 
vt 3.45025 3.08223 
vt 3.44512 3.07584 
vt 3.441 3.05779 
vt 3.44461 3.05188 
vt 3.43728 3.06722 
vt 3.34891 3.11183 
vt 3.34125 3.09235 
vt 3.34891 3.11183 
vt 3.33972 3.12783 
vt 3.32801 3.10846 
vt 3.3571 3.09767 
vt 3.36465 3.11255 
vt 3.3571 3.09767 
vt 3.29872 3.12102 
vt 3.29669 3.107 
vt 3.3107 3.10863 
vt 3.31041 3.11991 
vt 3.28728 3.12157 
vt 3.28385 3.11109 
vt 3.29669 3.107 
vt 3.29509 3.09776 
vt 3.28385 3.11109 
vt 3.2842 3.10174 
vt 3.16298 3.06008 
vt 3.15866 3.07401 
vt 3.17163 3.07649 
vt 3.17741 3.06622 
vt 3.21513 3.1141 
vt 3.19945 3.09844 
vt 3.18022 3.1038 
vt 3.12076 3.08304 
vt 3.16908 3.13127 
vt 3.16193 3.14419 
vt 3.17058 3.10547 
vt 3.16908 3.13127 
vt 3.1139 3.06698 
vt 3.17761 3.09542 
vt 3.2956 3.08819 
vt 3.26674 3.16978 
vt 3.27373 3.15455 
vt 3.28038 3.17144 
vt 3.16987 3.14601 
vt 3.37299 3.10281 
vt 3.36703 3.08741 
vt 3.36703 3.08741 
vt 3.42173 3.069 
vt 3.42505 3.05277 
vt 3.43728 3.06722 
vt 3.44512 3.07584 
vt 3.42991 3.08288 
vt 3.42173 3.069 
vt 3.40128 3.07257 
vt 3.40169 3.05364 
vt 3.41122 3.04975 
vt 3.45025 3.08223 
vt 3.41049 3.08775 
vt 3.40128 3.07257 
vt 3.39374 3.09176 
vt 3.30018 3.13498 
vt 3.2117 3.09316 
vt 3.21086 3.08329 
vt 3.2244 3.08019 
vt 3.22341 3.09345 
vt 3.16406 3.09345 
vt 3.26728 3.15315 
vt 3.23689 3.09378 
vt 3.24005 3.08413 
vt 3.24171 3.10567 
vt 3.22513 3.10942 
vt 3.38599 3.10238 
vt 3.23158 3.14061 
vt 3.33099 3.1417 
vt 3.18651 3.07833 
vt 3.17616 3.08873 
vt 3.15973 3.089 
vt 3.29915 3.18115 
vt 3.18005 3.10242 
vt 3.19194 3.09239 
vt 3.22507 3.11872 
vt 3.21837 3.14571 
vt 3.21408 3.14297 
vt 3.17317 3.12975 
vt 3.1988 3.17613 
vt 3.09188 3.06803 
vt 3.08796 3.07555 
vt 3.09188 3.06803 
vt 3.09921 3.06753 
vt 3.0942 3.07762 
vt 3.10429 3.07971 
vt 3.10992 3.07229 
vt 3.11049 3.09188 
vt 3.12076 3.08304 
vt 3.09627 3.09283 
vt 3.12076 3.10671 
vt 3.13246 3.09673 
vt 3.13126 3.11747 
vt 3.14101 3.10514 
vt 3.11582 3.11997 
vt 3.38375 3.09537 
vt 3.38298 3.0806 
vt 3.38548 3.05989 
vt 3.38298 3.0806 
vt 3.26536 3.049 
vt 3.26531 3.013 
vt 3.18748 3.16725 
vt 3.16854 3.16059 
vt 3.17733 3.14348 
vt 3.19088 3.1503 
vt 3.35764 2.95678 
vt 3.30488 2.90176 
vt 3.305 2.89129 
vt 3.32066 2.88923 
vt 3.31829 2.90347 
vt 3.27978 3.04474 
vt 3.27608 3.07237 
vt 3.26193 3.07623 
vt 3.30051 3.04485 
vt 3.29969 3.06966 
vt 3.31342 3.09012 
vt 3.26754 3.09812 
vt 3.21301 3.16592 
vt 3.21165 3.20452 
vt 3.17557 3.18946 
vt 3.1561 3.17744 
vt 3.09329 3.09857 
vt 3.0918 3.10701 
vt 3.08796 3.11071 
vt 3.09481 3.10162 
vt 3.10405 3.09599 
vt 3.10044 3.10418 
vt 3.10777 3.09121 
vt 3.19615 3.15282 
vt 3.2038 3.15024 
vt 3.19615 3.15282 
vt 3.21705 3.13798 
vt 3.24837 2.90589 
vt 3.24996 2.91963 
vt 3.23763 2.92092 
vt 3.23435 2.91089 
vt 3.2612 2.91156 
vt 3.26085 2.91959 
vt 3.39354 2.94519 
vt 3.38691 2.95299 
vt 3.37545 2.94642 
vt 3.38208 2.93349 
vt 3.36764 2.93217 
vt 3.36436 2.94222 
vt 3.38513 2.97053 
vt 3.36939 2.96615 
vt 3.3225 3.07399 
vt 3.32993 3.05416 
vt 3.3456 3.06257 
vt 3.33846 3.08311 
vt 3.35464 3.0281 
vt 3.37485 3.03582 
vt 3.36483 3.07367 
vt 3.36337 2.99159 
vt 3.38288 2.99598 
vt 3.33971 3.01723 
vt 3.38915 3.06329 
vt 3.42135 3.01638 
vt 3.40659 3.03612 
vt 3.4243 3.00577 
vt 3.37448 3.08314 
vt 3.37598 3.08972 
vt 3.43513 2.99857 
vt 3.43116 3.00603 
vt 3.36744 3.09103 
vt 3.35727 3.10127 
vt 3.35724 3.08782 
vt 3.24945 3.14067 
vt 3.2427 3.11028 
vt 3.31339 3.0705 
vt 3.22962 3.29837 
vt 3.21333 3.273 
vt 3.2257 3.27522 
vt 3.28346 3.27395 
vt 3.30341 3.30227 
vt 3.259 3.30703 
vt 3.2515 3.27531 
vt 3.30562 3.27654 
vt 3.32794 3.28074 
vt 3.34331 3.31764 
vt 3.3554 3.28748 
vt 3.38501 3.0249 
vt 3.12 3.10127 
vt 3.14377 3.1076 
vt 3.14336 3.11704 
vt 3.13383 3.10689 
vt 3.11172 3.11454 
vt 3.09935 3.12102 
vt 3.12896 3.13141 
vt 3.23328 2.94105 
vt 3.11375 3.13947 
vt 3.2491 2.94362 
vt 3.26605 2.92867 
vt 3.26195 2.93234 
vt 3.22778 2.97102 
vt 3.3342 2.89753 
vt 3.33102 2.90726 
vt 3.2474 2.9768 
vt 3.26456 2.97722 
vt 3.38099 3.09122 
vt 3.24578 3.01555 
vt 3.24385 3.05338 
vt 3.22513 3.01466 
vt 3.21941 3.00178 
vt 3.24122 3.08334 
vt 3.22552 3.05586 
vt 3.33554 2.95591 
vt 3.33035 2.95622 
vt 3.22345 3.0879 
vt 3.33124 2.92682 
vt 3.3144 2.92742 
vt 3.29872 2.92023 
vt 3.15907 3.19433 
vt 3.2853 2.99968 
vt 3.22084 3.11572 
vt 3.29193 2.94976 
vt 3.32558 3.00541 
vt 3.31008 2.95929 
vt 3.16105 3.19916 
vt 3.18535 3.22263 
vt 3.21407 3.12329 
vt 3.30482 3.00429 
vt 3.21024 3.2548 
vt 3.2459 3.08929 
vt 3.23632 3.24491 
vt 3.31999 3.04886 
vt 3.23796 3.34164 
vt 3.25866 3.34813 
vt 3.25865 3.1935 
vt 3.27151 3.23964 
vt 3.29598 3.34992 
vt 3.3025 3.19156 
vt 3.30499 3.241 
vt 3.33098 3.05765 
vt 3.33465 3.35213 
vt 3.34268 3.19597 
vt 3.33775 3.24558 
vt 3.36123 3.32187 
vt 3.35537 3.34983 
vt 3.36527 3.25125 
vt 3.30292 3.14007 
vt 3.34782 3.14634 
vt 3.37387 3.20435 
vt 3.3872 3.20952 
vt 3.38148 3.15872 
vt 3.44585 3.00254 
vt 3.45318 3.01231 
vt 3.44644 3.01729 
vt 3.43875 3.01119 
vt 3.39058 3.124 
vt 3.4571 3.00793 
vt 3.45318 3.01231 
vt 3.44585 3.00254 
vt 3.40382 3.10399 
vt 3.41985 3.08252 
vt 3.42317 3.09406 
vt 3.41336 3.11227 
vt 3.40424 3.13396 
vt 3.44076 2.99485 
vt 3.44235 3.03118 
vt 3.42947 3.02602 
vt 3.40073 3.07192 
vt 3.43439 3.05412 
vt 3.41682 3.04754 
vt 3.4243 3.00577 
vt 3.45298 3.02672 
vt 3.44691 3.04477 
vt 3.12871 3.15479 
vt 3.13983 3.16486 
vt 3.14595 3.14968 
vt 3.15958 3.13119 

usemtl Handle1Mtl

f 27/27/27 28/28/28 29/29/29 
f 29/29/29 30/30/30 27/27/27 
f 33/33/33 34/34/34 35/35/35 
f 35/35/35 36/36/36 33/33/33 
f 41/41/41 42/42/42 43/43/43 
f 43/43/43 44/44/44 41/41/41 
f 41/41/41 44/44/44 45/45/45 
f 29/29/29 48/48/48 49/49/49 
f 49/49/49 30/30/30 29/29/29 
f 65/65/65 66/66/66 36/36/36 
f 36/36/36 67/67/67 65/65/65 
f 64/64/64 36/36/36 35/35/35 
f 63/63/63 67/67/67 36/36/36 
f 36/36/36 64/64/64 63/63/63 
f 68/68/68 69/69/69 70/70/70 
f 71/71/71 72/72/72 73/73/73 
f 73/73/73 74/74/74 71/71/71 
f 75/75/75 73/73/73 72/72/72 
f 68/68/68 70/70/70 77/77/77 
f 77/77/77 78/78/78 68/68/68 
f 74/74/74 79/79/79 80/80/80 
f 80/80/80 71/71/71 74/74/74 
f 83/83/83 81/81/81 82/82/82 
f 89/89/89 90/90/90 91/91/91 
f 92/92/92 89/89/89 91/91/91 
f 67/67/67 94/94/94 65/65/65 
f 55/55/55 97/97/97 98/98/98 
f 98/98/98 56/56/56 55/55/55 
f 36/36/36 66/66/66 33/33/33 
f 102/102/102 43/43/43 42/42/42 
f 42/42/42 96/96/96 102/102/102 
f 97/97/97 103/103/103 104/104/104 
f 104/104/104 98/98/98 97/97/97 
f 53/53/53 105/105/105 106/106/106 
f 106/106/106 54/54/54 53/53/53 
f 100/100/100 99/99/99 43/43/43 
f 43/43/43 102/102/102 100/100/100 
f 34/34/34 59/59/59 60/60/60 
f 60/60/60 35/35/35 34/34/34 
f 109/109/109 102/102/102 96/96/96 
f 96/96/96 101/101/101 109/109/109 
f 105/105/105 110/110/110 111/111/111 
f 111/111/111 106/106/106 105/105/105 
f 108/108/108 100/100/100 102/102/102 
f 102/102/102 109/109/109 108/108/108 
f 110/110/110 116/116/116 117/117/117 
f 117/117/117 111/111/111 110/110/110 
f 103/103/103 114/114/114 118/118/118 
f 118/118/118 119/119/119 103/103/103 
f 108/108/108 109/109/109 122/122/122 
f 116/116/116 124/124/124 125/125/125 
f 125/125/125 117/117/117 116/116/116 
f 121/121/121 126/126/126 127/127/127 
f 127/127/127 120/120/120 121/121/121 
f 123/123/123 129/129/129 130/130/130 
f 130/130/130 114/114/114 123/123/123 
f 131/131/131 132/132/132 125/125/125 
f 125/125/125 124/124/124 131/131/131 
f 133/133/133 127/127/127 126/126/126 
f 126/126/126 134/134/134 133/133/133 
f 137/137/137 138/138/138 136/136/136 
f 139/139/139 140/140/140 141/141/141 
f 143/143/143 144/144/144 145/145/145 
f 128/128/128 146/146/146 129/129/129 
f 129/129/129 123/123/123 128/128/128 
f 147/147/147 148/148/148 132/132/132 
f 132/132/132 131/131/131 147/147/147 
f 149/149/149 133/133/133 134/134/134 
f 134/134/134 150/150/150 149/149/149 
f 141/141/141 144/144/144 143/143/143 
f 143/143/143 139/139/139 141/141/141 
f 138/138/138 137/137/137 152/152/152 
f 142/142/142 154/154/154 146/146/146 
f 146/146/146 128/128/128 142/142/142 
f 155/155/155 156/156/156 148/148/148 
f 148/148/148 147/147/147 155/155/155 
f 135/135/135 143/143/143 145/145/145 
f 145/145/145 157/157/157 135/135/135 
f 158/158/158 159/159/159 149/149/149 
f 149/149/149 150/150/150 158/158/158 
f 161/161/161 57/57/57 58/58/58 
f 138/138/138 162/162/162 163/163/163 
f 163/163/163 136/136/136 138/138/138 
f 37/37/37 135/135/135 157/157/157 
f 157/157/157 38/38/38 37/37/37 
f 164/164/164 30/30/30 49/49/49 
f 153/153/153 165/165/165 162/162/162 
f 162/162/162 138/138/138 153/153/153 
f 156/156/156 155/155/155 28/28/28 
f 28/28/28 27/27/27 156/156/156 
f 140/140/140 139/139/139 39/39/39 
f 39/39/39 115/115/115 140/140/140 
f 167/167/167 168/168/168 159/159/159 
f 159/159/159 158/158/158 167/167/167 
f 169/169/169 161/161/161 160/160/160 
f 136/136/136 163/163/163 171/171/171 
f 168/168/168 167/167/167 83/83/83 
f 83/83/83 82/82/82 168/168/168 
f 173/173/173 174/174/174 169/169/169 
f 169/169/169 170/170/170 173/173/173 
f 175/175/175 176/176/176 90/90/90 
f 90/90/90 89/89/89 175/175/175 
f 90/90/90 171/171/171 163/163/163 
f 163/163/163 91/91/91 90/90/90 
f 175/175/175 89/89/89 177/177/177 
f 177/177/177 178/178/178 175/175/175 
f 174/174/174 173/173/173 180/180/180 
f 180/180/180 181/181/181 174/174/174 
f 171/171/171 90/90/90 176/176/176 
f 103/103/103 119/119/119 104/104/104 
f 181/181/181 180/180/180 183/183/183 
f 183/183/183 184/184/184 181/181/181 
f 94/94/94 67/67/67 62/62/62 
f 62/62/62 182/182/182 94/94/94 
f 184/184/184 183/183/183 86/86/86 
f 86/86/86 87/87/87 184/184/184 
f 114/114/114 130/130/130 118/118/118 
f 70/70/70 69/69/69 75/75/75 
f 75/75/75 72/72/72 70/70/70 
f 142/142/142 52/52/52 51/51/51 
f 51/51/51 154/154/154 142/142/142 
f 152/152/152 188/188/188 40/40/40 
f 137/137/137 189/189/189 188/188/188 
f 188/188/188 152/152/152 137/137/137 
f 112/112/112 122/122/122 190/190/190 
f 190/190/190 191/191/191 112/112/112 
f 190/190/190 188/188/188 189/189/189 
f 189/189/189 191/191/191 190/190/190 
f 162/162/162 93/93/93 91/91/91 
f 91/91/91 163/163/163 162/162/162 
f 165/165/165 93/93/93 162/162/162 
f 197/197/197 199/199/199 198/198/198 
f 205/205/205 204/204/204 203/203/203 
f 210/210/210 208/208/208 206/206/206 
f 213/213/213 214/214/214 212/212/212 
f 200/200/200 196/196/196 198/198/198 
f 202/202/202 223/223/223 210/210/210 
f 210/210/210 207/207/207 202/202/202 
f 223/223/223 225/225/225 226/226/226 
f 226/226/226 210/210/210 223/223/223 
f 224/224/224 226/226/226 225/225/225 
f 225/225/225 192/192/192 224/224/224 
f 198/198/198 199/199/199 215/215/215 
f 227/227/227 228/228/228 222/222/222 
f 222/222/222 221/221/221 227/227/227 
f 219/219/219 218/218/218 229/229/229 
f 229/229/229 230/230/230 219/219/219 
f 231/231/231 227/227/227 221/221/221 
f 221/221/221 220/220/220 231/231/231 
f 220/220/220 219/219/219 230/230/230 
f 230/230/230 231/231/231 220/220/220 
f 246/246/246 243/243/243 242/242/242 
f 255/255/255 256/256/256 257/257/257 
f 257/257/257 258/258/258 255/255/255 
f 260/260/260 261/261/261 262/262/262 
f 263/263/263 264/264/264 265/265/265 
f 266/266/266 267/267/267 268/268/268 
f 269/269/269 270/270/270 271/271/271 
f 265/265/265 264/264/264 272/272/272 
f 273/273/273 274/274/274 275/275/275 
f 275/275/275 276/276/276 273/273/273 
f 277/277/277 278/278/278 279/279/279 
f 284/284/284 281/281/281 283/283/283 
f 287/287/287 288/288/288 258/258/258 
f 289/289/289 290/290/290 291/291/291 
f 292/292/292 293/293/293 294/294/294 
f 294/294/294 295/295/295 292/292/292 
f 296/296/296 246/246/246 245/245/245 
f 297/297/297 300/300/300 301/301/301 
f 301/301/301 298/298/298 297/297/297 
f 300/300/300 304/304/304 305/305/305 
f 305/305/305 301/301/301 300/300/300 
f 306/306/306 302/302/302 298/298/298 
f 298/298/298 301/301/301 306/306/306 
f 246/246/246 296/296/296 308/308/308 
f 308/308/308 309/309/309 246/246/246 
f 301/301/301 305/305/305 310/310/310 
f 310/310/310 306/306/306 301/301/301 
f 311/311/311 312/312/312 302/302/302 
f 302/302/302 306/306/306 311/311/311 
f 249/249/249 307/307/307 314/314/314 
f 306/306/306 310/310/310 319/319/319 
f 319/319/319 311/311/311 306/306/306 
f 314/314/314 313/313/313 250/250/250 
f 250/250/250 247/247/247 314/314/314 
f 307/307/307 315/315/315 321/321/321 
f 321/321/321 314/314/314 307/307/307 
f 321/321/321 320/320/320 313/313/313 
f 313/313/313 314/314/314 321/321/321 
f 325/325/325 321/321/321 315/315/315 
f 315/315/315 322/322/322 325/325/325 
f 329/329/329 330/330/330 316/316/316 
f 325/325/325 324/324/324 320/320/320 
f 320/320/320 321/321/321 325/325/325 
f 322/322/322 327/327/327 333/333/333 
f 333/333/333 325/325/325 322/322/322 
f 335/335/335 336/336/336 330/330/330 
f 330/330/330 329/329/329 335/335/335 
f 337/337/337 309/309/309 338/338/338 
f 331/331/331 341/341/341 333/333/333 
f 333/333/333 327/327/327 331/331/331 
f 333/333/333 332/332/332 324/324/324 
f 324/324/324 325/325/325 333/333/333 
f 328/328/328 334/334/334 335/335/335 
f 335/335/335 329/329/329 328/328/328 
f 335/335/335 343/343/343 344/344/344 
f 344/344/344 336/336/336 335/335/335 
f 339/339/339 346/346/346 341/341/341 
f 341/341/341 331/331/331 339/339/339 
f 341/341/341 340/340/340 332/332/332 
f 332/332/332 333/333/333 341/341/341 
f 334/334/334 342/342/342 343/343/343 
f 343/343/343 335/335/335 334/334/334 
f 343/343/343 348/348/348 349/349/349 
f 349/349/349 344/344/344 343/343/343 
f 243/243/243 337/337/337 351/351/351 
f 339/339/339 345/345/345 353/353/353 
f 353/353/353 346/346/346 339/339/339 
f 346/346/346 283/283/283 340/340/340 
f 340/340/340 341/341/341 346/346/346 
f 348/348/348 343/343/343 342/342/342 
f 342/342/342 347/347/347 348/348/348 
f 355/355/355 349/349/349 348/348/348 
f 348/348/348 356/356/356 355/355/355 
f 253/253/253 350/350/350 352/352/352 
f 358/358/358 351/351/351 337/337/337 
f 345/345/345 235/235/235 361/361/361 
f 361/361/361 353/353/353 345/345/345 
f 284/284/284 283/283/283 346/346/346 
f 346/346/346 353/353/353 284/284/284 
f 282/282/282 281/281/281 277/277/277 
f 277/277/277 280/280/280 282/282/282 
f 354/354/354 356/356/356 348/348/348 
f 348/348/348 347/347/347 354/354/354 
f 286/286/286 355/355/355 356/356/356 
f 356/356/356 362/362/362 286/286/286 
f 357/357/357 360/360/360 352/352/352 
f 352/352/352 350/350/350 357/357/357 
f 366/366/366 367/367/367 351/351/351 
f 351/351/351 358/358/358 366/366/366 
f 235/235/235 367/367/367 269/269/269 
f 269/269/269 361/361/361 235/235/235 
f 370/370/370 284/284/284 353/353/353 
f 353/353/353 361/361/361 370/370/370 
f 281/281/281 284/284/284 278/278/278 
f 278/278/278 277/277/277 281/281/281 
f 356/356/356 354/354/354 279/279/279 
f 279/279/279 362/362/362 356/356/356 
f 363/363/363 369/369/369 360/360/360 
f 360/360/360 357/357/357 363/363/363 
f 365/365/365 366/366/366 358/358/358 
f 270/270/270 367/367/367 366/366/366 
f 295/295/295 294/294/294 372/372/372 
f 372/372/372 373/373/373 295/295/295 
f 271/271/271 370/370/370 361/361/361 
f 361/361/361 269/269/269 271/271/271 
f 284/284/284 370/370/370 376/376/376 
f 376/376/376 278/278/278 284/284/284 
f 362/362/362 279/279/279 278/278/278 
f 278/278/278 275/275/275 362/362/362 
f 369/369/369 363/363/363 371/371/371 
f 371/371/371 374/374/374 369/369/369 
f 293/293/293 270/270/270 366/366/366 
f 366/366/366 365/365/365 293/293/293 
f 271/271/271 270/270/270 264/264/264 
f 264/264/264 263/263/263 271/271/271 
f 373/373/373 378/378/378 379/379/379 
f 379/379/379 295/295/295 373/373/373 
f 375/375/375 374/374/374 380/380/380 
f 380/380/380 381/381/381 375/375/375 
f 370/370/370 271/271/271 263/263/263 
f 263/263/263 376/376/376 370/370/370 
f 275/275/275 278/278/278 376/376/376 
f 376/376/376 276/276/276 275/275/275 
f 285/285/285 290/290/290 289/289/289 
f 374/374/374 371/371/371 377/377/377 
f 377/377/377 380/380/380 374/374/374 
f 292/292/292 264/264/264 270/270/270 
f 270/270/270 293/293/293 292/292/292 
f 382/382/382 379/379/379 378/378/378 
f 378/378/378 383/383/383 382/382/382 
f 384/384/384 292/292/292 295/295/295 
f 295/295/295 379/379/379 384/384/384 
f 381/381/381 380/380/380 385/385/385 
f 385/385/385 233/233/233 381/381/381 
f 265/265/265 276/276/276 376/376/376 
f 376/376/376 263/263/263 265/265/265 
f 290/290/290 285/285/285 274/274/274 
f 274/274/274 386/386/386 290/290/290 
f 380/380/380 377/377/377 291/291/291 
f 291/291/291 385/385/385 380/380/380 
f 267/267/267 264/264/264 292/292/292 
f 292/292/292 384/384/384 267/267/267 
f 387/387/387 384/384/384 379/379/379 
f 379/379/379 382/382/382 387/387/387 
f 266/266/266 272/272/272 264/264/264 
f 264/264/264 267/267/267 266/266/266 
f 272/272/272 273/273/273 276/276/276 
f 276/276/276 265/265/265 272/272/272 
f 386/386/386 274/274/274 273/273/273 
f 273/273/273 388/388/388 386/386/386 
f 385/385/385 291/291/291 386/386/386 
f 386/386/386 389/389/389 385/385/385 
f 261/261/261 267/267/267 384/384/384 
f 384/384/384 387/387/387 261/261/261 
f 388/388/388 273/273/273 272/272/272 
f 272/272/272 266/266/266 388/388/388 
f 389/389/389 386/386/386 388/388/388 
f 388/388/388 390/390/390 389/389/389 
f 237/237/237 351/351/351 367/367/367 
f 367/367/367 235/235/235 237/237/237 
f 390/390/390 388/388/388 266/266/266 
f 266/266/266 268/268/268 390/390/390 
f 232/232/232 287/287/287 257/257/257 
f 392/392/392 390/390/390 268/268/268 
f 268/268/268 393/393/393 392/392/392 
f 260/260/260 393/393/393 267/267/267 
f 267/267/267 261/261/261 260/260/260 
f 287/287/287 232/232/232 234/234/234 
f 234/234/234 288/288/288 287/287/287 
f 394/394/394 392/392/392 393/393/393 
f 393/393/393 260/260/260 394/394/394 
f 395/395/395 394/394/394 260/260/260 
f 260/260/260 262/262/262 395/395/395 
f 288/288/288 234/234/234 392/392/392 
f 392/392/392 394/394/394 288/288/288 
f 398/398/398 288/288/288 394/394/394 
f 394/394/394 395/395/395 398/398/398 
f 396/396/396 399/399/399 401/401/401 
f 288/288/288 398/398/398 401/401/401 
f 401/401/401 258/258/258 288/288/288 
f 399/399/399 400/400/400 407/407/407 
f 407/407/407 401/401/401 399/399/399 
f 274/274/274 286/286/286 362/362/362 
f 362/362/362 275/275/275 274/274/274 
f 386/386/386 291/291/291 290/290/290 
f 401/401/401 407/407/407 255/255/255 
f 255/255/255 258/258/258 401/401/401 
f 400/400/400 406/406/406 411/411/411 
f 411/411/411 407/407/407 400/400/400 
f 256/256/256 255/255/255 412/412/412 
f 412/412/412 413/413/413 256/256/256 
f 409/409/409 404/404/404 402/402/402 
f 402/402/402 408/408/408 409/409/409 
f 410/410/410 405/405/405 409/409/409 
f 409/409/409 416/416/416 410/410/410 
f 406/406/406 410/410/410 416/416/416 
f 416/416/416 411/411/411 406/406/406 
f 407/407/407 411/411/411 412/412/412 
f 412/412/412 255/255/255 407/407/407 
f 412/412/412 414/414/414 415/415/415 
f 415/415/415 413/413/413 412/412/412 
f 416/416/416 409/409/409 408/408/408 
f 408/408/408 414/414/414 416/416/416 
f 411/411/411 416/416/416 414/414/414 
f 414/414/414 412/412/412 411/411/411 
f 390/390/390 392/392/392 234/234/234 
f 234/234/234 389/389/389 390/390/390 
f 267/267/267 393/393/393 268/268/268 
f 309/309/309 337/337/337 243/243/243 
f 243/243/243 246/246/246 309/309/309 
f 389/389/389 234/234/234 233/233/233 
f 233/233/233 385/385/385 389/389/389 
f 269/269/269 367/367/367 270/270/270 
f 294/294/294 293/293/293 365/365/365 
f 365/365/365 364/364/364 294/294/294 
f 294/294/294 364/364/364 368/368/368 
f 368/368/368 372/372/372 294/294/294 
f 309/309/309 308/308/308 419/419/419 
f 419/419/419 338/338/338 309/309/309 
f 311/311/311 319/319/319 420/420/420 
f 420/420/420 421/421/421 311/311/311 
f 312/312/312 311/311/311 421/421/421 
f 421/421/421 417/417/417 312/312/312 
f 296/296/296 417/417/417 421/421/421 
f 421/421/421 308/308/308 296/296/296 
f 308/308/308 421/421/421 420/420/420 
f 420/420/420 419/419/419 308/308/308 
f 422/422/422 423/423/423 424/424/424 
f 425/425/425 426/426/426 427/427/427 
f 427/427/427 428/428/428 425/425/425 
f 429/429/429 430/430/430 431/431/431 
f 431/431/431 432/432/432 429/429/429 
f 453/453/453 454/454/454 455/455/455 
f 457/457/457 458/458/458 459/459/459 
f 452/452/452 457/457/457 459/459/459 
f 422/422/422 460/460/460 423/423/423 
f 446/446/446 464/464/464 465/465/465 
f 465/465/465 444/444/444 446/446/446 
f 466/466/466 444/444/444 465/465/465 
f 464/464/464 446/446/446 467/467/467 
f 467/467/467 446/446/446 443/443/443 
f 443/443/443 468/468/468 467/467/467 
f 468/468/468 443/443/443 441/441/441 
f 441/441/441 440/440/440 468/468/468 
f 469/469/469 470/470/470 430/430/430 
f 430/430/430 429/429/429 469/469/469 
f 471/471/471 472/472/472 473/473/473 
f 438/438/438 437/437/437 475/475/475 
f 475/475/475 476/476/476 438/438/438 
f 435/435/435 434/434/434 479/479/479 
f 479/479/479 480/480/480 435/435/435 
f 475/475/475 481/481/481 482/482/482 
f 475/475/475 482/482/482 474/474/474 
f 486/486/486 487/487/487 480/480/480 
f 480/480/480 479/479/479 486/486/486 
f 488/488/488 489/489/489 487/487/487 
f 487/487/487 486/486/486 488/488/488 
f 490/490/490 426/426/426 482/482/482 
f 482/482/482 491/491/491 490/490/490 
f 492/492/492 493/493/493 484/484/484 
f 484/484/484 483/483/483 492/492/492 
f 494/494/494 495/495/495 496/496/496 
f 497/497/497 498/498/498 489/489/489 
f 489/489/489 488/488/488 497/497/497 
f 478/478/478 477/477/477 499/499/499 
f 499/499/499 500/500/500 478/478/478 
f 496/496/496 495/495/495 500/500/500 
f 500/500/500 499/499/499 496/496/496 
f 501/501/501 502/502/502 493/493/493 
f 493/493/493 492/492/492 501/501/501 
f 497/497/497 503/503/503 504/504/504 
f 504/504/504 498/498/498 497/497/497 
f 506/506/506 507/507/507 502/502/502 
f 502/502/502 501/501/501 506/506/506 
f 508/508/508 509/509/509 495/495/495 
f 495/495/495 494/494/494 508/508/508 
f 454/454/454 504/504/504 503/503/503 
f 503/503/503 455/455/455 454/454/454 
f 510/510/510 511/511/511 507/507/507 
f 507/507/507 506/506/506 510/510/510 
f 512/512/512 429/429/429 432/432/432 
f 432/432/432 439/439/439 512/512/512 
f 510/510/510 513/513/513 514/514/514 
f 514/514/514 511/511/511 510/510/510 
f 515/515/515 509/509/509 508/508/508 
f 429/429/429 512/512/512 516/516/516 
f 516/516/516 469/469/469 429/429/429 
f 458/458/458 514/514/514 513/513/513 
f 513/513/513 459/459/459 458/458/458 
f 469/469/469 516/516/516 518/518/518 
f 518/518/518 519/519/519 469/469/469 
f 517/517/517 509/509/509 515/515/515 
f 515/515/515 520/520/520 517/517/517 
f 491/491/491 482/482/482 481/481/481 
f 470/470/470 469/469/469 519/519/519 
f 519/519/519 522/522/522 470/470/470 
f 518/518/518 523/523/523 524/524/524 
f 524/524/524 519/519/519 518/518/518 
f 519/519/519 524/524/524 528/528/528 
f 528/528/528 522/522/522 519/519/519 
f 461/461/461 458/458/458 457/457/457 
f 526/526/526 462/462/462 531/531/531 
f 524/524/524 527/527/527 533/533/533 
f 533/533/533 528/528/528 524/524/524 
f 427/427/427 426/426/426 490/490/490 
f 529/529/529 530/530/530 535/535/535 
f 535/535/535 536/536/536 529/529/529 
f 462/462/462 463/463/463 538/538/538 
f 538/538/538 531/531/531 462/462/462 
f 460/460/460 533/533/533 527/527/527 
f 527/527/527 423/423/423 460/460/460 
f 536/536/536 540/540/540 537/537/537 
f 537/537/537 529/529/529 536/536/536 
f 463/463/463 539/539/539 541/541/541 
f 541/541/541 538/538/538 463/463/463 
f 445/445/445 444/444/444 466/466/466 
f 466/466/466 543/543/543 445/445/445 
f 537/537/537 540/540/540 545/545/545 
f 545/545/545 450/450/450 537/537/537 
f 546/546/546 541/541/541 539/539/539 
f 539/539/539 542/542/542 546/546/546 
f 543/543/543 449/449/449 448/448/448 
f 550/550/550 551/551/551 450/450/450 
f 450/450/450 545/545/545 550/550/550 
f 553/553/553 546/546/546 542/542/542 
f 542/542/542 547/547/547 553/553/553 
f 447/447/447 460/460/460 422/422/422 
f 560/560/560 561/561/561 551/551/551 
f 551/551/551 550/550/550 560/560/560 
f 562/562/562 553/553/553 547/547/547 
f 547/547/547 552/552/552 562/562/562 
f 451/451/451 551/551/551 561/561/561 
f 561/561/561 563/563/563 451/451/451 
f 564/564/564 561/561/561 560/560/560 
f 560/560/560 565/565/565 564/564/564 
f 563/563/563 561/561/561 564/564/564 
f 564/564/564 567/567/567 563/563/563 
f 568/568/568 564/564/564 565/565/565 
f 565/565/565 569/569/569 568/568/568 
f 555/555/555 554/554/554 571/571/571 
f 571/571/571 572/572/572 555/555/555 
f 569/569/569 573/573/573 574/574/574 
f 574/574/574 568/568/568 569/569/569 
f 575/575/575 567/567/567 564/564/564 
f 576/576/576 571/571/571 554/554/554 
f 554/554/554 556/556/556 576/576/576 
f 572/572/572 571/571/571 577/577/577 
f 577/577/577 578/578/578 572/572/572 
f 579/579/579 580/580/580 557/557/557 
f 557/557/557 570/570/570 579/579/579 
f 581/581/581 574/574/574 573/573/573 
f 573/573/573 582/582/582 581/581/581 
f 583/583/583 577/577/577 571/571/571 
f 571/571/571 576/576/576 583/583/583 
f 578/578/578 577/577/577 584/584/584 
f 584/584/584 585/585/585 578/578/578 
f 584/584/584 581/581/581 582/582/582 
f 582/582/582 585/585/585 584/584/584 
f 551/551/551 451/451/451 450/450/450 
f 558/558/558 557/557/557 580/580/580 
f 586/586/586 570/570/570 566/566/566 
f 579/579/579 570/570/570 586/586/586 
f 602/602/602 603/603/603 599/599/599 
f 600/600/600 599/599/599 604/604/604 
f 604/604/604 605/605/605 600/600/600 
f 599/599/599 603/603/603 606/606/606 
f 606/606/606 604/604/604 599/599/599 
f 594/594/594 608/608/608 598/598/598 
f 609/609/609 610/610/610 611/611/611 
f 611/611/611 608/608/608 609/609/609 
f 607/607/607 612/612/612 613/613/613 
f 614/614/614 609/609/609 608/608/608 
f 608/608/608 594/594/594 614/614/614 
f 615/615/615 616/616/616 617/617/617 
f 617/617/617 618/618/618 615/615/615 
f 619/619/619 620/620/620 616/616/616 
f 616/616/616 615/615/615 619/619/619 
f 623/623/623 624/624/624 622/622/622 
f 625/625/625 626/626/626 596/596/596 
f 596/596/596 595/595/595 625/625/625 
f 627/627/627 626/626/626 625/625/625 
f 625/625/625 628/628/628 627/627/627 
f 612/612/612 645/645/645 644/644/644 
f 594/594/594 593/593/593 646/646/646 
f 646/646/646 614/614/614 594/594/594 
f 606/606/606 647/647/647 648/648/648 
f 648/648/648 604/604/604 606/606/606 
f 649/649/649 650/650/650 651/651/651 
f 651/651/651 652/652/652 649/649/649 
f 653/653/653 655/655/655 648/648/648 
f 647/647/647 653/653/653 648/648/648 
f 652/652/652 651/651/651 657/657/657 
f 657/657/657 658/658/658 652/652/652 
f 660/660/660 615/615/615 618/618/618 
f 661/661/661 662/662/662 663/663/663 
f 663/663/663 664/664/664 661/661/661 
f 638/638/638 635/635/635 665/665/665 
f 666/666/666 597/597/597 589/589/589 
f 589/589/589 590/590/590 666/666/666 
f 667/667/667 664/664/664 663/663/663 
f 663/663/663 668/668/668 667/667/667 
f 661/661/661 664/664/664 670/670/670 
f 667/667/667 669/669/669 670/670/670 
f 670/670/670 664/664/664 667/667/667 
f 628/628/628 674/674/674 675/675/675 
f 676/676/676 626/626/626 627/627/627 
f 674/674/674 679/679/679 678/678/678 
f 682/682/682 629/629/629 680/680/680 
f 680/680/680 681/681/681 682/682/682 
f 635/635/635 631/631/631 683/683/683 
f 688/688/688 689/689/689 686/686/686 
f 690/690/690 689/689/689 688/688/688 
f 688/688/688 691/691/691 690/690/690 
f 692/692/692 690/690/690 691/691/691 
f 691/691/691 693/693/693 692/692/692 
f 611/611/611 639/639/639 598/598/598 
f 598/598/598 608/608/608 611/611/611 
f 695/695/695 692/692/692 693/693/693 
f 693/693/693 696/696/696 695/695/695 
f 694/694/694 689/689/689 690/690/690 
f 690/690/690 692/692/692 694/694/694 
f 634/634/634 633/633/633 643/643/643 
f 697/697/697 695/695/695 696/696/696 
f 696/696/696 698/698/698 697/697/697 
f 659/659/659 700/700/700 701/701/701 
f 658/658/658 657/657/657 659/659/659 
f 659/659/659 701/701/701 658/658/658 
f 702/702/702 654/654/654 653/653/653 
f 653/653/653 703/703/703 702/702/702 
f 593/593/593 702/702/702 703/703/703 
f 703/703/703 646/646/646 593/593/593 
f 700/700/700 644/644/644 645/645/645 
f 645/645/645 701/701/701 700/700/700 
f 706/706/706 707/707/707 708/708/708 
f 708/708/708 709/709/709 706/706/706 
f 711/711/711 712/712/712 713/713/713 
f 713/713/713 714/714/714 711/711/711 
f 704/704/704 715/715/715 716/716/716 
f 716/716/716 717/717/717 704/704/704 
f 715/715/715 718/718/718 719/719/719 
f 719/719/719 716/716/716 715/715/715 
f 719/719/719 720/720/720 721/721/721 
f 721/721/721 716/716/716 719/719/719 
f 706/706/706 722/722/722 723/723/723 
f 723/723/723 724/724/724 706/706/706 
f 724/724/724 725/725/725 707/707/707 
f 707/707/707 706/706/706 724/724/724 
f 722/722/722 706/706/706 709/709/709 
f 737/737/737 738/738/738 739/739/739 
f 739/739/739 740/740/740 737/737/737 
f 738/738/738 737/737/737 741/741/741 
f 743/743/743 744/744/744 745/745/745 
f 745/745/745 746/746/746 743/743/743 
f 747/747/747 746/746/746 745/745/745 
f 745/745/745 748/748/748 747/747/747 
f 744/744/744 749/749/749 750/750/750 
f 750/750/750 745/745/745 744/744/744 
f 751/751/751 752/752/752 753/753/753 
f 753/753/753 754/754/754 751/751/751 
f 753/753/753 755/755/755 756/756/756 
f 756/756/756 757/757/757 753/753/753 
f 758/758/758 750/750/750 749/749/749 
f 749/749/749 759/759/759 758/758/758 
f 750/750/750 710/710/710 748/748/748 
f 748/748/748 745/745/745 750/750/750 
f 755/755/755 753/753/753 752/752/752 
f 752/752/752 760/760/760 755/755/755 
f 755/755/755 758/758/758 759/759/759 
f 759/759/759 756/756/756 755/755/755 
f 710/710/710 750/750/750 758/758/758 
f 769/769/769 770/770/770 771/771/771 
f 770/770/770 720/720/720 754/754/754 
f 754/754/754 771/771/771 770/770/770 
f 753/753/753 757/757/757 771/771/771 
f 771/771/771 754/754/754 753/753/753 
f 721/721/721 772/772/772 773/773/773 
f 716/716/716 721/721/721 717/717/717 
f 774/774/774 720/720/720 719/719/719 
f 778/778/778 779/779/779 780/780/780 
f 780/780/780 781/781/781 778/778/778 
f 782/782/782 779/779/779 778/778/778 
f 782/782/782 783/783/783 779/779/779 
f 784/784/784 779/779/779 783/783/783 
f 783/783/783 785/785/785 784/784/784 
f 787/787/787 791/791/791 731/731/731 
f 731/731/731 730/730/730 787/787/787 
f 792/792/792 727/727/727 731/731/731 
f 731/731/731 791/791/791 792/792/792 
f 790/790/790 789/789/789 793/793/793 
f 790/790/790 793/793/793 791/791/791 
f 787/787/787 790/790/790 791/791/791 
f 795/795/795 792/792/792 791/791/791 
f 791/791/791 793/793/793 795/795/795 
f 796/796/796 794/794/794 739/739/739 
f 739/739/739 738/738/738 796/796/796 
f 798/798/798 796/796/796 738/738/738 
f 738/738/738 742/742/742 798/798/798 
f 800/800/800 801/801/801 714/714/714 
f 714/714/714 713/713/713 800/800/800 
f 802/802/802 799/799/799 794/794/794 
f 794/794/794 796/796/796 802/802/802 
f 803/803/803 802/802/802 796/796/796 
f 770/770/770 769/769/769 804/804/804 
f 805/805/805 705/705/705 704/704/704 
f 704/704/704 806/806/806 805/805/805 
f 802/802/802 805/805/805 807/807/807 
f 807/807/807 799/799/799 802/802/802 
f 720/720/720 751/751/751 754/754/754 
f 720/720/720 774/774/774 751/751/751 
f 805/805/805 802/802/802 803/803/803 
f 803/803/803 705/705/705 805/805/805 
f 806/806/806 704/704/704 717/717/717 
f 717/717/717 809/809/809 806/806/806 
f 806/806/806 810/810/810 807/807/807 
f 807/807/807 805/805/805 806/806/806 
f 809/809/809 717/717/717 721/721/721 
f 721/721/721 773/773/773 809/809/809 
f 809/809/809 813/813/813 810/810/810 
f 810/810/810 806/806/806 809/809/809 
f 815/815/815 816/816/816 711/711/711 
f 711/711/711 714/714/714 815/815/815 
f 773/773/773 819/819/819 813/813/813 
f 813/813/813 809/809/809 773/773/773 
f 801/801/801 814/814/814 815/815/815 
f 815/815/815 714/714/714 801/801/801 
f 820/820/820 816/816/816 815/815/815 
f 815/815/815 822/822/822 820/820/820 
f 812/812/812 822/822/822 815/815/815 
f 815/815/815 814/814/814 812/812/812 
f 822/822/822 826/826/826 818/818/818 
f 818/818/818 820/820/820 822/822/822 
f 821/821/821 826/826/826 822/822/822 
f 822/822/822 812/812/812 821/821/821 
f 818/818/818 826/826/826 718/718/718 
f 718/718/718 715/715/715 818/818/818 
f 777/777/777 781/781/781 780/780/780 
f 723/723/723 829/829/829 827/827/827 
f 827/827/827 824/824/824 723/723/723 
f 826/826/826 821/821/821 830/830/830 
f 830/830/830 718/718/718 826/826/826 
f 774/774/774 719/719/719 718/718/718 
f 718/718/718 830/830/830 774/774/774 
f 831/831/831 775/775/775 780/780/780 
f 780/780/780 832/832/832 831/831/831 
f 833/833/833 834/834/834 829/829/829 
f 829/829/829 723/723/723 833/833/833 
f 752/752/752 751/751/751 774/774/774 
f 774/774/774 830/830/830 752/752/752 
f 835/835/835 832/832/832 780/780/780 
f 780/780/780 779/779/779 835/835/835 
f 836/836/836 837/837/837 834/834/834 
f 834/834/834 833/833/833 836/836/836 
f 781/781/781 829/829/829 834/834/834 
f 834/834/834 778/778/778 781/781/781 
f 835/835/835 779/779/779 784/784/784 
f 784/784/784 839/839/839 835/835/835 
f 840/840/840 841/841/841 837/837/837 
f 837/837/837 836/836/836 840/840/840 
f 778/778/778 834/834/834 837/837/837 
f 837/837/837 782/782/782 778/778/778 
f 842/842/842 843/843/843 839/839/839 
f 782/782/782 837/837/837 841/841/841 
f 841/841/841 783/783/783 782/782/782 
f 841/841/841 844/844/844 785/785/785 
f 785/785/785 783/783/783 841/841/841 
f 721/721/721 720/720/720 845/845/845 
f 845/845/845 772/772/772 721/721/721 
f 846/846/846 840/840/840 836/836/836 
f 836/836/836 845/845/845 846/846/846 
f 841/841/841 840/840/840 847/847/847 
f 847/847/847 844/844/844 841/841/841 
f 757/757/757 765/765/765 769/769/769 
f 769/769/769 771/771/771 757/757/757 
f 846/846/846 845/845/845 720/720/720 
f 720/720/720 770/770/770 846/846/846 
f 724/724/724 723/723/723 824/824/824 
f 824/824/824 823/823/823 724/724/724 
f 849/849/849 847/847/847 840/840/840 
f 840/840/840 846/846/846 849/849/849 
f 850/850/850 851/851/851 852/852/852 
f 852/852/852 853/853/853 850/850/850 
f 854/854/854 849/849/849 846/846/846 
f 846/846/846 770/770/770 854/854/854 
f 855/855/855 856/856/856 857/857/857 
f 777/777/777 827/827/827 829/829/829 
f 829/829/829 781/781/781 777/777/777 
f 858/858/858 859/859/859 860/860/860 
f 860/860/860 861/861/861 858/858/858 
f 804/804/804 858/858/858 854/854/854 
f 854/854/854 770/770/770 804/804/804 
f 833/833/833 723/723/723 722/722/722 
f 722/722/722 772/772/772 833/833/833 
f 861/861/861 862/862/862 854/854/854 
f 854/854/854 858/858/858 861/861/861 
f 852/852/852 864/864/864 865/865/865 
f 865/865/865 853/853/853 852/852/852 
f 767/767/767 850/850/850 853/853/853 
f 853/853/853 768/768/768 767/767/767 
f 866/866/866 859/859/859 858/858/858 
f 858/858/858 804/804/804 866/866/866 
f 865/865/865 864/864/864 867/867/867 
f 867/867/867 868/868/868 865/865/865 
f 865/865/865 762/762/762 768/768/768 
f 768/768/768 853/853/853 865/865/865 
f 845/845/845 836/836/836 833/833/833 
f 833/833/833 772/772/772 845/845/845 
f 761/761/761 866/866/866 804/804/804 
f 804/804/804 765/765/765 761/761/761 
f 868/868/868 867/867/867 859/859/859 
f 859/859/859 866/866/866 868/868/868 
f 868/868/868 763/763/763 762/762/762 
f 762/762/762 865/865/865 868/868/868 
f 773/773/773 772/772/772 736/736/736 
f 736/736/736 819/819/819 773/773/773 
f 763/763/763 868/868/868 866/866/866 
f 866/866/866 761/761/761 763/763/763 
f 864/864/864 870/870/870 871/871/871 
f 870/870/870 864/864/864 852/852/852 
f 852/852/852 851/851/851 870/870/870 
f 725/725/725 724/724/724 823/823/823 
f 873/873/873 872/872/872 874/874/874 
f 793/793/793 874/874/874 872/872/872 
f 872/872/872 795/795/795 793/793/793 
f 874/874/874 793/793/793 789/789/789 
f 789/789/789 875/875/875 874/874/874 
f 874/874/874 707/707/707 725/725/725 
f 725/725/725 873/873/873 874/874/874 
f 875/875/875 708/708/708 707/707/707 
f 707/707/707 874/874/874 875/875/875 

