# This file is brought to you by Roblox Corporation
# Generated by Roblox Studio

mtllib Banan_Peel.mtl

g Handle1

v -170.645 54.4214 -185.594 
v -170.505 54.4214 -185.547 
v -170.528 54.3743 -185.565 
v -170.655 54.2478 -185.658 
v -170.785 54.3286 -185.596 
v -170.785 54.4214 -185.547 
v -170.791 54.7428 -185.53 
v -170.667 54.7428 -185.571 
v -170.544 54.7428 -185.53 
v -170.645 54.4214 -185.22 
v -170.505 54.4214 -185.266 
v -170.544 54.7428 -185.283 
v -170.667 54.7428 -185.242 
v -170.791 54.7428 -185.283 
v -170.785 54.4214 -185.266 
v -170.778 54.3737 -185.233 
v -170.653 54.27 -185.192 
v -170.528 54.3286 -185.286 
v -171.24 54.0097 -184.957 
v -171.231 54.0183 -184.906 
v -171.266 54.0357 -184.918 
v -171.286 54.0373 -184.952 
v -171.03 54.0036 -185.869 
v -171.1 54.0243 -185.849 
v -171.062 54.0403 -185.909 
v -171.003 54.0136 -185.934 
v -170.137 54.0587 -185.781 
v -170.187 54.0486 -185.829 
v -170.165 54.0853 -185.817 
v -170.128 54.0884 -185.784 
v -169.945 54.0667 -185.094 
v -169.874 54.0922 -185.094 
v -169.896 54.1121 -185.045 
v -169.945 54.0922 -185.023 
v -170.458 54.4214 -185.407 
v -170.474 54.3454 -185.444 
v -170.474 54.3454 -185.444 
v -170.458 54.4214 -185.407 
v -170.503 54.7428 -185.407 
v -170.503 54.7428 -185.407 
v -170.832 54.4214 -185.407 
v -170.832 54.7428 -185.407 
v -170.832 54.4214 -185.407 
v -170.832 54.7428 -185.407 
v -170.892 54.28 -185.428 
v -170.892 54.28 -185.428 
v -170.629 54.9256 -185.316 
v -170.72 54.9256 -185.286 
v -170.691 55.0861 -185.336 
v -170.76 55.0861 -185.313 
v -170.829 55.0861 -185.336 
v -170.81 54.9256 -185.316 
v -170.599 54.9256 -185.407 
v -170.629 54.9256 -185.497 
v -170.691 55.0861 -185.473 
v -170.669 55.0861 -185.405 
v -170.669 55.0861 -185.405 
v -170.599 54.9256 -185.407 
v -170.72 54.9256 -185.528 
v -170.81 54.9256 -185.497 
v -170.829 55.0861 -185.473 
v -170.76 55.0861 -185.496 
v -170.841 54.9256 -185.407 
v -170.852 55.0861 -185.405 
v -170.841 54.9256 -185.407 
v -170.852 55.0861 -185.405 
v -170.846 55.3067 -185.395 
v -170.839 55.2945 -185.345 
v -170.803 55.308 -185.357 
v -170.794 55.3148 -185.393 
v -170.804 55.3149 -185.427 
v -170.841 55.3043 -185.443 
v -170.846 55.3067 -185.395 
v -170.841 55.3043 -185.443 
v -170.871 55.2926 -185.429 
v -170.886 55.284 -185.395 
v -170.87 55.2856 -185.358 
v -170.839 55.2945 -185.345 
v -170.748 55.1281 -185.355 
v -170.777 55.1119 -185.34 
v -170.748 55.1281 -185.355 
v -170.751 55.1406 -185.364 
v -170.793 55.1287 -185.351 
v -170.777 55.1119 -185.34 
v -170.793 55.1287 -185.351 
v -170.836 55.1194 -185.365 
v -170.821 55.1071 -185.355 
v -170.777 55.1119 -185.34 
v -170.821 55.1071 -185.355 
v -170.734 55.1297 -185.399 
v -170.748 55.1281 -185.442 
v -170.748 55.1281 -185.442 
v -170.751 55.1482 -185.443 
v -170.737 55.148 -185.403 
v -170.734 55.1297 -185.399 
v -170.734 55.1297 -185.399 
v -170.777 55.1119 -185.457 
v -170.821 55.1071 -185.442 
v -170.821 55.1071 -185.442 
v -170.837 55.127 -185.444 
v -170.794 55.1388 -185.456 
v -170.777 55.1119 -185.457 
v -170.777 55.1119 -185.457 
v -170.794 55.1388 -185.456 
v -170.836 55.1055 -185.399 
v -170.836 55.1055 -185.399 
v -170.851 55.1196 -185.404 
v -170.836 55.1055 -185.399 
v -170.814 55.2395 -185.336 
v -170.773 55.2609 -185.349 
v -170.856 55.221 -185.352 
v -170.814 55.2395 -185.336 
v -170.774 55.2695 -185.438 
v -170.759 55.2718 -185.393 
v -170.815 55.2509 -185.455 
v -170.857 55.2296 -185.441 
v -170.815 55.2509 -185.455 
v -170.87 55.2186 -185.397 
v -170.653 54.27 -185.192 
v -170.763 54.1246 -185.105 
v -170.779 54.0621 -185.278 
v -170.677 54.1809 -185.442 
v -170.888 54.1732 -185.147 
v -170.763 54.1246 -185.105 
v -170.953 54.1246 -185.262 
v -170.892 54.28 -185.428 
v -170.953 54.1246 -185.262 
v -170.955 54.0623 -185.011 
v -170.989 54.0024 -185.183 
v -171.061 54.1436 -185.055 
v -170.955 54.0623 -185.011 
v -171.137 54.1123 -185.169 
v -171.137 54.1123 -185.169 
v -170.474 54.3454 -185.444 
v -170.248 54.139 -185.36 
v -170.422 54.0765 -185.36 
v -170.302 54.1876 -185.24 
v -170.248 54.139 -185.36 
v -170.422 54.139 -185.186 
v -170.422 54.139 -185.186 
v -170.022 54.1151 -185.314 
v -170.196 54.0526 -185.314 
v -170.076 54.1637 -185.193 
v -170.022 54.1151 -185.314 
v -170.196 54.1151 -185.14 
v -170.196 54.1151 -185.14 
v -170.655 54.2478 -185.658 
v -170.478 54.1577 -185.632 
v -170.389 54.1284 -185.511 
v -170.407 54.1867 -185.632 
v -170.478 54.1577 -185.632 
v -170.319 54.1577 -185.533 
v -170.319 54.1577 -185.533 
v -170.951 54.1615 -185.567 
v -170.903 54.0663 -185.589 
v -170.896 54.1821 -185.653 
v -170.951 54.1615 -185.567 
v -170.832 54.1082 -185.666 
v -170.832 54.1082 -185.666 
v -171.113 54.0688 -185.59 
v -170.977 54.0287 -185.629 
v -171.039 54.0999 -185.705 
v -171.113 54.0688 -185.59 
v -170.925 54.0482 -185.755 
v -170.925 54.0482 -185.755 
v -170.406 54.072 -185.765 
v -170.26 54.0615 -185.629 
v -170.307 54.1485 -185.741 
v -170.406 54.072 -185.765 
v -170.204 54.1284 -185.647 
v -170.204 54.1284 -185.647 
v -170.165 54.0853 -185.817 
v -170.187 54.0486 -185.829 
v -170.128 54.0884 -185.784 
v -171.083 54.0232 -184.943 
v -171.106 54.001 -185.076 
v -171.173 54.0681 -184.976 
v -171.083 54.0232 -184.943 
v -171.224 54.0723 -185.064 
v -171.224 54.0723 -185.064 
v -169.896 54.1121 -185.045 
v -169.874 54.0922 -185.094 
v -169.945 54.0922 -185.023 
v -171.062 54.0403 -185.909 
v -171.1 54.0243 -185.849 
v -171.003 54.0136 -185.934 
v -171.266 54.0357 -184.918 
v -171.231 54.0183 -184.906 
v -171.286 54.0373 -184.952 

vn 0.0393701 0.220472 -0.976378 
vn 0.740157 0.0314961 -0.669291 
vn 0.574803 0.275591 -0.771654 
vn 0.0866142 -0.181102 -0.976378 
vn -0.488189 0.440945 -0.755906 
vn -0.692913 0.228346 -0.677165 
vn -0.692913 0.0393701 -0.716535 
vn 0.015748 0.15748 -0.984252 
vn 0.692913 0.267717 -0.677165 
vn 0.0944882 0.102362 0.992126 
vn 0.708661 -0.0866142 0.700787 
vn 0.692913 0.259843 0.677165 
vn 0.015748 0.15748 0.984252 
vn -0.692913 0.0393701 0.724409 
vn -0.748031 0.15748 0.637795 
vn -0.511811 0.433071 0.740157 
vn 0.291339 -0.0944882 0.952756 
vn 0.622047 0.299213 0.724409 
vn -0.322835 -0.944882 -0.0866142 
vn -0.0708661 -0.314961 0.944882 
vn -0.645669 0.165354 0.748031 
vn -1 0.0787402 0.0314961 
vn -0.0629921 -0.992126 -0.110236 
vn -0.944882 -0.244094 -0.212598 
vn -0.480315 0.291339 -0.826772 
vn 0.354331 -0.19685 -0.913386 
vn 0.748031 -0.661417 -0.0393701 
vn 0.0708661 -0.551181 -0.834646 
vn 0.362205 0.496063 -0.787402 
vn 0.897638 0.393701 -0.19685 
vn 0.141732 -0.984252 0.102362 
vn 0.992126 -0.125984 -0.0472441 
vn 0.692913 0.299213 0.653543 
vn 0.015748 -0.15748 0.984252 
vn 1 -0.0472441 0.0393701 
vn 0.984252 0.149606 -0.102362 
vn 0.984252 0.149606 -0.102362 
vn 1 -0.0472441 0.0393701 
vn 0.952756 0.299213 0 
vn 0.952756 0.299213 0 
vn -0.984252 0.188976 0.0314961 
vn -1 -0.023622 0 
vn -0.984252 0.188976 0.0314961 
vn -1 -0.023622 0 
vn -1 0.0866142 -0.015748 
vn -1 0.0866142 -0.015748 
vn 0.645669 0.377953 0.661417 
vn -0.00787402 0.19685 0.976378 
vn 0.582677 0.551181 0.598425 
vn -0.023622 0.409449 0.913386 
vn -0.677165 0.322835 0.661417 
vn -0.708661 0.023622 0.700787 
vn 0.897638 0.433071 0 
vn 0.637795 0.385827 -0.661417 
vn 0.566929 0.574803 -0.590551 
vn 0.787402 0.614173 0 
vn 0.787402 0.614173 0 
vn 0.897638 0.433071 0 
vn -0.00787402 0.212598 -0.976378 
vn -0.708661 0.0393701 -0.700787 
vn -0.661417 0.401575 -0.637795 
vn -0.0314961 0.480315 -0.874016 
vn -1 -0.0551181 0 
vn -0.96063 0.283465 -0.015748 
vn -1 -0.0551181 0 
vn -0.96063 0.283465 -0.015748 
vn -0.338583 0.937008 0.0866142 
vn -0.23622 0.551181 0.795276 
vn 0.259843 0.771654 0.582677 
vn 0.425197 0.905512 0.0629921 
vn 0.283465 0.84252 -0.448819 
vn -0.244094 0.637795 -0.732283 
vn -0.338583 0.937008 0.0866142 
vn -0.244094 0.637795 -0.732283 
vn -0.716535 0.472441 -0.519685 
vn -0.944882 0.322835 0.0393701 
vn -0.716535 0.385827 0.582677 
vn -0.23622 0.551181 0.795276 
vn 0.362205 0.700787 0.614173 
vn -0.125984 0.614173 0.779528 
vn 0.362205 0.700787 0.614173 
vn 0.692913 0.283465 0.661417 
vn -0.102362 0.15748 0.984252 
vn -0.125984 0.614173 0.779528 
vn -0.102362 0.15748 0.984252 
vn -0.708661 -0.346457 0.614173 
vn -0.606299 0.409449 0.677165 
vn -0.125984 0.614173 0.779528 
vn -0.606299 0.409449 0.677165 
vn 0.80315 0.590551 0.0393701 
vn 0.559055 0.535433 -0.629921 
vn 0.559055 0.535433 -0.629921 
vn 0.685039 0.141732 -0.708661 
vn 0.984252 0.165354 -0.023622 
vn 0.80315 0.590551 0.0393701 
vn 0.80315 0.590551 0.0393701 
vn -0.102362 0.551181 -0.826772 
vn -0.669291 0.259843 -0.700787 
vn -0.669291 0.259843 -0.700787 
vn -0.637795 -0.291339 -0.708661 
vn -0.0314961 -0.00787402 -1 
vn -0.102362 0.551181 -0.826772 
vn -0.102362 0.551181 -0.826772 
vn -0.0314961 -0.00787402 -1 
vn -1 -0.0629921 0.0629921 
vn -1 -0.0629921 0.0629921 
vn -0.88189 -0.464567 -0.0393701 
vn -1 -0.0629921 0.0629921 
vn -0.00787402 0 1 
vn 0.637795 0.259843 0.724409 
vn -0.685039 -0.165354 0.708661 
vn -0.00787402 0 1 
vn 0.645669 0.354331 -0.677165 
vn 0.913386 0.409449 0.0314961 
vn -0.00787402 0.125984 -0.992126 
vn -0.677165 -0.0787402 -0.732283 
vn -0.00787402 0.125984 -0.992126 
vn -0.976378 -0.204724 0 
vn 0.291339 -0.0944882 0.952756 
vn 0.559055 -0.220472 0.80315 
vn 0.330709 -0.897638 -0.291339 
vn 0.0551181 -1 -0.0314961 
vn -0.283465 0.818898 0.496063 
vn 0.559055 -0.220472 0.80315 
vn -0.692913 0.0944882 -0.716535 
vn -1 0.0866142 -0.015748 
vn -0.692913 0.0944882 -0.716535 
vn 0.496063 -0.220472 0.84252 
vn -0.0551181 -0.92126 -0.377953 
vn -0.0787402 0.929134 0.354331 
vn 0.496063 -0.220472 0.84252 
vn -0.661417 0.354331 -0.661417 
vn -0.661417 0.354331 -0.661417 
vn 0.984252 0.149606 -0.102362 
vn 0.370079 0.283465 -0.889764 
vn -0.15748 -0.889764 -0.417323 
vn 0.259843 0.897638 0.362205 
vn 0.370079 0.283465 -0.889764 
vn -0.188976 -0.346457 0.92126 
vn -0.188976 -0.346457 0.92126 
vn 0.637795 0.0708661 -0.771654 
vn 0.0314961 -0.92126 -0.393701 
vn 0.125984 0.984252 0.0944882 
vn 0.637795 0.0708661 -0.771654 
vn -0.291339 -0.125984 0.944882 
vn -0.291339 -0.125984 0.944882 
vn 0.0866142 -0.181102 -0.976378 
vn -0.401575 -0.527559 -0.748031 
vn 0.0629921 -0.732283 0.677165 
vn 0.165354 0.80315 -0.566929 
vn -0.401575 -0.527559 -0.748031 
vn 0.732283 0.283465 0.622047 
vn 0.732283 0.283465 0.622047 
vn -0.826772 0.314961 0.464567 
vn 0.0944882 -0.850394 0.519685 
vn -0.23622 0.685039 -0.685039 
vn -0.826772 0.314961 0.464567 
vn 0.598425 -0.448819 -0.669291 
vn 0.598425 -0.448819 -0.669291 
vn -0.811024 -0.0629921 0.582677 
vn 0.0944882 -0.889764 0.448819 
vn -0.338583 0.889764 -0.307087 
vn -0.811024 -0.0629921 0.582677 
vn 0.740157 -0.251969 -0.629921 
vn 0.740157 -0.251969 -0.629921 
vn -0.700787 -0.385827 -0.598425 
vn 0.23622 -0.834646 0.496063 
vn -0.015748 0.866142 -0.503937 
vn -0.700787 -0.385827 -0.598425 
vn 0.771654 0.464567 0.440945 
vn 0.771654 0.464567 0.440945 
vn 0.362205 0.496063 -0.787402 
vn 0.0708661 -0.551181 -0.834646 
vn 0.897638 0.393701 -0.19685 
vn 0.338583 -0.338583 0.88189 
vn -0.15748 -0.96063 -0.228346 
vn -0.0944882 0.866142 0.488189 
vn 0.338583 -0.338583 0.88189 
vn -0.88189 0.228346 -0.417323 
vn -0.88189 0.228346 -0.417323 
vn 0.692913 0.299213 0.653543 
vn 0.992126 -0.125984 -0.0472441 
vn 0.015748 -0.15748 0.984252 
vn -0.480315 0.291339 -0.826772 
vn -0.944882 -0.244094 -0.212598 
vn 0.354331 -0.19685 -0.913386 
vn -0.645669 0.165354 0.748031 
vn -0.0708661 -0.314961 0.944882 
vn -1 0.0787402 0.0314961 

vt 0.549048 0.336209 
vt 0.544424 0.264667 
vt 0.57239 0.265122 
vt 0.66024 0.339032 
vt 0.602312 0.417805 
vt 0.540286 0.410204 
vt 0.392774 0.394403 
vt 0.400215 0.338438 
vt 0.401338 0.283561 
vt 0.31 0.75736 
vt 0.341748 0.814155 
vt 0.222885 0.864893 
vt 0.197994 0.82325 
vt 0.168433 0.784309 
vt 0.270516 0.708834 
vt 0.294625 0.687536 
vt 0.36726 0.699118 
vt 0.394694 0.796275 
vt 0.955102 0.029952 
vt 0.955102 0.029952 
vt 0.955102 0.029952 
vt 0.955102 0.029952 
vt 0.955102 0.029952 
vt 0.955102 0.029952 
vt 0.955102 0.029952 
vt 0.955102 0.029952 
vt 0.955102 0.029952 
vt 0.955102 0.029952 
vt 0.955102 0.029952 
vt 0.955102 0.029952 
vt 0.955102 0.029952 
vt 0.955102 0.029952 
vt 0.955102 0.029952 
vt 0.955102 0.029952 
vt 0.359846 0.872639 
vt 0.386538 0.89636 
vt 0.544318 0.205494 
vt 0.529462 0.200756 
vt 0.390761 0.228766 
vt 0.238925 0.912179 
vt 0.230601 0.670592 
vt 0.137162 0.746503 
vt 0.521403 0.475027 
vt 0.382387 0.450687 
vt 0.569552 0.51147 
vt 0.232773 0.626454 
vt 0.148033 0.882374 
vt 0.12856 0.849735 
vt 0.081591 0.897469 
vt 0.067124 0.873706 
vt 0.049714 0.85156 
vt 0.105364 0.819816 
vt 0.305652 0.266487 
vt 0.317826 0.308259 
vt 0.243284 0.329587 
vt 0.232615 0.298839 
vt 0.087145 0.925519 
vt 0.156856 0.919827 
vt 0.316605 0.351286 
vt 0.309689 0.393856 
vt 0.236391 0.392542 
vt 0.242127 0.361067 
vt 0.081857 0.79083 
vt 0.032013 0.829457 
vt 0.301508 0.436099 
vt 0.229647 0.424372 
vt 0.003377 0.444972 
vt 0.030817 0.39963 
vt 0.043677 0.426396 
vt 0.04199 0.450717 
vt 0.035505 0.472629 
vt 0.014932 0.495385 
vt 0.186189 0.2972 
vt 0.172888 0.338039 
vt 0.1622 0.317357 
vt 0.158004 0.297083 
vt 0.161091 0.27539 
vt 0.171809 0.255545 
vt 0.052536 0.896159 
vt 0.050549 0.878234 
vt 0.183976 0.409249 
vt 0.171902 0.429707 
vt 0.174961 0.393522 
vt 0.189771 0.396948 
vt 0.05166 0.230652 
vt 0.048425 0.264143 
vt 0.036135 0.250794 
vt 0.037344 0.213159 
vt 0.038735 0.856336 
vt 0.20054 0.322244 
vt 0.211329 0.344652 
vt 0.183664 0.510087 
vt 0.162301 0.503326 
vt 0.168446 0.466389 
vt 0.188143 0.463819 
vt 0.053846 0.917732 
vt 0.218782 0.365182 
vt 0.219279 0.396747 
vt 0.031055 0.331842 
vt 0.049897 0.325791 
vt 0.052675 0.358847 
vt 0.029256 0.371113 
vt 0.181397 0.562698 
vt 0.153549 0.542661 
vt 0.026875 0.839472 
vt 0.031852 0.291178 
vt 0.048025 0.295138 
vt 0.216132 0.420713 
vt 0.086556 0.388226 
vt 0.079249 0.422532 
vt 0.121037 0.264987 
vt 0.131939 0.233538 
vt 0.068656 0.485177 
vt 0.073659 0.453717 
vt 0.132758 0.357524 
vt 0.122149 0.326082 
vt 0.065299 0.520842 
vt 0.117863 0.29566 
vt 0.955102 0.029952 
vt 0.955102 0.029952 
vt 0.955102 0.029952 
vt 0.955102 0.029952 
vt 0.33561 0.599616 
vt 0.383984 0.621365 
vt 0.295195 0.577706 
vt 0.955102 0.029952 
vt 0.955102 0.029952 
vt 0.955102 0.029952 
vt 0.955102 0.029952 
vt 0.340396 0.536957 
vt 0.372418 0.550021 
vt 0.306275 0.525149 
vt 0.955102 0.029952 
vt 0.955102 0.029952 
vt 0.955102 0.029952 
vt 0.955102 0.029952 
vt 0.573369 0.822408 
vt 0.581765 0.916322 
vt 0.531451 0.73386 
vt 0.955102 0.029952 
vt 0.955102 0.029952 
vt 0.955102 0.029952 
vt 0.733706 0.866967 
vt 0.729868 0.962668 
vt 0.687043 0.780018 
vt 0.955102 0.029952 
vt 0.955102 0.029952 
vt 0.955102 0.029952 
vt 0.955102 0.029952 
vt 0.679609 0.18975 
vt 0.699074 0.231529 
vt 0.646209 0.126908 
vt 0.955102 0.029952 
vt 0.955102 0.029952 
vt 0.955102 0.029952 
vt 0.686599 0.483596 
vt 0.649723 0.524043 
vt 0.736136 0.450531 
vt 0.955102 0.029952 
vt 0.955102 0.029952 
vt 0.955102 0.029952 
vt 0.727894 0.584263 
vt 0.657939 0.626543 
vt 0.788872 0.525893 
vt 0.955102 0.029952 
vt 0.955102 0.029952 
vt 0.955102 0.029952 
vt 0.744833 0.127231 
vt 0.78974 0.183295 
vt 0.699598 0.072104 
vt 0.955102 0.029952 
vt 0.790094 0.039139 
vt 0.812497 0.046827 
vt 0.770678 0.024547 
vt 0.955102 0.029952 
vt 0.955102 0.029952 
vt 0.351011 0.498977 
vt 0.373644 0.512545 
vt 0.325279 0.494377 
vt 0.955102 0.029952 
vt 0.901469 0.847788 
vt 0.89873 0.887505 
vt 0.886105 0.811813 
vt 0.846628 0.636183 
vt 0.80881 0.655042 
vt 0.878235 0.611881 
vt 0.355235 0.470564 
vt 0.363801 0.475947 
vt 0.346112 0.469134 

usemtl Handle1Mtl

f 1/1/1 2/2/2 3/3/3 
f 3/3/3 4/4/4 1/1/1 
f 1/1/1 4/4/4 5/5/5 
f 5/5/5 6/6/6 1/1/1 
f 6/6/6 7/7/7 8/8/8 
f 8/8/8 1/1/1 6/6/6 
f 1/1/1 8/8/8 9/9/9 
f 9/9/9 2/2/2 1/1/1 
f 10/10/10 11/11/11 12/12/12 
f 12/12/12 13/13/13 10/10/10 
f 13/13/13 14/14/14 15/15/15 
f 15/15/15 10/10/10 13/13/13 
f 10/10/10 15/15/15 16/16/16 
f 16/16/16 17/17/17 10/10/10 
f 10/10/10 17/17/17 18/18/18 
f 18/18/18 11/11/11 10/10/10 
f 19/19/19 20/20/20 21/21/21 
f 21/21/21 22/22/22 19/19/19 
f 23/23/23 24/24/24 25/25/25 
f 25/25/25 26/26/26 23/23/23 
f 27/27/27 28/28/28 29/29/29 
f 29/29/29 30/30/30 27/27/27 
f 31/31/31 32/32/32 33/33/33 
f 33/33/33 34/34/34 31/31/31 
f 35/35/35 11/11/11 18/18/18 
f 18/18/18 36/36/36 35/35/35 
f 37/37/37 3/3/3 2/2/2 
f 2/2/2 38/38/38 37/37/37 
f 2/2/2 9/9/9 39/39/39 
f 39/39/39 38/38/38 2/2/2 
f 40/40/40 12/12/12 11/11/11 
f 11/11/11 35/35/35 40/40/40 
f 41/41/41 15/15/15 14/14/14 
f 14/14/14 42/42/42 41/41/41 
f 43/43/43 44/44/44 7/7/7 
f 7/7/7 6/6/6 43/43/43 
f 6/6/6 5/5/5 45/45/45 
f 45/45/45 43/43/43 6/6/6 
f 41/41/41 46/46/46 16/16/16 
f 16/16/16 15/15/15 41/41/41 
f 13/13/13 12/12/12 47/47/47 
f 47/47/47 48/48/48 13/13/13 
f 48/48/48 47/47/47 49/49/49 
f 49/49/49 50/50/50 48/48/48 
f 50/50/50 51/51/51 52/52/52 
f 52/52/52 48/48/48 50/50/50 
f 48/48/48 52/52/52 14/14/14 
f 14/14/14 13/13/13 48/48/48 
f 53/53/53 39/39/39 9/9/9 
f 9/9/9 54/54/54 53/53/53 
f 54/54/54 55/55/55 56/56/56 
f 56/56/56 53/53/53 54/54/54 
f 57/57/57 49/49/49 47/47/47 
f 47/47/47 58/58/58 57/57/57 
f 58/58/58 47/47/47 12/12/12 
f 12/12/12 40/40/40 58/58/58 
f 59/59/59 8/8/8 7/7/7 
f 7/7/7 60/60/60 59/59/59 
f 60/60/60 61/61/61 62/62/62 
f 62/62/62 59/59/59 60/60/60 
f 59/59/59 62/62/62 55/55/55 
f 55/55/55 54/54/54 59/59/59 
f 54/54/54 9/9/9 8/8/8 
f 8/8/8 59/59/59 54/54/54 
f 42/42/42 14/14/14 52/52/52 
f 52/52/52 63/63/63 42/42/42 
f 63/63/63 52/52/52 51/51/51 
f 51/51/51 64/64/64 63/63/63 
f 65/65/65 66/66/66 61/61/61 
f 61/61/61 60/60/60 65/65/65 
f 60/60/60 7/7/7 44/44/44 
f 44/44/44 65/65/65 60/60/60 
f 67/67/67 68/68/68 69/69/69 
f 69/69/69 70/70/70 67/67/67 
f 67/67/67 70/70/70 71/71/71 
f 71/71/71 72/72/72 67/67/67 
f 73/73/73 74/74/74 75/75/75 
f 75/75/75 76/76/76 73/73/73 
f 73/73/73 76/76/76 77/77/77 
f 77/77/77 78/78/78 73/73/73 
f 50/50/50 49/49/49 79/79/79 
f 79/79/79 80/80/80 50/50/50 
f 81/81/81 82/82/82 83/83/83 
f 83/83/83 84/84/84 81/81/81 
f 85/85/85 86/86/86 87/87/87 
f 87/87/87 88/88/88 85/85/85 
f 80/80/80 89/89/89 51/51/51 
f 51/51/51 50/50/50 80/80/80 
f 90/90/90 56/56/56 55/55/55 
f 55/55/55 91/91/91 90/90/90 
f 92/92/92 93/93/93 94/94/94 
f 94/94/94 95/95/95 92/92/92 
f 95/95/95 94/94/94 82/82/82 
f 82/82/82 81/81/81 95/95/95 
f 96/96/96 79/79/79 49/49/49 
f 49/49/49 57/57/57 96/96/96 
f 97/97/97 62/62/62 61/61/61 
f 61/61/61 98/98/98 97/97/97 
f 99/99/99 100/100/100 101/101/101 
f 101/101/101 102/102/102 99/99/99 
f 103/103/103 104/104/104 93/93/93 
f 93/93/93 92/92/92 103/103/103 
f 91/91/91 55/55/55 62/62/62 
f 62/62/62 97/97/97 91/91/91 
f 64/64/64 51/51/51 89/89/89 
f 89/89/89 105/105/105 64/64/64 
f 106/106/106 87/87/87 86/86/86 
f 86/86/86 107/107/107 106/106/106 
f 107/107/107 100/100/100 99/99/99 
f 99/99/99 106/106/106 107/107/107 
f 98/98/98 61/61/61 66/66/66 
f 66/66/66 108/108/108 98/98/98 
f 109/109/109 110/110/110 69/69/69 
f 69/69/69 68/68/68 109/109/109 
f 78/78/78 77/77/77 111/111/111 
f 111/111/111 112/112/112 78/78/78 
f 111/111/111 86/86/86 85/85/85 
f 85/85/85 112/112/112 111/111/111 
f 109/109/109 83/83/83 82/82/82 
f 82/82/82 110/110/110 109/109/109 
f 113/113/113 71/71/71 70/70/70 
f 70/70/70 114/114/114 113/113/113 
f 114/114/114 70/70/70 69/69/69 
f 69/69/69 110/110/110 114/114/114 
f 110/110/110 82/82/82 94/94/94 
f 94/94/94 114/114/114 110/110/110 
f 94/94/94 93/93/93 113/113/113 
f 113/113/113 114/114/114 94/94/94 
f 115/115/115 116/116/116 75/75/75 
f 75/75/75 74/74/74 115/115/115 
f 117/117/117 72/72/72 71/71/71 
f 71/71/71 113/113/113 117/117/117 
f 117/117/117 113/113/113 93/93/93 
f 93/93/93 104/104/104 117/117/117 
f 101/101/101 100/100/100 116/116/116 
f 116/116/116 115/115/115 101/101/101 
f 118/118/118 111/111/111 77/77/77 
f 77/77/77 76/76/76 118/118/118 
f 76/76/76 75/75/75 116/116/116 
f 116/116/116 118/118/118 76/76/76 
f 118/118/118 116/116/116 100/100/100 
f 100/100/100 107/107/107 118/118/118 
f 118/118/118 107/107/107 86/86/86 
f 86/86/86 111/111/111 118/118/118 
f 119/119/119 120/120/120 121/121/121 
f 121/121/121 122/122/122 119/119/119 
f 17/17/17 16/16/16 123/123/123 
f 123/123/123 124/124/124 17/17/17 
f 46/46/46 125/125/125 123/123/123 
f 123/123/123 16/16/16 46/46/46 
f 126/126/126 122/122/122 121/121/121 
f 121/121/121 127/127/127 126/126/126 
f 120/120/120 128/128/128 129/129/129 
f 129/129/129 121/121/121 120/120/120 
f 123/123/123 130/130/130 131/131/131 
f 131/131/131 124/124/124 123/123/123 
f 125/125/125 132/132/132 130/130/130 
f 130/130/130 123/123/123 125/125/125 
f 129/129/129 133/133/133 127/127/127 
f 127/127/127 121/121/121 129/129/129 
f 134/134/134 135/135/135 136/136/136 
f 136/136/136 122/122/122 134/134/134 
f 36/36/36 18/18/18 137/137/137 
f 137/137/137 138/138/138 36/36/36 
f 18/18/18 17/17/17 139/139/139 
f 139/139/139 137/137/137 18/18/18 
f 119/119/119 122/122/122 136/136/136 
f 136/136/136 140/140/140 119/119/119 
f 135/135/135 141/141/141 142/142/142 
f 142/142/142 136/136/136 135/135/135 
f 143/143/143 144/144/144 138/138/138 
f 138/138/138 137/137/137 143/143/143 
f 145/145/145 143/143/143 137/137/137 
f 137/137/137 139/139/139 145/145/145 
f 142/142/142 146/146/146 140/140/140 
f 140/140/140 136/136/136 142/142/142 
f 122/122/122 147/147/147 148/148/148 
f 148/148/148 149/149/149 122/122/122 
f 3/3/3 150/150/150 151/151/151 
f 151/151/151 4/4/4 3/3/3 
f 37/37/37 152/152/152 150/150/150 
f 150/150/150 3/3/3 37/37/37 
f 134/134/134 122/122/122 149/149/149 
f 149/149/149 153/153/153 134/134/134 
f 126/126/126 154/154/154 155/155/155 
f 155/155/155 122/122/122 126/126/126 
f 5/5/5 156/156/156 157/157/157 
f 157/157/157 45/45/45 5/5/5 
f 5/5/5 4/4/4 158/158/158 
f 158/158/158 156/156/156 5/5/5 
f 122/122/122 155/155/155 159/159/159 
f 159/159/159 147/147/147 122/122/122 
f 154/154/154 160/160/160 161/161/161 
f 161/161/161 155/155/155 154/154/154 
f 162/162/162 163/163/163 157/157/157 
f 157/157/157 156/156/156 162/162/162 
f 164/164/164 162/162/162 156/156/156 
f 156/156/156 158/158/158 164/164/164 
f 155/155/155 161/161/161 165/165/165 
f 165/165/165 159/159/159 155/155/155 
f 148/148/148 166/166/166 167/167/167 
f 167/167/167 149/149/149 148/148/148 
f 150/150/150 168/168/168 169/169/169 
f 169/169/169 151/151/151 150/150/150 
f 152/152/152 170/170/170 168/168/168 
f 168/168/168 150/150/150 152/152/152 
f 167/167/167 171/171/171 153/153/153 
f 153/153/153 149/149/149 167/167/167 
f 167/167/167 166/166/166 28/28/28 
f 28/28/28 27/27/27 167/167/167 
f 168/168/168 172/172/172 173/173/173 
f 173/173/173 169/169/169 168/168/168 
f 170/170/170 174/174/174 172/172/172 
f 172/172/172 168/168/168 170/170/170 
f 171/171/171 167/167/167 27/27/27 
f 27/27/27 30/30/30 171/171/171 
f 128/128/128 175/175/175 176/176/176 
f 176/176/176 129/129/129 128/128/128 
f 130/130/130 177/177/177 178/178/178 
f 178/178/178 131/131/131 130/130/130 
f 130/130/130 132/132/132 179/179/179 
f 179/179/179 177/177/177 130/130/130 
f 133/133/133 129/129/129 176/176/176 
f 176/176/176 180/180/180 133/133/133 
f 141/141/141 32/32/32 31/31/31 
f 31/31/31 142/142/142 141/141/141 
f 143/143/143 181/181/181 182/182/182 
f 182/182/182 144/144/144 143/143/143 
f 143/143/143 145/145/145 183/183/183 
f 183/183/183 181/181/181 143/143/143 
f 146/146/146 142/142/142 31/31/31 
f 31/31/31 34/34/34 146/146/146 
f 161/161/161 160/160/160 24/24/24 
f 24/24/24 23/23/23 161/161/161 
f 162/162/162 184/184/184 185/185/185 
f 185/185/185 163/163/163 162/162/162 
f 164/164/164 186/186/186 184/184/184 
f 184/184/184 162/162/162 164/164/164 
f 165/165/165 161/161/161 23/23/23 
f 23/23/23 26/26/26 165/165/165 
f 175/175/175 20/20/20 19/19/19 
f 19/19/19 176/176/176 175/175/175 
f 177/177/177 187/187/187 188/188/188 
f 188/188/188 178/178/178 177/177/177 
f 177/177/177 179/179/179 189/189/189 
f 189/189/189 187/187/187 177/177/177 
f 180/180/180 176/176/176 19/19/19 
f 19/19/19 22/22/22 180/180/180 

