# This file is brought to you by Roblox Corporation
# Generated by Roblox Studio

mtllib Slap_2.mtl

g Handle1

v 484.981 3.01283 -358.432 
v 484.985 3.11323 -358.426 
v 485.055 2.92183 -358.402 
v 484.856 3.3601 -357.735 
v 484.887 3.61115 -357.735 
v 485.002 3.55147 -357.763 
v 485.032 3.35779 -357.775 
v 485.09 2.73658 -357.455 
v 484.951 2.842 -357.393 
v 484.865 2.68774 -357.335 
v 484.968 2.55803 -357.331 
v 484.462 2.53542 -357.216 
v 484.422 2.58189 -357.09 
v 484.496 2.70115 -357.148 
v 484.559 2.6536 -357.239 
v 484.57 4.01506 -358.605 
v 484.493 3.95237 -358.6 
v 484.444 4.08401 -358.589 
v 484.511 4.1137 -358.605 
v 484.644 3.96804 -358.32 
v 484.556 4.08482 -358.356 
v 484.489 4.00321 -358.35 
v 484.604 3.84957 -358.3 
v 484.549 4.38693 -357.999 
v 484.592 4.45994 -357.999 
v 484.567 4.47428 -358.104 
v 484.524 4.37498 -358.088 
v 484.841 3.38977 -357.831 
v 484.752 3.19711 -357.807 
v 484.763 3.17017 -357.712 
v 484.769 3.389 -357.969 
v 484.725 3.21597 -357.964 
v 484.674 3.07333 -358.055 
v 484.701 3.0175 -357.75 
v 484.519 2.54472 -357.386 
v 484.446 2.2755 -357.377 
v 484.455 2.38053 -357.137 
v 484.446 2.46436 -357.007 
v 484.486 3.0144 -356.588 
v 484.439 2.95555 -356.579 
v 484.503 2.92975 -356.553 
v 484.547 2.96041 -356.565 
v 484.58 2.99309 -356.599 
v 484.54 3.04438 -356.633 
v 484.428 3.03237 -356.66 
v 484.391 2.97527 -356.636 
v 484.486 3.06572 -356.685 
v 484.765 2.63606 -357.274 
v 484.856 2.51634 -357.236 
v 484.643 2.65406 -357.325 
v 484.765 2.63606 -357.274 
v 484.865 2.68774 -357.335 
v 484.744 2.73952 -357.413 
v 484.677 2.66457 -357.219 
v 484.769 2.58574 -357.169 
v 484.677 2.66457 -357.219 
v 484.822 4.37304 -357.608 
v 484.735 4.35812 -357.622 
v 484.745 4.32323 -357.529 
v 484.815 4.35381 -357.53 
v 484.826 4.34651 -357.685 
v 484.76 4.31857 -357.707 
v 484.735 4.35812 -357.622 
v 484.677 4.2623 -357.633 
v 484.689 4.25329 -357.55 
v 484.745 4.32323 -357.529 
v 484.76 4.31857 -357.707 
v 484.702 4.26254 -357.705 
v 484.442 4.1656 -358.513 
v 484.529 4.17989 -358.542 
v 484.444 4.08401 -358.589 
v 484.399 4.02963 -358.545 
v 484.397 4.07545 -358.469 
v 484.442 4.1656 -358.513 
v 484.544 4.19942 -358.455 
v 484.48 4.17482 -358.417 
v 484.48 4.17482 -358.417 
v 484.433 4.10475 -358.395 
v 484.441 3.90736 -358.533 
v 484.434 3.93789 -358.428 
v 484.712 3.18579 -358.116 
v 484.779 3.32409 -358.165 
v 484.681 3.26545 -358.27 
v 484.664 3.12219 -358.222 
v 484.628 3.50585 -358.33 
v 484.667 3.45203 -358.465 
v 484.715 3.18802 -358.398 
v 484.52 3.76048 -358.388 
v 484.54 3.72986 -358.518 
v 484.812 3.68185 -358.246 
v 484.713 3.86221 -358.294 
v 484.736 3.58161 -358.231 
v 484.827 3.20546 -358.532 
v 484.781 3.31295 -358.582 
v 484.71 3.26039 -358.56 
v 484.53 3.58757 -358.775 
v 484.629 3.44987 -358.676 
v 484.671 3.54939 -358.716 
v 484.585 3.66155 -358.794 
v 484.723 3.45004 -358.659 
v 484.907 3.15751 -358.589 
v 484.827 3.20546 -358.532 
v 484.886 3.07608 -358.472 
v 484.967 3.003 -358.52 
v 484.725 3.122 -358.462 
v 484.886 3.07608 -358.472 
v 484.518 3.71178 -358.867 
v 484.485 3.65975 -358.84 
v 484.662 3.06699 -358.415 
v 484.635 2.99556 -358.348 
v 484.661 3.08938 -358.347 
v 484.617 2.72081 -357.629 
v 484.728 2.93271 -357.584 
v 485.061 2.33438 -358.42 
v 484.989 2.08142 -358.424 
v 485.002 2.2913 -358.488 
v 485.262 2.60713 -357.846 
v 485.241 2.33461 -357.915 
v 485.267 2.61446 -357.933 
v 485.212 2.52837 -358.161 
v 485.164 2.22529 -358.197 
v 485.182 2.47329 -358.235 
v 485.209 2.52943 -357.621 
v 485.198 2.28897 -357.654 
v 485.238 2.58058 -357.713 
v 485.251 2.59572 -358.022 
v 485.228 2.87077 -358.069 
v 485.161 3.09641 -358.099 
v 485.207 3.10226 -357.972 
v 485.253 2.88756 -357.955 
v 485.127 3.24642 -357.822 
v 485.193 3.12649 -357.846 
v 485.126 3.3161 -357.865 
v 485.023 3.36996 -357.818 
v 485.129 3.24678 -357.775 
v 485.032 3.35779 -357.775 
v 485.137 3.31273 -357.731 
v 485.192 3.12201 -357.742 
v 485.082 3.19852 -358.136 
v 484.976 3.32033 -358.144 
v 485.094 3.28181 -358.107 
v 484.978 2.97696 -358.467 
v 485.026 2.8595 -358.483 
v 484.877 3.12601 -358.445 
v 484.728 3.21014 -358.055 
v 484.959 3.29972 -358.172 
v 485.068 3.18095 -358.175 
v 485.054 3.23777 -358.223 
v 485.204 1.84773 -357.894 
v 485.166 1.86168 -357.676 
v 485.123 1.53934 -357.678 
v 485.17 1.51533 -357.887 
v 484.773 1.621 -357.497 
v 484.913 1.80198 -357.435 
v 484.792 1.79792 -357.388 
v 484.581 1.78247 -357.471 
v 484.637 1.84535 -357.374 
v 484.435 1.79131 -357.856 
v 484.513 1.5938 -357.989 
v 484.586 1.56061 -357.693 
v 484.473 1.7818 -357.643 
v 484.447 1.77322 -358.003 
v 484.488 1.74394 -358.152 
v 484.638 1.48661 -358.255 
v 484.604 1.69694 -358.335 
v 484.629 3.71235 -358.568 
v 484.727 3.52813 -358.533 
v 484.795 3.36388 -358.496 
v 484.564 3.81932 -358.587 
v 484.493 3.95237 -358.6 
v 484.879 3.52052 -358.211 
v 484.644 3.8952 -358.589 
v 484.564 3.81932 -358.587 
v 484.709 2.67635 -357.113 
v 484.612 2.73334 -357.153 
v 484.612 2.73334 -357.153 
v 484.498 3.03473 -356.789 
v 484.396 2.99552 -356.766 
v 484.486 3.06572 -356.685 
v 484.54 3.04438 -356.633 
v 484.584 3.01453 -356.734 
v 484.498 3.03473 -356.789 
v 484.52 2.95141 -356.925 
v 484.402 2.88559 -356.922 
v 484.377 2.95636 -356.859 
v 484.358 2.90299 -356.711 
v 484.58 2.99309 -356.599 
v 484.617 2.94513 -356.663 
v 484.615 2.93951 -356.863 
v 484.52 2.95141 -356.925 
v 484.406 2.85779 -356.629 
v 484.352 2.78535 -356.826 
v 484.725 4.1129 -357.521 
v 484.797 4.19777 -357.478 
v 484.547 2.96041 -356.565 
v 484.58 2.88259 -356.607 
v 484.648 2.86039 -356.772 
v 484.394 2.72912 -356.725 
v 484.501 2.85073 -356.588 
v 484.697 4.09501 -357.627 
v 484.816 4.19922 -357.74 
v 484.725 4.17366 -357.712 
v 484.807 3.9039 -357.485 
v 484.86 4.03714 -357.452 
v 484.797 4.19777 -357.478 
v 484.877 4.25837 -357.504 
v 484.587 4.41642 -358.194 
v 484.542 4.34857 -358.173 
v 484.743 2.57836 -357.031 
v 484.792 2.45164 -357.094 
v 484.604 2.77661 -356.698 
v 484.675 2.77796 -356.88 
v 484.64 2.85426 -356.975 
v 484.503 2.72847 -356.675 
v 484.765 3.8636 -357.615 
v 484.889 4.25093 -357.695 
v 484.816 4.19922 -357.74 
v 484.888 4.02699 -357.75 
v 484.852 3.86065 -357.73 
v 484.909 4.27916 -357.599 
v 484.86 4.03714 -357.452 
v 484.944 4.10751 -357.491 
v 484.648 4.45645 -358.188 
v 484.587 4.41642 -358.194 
v 484.567 4.47428 -358.104 
v 484.65 4.50001 -358.11 
v 484.632 2.68459 -356.798 
v 484.65 3.06563 -358.506 
v 484.808 3.59336 -357.605 
v 484.812 3.3295 -357.592 
v 484.868 3.59954 -357.467 
v 484.957 4.10116 -357.699 
v 484.888 4.02699 -357.75 
v 485.023 3.36996 -357.818 
v 484.984 4.12939 -357.595 
v 484.901 3.89854 -357.441 
v 485.001 3.93395 -357.483 
v 484.948 3.68938 -357.429 
v 484.901 3.89854 -357.441 
v 484.652 4.49396 -358.02 
v 484.592 4.45994 -357.999 
v 484.52 2.62468 -356.771 
v 484.781 3.12058 -357.574 
v 484.876 3.31222 -357.47 
v 485.015 3.92864 -357.701 
v 484.932 3.88949 -357.753 
v 484.975 3.69525 -357.758 
v 484.932 3.88949 -357.753 
v 485.047 3.94806 -357.592 
v 484.948 3.68938 -357.429 
v 485.052 3.72861 -357.474 
v 484.66 4.35202 -357.939 
v 484.727 4.40679 -357.988 
v 484.75 4.41213 -358.099 
v 484.722 4.36216 -358.195 
v 484.652 4.29014 -358.22 
v 484.806 4.00927 -358.203 
v 484.705 4.00712 -358.168 
v 484.741 4.14358 -358.215 
v 484.866 3.08879 -357.456 
v 484.996 3.29312 -357.432 
v 484.976 3.52757 -357.429 
v 484.976 3.52757 -357.429 
v 485.09 3.53004 -357.476 
v 485.066 3.72905 -357.703 
v 484.975 3.69525 -357.758 
v 485.102 3.7419 -357.588 
v 484.817 4.26108 -357.962 
v 484.746 4.20115 -357.905 
v 484.652 4.29014 -358.22 
v 484.593 4.21212 -358.174 
v 484.85 4.26665 -358.078 
v 484.813 4.22314 -358.182 
v 484.741 4.14358 -358.215 
v 484.563 4.20794 -358.062 
v 484.601 4.25812 -357.957 
v 484.867 2.27368 -357.203 
v 484.706 2.34659 -357.027 
v 484.714 2.15916 -357.145 
v 484.825 3.70406 -357.868 
v 484.961 3.61848 -357.837 
v 484.905 3.80807 -357.851 
v 484.826 2.8948 -357.438 
v 484.713 4.05219 -357.912 
v 484.814 4.05583 -357.882 
v 484.746 4.20115 -357.905 
v 484.992 3.06482 -357.422 
v 484.996 3.29312 -357.432 
v 485.117 3.29654 -357.484 
v 485.102 3.54062 -357.71 
v 485.002 3.55147 -357.763 
v 485.141 3.54112 -357.592 
v 484.906 4.08216 -357.937 
v 484.814 4.05583 -357.882 
v 484.945 4.08342 -358.056 
v 484.899 4.05416 -358.165 
v 484.806 4.00927 -358.203 
v 484.884 3.7643 -358.183 
v 484.806 3.66408 -358.136 
v 484.656 3.98574 -358.033 
v 484.565 2.31286 -357.04 
v 484.552 2.14917 -357.202 
v 484.951 2.842 -357.393 
v 484.992 3.06482 -357.422 
v 485.12 3.04804 -357.481 
v 485.174 3.31131 -357.602 
v 484.66 4.35202 -357.939 
v 484.905 3.80807 -357.851 
v 485 3.83585 -357.91 
v 485.036 3.83261 -358.033 
v 484.984 3.80866 -358.145 
v 484.884 3.7643 -358.183 
v 484.746 3.67187 -357.998 
v 484.556 4.08482 -358.356 
v 484.621 4.11987 -358.425 
v 484.687 1.95023 -357.282 
v 484.85 1.98632 -357.299 
v 485.011 2.30374 -357.346 
v 484.55 1.92487 -357.368 
v 484.622 4.09124 -358.535 
v 485.198 3.07911 -357.605 
v 484.961 3.61848 -357.837 
v 485.067 3.59248 -357.891 
v 485.043 3.5618 -358.124 
v 485.101 3.5787 -358.012 
v 484.929 3.57139 -358.165 
v 484.706 4.00493 -358.399 
v 484.644 3.96804 -358.32 
v 484.929 3.57139 -358.165 
v 484.991 2.02853 -357.386 
v 484.427 1.99381 -357.542 
v 484.709 3.97371 -358.515 
v 485.203 2.81501 -357.602 
v 485.151 3.30909 -357.99 
v 484.808 3.36105 -358.099 
v 484.713 3.86221 -358.294 
v 484.792 3.87158 -358.368 
v 485.004 1.55679 -357.547 
v 485.064 1.82303 -357.53 
v 485.113 2.11726 -357.514 
v 485.138 2.39423 -357.513 
v 484.816 1.31926 -357.553 
v 484.974 1.30489 -357.566 
v 484.733 1.274 -357.691 
v 484.461 2.35236 -357.69 
v 484.405 2.03061 -357.776 
v 484.8 3.83549 -358.485 
v 484.728 3.76479 -358.563 
v 485.235 2.862 -357.728 
v 484.976 3.32033 -358.144 
v 484.812 3.68185 -358.246 
v 484.889 3.69482 -358.323 
v 485.009 1.26745 -357.682 
v 485.031 1.24869 -357.897 
v 484.694 1.26148 -357.939 
v 484.479 2.3659 -357.983 
v 484.427 2.02106 -357.999 
v 484.629 3.71235 -358.568 
v 484.898 3.65735 -358.443 
v 484.826 3.5892 -358.527 
v 485.249 2.88357 -357.843 
v 484.959 3.29972 -358.172 
v 484.879 3.52052 -358.211 
v 484.972 3.48791 -358.275 
v 485.028 1.24405 -358.15 
v 485.13 1.48264 -358.143 
v 484.752 1.24609 -358.197 
v 484.499 2.33511 -358.25 
v 484.469 1.98915 -358.218 
v 484.984 3.44397 -358.393 
v 484.91 3.38095 -358.48 
v 484.727 3.52813 -358.533 
v 485.004 1.46172 -358.332 
v 484.988 1.2629 -358.309 
v 485.144 1.78361 -358.154 
v 484.808 1.4571 -358.374 
v 484.831 1.2621 -358.335 
v 485.057 3.19408 -358.341 
v 484.795 3.36388 -358.496 
v 485.133 3.05939 -358.194 
v 484.831 1.2621 -358.335 
v 484.808 1.4571 -358.374 
v 484.992 1.71919 -358.356 
v 484.789 1.68133 -358.415 
v 484.58 1.9496 -358.401 
v 485.198 2.81974 -358.179 
v 485.118 2.98278 -358.306 
v 484.789 1.68133 -358.415 
v 484.585 2.72495 -357.985 
v 484.77 1.94748 -358.474 
v 484.569 2.68127 -358.285 
v 484.585 2.27668 -358.458 
v 484.877 3.12601 -358.445 
v 485.166 2.75306 -358.274 
v 484.77 1.94748 -358.474 
v 484.752 2.24062 -358.547 
v 484.621 2.59491 -358.509 
v 484.488 3.68409 -358.938 
v 484.491 3.61593 -358.987 
v 484.464 3.58122 -358.942 
v 484.461 3.62378 -358.891 
v 484.752 2.24062 -358.547 
v 484.916 2.263 -358.532 
v 484.654 2.83705 -358.57 
v 484.759 2.53908 -358.605 
v 484.538 3.64647 -359.013 
v 484.491 3.61593 -358.987 
v 484.488 3.68409 -358.938 
v 484.551 3.70674 -358.971 
v 485.117 2.68252 -358.36 
v 485.14 2.41453 -358.303 
v 484.664 2.97661 -358.658 
v 484.65 3.12629 -358.765 
v 484.742 3.04587 -358.787 
v 484.764 2.91887 -358.721 
v 484.759 2.53908 -358.605 
v 484.901 2.53318 -358.597 
v 484.768 2.76754 -358.661 
v 484.564 3.73772 -358.904 
v 484.518 3.71178 -358.867 
v 485.067 2.61595 -358.453 
v 485.003 2.56318 -358.539 
v 484.892 2.75763 -358.65 
v 484.768 2.76754 -358.661 
v 484.5 3.48438 -358.915 
v 484.491 3.52036 -358.829 
v 484.984 2.78889 -358.582 
v 484.876 2.91763 -358.705 
v 484.764 2.91887 -358.721 
v 484.625 3.20022 -358.637 
v 484.585 3.32436 -358.862 
v 484.563 3.37023 -358.745 
v 484.606 3.57411 -359.008 
v 484.543 3.51549 -358.985 
v 484.742 3.04587 -358.787 
v 484.846 3.05091 -358.767 
v 484.953 2.95378 -358.629 
v 484.64 3.69109 -358.863 
v 484.585 3.66155 -358.794 
v 484.646 3.65054 -358.958 
v 484.693 3.45465 -358.96 
v 484.619 3.38957 -358.945 
v 484.666 3.28956 -358.9 
v 484.713 3.14703 -358.835 
v 484.807 3.18158 -358.829 
v 484.713 3.14703 -358.835 
v 484.913 3.1 -358.691 
v 484.733 3.57426 -358.794 
v 484.671 3.54939 -358.716 
v 484.745 3.53024 -358.899 
v 484.758 3.32653 -358.896 
v 484.666 3.28956 -358.9 
v 484.868 3.24233 -358.756 
v 484.855 3.29837 -358.653 
v 484.781 3.31295 -358.582 
v 484.8 3.44232 -358.724 
v 484.723 3.45004 -358.659 
v 484.816 3.39144 -358.827 
v 484.662 2.78229 -357.042 
v 484.57 2.84242 -357.047 
v 484.543 3.51549 -358.985 
v 484.619 3.38957 -358.945 
v 484.405 2.6223 -356.824 
v 484.562 2.4303 -356.942 
v 484.687 2.48074 -356.955 
v 484.421 2.5521 -356.899 
v 484.541 2.53488 -356.856 
v 484.66 2.59403 -356.883 
v 484.703 2.69166 -356.962 
v 484.378 2.65798 -356.939 
v 484.441 2.7869 -357.03 
v 484.57 2.84242 -357.047 
v 484.752 1.24609 -358.197 
v 484.831 1.2621 -358.335 
v 484.816 1.31926 -357.553 
v 484.733 1.274 -357.691 
v 484.694 1.26148 -357.939 

vn 0.354331 0.0393701 -0.937008 
vn 0.488189 0.0393701 -0.874016 
vn 0.787402 0.204724 -0.582677 
vn -0.220472 0.0314961 -0.976378 
vn -0.220472 0.0314961 -0.976378 
vn -0.220472 0.0314961 -0.976378 
vn -0.220472 0.023622 -0.976378 
vn 0.661417 0.0393701 0.748031 
vn 0.456693 0.0787402 0.889764 
vn 0.401575 0.338583 0.850394 
vn 0.606299 0.188976 0.779528 
vn -0.92126 0.244094 -0.299213 
vn -0.96063 0.0314961 -0.283465 
vn -0.755906 0.370079 -0.543307 
vn -0.653543 0.590551 -0.472441 
vn -0.0551181 -0.0629921 -1 
vn -0.102362 0.0393701 -0.992126 
vn -0.141732 -0.0393701 -0.992126 
vn -0.181102 -0.102362 -0.976378 
vn -0.125984 0.19685 0.968504 
vn -0.19685 0.267717 0.944882 
vn -0.141732 0.19685 0.968504 
vn -0.110236 0.212598 0.968504 
vn -0.858268 0.456693 0.228346 
vn -0.826772 0.496063 0.259843 
vn -0.866142 0.448819 0.220472 
vn -0.889764 0.417323 0.188976 
vn -0.874016 0.377953 0.299213 
vn -0.897638 0.385827 0.212598 
vn -0.929134 0.338583 0.165354 
vn -0.984252 0.11811 0.133858 
vn -0.944882 0.307087 0.11811 
vn -0.952756 0.283465 0.0944882 
vn -0.929134 0.307087 0.19685 
vn -0.850394 0.503937 -0.11811 
vn -0.992126 -0.0314961 0.11811 
vn -0.937008 -0.307087 0.181102 
vn -0.818898 -0.496063 0.275591 
vn -0.181102 0.637795 0.748031 
vn -0.417323 0.480315 0.771654 
vn -0.110236 0.362205 0.92126 
vn 0.102362 0.496063 0.866142 
vn 0.220472 0.614173 0.755906 
vn 0.0551181 0.795276 0.606299 
vn -0.425197 0.724409 0.543307 
vn -0.503937 0.590551 0.629921 
vn -0.212598 0.866142 0.456693 
vn 0.267717 0.472441 0.84252 
vn 0.685039 0.322835 0.653543 
vn -0.456693 0.771654 -0.448819 
vn 0.267717 0.472441 0.84252 
vn 0.401575 0.338583 0.850394 
vn -0.0944882 0.795276 0.606299 
vn 0.480315 0.795276 0.362205 
vn 0.795276 0.559055 0.244094 
vn 0.480315 0.795276 0.362205 
vn -0.283465 0.913386 0.299213 
vn -0.212598 0.905512 0.362205 
vn -0.299213 0.913386 0.275591 
vn -0.385827 0.905512 0.188976 
vn -0.165354 0.897638 -0.401575 
vn -0.204724 0.866142 -0.456693 
vn -0.212598 0.905512 0.362205 
vn -0.850394 0.496063 0.173228 
vn -0.818898 0.519685 0.228346 
vn -0.299213 0.913386 0.275591 
vn -0.204724 0.866142 -0.456693 
vn -0.677165 0.700787 -0.228346 
vn -0.370079 0.661417 -0.653543 
vn -0.283465 0.850394 -0.440945 
vn -0.141732 -0.0393701 -0.992126 
vn -0.84252 0.448819 -0.299213 
vn -0.88189 0.354331 -0.314961 
vn -0.370079 0.661417 -0.653543 
vn -0.283465 0.96063 -0.0551181 
vn -0.338583 0.944882 0.0393701 
vn -0.338583 0.944882 0.0393701 
vn -0.795276 0.582677 0.149606 
vn -0.92126 -0.393701 0.0314961 
vn -0.889764 -0.267717 0.370079 
vn -0.897638 0.401575 0.188976 
vn -0.748031 0.511811 0.417323 
vn -0.850394 0.377953 0.362205 
vn -0.976378 0.188976 0.11811 
vn -0.952756 -0.251969 -0.173228 
vn -0.937008 -0.322835 -0.125984 
vn -0.968504 -0.204724 -0.125984 
vn -0.905512 -0.433071 -0.015748 
vn -0.897638 -0.440945 -0.0393701 
vn -0.0708661 0.204724 0.976378 
vn -0.0787402 0.204724 0.976378 
vn -0.0866142 0.212598 0.976378 
vn -0.023622 0.417323 0.905512 
vn -0.0551181 0.448819 0.889764 
vn 0.023622 0.496063 0.866142 
vn -0.291339 0.448819 0.84252 
vn -0.19685 0.433071 0.88189 
vn -0.220472 0.433071 0.874016 
vn -0.314961 0.480315 0.818898 
vn -0.149606 0.456693 0.88189 
vn 0.700787 0.527559 0.488189 
vn -0.023622 0.417323 0.905512 
vn 0.708661 0.511811 0.480315 
vn 0.897638 0.448819 0 
vn 0.141732 0.527559 0.834646 
vn 0.708661 0.511811 0.480315 
vn -0.346457 0.590551 0.732283 
vn -0.354331 0.551181 0.755906 
vn -0.874016 0.480315 -0.0629921 
vn -0.976378 0.19685 -0.0393701 
vn -0.952756 0.283465 -0.133858 
vn -0.88189 0.433071 0.181102 
vn -0.84252 0.314961 0.440945 
vn 0.826772 -0.149606 -0.543307 
vn 0.598425 -0.212598 -0.771654 
vn 0.661417 -0.204724 -0.724409 
vn 0.992126 -0.0314961 0.11811 
vn 0.992126 -0.102362 -0.0393701 
vn 1 -0.023622 -0.0629921 
vn 0.952756 -0.0472441 -0.291339 
vn 0.92126 -0.125984 -0.377953 
vn 0.913386 -0.0708661 -0.401575 
vn 0.905512 -0.0393701 0.417323 
vn 0.944882 -0.0866142 0.307087 
vn 0.976378 -0.0393701 0.220472 
vn 0.976378 -0.0393701 -0.220472 
vn 0.952756 0.133858 -0.283465 
vn 0.866142 0.283465 -0.409449 
vn 0.96063 0.228346 -0.133858 
vn 0.984252 0.125984 -0.0944882 
vn 0.818898 0.496063 0.283465 
vn 0.952756 0.307087 0.0787402 
vn 0.80315 0.330709 0.496063 
vn 0.551181 0.448819 0.700787 
vn 0.708661 0.330709 -0.622047 
vn -0.220472 0.023622 -0.976378 
vn 0.779528 0.283465 -0.559055 
vn 0.968504 0.244094 -0.0393701 
vn 0.637795 0.370079 -0.677165 
vn 0.322835 0.0472441 -0.944882 
vn 0.645669 0.188976 -0.740157 
vn 0.818898 0.496063 -0.291339 
vn 0.889764 0.188976 -0.425197 
vn 0.165354 -0.102362 -0.984252 
vn -0.929134 0.377953 -0.0314961 
vn 0.645669 0.582677 0.496063 
vn 0.645669 0.582677 0.496063 
vn 0.866142 0.440945 0.244094 
vn 0.992126 -0.0944882 -0.015748 
vn 0.929134 -0.11811 0.354331 
vn 0.874016 -0.220472 0.425197 
vn 0.96063 -0.259843 0.0393701 
vn -0.204724 -0.425197 0.88189 
vn 0.409449 -0.385827 0.826772 
vn 0.0944882 -0.551181 0.826772 
vn -0.574803 -0.559055 0.598425 
vn -0.299213 -0.637795 0.708661 
vn -0.96063 -0.267717 0.0551181 
vn -0.897638 -0.433071 -0.0472441 
vn -0.795276 -0.464567 0.385827 
vn -0.874016 -0.385827 0.291339 
vn -0.968504 -0.220472 -0.125984 
vn -0.905512 -0.267717 -0.322835 
vn -0.866142 -0.425197 -0.267717 
vn -0.834646 -0.307087 -0.456693 
vn -0.496063 -0.417323 -0.755906 
vn -0.456693 -0.370079 -0.811024 
vn -0.448819 -0.370079 -0.811024 
vn -0.559055 -0.401575 -0.724409 
vn -0.102362 0.0393701 -0.992126 
vn -0.0551181 0.188976 0.976378 
vn 0.0393701 -0.0866142 -0.992126 
vn -0.559055 -0.401575 -0.724409 
vn 0.80315 0.574803 -0.15748 
vn 0.566929 0.779528 -0.259843 
vn 0.566929 0.779528 -0.259843 
vn -0.401575 0.866142 -0.299213 
vn -0.700787 0.692913 -0.173228 
vn -0.212598 0.866142 0.456693 
vn 0.0551181 0.795276 0.606299 
vn 0.385827 0.905512 -0.173228 
vn -0.401575 0.866142 -0.299213 
vn -0.330709 0.566929 -0.755906 
vn -0.330709 0.566929 -0.755906 
vn -0.330709 0.566929 -0.755906 
vn -0.976378 0.0708661 0.19685 
vn 0.220472 0.614173 0.755906 
vn 0.80315 0.582677 0.11811 
vn 0.401575 0.818898 -0.417323 
vn -0.330709 0.566929 -0.755906 
vn -0.866142 -0.133858 0.480315 
vn -1 -0.0787402 -0.0393701 
vn -0.551181 0.0314961 0.834646 
vn -0.19685 0.15748 0.968504 
vn 0.102362 0.496063 0.866142 
vn 0.661417 -0.299213 0.692913 
vn 0.92126 0.385827 -0.015748 
vn -0.92126 -0.212598 0.322835 
vn -0.425197 -0.330709 0.84252 
vn -0.96063 -0.19685 -0.188976 
vn -0.251969 0.0787402 -0.968504 
vn -0.291339 0 -0.96063 
vn -0.472441 -0.0314961 0.88189 
vn -0.472441 -0.0314961 0.88189 
vn -0.19685 0.15748 0.968504 
vn -0.00787402 0.330709 0.944882 
vn -0.850394 0.377953 -0.354331 
vn -0.834646 0.448819 -0.322835 
vn 0.92126 0.173228 0.346457 
vn 0.834646 0.0551181 0.543307 
vn 0.905512 -0.15748 0.393701 
vn 0.937008 0.354331 -0.0472441 
vn 0.929134 0.354331 -0.0629921 
vn -0.354331 -0.535433 0.76378 
vn -0.897638 -0.267717 0.346457 
vn 0.259843 0.330709 -0.905512 
vn -0.251969 0.0787402 -0.968504 
vn -0.275591 -0.0551181 -0.96063 
vn -0.543307 -0.102362 -0.834646 
vn 0.834646 0.543307 0.0393701 
vn -0.472441 -0.0314961 0.88189 
vn 0.220472 0.220472 0.952756 
vn -0.370079 0.771654 -0.519685 
vn -0.850394 0.377953 -0.354331 
vn -0.866142 0.448819 0.220472 
vn -0.307087 0.929134 -0.204724 
vn 0.92126 -0.141732 0.362205 
vn -0.716535 0.685039 0.0866142 
vn -0.897638 0.0551181 -0.433071 
vn -0.976378 0.125984 0.165354 
vn -0.913386 -0.141732 0.377953 
vn 0.409449 0.220472 -0.889764 
vn -0.275591 -0.0551181 -0.96063 
vn 0.551181 0.448819 0.700787 
vn 0.826772 0.409449 0.393701 
vn 0.330709 0.173228 0.929134 
vn 0.322835 0.15748 0.929134 
vn -0.409449 -0.0314961 0.913386 
vn 0.330709 0.173228 0.929134 
vn -0.370079 0.913386 0.165354 
vn -0.826772 0.496063 0.259843 
vn 0.456693 -0.574803 0.677165 
vn -0.88189 0.188976 0.425197 
vn -0.866142 0.0551181 0.496063 
vn 0.464567 0.165354 -0.866142 
vn 0.464567 0.165354 -0.866142 
vn -0.244094 -0.015748 -0.968504 
vn 0.464567 0.165354 -0.866142 
vn 0.866142 0.299213 0.401575 
vn -0.409449 -0.0314961 0.913386 
vn 0.362205 0.102362 0.929134 
vn 0.267717 0.456693 0.850394 
vn 0.133858 0.511811 0.850394 
vn 0.76378 0.622047 -0.15748 
vn 0.669291 0.559055 -0.488189 
vn 0.0944882 0.244094 -0.968504 
vn -0.314961 -0.23622 -0.92126 
vn -0.322835 -0.204724 -0.92126 
vn -0.346457 -0.228346 -0.913386 
vn -0.535433 0.125984 0.834646 
vn -0.283465 0.015748 0.96063 
vn -0.330709 -0.023622 0.944882 
vn -0.330709 -0.023622 0.944882 
vn 0.385827 0.0393701 0.92126 
vn 0.480315 0.125984 -0.866142 
vn -0.244094 -0.015748 -0.968504 
vn 0.889764 0.204724 0.409449 
vn 0.346457 0.385827 0.858268 
vn 0.354331 0.393701 0.850394 
vn 0.0944882 0.244094 -0.968504 
vn -0.401575 -0.212598 -0.889764 
vn 0.755906 0.456693 -0.464567 
vn 0.755906 0.456693 -0.464567 
vn -0.346457 -0.228346 -0.913386 
vn -0.937008 -0.338583 0.102362 
vn -0.850394 -0.283465 0.448819 
vn 0.685039 -0.141732 0.716535 
vn 0.433071 -0.417323 0.795276 
vn 0.188976 -0.519685 0.834646 
vn -0.23622 0.023622 0.968504 
vn -0.149606 0.0708661 0.984252 
vn -0.251969 0.023622 0.968504 
vn -0.503937 0.314961 0.80315 
vn -0.283465 0.015748 0.96063 
vn -0.283465 0.015748 0.96063 
vn 0.354331 0.393701 0.850394 
vn -0.251969 0.102362 0.96063 
vn -0.283465 0.015748 0.96063 
vn 0.685039 0.0551181 0.724409 
vn 0.472441 0.125984 -0.874016 
vn -0.220472 0.0314961 -0.976378 
vn 0.984252 0.15748 0.0629921 
vn 0.417323 0.322835 0.850394 
vn -0.283465 0.015748 0.96063 
vn 0.818898 0.370079 -0.440945 
vn 0.818898 0.370079 -0.440945 
vn -0.314961 -0.23622 -0.92126 
vn -0.322835 -0.181102 -0.929134 
vn -0.322835 -0.181102 -0.929134 
vn -0.80315 -0.267717 0.527559 
vn -0.346457 -0.622047 0.700787 
vn -0.622047 -0.511811 0.598425 
vn 0.456693 0.0787402 0.889764 
vn -0.251969 0.102362 0.96063 
vn 0.661417 0.023622 0.755906 
vn 0.984252 0.149606 0.11811 
vn 0.267717 0.456693 0.850394 
vn -0.251969 0.023622 0.968504 
vn 0.464567 0.23622 0.858268 
vn 0.850394 0.267717 -0.456693 
vn 0.850394 0.267717 -0.448819 
vn -0.322835 -0.181102 -0.929134 
vn -0.818898 -0.173228 0.543307 
vn -0.19685 0.267717 0.944882 
vn 0.299213 0.645669 0.700787 
vn -0.0944882 -0.551181 0.826772 
vn 0.417323 -0.409449 0.811024 
vn 0.740157 -0.023622 0.669291 
vn -0.661417 -0.448819 0.598425 
vn 0.700787 0.519685 -0.496063 
vn 0.952756 0.0787402 0.291339 
vn -0.149606 0.0708661 0.984252 
vn 0.488189 0.188976 0.850394 
vn 0.866142 0.173228 -0.464567 
vn 0.968504 0.204724 -0.133858 
vn 0.338583 0 -0.937008 
vn 0.511811 0.535433 0.669291 
vn -0.125984 0.19685 0.968504 
vn 0.338583 0 -0.937008 
vn 0.661417 -0.244094 0.708661 
vn -0.944882 -0.181102 0.259843 
vn 0.574803 0.275591 -0.771654 
vn 0.897638 0 0.433071 
vn 0.96063 0.23622 -0.15748 
vn -0.937008 0.125984 -0.330709 
vn -0.0787402 0.204724 0.976378 
vn 0.566929 0.496063 0.653543 
vn 0.472441 -0.204724 0.858268 
vn 0.708661 -0.19685 0.677165 
vn 0.834646 -0.11811 0.535433 
vn 0.834646 -0.0314961 0.551181 
vn 0.11811 -0.11811 0.984252 
vn 0.0787402 -0.0866142 0.992126 
vn -0.826772 -0.425197 0.377953 
vn -0.968504 0.244094 0 
vn -1 0.00787402 0.015748 
vn 0.598425 0.228346 -0.771654 
vn 0.598425 0.23622 -0.76378 
vn 0.984252 0.0708661 0.173228 
vn 0.322835 0.0472441 -0.944882 
vn -0.0708661 0.204724 0.976378 
vn 0.598425 0.440945 0.669291 
vn 0.874016 -0.401575 0.275591 
vn 0.897638 -0.448819 0.0393701 
vn -0.88189 -0.472441 0 
vn -0.976378 0.212598 -0.0629921 
vn -0.992126 0.023622 -0.125984 
vn -0.496063 -0.417323 -0.755906 
vn 0.653543 0.188976 -0.732283 
vn 0.677165 0.15748 -0.724409 
vn 0.984252 0.125984 0.0866142 
vn 0.645669 0.582677 0.496063 
vn -0.0551181 0.188976 0.976378 
vn 0.84252 0.385827 0.370079 
vn 0.92126 -0.322835 -0.212598 
vn 0.92126 -0.220472 -0.322835 
vn -0.874016 -0.456693 -0.165354 
vn -0.96063 0.110236 -0.244094 
vn -0.937008 -0.0708661 -0.346457 
vn 0.889764 0.228346 -0.393701 
vn 0.716535 0.0944882 -0.692913 
vn -0.456693 -0.370079 -0.811024 
vn 0.88189 -0.244094 -0.401575 
vn 0.96063 -0.102362 -0.251969 
vn 0.913386 -0.0787402 -0.393701 
vn -0.677165 -0.354331 -0.637795 
vn -0.84252 -0.204724 -0.503937 
vn 0.88189 0.19685 -0.433071 
vn -0.448819 -0.370079 -0.811024 
vn 0.905512 0.307087 -0.291339 
vn -0.84252 -0.204724 -0.503937 
vn -0.677165 -0.354331 -0.637795 
vn 0.818898 -0.0393701 -0.574803 
vn -0.496063 -0.291339 -0.818898 
vn -0.858268 -0.204724 -0.472441 
vn 0.937008 0.110236 -0.330709 
vn 0.866142 0.173228 -0.472441 
vn -0.496063 -0.291339 -0.818898 
vn -0.952756 0.291339 0.0472441 
vn -0.370079 -0.251969 -0.897638 
vn -0.976378 0.19685 -0.11811 
vn -0.897638 0 -0.440945 
vn 0.165354 -0.102362 -0.984252 
vn 0.889764 0.0629921 -0.448819 
vn -0.370079 -0.251969 -0.897638 
vn -0.440945 -0.181102 -0.88189 
vn -0.952756 0.0944882 -0.291339 
vn -0.771654 0.574803 -0.283465 
vn -0.779528 0.338583 -0.527559 
vn -0.92126 0.23622 -0.314961 
vn -0.937008 0.23622 -0.244094 
vn -0.440945 -0.181102 -0.88189 
vn 0.291339 -0.299213 -0.905512 
vn -0.984252 0.0708661 -0.165354 
vn -0.551181 -0.0944882 -0.826772 
vn -0.590551 0.488189 -0.637795 
vn -0.779528 0.338583 -0.527559 
vn -0.771654 0.574803 -0.283465 
vn -0.511811 0.700787 -0.488189 
vn 0.866142 0.0393701 -0.503937 
vn 0.874016 -0.102362 -0.480315 
vn -0.629921 -0.464567 -0.622047 
vn -0.590551 -0.503937 -0.629921 
vn -0.614173 -0.472441 -0.629921 
vn -0.661417 -0.377953 -0.645669 
vn -0.551181 -0.0944882 -0.826772 
vn 0.291339 -0.204724 -0.937008 
vn -0.669291 -0.19685 -0.716535 
vn -0.511811 0.84252 -0.188976 
vn -0.346457 0.590551 0.732283 
vn 0.850394 -0.015748 -0.519685 
vn 0.692913 -0.11811 -0.716535 
vn 0.362205 -0.204724 -0.905512 
vn -0.669291 -0.19685 -0.716535 
vn -0.913386 -0.393701 0.0629921 
vn -0.92126 -0.204724 0.338583 
vn 0.779528 -0.023622 -0.629921 
vn 0.110236 -0.362205 -0.92126 
vn -0.661417 -0.377953 -0.645669 
vn -0.984252 -0.173228 -0.0472441 
vn -0.92126 -0.385827 -0.015748 
vn -0.92126 -0.377953 -0.015748 
vn -0.244094 -0.19685 -0.952756 
vn -0.0866142 -0.251969 -0.968504 
vn -0.614173 -0.472441 -0.629921 
vn 0.181102 -0.393701 -0.897638 
vn 0.866142 0.0629921 -0.496063 
vn 0.251969 0.771654 0.582677 
vn -0.314961 0.480315 0.818898 
vn 0.645669 0.488189 -0.582677 
vn 0.0393701 -0.307087 -0.952756 
vn 0.110236 -0.330709 -0.937008 
vn -0.543307 -0.503937 -0.669291 
vn -0.574803 -0.488189 -0.653543 
vn 0.19685 -0.370079 -0.913386 
vn -0.574803 -0.488189 -0.653543 
vn 0.755906 -0.102362 -0.645669 
vn 0.464567 0.653543 0.598425 
vn -0.220472 0.433071 0.874016 
vn 0.637795 0.165354 -0.755906 
vn 0.173228 -0.354331 -0.92126 
vn -0.543307 -0.503937 -0.669291 
vn 0.779528 -0.0393701 -0.629921 
vn 0.653543 0.511811 0.551181 
vn -0.0551181 0.448819 0.889764 
vn 0.559055 0.566929 0.606299 
vn -0.149606 0.456693 0.88189 
vn 0.76378 0 -0.645669 
vn 0.472441 0.677165 -0.566929 
vn 0.433071 0.716535 -0.543307 
vn -0.0866142 -0.251969 -0.968504 
vn 0.110236 -0.330709 -0.937008 
vn -0.307087 -0.692913 0.653543 
vn -0.102362 -0.629921 0.76378 
vn 0.606299 -0.299213 0.732283 
vn -0.322835 -0.716535 0.614173 
vn -0.307087 -0.708661 0.637795 
vn 0.433071 -0.535433 0.724409 
vn 0.913386 -0.0866142 0.401575 
vn -0.984252 -0.110236 -0.149606 
vn -0.889764 0.125984 -0.433071 
vn 0.433071 0.716535 -0.543307 
vn -0.874016 -0.456693 -0.165354 
vn -0.84252 -0.204724 -0.503937 
vn 0.11811 -0.11811 0.984252 
vn -0.826772 -0.425197 0.377953 
vn -0.88189 -0.472441 0 

vt 0.718644 0.151756 
vt 0.735753 0.161647 
vt 0.696377 0.160354 
vt 0.346075 0.728807 
vt 0.362737 0.777802 
vt 0.34378 0.779885 
vt 0.33687 0.749706 
vt 0.595164 0.363103 
vt 0.604895 0.397229 
vt 0.573391 0.407368 
vt 0.551699 0.386246 
vt 0.431688 0.534655 
vt 0.460736 0.540653 
vt 0.448498 0.565567 
vt 0.425784 0.561485 
vt 0.927985 0.154525 
vt 0.930139 0.135881 
vt 0.957447 0.149577 
vt 0.948209 0.159393 
vt 0.22513 0.861283 
vt 0.212032 0.888564 
vt 0.197882 0.874834 
vt 0.212605 0.84087 
vt 0.322113 0.934737 
vt 0.330283 0.947606 
vt 0.305335 0.957389 
vt 0.304149 0.937613 
vt 0.320527 0.735111 
vt 0.317609 0.695809 
vt 0.339084 0.688991 
vt 0.289117 0.739466 
vt 0.282775 0.703303 
vt 0.256748 0.676702 
vt 0.324351 0.658547 
vt 0.39322 0.545381 
vt 0.39193 0.492237 
vt 0.446365 0.504254 
vt 0.476137 0.517227 
vt 0.576961 0.608998 
vt 0.573161 0.596518 
vt 0.586215 0.58916 
vt 0.592166 0.603006 
vt 0.593236 0.615994 
vt 0.579107 0.623678 
vt 0.558187 0.614322 
vt 0.558929 0.601744 
vt 0.558835 0.62753 
vt 0.563029 0.423857 
vt 0.536349 0.412908 
vt 0.406324 0.574733 
vt 0.419355 0.595208 
vt 0.422492 0.60916 
vt 0.394294 0.603466 
vt 0.570564 0.436336 
vt 0.545378 0.435497 
vt 0.423516 0.582994 
vt 0.893357 0.447896 
vt 0.90898 0.452872 
vt 0.891099 0.472459 
vt 0.885055 0.460473 
vt 0.896865 0.433038 
vt 0.909246 0.427374 
vt 0.426092 0.910094 
vt 0.419852 0.89076 
vt 0.434659 0.884943 
vt 0.44713 0.896348 
vt 0.401701 0.907705 
vt 0.406061 0.894067 
vt 0.970217 0.173745 
vt 0.953161 0.175147 
vt 0.144502 0.896897 
vt 0.155888 0.8864 
vt 0.171333 0.892765 
vt 0.165943 0.912302 
vt 0.953495 0.19203 
vt 0.965052 0.200485 
vt 0.19207 0.909995 
vt 0.187468 0.894982 
vt 0.155834 0.862917 
vt 0.177314 0.866858 
vt 0.245763 0.701848 
vt 0.240653 0.731742 
vt 0.209477 0.723215 
vt 0.21816 0.691354 
vt 0.197021 0.775044 
vt 0.171278 0.767331 
vt 0.178924 0.71093 
vt 0.185242 0.830219 
vt 0.158089 0.824863 
vt 0.238513 0.800402 
vt 0.233451 0.838276 
vt 0.227065 0.785339 
vt 0.140767 0.72101 
vt 0.129256 0.725346 
vt 0.123657 0.707777 
vt 0.057501 0.75832 
vt 0.089524 0.738595 
vt 0.087326 0.760628 
vt 0.058992 0.776017 
vt 0.106119 0.745931 
vt 0.751281 0.115819 
vt 0.766058 0.131756 
vt 0.738561 0.140347 
vt 0.718758 0.129551 
vt 0.159045 0.698208 
vt 0.15074 0.719811 
vt 0.034609 0.77897 
vt 0.038975 0.76731 
vt 0.171852 0.682231 
vt 0.188513 0.66608 
vt 0.188632 0.687002 
vt 0.344632 0.595007 
vt 0.359552 0.640336 
vt 0.588526 0.132698 
vt 0.542331 0.113976 
vt 0.584529 0.113465 
vt 0.601278 0.271026 
vt 0.557339 0.243766 
vt 0.608339 0.253711 
vt 0.607564 0.201756 
vt 0.555364 0.17799 
vt 0.602487 0.182948 
vt 0.571865 0.313396 
vt 0.530928 0.295945 
vt 0.58759 0.29678 
vt 0.610753 0.234378 
vt 0.66298 0.237393 
vt 0.707409 0.241123 
vt 0.698273 0.26977 
vt 0.65821 0.262317 
vt 0.717231 0.3117 
vt 0.694817 0.298378 
vt 0.732629 0.303845 
vt 0.744307 0.324543 
vt 0.713429 0.32239 
vt 0.74039 0.327728 
vt 0.719598 0.338007 
vt 0.686283 0.320705 
vt 0.732514 0.2357 
vt 0.762526 0.233998 
vt 0.743862 0.249762 
vt 0.712965 0.14222 
vt 0.688962 0.138247 
vt 0.746764 0.143542 
vt 0.26195 0.705203 
vt 0.762258 0.230824 
vt 0.732722 0.225009 
vt 0.745175 0.214637 
vt 0.470006 0.225863 
vt 0.456171 0.272911 
vt 0.399832 0.256044 
vt 0.412206 0.211722 
vt 0.366062 0.340408 
vt 0.41463 0.339237 
vt 0.401928 0.363722 
vt 0.364684 0.392512 
vt 0.390699 0.395061 
vt 0.279788 0.420517 
vt 0.245651 0.387525 
vt 0.308321 0.362547 
vt 0.324479 0.407742 
vt 0.248639 0.422737 
vt 0.216556 0.421869 
vt 0.181969 0.374701 
vt 0.171742 0.416397 
vt 0.141465 0.813407 
vt 0.149078 0.776267 
vt 0.151258 0.74724 
vt 0.139061 0.837629 
vt 0.137641 0.867883 
vt 0.241705 0.784442 
vt 0.901534 0.153305 
vt 0.898939 0.132323 
vt 0.560714 0.452519 
vt 0.583198 0.447935 
vt 0.436548 0.58467 
vt 0.529846 0.631746 
vt 0.53441 0.611303 
vt 0.63381 0.552866 
vt 0.620967 0.563136 
vt 0.614295 0.540405 
vt 0.631729 0.529396 
vt 0.492186 0.621398 
vt 0.499639 0.596522 
vt 0.515779 0.603774 
vt 0.541902 0.592348 
vt 0.606463 0.569249 
vt 0.598766 0.553104 
vt 0.60362 0.511306 
vt 0.620917 0.496876 
vt 0.55868 0.58272 
vt 0.517008 0.575309 
vt 0.434723 0.858143 
vt 0.455746 0.866842 
vt 0.597329 0.579639 
vt 0.586665 0.564736 
vt 0.585546 0.527181 
vt 0.535968 0.563722 
vt 0.575234 0.574838 
vt 0.412791 0.861767 
vt 0.382158 0.886404 
vt 0.398944 0.879613 
vt 0.43226 0.816145 
vt 0.454729 0.832981 
vt 0.858742 0.476679 
vt 0.864559 0.458092 
vt 0.280177 0.949794 
vt 0.286771 0.936189 
vt 0.537262 0.463269 
vt 0.516674 0.442695 
vt 0.569519 0.541649 
vt 0.571641 0.502375 
vt 0.590375 0.486073 
vt 0.55435 0.553913 
vt 0.402072 0.81864 
vt 0.880285 0.420495 
vt 0.890036 0.404021 
vt 0.367309 0.853749 
vt 0.37318 0.822967 
vt 0.872498 0.439491 
vt 0.823344 0.468025 
vt 0.835867 0.449269 
vt 0.974153 0.305446 
vt 0.984402 0.297519 
vt 0.990197 0.324406 
vt 0.974642 0.322092 
vt 0.552899 0.518354 
vt 0.149447 0.678355 
vt 0.389679 0.767395 
vt 0.375068 0.717666 
vt 0.419399 0.760218 
vt 0.853885 0.405932 
vt 0.857247 0.384186 
vt 0.33396 0.750433 
vt 0.845741 0.427787 
vt 0.79557 0.458282 
vt 0.804478 0.43744 
vt 0.442391 0.768678 
vt 0.450646 0.806551 
vt 0.969439 0.338636 
vt 0.97677 0.349136 
vt 0.534693 0.533609 
vt 0.367829 0.677281 
vt 0.402869 0.710259 
vt 0.823706 0.391321 
vt 0.831072 0.371549 
vt 0.347345 0.796365 
vt 0.35742 0.829798 
vt 0.814482 0.414078 
vt 0.756667 0.443534 
vt 0.768286 0.422762 
vt 0.946845 0.360395 
vt 0.947985 0.341324 
vt 0.951231 0.318492 
vt 0.954513 0.29651 
vt 0.959349 0.277831 
vt 0.248457 0.864917 
vt 0.269157 0.868314 
vt 0.253782 0.892243 
vt 0.397507 0.670652 
vt 0.426735 0.702575 
vt 0.436442 0.740764 
vt 0.727544 0.430598 
vt 0.734556 0.407036 
vt 0.7892 0.375385 
vt 0.79689 0.354602 
vt 0.779078 0.398791 
vt 0.915909 0.339139 
vt 0.909886 0.359919 
vt 0.263747 0.924242 
vt 0.279402 0.910874 
vt 0.919961 0.313788 
vt 0.924315 0.289485 
vt 0.925013 0.267845 
vt 0.302394 0.906448 
vt 0.326486 0.908579 
vt 0.491102 0.407885 
vt 0.492569 0.460431 
vt 0.459206 0.432897 
vt 0.321676 0.797057 
vt 0.340506 0.785339 
vt 0.34359 0.809812 
vt 0.395675 0.63564 
vt 0.329401 0.864452 
vt 0.348367 0.856479 
vt 0.34784 0.886392 
vt 0.423113 0.667486 
vt 0.68686 0.413183 
vt 0.695519 0.388385 
vt 0.757311 0.359853 
vt 0.772036 0.342699 
vt 0.745303 0.382865 
vt 0.878836 0.333625 
vt 0.877082 0.355737 
vt 0.883233 0.307503 
vt 0.889484 0.282751 
vt 0.894875 0.26157 
vt 0.245043 0.818532 
vt 0.269969 0.79843 
vt 0.298862 0.861365 
vt 0.470323 0.4801 
vt 0.430434 0.45585 
vt 0.422968 0.63381 
vt 0.646495 0.400986 
vt 0.652443 0.373302 
vt 0.707229 0.363319 
vt 0.343648 0.92057 
vt 0.826173 0.347017 
vt 0.830513 0.324445 
vt 0.835368 0.297926 
vt 0.842195 0.272494 
vt 0.845946 0.250219 
vt 0.293091 0.797473 
vt 0.940351 0.218339 
vt 0.934059 0.199277 
vt 0.418728 0.404882 
vt 0.441007 0.379825 
vt 0.508525 0.36808 
vt 0.388614 0.419307 
vt 0.930276 0.176502 
vt 0.667978 0.345792 
vt 0.78915 0.337862 
vt 0.784854 0.313935 
vt 0.795884 0.262729 
vt 0.788142 0.287862 
vt 0.808431 0.242404 
vt 0.907334 0.203567 
vt 0.909212 0.225522 
vt 0.246891 0.788831 
vt 0.460235 0.350096 
vt 0.349946 0.445595 
vt 0.90408 0.178191 
vt 0.621488 0.331285 
vt 0.737848 0.277207 
vt 0.261467 0.737744 
vt 0.88254 0.228543 
vt 0.877114 0.20676 
vt 0.384783 0.291231 
vt 0.434047 0.3067 
vt 0.488274 0.31996 
vt 0.538727 0.331457 
vt 0.327488 0.294662 
vt 0.342435 0.266243 
vt 0.294325 0.303794 
vt 0.326147 0.520085 
vt 0.302024 0.461901 
vt 0.873684 0.180895 
vt 0.871774 0.155346 
vt 0.638731 0.307752 
vt 0.250698 0.753705 
vt 0.84085 0.232576 
vt 0.838468 0.210388 
vt 0.349035 0.239729 
vt 0.360941 0.194882 
vt 0.239838 0.316886 
vt 0.264363 0.532792 
vt 0.255435 0.468063 
vt 0.872717 0.133532 
vt 0.835464 0.184237 
vt 0.833102 0.158543 
vt 0.650244 0.285432 
vt 0.246493 0.758908 
vt 0.805982 0.233945 
vt 0.795884 0.21271 
vt 0.375185 0.143005 
vt 0.419636 0.157604 
vt 0.181343 0.323648 
vt 0.207573 0.533285 
vt 0.209218 0.468485 
vt 0.79176 0.18696 
vt 0.789718 0.161184 
vt 0.830766 0.13622 
vt 0.422194 0.1113 
vt 0.38316 0.108581 
vt 0.473567 0.167233 
vt 0.141004 0.364454 
vt 0.147619 0.327363 
vt 0.741824 0.188435 
vt 0.794743 0.138816 
vt 0.707589 0.216925 
vt 0.386588 0.076137 
vt 0.424638 0.072276 
vt 0.47176 0.113014 
vt 0.132518 0.408413 
vt 0.165189 0.46501 
vt 0.66117 0.211191 
vt 0.699733 0.188554 
vt 0.468764 0.070437 
vt 0.267614 0.604744 
vt 0.125191 0.462143 
vt 0.20294 0.601233 
vt 0.160128 0.526479 
vt 0.155527 0.719811 
vt 0.655324 0.186927 
vt 0.520568 0.0675 
vt 0.122257 0.520933 
vt 0.153842 0.58667 
vt 0.0176 0.7688 
vt 0.009803 0.751438 
vt 0.021933 0.749287 
vt 0.0297 0.759014 
vt 0.577392 0.062249 
vt 0.581575 0.094189 
vt 0.141003 0.632226 
vt 0.119749 0.57667 
vt 0.865885 0.022877 
vt 0.870343 0.013062 
vt 0.885723 0.028802 
vt 0.873161 0.033637 
vt 0.64837 0.163146 
vt 0.59613 0.164433 
vt 0.118979 0.655312 
vt 0.087753 0.674349 
vt 0.084031 0.651705 
vt 0.101451 0.636076 
vt 0.634566 0.062541 
vt 0.633873 0.090512 
vt 0.11333 0.615222 
vt 0.877422 0.047176 
vt 0.888307 0.051434 
vt 0.641649 0.138482 
vt 0.636518 0.114695 
vt 0.677434 0.088058 
vt 0.67839 0.063084 
vt 0.032542 0.732511 
vt 0.047378 0.743732 
vt 0.679955 0.11251 
vt 0.709451 0.081738 
vt 0.7087 0.059158 
vt 0.109266 0.693323 
vt 0.054228 0.703727 
vt 0.074739 0.720054 
vt 0.848224 0.025306 
vt 0.84391 0.009803 
vt 0.735358 0.050457 
vt 0.736819 0.071471 
vt 0.712476 0.105054 
vt 0.864151 0.059696 
vt 0.873624 0.075082 
vt 0.85549 0.041616 
vt 0.820817 0.03536 
vt 0.811555 0.018921 
vt 0.046852 0.686357 
vt 0.069543 0.666027 
vt 0.763586 0.059967 
vt 0.756789 0.041432 
vt 0.742152 0.093577 
vt 0.838023 0.076487 
vt 0.844487 0.096288 
vt 0.828986 0.054877 
vt 0.793335 0.047465 
vt 0.787506 0.028975 
vt 0.771029 0.081475 
vt 0.780546 0.104181 
vt 0.789423 0.123335 
vt 0.810296 0.09082 
vt 0.82015 0.108957 
vt 0.800847 0.068559 
vt 0.578874 0.470632 
vt 0.600513 0.469437 
vt 0.015043 0.728525 
vt 0.03138 0.703297 
vt 0.514782 0.546069 
vt 0.49588 0.497572 
vt 0.515879 0.479434 
vt 0.499497 0.533559 
vt 0.516917 0.515716 
vt 0.536174 0.49822 
vt 0.556779 0.482424 
vt 0.49255 0.554448 
vt 0.475003 0.580762 
vt 0.459495 0.603211 
vt 0.32686 0.117761 
vt 0.352804 0.093631 
vt 0.308633 0.263038 
vt 0.296498 0.228658 
vt 0.299079 0.171207 

usemtl Handle1Mtl

f 1/1/1 2/2/2 3/3/3 
f 4/4/4 5/5/5 6/6/6 
f 6/6/6 7/7/7 4/4/4 
f 8/8/8 9/9/9 10/10/10 
f 10/10/10 11/11/11 8/8/8 
f 12/12/12 13/13/13 14/14/14 
f 14/14/14 15/15/15 12/12/12 
f 16/16/16 17/17/17 18/18/18 
f 18/18/18 19/19/19 16/16/16 
f 20/20/20 21/21/21 22/22/22 
f 22/22/22 23/23/23 20/20/20 
f 24/24/24 25/25/25 26/26/26 
f 26/26/26 27/27/27 24/24/24 
f 4/4/4 28/28/28 29/29/29 
f 29/29/29 30/30/30 4/4/4 
f 28/28/28 31/31/31 32/32/32 
f 32/32/32 29/29/29 28/28/28 
f 32/32/32 33/33/33 34/34/34 
f 34/34/34 29/29/29 32/32/32 
f 12/12/12 35/35/35 36/36/36 
f 36/36/36 37/37/37 12/12/12 
f 37/37/37 38/38/38 13/13/13 
f 13/13/13 12/12/12 37/37/37 
f 39/39/39 40/40/40 41/41/41 
f 41/41/41 42/42/42 39/39/39 
f 39/39/39 42/42/42 43/43/43 
f 43/43/43 44/44/44 39/39/39 
f 40/40/40 39/39/39 45/45/45 
f 45/45/45 46/46/46 40/40/40 
f 39/39/39 44/44/44 47/47/47 
f 47/47/47 45/45/45 39/39/39 
f 10/10/10 48/48/48 49/49/49 
f 49/49/49 11/11/11 10/10/10 
f 15/15/15 50/50/50 35/35/35 
f 35/35/35 12/12/12 15/15/15 
f 51/51/51 52/52/52 53/53/53 
f 53/53/53 50/50/50 51/51/51 
f 48/48/48 54/54/54 55/55/55 
f 55/55/55 49/49/49 48/48/48 
f 56/56/56 51/51/51 50/50/50 
f 50/50/50 15/15/15 56/56/56 
f 57/57/57 58/58/58 59/59/59 
f 59/59/59 60/60/60 57/57/57 
f 61/61/61 62/62/62 58/58/58 
f 58/58/58 57/57/57 61/61/61 
f 63/63/63 64/64/64 65/65/65 
f 65/65/65 66/66/66 63/63/63 
f 64/64/64 63/63/63 67/67/67 
f 67/67/67 68/68/68 64/64/64 
f 69/69/69 70/70/70 19/19/19 
f 19/19/19 18/18/18 69/69/69 
f 71/71/71 72/72/72 73/73/73 
f 73/73/73 74/74/74 71/71/71 
f 75/75/75 70/70/70 69/69/69 
f 69/69/69 76/76/76 75/75/75 
f 77/77/77 74/74/74 73/73/73 
f 73/73/73 78/78/78 77/77/77 
f 72/72/72 79/79/79 80/80/80 
f 80/80/80 73/73/73 72/72/72 
f 81/81/81 82/82/82 83/83/83 
f 83/83/83 84/84/84 81/81/81 
f 83/83/83 85/85/85 86/86/86 
f 86/86/86 87/87/87 83/83/83 
f 88/88/88 80/80/80 79/79/79 
f 79/79/79 89/89/89 88/88/88 
f 80/80/80 22/22/22 78/78/78 
f 78/78/78 73/73/73 80/80/80 
f 90/90/90 91/91/91 23/23/23 
f 23/23/23 92/92/92 90/90/90 
f 85/85/85 83/83/83 82/82/82 
f 82/82/82 92/92/92 85/85/85 
f 85/85/85 88/88/88 89/89/89 
f 89/89/89 86/86/86 85/85/85 
f 22/22/22 80/80/80 88/88/88 
f 88/88/88 23/23/23 22/22/22 
f 85/85/85 92/92/92 23/23/23 
f 23/23/23 88/88/88 85/85/85 
f 93/93/93 94/94/94 95/95/95 
f 96/96/96 97/97/97 98/98/98 
f 98/98/98 99/99/99 96/96/96 
f 100/100/100 98/98/98 97/97/97 
f 101/101/101 102/102/102 103/103/103 
f 103/103/103 104/104/104 101/101/101 
f 93/93/93 95/95/95 105/105/105 
f 105/105/105 106/106/106 93/93/93 
f 99/99/99 107/107/107 108/108/108 
f 108/108/108 96/96/96 99/99/99 
f 109/109/109 110/110/110 111/111/111 
f 110/110/110 33/33/33 84/84/84 
f 84/84/84 111/111/111 110/110/110 
f 83/83/83 87/87/87 111/111/111 
f 111/111/111 84/84/84 83/83/83 
f 34/34/34 112/112/112 113/113/113 
f 29/29/29 34/34/34 30/30/30 
f 114/114/114 115/115/115 116/116/116 
f 117/117/117 118/118/118 119/119/119 
f 120/120/120 121/121/121 122/122/122 
f 123/123/123 124/124/124 125/125/125 
f 119/119/119 118/118/118 126/126/126 
f 127/127/127 128/128/128 129/129/129 
f 129/129/129 130/130/130 127/127/127 
f 131/131/131 132/132/132 133/133/133 
f 134/134/134 131/131/131 133/133/133 
f 135/135/135 136/136/136 137/137/137 
f 138/138/138 135/135/135 137/137/137 
f 139/139/139 140/140/140 141/141/141 
f 128/128/128 139/139/139 141/141/141 
f 142/142/142 143/143/143 104/104/104 
f 1/1/1 144/144/144 2/2/2 
f 145/145/145 33/33/33 32/32/32 
f 146/146/146 147/147/147 148/148/148 
f 149/149/149 150/150/150 151/151/151 
f 151/151/151 152/152/152 149/149/149 
f 153/153/153 154/154/154 155/155/155 
f 156/156/156 153/153/153 155/155/155 
f 155/155/155 157/157/157 156/156/156 
f 158/158/158 159/159/159 160/160/160 
f 160/160/160 161/161/161 158/158/158 
f 162/162/162 159/159/159 158/158/158 
f 162/162/162 163/163/163 159/159/159 
f 164/164/164 159/159/159 163/163/163 
f 163/163/163 165/165/165 164/164/164 
f 89/89/89 166/166/166 167/167/167 
f 167/167/167 86/86/86 89/89/89 
f 168/168/168 86/86/86 167/167/167 
f 166/166/166 89/89/89 169/169/169 
f 169/169/169 89/89/89 79/79/79 
f 79/79/79 170/170/170 169/169/169 
f 170/170/170 79/79/79 72/72/72 
f 72/72/72 71/71/71 170/170/170 
f 92/92/92 171/171/171 90/90/90 
f 172/172/172 173/173/173 17/17/17 
f 17/17/17 16/16/16 172/172/172 
f 174/174/174 55/55/55 54/54/54 
f 54/54/54 175/175/175 174/174/174 
f 15/15/15 14/14/14 176/176/176 
f 176/176/176 56/56/56 15/15/15 
f 47/47/47 177/177/177 178/178/178 
f 178/178/178 45/45/45 47/47/47 
f 179/179/179 180/180/180 181/181/181 
f 181/181/181 182/182/182 179/179/179 
f 183/183/183 184/184/184 185/185/185 
f 183/183/183 185/185/185 178/178/178 
f 177/177/177 183/183/183 178/178/178 
f 178/178/178 186/186/186 46/46/46 
f 46/46/46 45/45/45 178/178/178 
f 180/180/180 187/187/187 188/188/188 
f 188/188/188 181/181/181 180/180/180 
f 182/182/182 181/181/181 189/189/189 
f 189/189/189 190/190/190 182/182/182 
f 191/191/191 40/40/40 46/46/46 
f 46/46/46 186/186/186 191/191/191 
f 185/185/185 184/184/184 192/192/192 
f 185/185/185 192/192/192 186/186/186 
f 178/178/178 185/185/185 186/186/186 
f 65/65/65 193/193/193 194/194/194 
f 194/194/194 66/66/66 65/65/65 
f 23/23/23 91/91/91 20/20/20 
f 187/187/187 195/195/195 196/196/196 
f 196/196/196 188/188/188 187/187/187 
f 197/197/197 189/189/189 181/181/181 
f 181/181/181 188/188/188 197/197/197 
f 198/198/198 191/191/191 186/186/186 
f 186/186/186 192/192/192 198/198/198 
f 199/199/199 41/41/41 40/40/40 
f 40/40/40 191/191/191 199/199/199 
f 200/200/200 193/193/193 65/65/65 
f 65/65/65 64/64/64 200/200/200 
f 68/68/68 67/67/67 201/201/201 
f 201/201/201 202/202/202 68/68/68 
f 202/202/202 200/200/200 64/64/64 
f 64/64/64 68/68/68 202/202/202 
f 193/193/193 203/203/203 204/204/204 
f 204/204/204 194/194/194 193/193/193 
f 59/59/59 205/205/205 206/206/206 
f 206/206/206 60/60/60 59/59/59 
f 207/207/207 208/208/208 27/27/27 
f 27/27/27 26/26/26 207/207/207 
f 55/55/55 174/174/174 209/209/209 
f 209/209/209 210/210/210 55/55/55 
f 196/196/196 195/195/195 41/41/41 
f 41/41/41 199/199/199 196/196/196 
f 188/188/188 196/196/196 211/211/211 
f 211/211/211 197/197/197 188/188/188 
f 212/212/212 213/213/213 189/189/189 
f 189/189/189 197/197/197 212/212/212 
f 21/21/21 77/77/77 78/78/78 
f 78/78/78 22/22/22 21/21/21 
f 214/214/214 199/199/199 191/191/191 
f 191/191/191 198/198/198 214/214/214 
f 215/215/215 203/203/203 193/193/193 
f 193/193/193 200/200/200 215/215/215 
f 62/62/62 61/61/61 216/216/216 
f 216/216/216 217/217/217 62/62/62 
f 201/201/201 218/218/218 219/219/219 
f 219/219/219 215/215/215 200/200/200 
f 201/201/201 219/219/219 200/200/200 
f 202/202/202 201/201/201 200/200/200 
f 60/60/60 206/206/206 220/220/220 
f 220/220/220 57/57/57 60/60/60 
f 205/205/205 221/221/221 222/222/222 
f 222/222/222 206/206/206 205/205/205 
f 223/223/223 224/224/224 225/225/225 
f 225/225/225 226/226/226 223/223/223 
f 211/211/211 196/196/196 199/199/199 
f 199/199/199 214/214/214 211/211/211 
f 197/197/197 211/211/211 227/227/227 
f 227/227/227 212/212/212 197/197/197 
f 109/109/109 105/105/105 228/228/228 
f 110/110/110 109/109/109 228/228/228 
f 229/229/229 5/5/5 4/4/4 
f 4/4/4 230/230/230 229/229/229 
f 215/215/215 229/229/229 231/231/231 
f 231/231/231 203/203/203 215/215/215 
f 220/220/220 216/216/216 61/61/61 
f 61/61/61 57/57/57 220/220/220 
f 232/232/232 233/233/233 217/217/217 
f 217/217/217 216/216/216 232/232/232 
f 234/234/234 28/28/28 4/4/4 
f 4/4/4 7/7/7 234/234/234 
f 33/33/33 81/81/81 84/84/84 
f 33/33/33 145/145/145 81/81/81 
f 229/229/229 215/215/215 219/219/219 
f 219/219/219 5/5/5 229/229/229 
f 206/206/206 222/222/222 235/235/235 
f 235/235/235 220/220/220 206/206/206 
f 221/221/221 236/236/236 237/237/237 
f 237/237/237 222/222/222 221/221/221 
f 203/203/203 231/231/231 238/238/238 
f 238/238/238 239/239/239 203/203/203 
f 240/240/240 226/226/226 225/225/225 
f 225/225/225 241/241/241 240/240/240 
f 211/211/211 214/214/214 242/242/242 
f 242/242/242 227/227/227 211/211/211 
f 230/230/230 4/4/4 30/30/30 
f 30/30/30 243/243/243 230/230/230 
f 230/230/230 244/244/244 231/231/231 
f 231/231/231 229/229/229 230/230/230 
f 235/235/235 232/232/232 216/216/216 
f 216/216/216 220/220/220 235/235/235 
f 245/245/245 246/246/246 233/233/233 
f 233/233/233 232/232/232 245/245/245 
f 247/247/247 5/5/5 219/219/219 
f 219/219/219 248/248/248 247/247/247 
f 249/249/249 235/235/235 222/222/222 
f 222/222/222 237/237/237 249/249/249 
f 236/236/236 250/250/250 251/251/251 
f 251/251/251 237/237/237 236/236/236 
f 241/241/241 252/252/252 253/253/253 
f 253/253/253 240/240/240 241/241/241 
f 254/254/254 255/255/255 223/223/223 
f 223/223/223 226/226/226 254/254/254 
f 255/255/255 256/256/256 224/224/224 
f 224/224/224 223/223/223 255/255/255 
f 243/243/243 30/30/30 34/34/34 
f 34/34/34 113/113/113 243/243/243 
f 257/257/257 258/258/258 259/259/259 
f 243/243/243 260/260/260 244/244/244 
f 244/244/244 230/230/230 243/243/243 
f 244/244/244 261/261/261 262/262/262 
f 262/262/262 231/231/231 244/244/244 
f 263/263/263 264/264/264 251/251/251 
f 251/251/251 250/250/250 263/263/263 
f 249/249/249 245/245/245 232/232/232 
f 232/232/232 235/235/235 249/249/249 
f 265/265/265 266/266/266 246/246/246 
f 246/246/246 245/245/245 265/265/265 
f 237/237/237 251/251/251 267/267/267 
f 267/267/267 249/249/249 237/237/237 
f 240/240/240 253/253/253 254/254/254 
f 254/254/254 226/226/226 240/240/240 
f 268/268/268 253/253/253 252/252/252 
f 252/252/252 269/269/269 268/268/268 
f 208/208/208 207/207/207 270/270/270 
f 270/270/270 271/271/271 208/208/208 
f 259/259/259 258/258/258 271/271/271 
f 271/271/271 270/270/270 259/259/259 
f 272/272/272 273/273/273 255/255/255 
f 255/255/255 254/254/254 272/272/272 
f 273/273/273 274/274/274 256/256/256 
f 256/256/256 255/255/255 273/273/273 
f 275/275/275 276/276/276 24/24/24 
f 24/24/24 27/27/27 275/275/275 
f 277/277/277 210/210/210 278/278/278 
f 278/278/278 279/279/279 277/277/277 
f 280/280/280 281/281/281 282/282/282 
f 113/113/113 283/283/283 260/260/260 
f 260/260/260 243/243/243 113/113/113 
f 284/284/284 285/285/285 286/286/286 
f 260/260/260 287/287/287 261/261/261 
f 261/261/261 244/244/244 260/260/260 
f 288/288/288 289/289/289 264/264/264 
f 264/264/264 263/263/263 288/288/288 
f 265/265/265 290/290/290 291/291/291 
f 291/291/291 266/266/266 265/265/265 
f 264/264/264 292/292/292 267/267/267 
f 267/267/267 251/251/251 264/264/264 
f 267/267/267 265/265/265 245/245/245 
f 245/245/245 249/249/249 267/267/267 
f 253/253/253 268/268/268 272/272/272 
f 272/272/272 254/254/254 253/253/253 
f 293/293/293 268/268/268 269/269/269 
f 269/269/269 294/294/294 293/293/293 
f 272/272/272 295/295/295 296/296/296 
f 296/296/296 273/273/273 272/272/272 
f 296/296/296 297/297/297 274/274/274 
f 274/274/274 273/273/273 296/296/296 
f 298/298/298 299/299/299 258/258/258 
f 258/258/258 257/257/257 298/298/298 
f 208/208/208 271/271/271 275/275/275 
f 275/275/275 27/27/27 208/208/208 
f 282/282/282 285/285/285 284/284/284 
f 284/284/284 280/280/280 282/282/282 
f 284/284/284 276/276/276 275/275/275 
f 275/275/275 300/300/300 284/284/284 
f 279/279/279 278/278/278 301/301/301 
f 301/301/301 302/302/302 279/279/279 
f 283/283/283 303/303/303 287/287/287 
f 287/287/287 260/260/260 283/283/283 
f 304/304/304 305/305/305 289/289/289 
f 289/289/289 288/288/288 304/304/304 
f 289/289/289 306/306/306 292/292/292 
f 292/292/292 264/264/264 289/289/289 
f 292/292/292 290/290/290 265/265/265 
f 265/265/265 267/267/267 292/292/292 
f 136/136/136 291/291/291 290/290/290 
f 290/290/290 137/137/137 136/136/136 
f 276/276/276 284/284/284 286/286/286 
f 286/286/286 307/307/307 276/276/276 
f 268/268/268 293/293/293 295/295/295 
f 295/295/295 272/272/272 268/268/268 
f 308/308/308 309/309/309 293/293/293 
f 293/293/293 294/294/294 308/308/308 
f 295/295/295 310/310/310 311/311/311 
f 311/311/311 296/296/296 295/295/295 
f 311/311/311 312/312/312 297/297/297 
f 297/297/297 296/296/296 311/311/311 
f 258/258/258 300/300/300 275/275/275 
f 275/275/275 271/271/271 258/258/258 
f 300/300/300 313/313/313 280/280/280 
f 280/280/280 284/284/284 300/300/300 
f 76/76/76 314/314/314 315/315/315 
f 315/315/315 75/75/75 76/76/76 
f 279/279/279 316/316/316 317/317/317 
f 317/317/317 277/277/277 279/279/279 
f 24/24/24 276/276/276 307/307/307 
f 307/307/307 25/25/25 24/24/24 
f 318/318/318 11/11/11 49/49/49 
f 49/49/49 277/277/277 318/318/318 
f 302/302/302 319/319/319 316/316/316 
f 316/316/316 279/279/279 302/302/302 
f 320/320/320 16/16/16 19/19/19 
f 19/19/19 70/70/70 320/320/320 
f 305/305/305 304/304/304 9/9/9 
f 9/9/9 8/8/8 305/305/305 
f 289/289/289 305/305/305 321/321/321 
f 321/321/321 306/306/306 289/289/289 
f 306/306/306 137/137/137 290/290/290 
f 290/290/290 292/292/292 306/306/306 
f 281/281/281 280/280/280 28/28/28 
f 28/28/28 234/234/234 281/281/281 
f 322/322/322 323/323/323 309/309/309 
f 309/309/309 308/308/308 322/322/322 
f 310/310/310 295/295/295 293/293/293 
f 293/293/293 309/309/309 310/310/310 
f 324/324/324 311/311/311 310/310/310 
f 310/310/310 325/325/325 324/324/324 
f 311/311/311 324/324/324 326/326/326 
f 326/326/326 312/312/312 311/311/311 
f 299/299/299 313/313/313 300/300/300 
f 300/300/300 258/258/258 299/299/299 
f 280/280/280 313/313/313 31/31/31 
f 31/31/31 28/28/28 280/280/280 
f 75/75/75 315/315/315 320/320/320 
f 320/320/320 70/70/70 75/75/75 
f 327/327/327 315/315/315 314/314/314 
f 314/314/314 328/328/328 327/327/327 
f 329/329/329 299/299/299 298/298/298 
f 277/277/277 317/317/317 330/330/330 
f 330/330/330 318/318/318 277/277/277 
f 156/156/156 161/161/161 160/160/160 
f 160/160/160 153/153/153 156/156/156 
f 36/36/36 331/331/331 319/319/319 
f 319/319/319 302/302/302 36/36/36 
f 16/16/16 320/320/320 332/332/332 
f 332/332/332 172/172/172 16/16/16 
f 305/305/305 8/8/8 333/333/333 
f 333/333/333 321/321/321 305/305/305 
f 138/138/138 137/137/137 306/306/306 
f 306/306/306 321/321/321 138/138/138 
f 136/136/136 135/135/135 131/131/131 
f 131/131/131 134/134/134 136/136/136 
f 323/323/323 322/322/322 134/134/134 
f 134/134/134 133/133/133 323/323/323 
f 323/323/323 325/325/325 310/310/310 
f 310/310/310 309/309/309 323/323/323 
f 141/141/141 324/324/324 325/325/325 
f 325/325/325 334/334/334 141/141/141 
f 140/140/140 326/326/326 324/324/324 
f 324/324/324 141/141/141 140/140/140 
f 313/313/313 299/299/299 335/335/335 
f 335/335/335 31/31/31 313/313/313 
f 145/145/145 32/32/32 31/31/31 
f 31/31/31 335/335/335 145/145/145 
f 336/336/336 337/337/337 327/327/327 
f 327/327/327 328/328/328 336/336/336 
f 327/327/327 332/332/332 320/320/320 
f 320/320/320 315/315/315 327/327/327 
f 338/338/338 339/339/339 154/154/154 
f 154/154/154 153/153/153 338/338/338 
f 154/154/154 330/330/330 317/317/317 
f 317/317/317 155/155/155 154/154/154 
f 340/340/340 341/341/341 318/318/318 
f 318/318/318 330/330/330 340/340/340 
f 338/338/338 153/153/153 342/342/342 
f 342/342/342 343/343/343 338/338/338 
f 342/342/342 153/153/153 160/160/160 
f 160/160/160 344/344/344 342/342/342 
f 345/345/345 346/346/346 331/331/331 
f 331/331/331 36/36/36 345/345/345 
f 172/172/172 332/332/332 347/347/347 
f 347/347/347 348/348/348 172/172/172 
f 8/8/8 341/341/341 123/123/123 
f 123/123/123 333/333/333 8/8/8 
f 349/349/349 138/138/138 321/321/321 
f 321/321/321 333/333/333 349/349/349 
f 135/135/135 138/138/138 132/132/132 
f 132/132/132 131/131/131 135/135/135 
f 325/325/325 323/323/323 133/133/133 
f 133/133/133 334/334/334 325/325/325 
f 335/335/335 299/299/299 329/329/329 
f 329/329/329 350/350/350 335/335/335 
f 82/82/82 81/81/81 145/145/145 
f 145/145/145 335/335/335 82/82/82 
f 337/337/337 336/336/336 351/351/351 
f 351/351/351 352/352/352 337/337/337 
f 337/337/337 347/347/347 332/332/332 
f 332/332/332 327/327/327 337/337/337 
f 339/339/339 340/340/340 330/330/330 
f 330/330/330 154/154/154 339/339/339 
f 124/124/124 341/341/341 340/340/340 
f 152/152/152 151/151/151 353/353/353 
f 353/353/353 354/354/354 152/152/152 
f 248/248/248 219/219/219 218/218/218 
f 355/355/355 344/344/344 160/160/160 
f 160/160/160 159/159/159 355/355/355 
f 356/356/356 357/357/357 346/346/346 
f 346/346/346 345/345/345 356/356/356 
f 161/161/161 331/331/331 346/346/346 
f 346/346/346 158/158/158 161/161/161 
f 173/173/173 172/172/172 348/348/348 
f 348/348/348 358/358/358 173/173/173 
f 347/347/347 359/359/359 360/360/360 
f 360/360/360 348/348/348 347/347/347 
f 125/125/125 349/349/349 333/333/333 
f 333/333/333 123/123/123 125/125/125 
f 138/138/138 349/349/349 361/361/361 
f 361/361/361 132/132/132 138/138/138 
f 203/203/203 239/239/239 204/204/204 
f 334/334/334 133/133/133 132/132/132 
f 132/132/132 129/129/129 334/334/334 
f 362/362/362 82/82/82 335/335/335 
f 335/335/335 350/350/350 362/362/362 
f 352/352/352 351/351/351 363/363/363 
f 363/363/363 364/364/364 352/352/352 
f 347/347/347 337/337/337 352/352/352 
f 352/352/352 359/359/359 347/347/347 
f 171/171/171 92/92/92 82/82/82 
f 82/82/82 362/362/362 171/171/171 
f 150/150/150 124/124/124 340/340/340 
f 340/340/340 339/339/339 150/150/150 
f 125/125/125 124/124/124 118/118/118 
f 118/118/118 117/117/117 125/125/125 
f 354/354/354 365/365/365 366/366/366 
f 366/366/366 152/152/152 354/354/354 
f 355/355/355 159/159/159 164/164/164 
f 164/164/164 367/367/367 355/355/355 
f 368/368/368 369/369/369 357/357/357 
f 357/357/357 356/356/356 368/368/368 
f 158/158/158 346/346/346 357/357/357 
f 357/357/357 162/162/162 158/158/158 
f 360/360/360 359/359/359 370/370/370 
f 370/370/370 371/371/371 360/360/360 
f 348/348/348 360/360/360 372/372/372 
f 372/372/372 358/358/358 348/348/348 
f 349/349/349 125/125/125 117/117/117 
f 117/117/117 361/361/361 349/349/349 
f 129/129/129 132/132/132 361/361/361 
f 361/361/361 130/130/130 129/129/129 
f 146/146/146 140/140/140 139/139/139 
f 139/139/139 147/147/147 146/146/146 
f 359/359/359 352/352/352 364/364/364 
f 364/364/364 370/370/370 359/359/359 
f 364/364/364 363/363/363 146/146/146 
f 146/146/146 148/148/148 364/364/364 
f 231/231/231 262/262/262 238/238/238 
f 149/149/149 118/118/118 124/124/124 
f 124/124/124 150/150/150 149/149/149 
f 373/373/373 366/366/366 365/365/365 
f 365/365/365 374/374/374 373/373/373 
f 375/375/375 149/149/149 152/152/152 
f 152/152/152 366/366/366 375/375/375 
f 376/376/376 377/377/377 367/367/367 
f 367/367/367 164/164/164 376/376/376 
f 162/162/162 357/357/357 369/369/369 
f 369/369/369 163/163/163 162/162/162 
f 371/371/371 370/370/370 378/378/378 
f 378/378/378 2/2/2 371/371/371 
f 360/360/360 371/371/371 379/379/379 
f 379/379/379 372/372/372 360/360/360 
f 6/6/6 5/5/5 247/247/247 
f 119/119/119 130/130/130 361/361/361 
f 361/361/361 117/117/117 119/119/119 
f 147/147/147 139/139/139 128/128/128 
f 128/128/128 380/380/380 147/147/147 
f 370/370/370 364/364/364 148/148/148 
f 148/148/148 378/378/378 370/370/370 
f 373/373/373 374/374/374 381/381/381 
f 381/381/381 382/382/382 373/373/373 
f 121/121/121 118/118/118 149/149/149 
f 149/149/149 375/375/375 121/121/121 
f 383/383/383 375/375/375 366/366/366 
f 366/366/366 373/373/373 383/383/383 
f 164/164/164 165/165/165 384/384/384 
f 384/384/384 376/376/376 164/164/164 
f 369/369/369 385/385/385 165/165/165 
f 165/165/165 163/163/163 369/369/369 
f 144/144/144 379/379/379 371/371/371 
f 371/371/371 2/2/2 144/144/144 
f 120/120/120 126/126/126 118/118/118 
f 118/118/118 121/121/121 120/120/120 
f 126/126/126 127/127/127 130/130/130 
f 130/130/130 119/119/119 126/126/126 
f 380/380/380 128/128/128 127/127/127 
f 127/127/127 386/386/386 380/380/380 
f 378/378/378 148/148/148 380/380/380 
f 380/380/380 387/387/387 378/378/378 
f 382/382/382 388/388/388 383/383/383 
f 383/383/383 373/373/373 382/382/382 
f 115/115/115 121/121/121 375/375/375 
f 375/375/375 383/383/383 115/115/115 
f 34/34/34 33/33/33 389/389/389 
f 389/389/389 112/112/112 34/34/34 
f 165/165/165 385/385/385 390/390/390 
f 390/390/390 384/384/384 165/165/165 
f 391/391/391 368/368/368 356/356/356 
f 356/356/356 389/389/389 391/391/391 
f 369/369/369 368/368/368 392/392/392 
f 392/392/392 385/385/385 369/369/369 
f 87/87/87 86/86/86 168/168/168 
f 168/168/168 393/393/393 87/87/87 
f 87/87/87 105/105/105 109/109/109 
f 109/109/109 111/111/111 87/87/87 
f 386/386/386 127/127/127 126/126/126 
f 126/126/126 120/120/120 386/386/386 
f 387/387/387 380/380/380 386/386/386 
f 386/386/386 394/394/394 387/387/387 
f 383/383/383 388/388/388 395/395/395 
f 395/395/395 115/115/115 383/383/383 
f 391/391/391 389/389/389 33/33/33 
f 33/33/33 110/110/110 391/391/391 
f 396/396/396 390/390/390 385/385/385 
f 385/385/385 392/392/392 396/396/396 
f 11/11/11 318/318/318 341/341/341 
f 341/341/341 8/8/8 11/11/11 
f 37/37/37 36/36/36 302/302/302 
f 302/302/302 301/301/301 37/37/37 
f 397/397/397 392/392/392 368/368/368 
f 368/368/368 391/391/391 397/397/397 
f 398/398/398 399/399/399 400/400/400 
f 400/400/400 401/401/401 398/398/398 
f 105/105/105 87/87/87 393/393/393 
f 393/393/393 106/106/106 105/105/105 
f 394/394/394 386/386/386 120/120/120 
f 120/120/120 122/122/122 394/394/394 
f 402/402/402 403/403/403 115/115/115 
f 115/115/115 395/395/395 402/402/402 
f 404/404/404 397/397/397 391/391/391 
f 391/391/391 110/110/110 404/404/404 
f 405/405/405 396/396/396 392/392/392 
f 392/392/392 397/397/397 405/405/405 
f 406/406/406 407/407/407 408/408/408 
f 408/408/408 409/409/409 406/406/406 
f 156/156/156 319/319/319 331/331/331 
f 331/331/331 161/161/161 156/156/156 
f 103/103/103 144/144/144 1/1/1 
f 1/1/1 142/142/142 103/103/103 
f 410/410/410 394/394/394 122/122/122 
f 122/122/122 411/411/411 410/410/410 
f 114/114/114 411/411/411 121/121/121 
f 121/121/121 115/115/115 114/114/114 
f 412/412/412 413/413/413 414/414/414 
f 414/414/414 415/415/415 412/412/412 
f 228/228/228 412/412/412 404/404/404 
f 404/404/404 110/110/110 228/228/228 
f 416/416/416 417/417/417 403/403/403 
f 403/403/403 402/402/402 416/416/416 
f 418/418/418 405/405/405 397/397/397 
f 397/397/397 404/404/404 418/418/418 
f 419/419/419 409/409/409 408/408/408 
f 408/408/408 420/420/420 419/419/419 
f 142/142/142 1/1/1 3/3/3 
f 3/3/3 143/143/143 142/142/142 
f 421/421/421 410/410/410 411/411/411 
f 411/411/411 114/114/114 421/421/421 
f 345/345/345 36/36/36 35/35/35 
f 35/35/35 112/112/112 345/345/345 
f 116/116/116 403/403/403 417/417/417 
f 417/417/417 422/422/422 116/116/116 
f 415/415/415 418/418/418 404/404/404 
f 404/404/404 412/412/412 415/415/415 
f 423/423/423 417/417/417 416/416/416 
f 416/416/416 424/424/424 423/423/423 
f 400/400/400 425/425/425 426/426/426 
f 426/426/426 401/401/401 400/400/400 
f 107/107/107 398/398/398 401/401/401 
f 401/401/401 108/108/108 107/107/107 
f 422/422/422 421/421/421 114/114/114 
f 114/114/114 116/116/116 422/422/422 
f 143/143/143 3/3/3 410/410/410 
f 410/410/410 421/421/421 143/143/143 
f 422/422/422 417/417/417 423/423/423 
f 423/423/423 427/427/427 422/422/422 
f 428/428/428 423/423/423 424/424/424 
f 424/424/424 429/429/429 428/428/428 
f 430/430/430 413/413/413 412/412/412 
f 412/412/412 228/228/228 430/430/430 
f 426/426/426 425/425/425 431/431/431 
f 431/431/431 432/432/432 426/426/426 
f 426/426/426 96/96/96 108/108/108 
f 108/108/108 401/401/401 426/426/426 
f 407/407/407 406/406/406 433/433/433 
f 433/433/433 434/434/434 407/407/407 
f 427/427/427 143/143/143 421/421/421 
f 421/421/421 422/422/422 427/427/427 
f 429/429/429 435/435/435 436/436/436 
f 436/436/436 428/428/428 429/429/429 
f 437/437/437 427/427/427 423/423/423 
f 423/423/423 428/428/428 437/437/437 
f 389/389/389 356/356/356 345/345/345 
f 345/345/345 112/112/112 389/389/389 
f 95/95/95 430/430/430 228/228/228 
f 228/228/228 105/105/105 95/95/95 
f 432/432/432 431/431/431 413/413/413 
f 413/413/413 430/430/430 432/432/432 
f 432/432/432 97/97/97 96/96/96 
f 96/96/96 426/426/426 432/432/432 
f 438/438/438 419/419/419 420/420/420 
f 420/420/420 439/439/439 438/438/438 
f 440/440/440 433/433/433 406/406/406 
f 406/406/406 409/409/409 440/440/440 
f 434/434/434 433/433/433 441/441/441 
f 441/441/441 442/442/442 434/434/434 
f 443/443/443 444/444/444 413/413/413 
f 413/413/413 431/431/431 443/443/443 
f 143/143/143 427/427/427 437/437/437 
f 437/437/437 104/104/104 143/143/143 
f 113/113/113 112/112/112 53/53/53 
f 53/53/53 283/283/283 113/113/113 
f 53/53/53 112/112/112 35/35/35 
f 35/35/35 50/50/50 53/53/53 
f 445/445/445 436/436/436 435/435/435 
f 435/435/435 446/446/446 445/445/445 
f 428/428/428 436/436/436 447/447/447 
f 447/447/447 437/437/437 428/428/428 
f 97/97/97 432/432/432 430/430/430 
f 430/430/430 95/95/95 97/97/97 
f 448/448/448 438/438/438 439/439/439 
f 439/439/439 449/449/449 448/448/448 
f 128/128/128 141/141/141 334/334/334 
f 334/334/334 129/129/129 128/128/128 
f 440/440/440 409/409/409 419/419/419 
f 419/419/419 438/438/438 440/440/440 
f 380/380/380 148/148/148 147/147/147 
f 450/450/450 441/441/441 433/433/433 
f 433/433/433 440/440/440 450/450/450 
f 442/442/442 441/441/441 451/451/451 
f 451/451/451 452/452/452 442/442/442 
f 451/451/451 445/445/445 446/446/446 
f 446/446/446 452/452/452 451/451/451 
f 437/437/437 447/447/447 101/101/101 
f 101/101/101 104/104/104 437/437/437 
f 104/104/104 103/103/103 142/142/142 
f 436/436/436 445/445/445 453/453/453 
f 453/453/453 447/447/447 436/436/436 
f 95/95/95 94/94/94 100/100/100 
f 100/100/100 97/97/97 95/95/95 
f 102/102/102 101/101/101 454/454/454 
f 454/454/454 455/455/455 102/102/102 
f 456/456/456 448/448/448 449/449/449 
f 449/449/449 457/457/457 456/456/456 
f 450/450/450 440/440/440 438/438/438 
f 438/438/438 448/448/448 450/450/450 
f 451/451/451 441/441/441 450/450/450 
f 450/450/450 458/458/458 451/451/451 
f 445/445/445 451/451/451 458/458/458 
f 458/458/458 453/453/453 445/445/445 
f 447/447/447 453/453/453 454/454/454 
f 454/454/454 101/101/101 447/447/447 
f 454/454/454 456/456/456 457/457/457 
f 457/457/457 455/455/455 454/454/454 
f 458/458/458 450/450/450 448/448/448 
f 448/448/448 456/456/456 458/458/458 
f 453/453/453 458/458/458 456/456/456 
f 456/456/456 454/454/454 453/453/453 
f 403/403/403 116/116/116 115/115/115 
f 394/394/394 410/410/410 3/3/3 
f 3/3/3 387/387/387 394/394/394 
f 121/121/121 411/411/411 122/122/122 
f 210/210/210 277/277/277 49/49/49 
f 49/49/49 55/55/55 210/210/210 
f 283/283/283 53/53/53 52/52/52 
f 52/52/52 303/303/303 283/283/283 
f 213/213/213 459/459/459 460/460/460 
f 414/414/414 413/413/413 444/444/444 
f 425/425/425 461/461/461 462/462/462 
f 462/462/462 431/431/431 425/425/425 
f 443/443/443 431/431/431 462/462/462 
f 461/461/461 425/425/425 400/400/400 
f 400/400/400 399/399/399 461/461/461 
f 387/387/387 3/3/3 2/2/2 
f 2/2/2 378/378/378 387/387/387 
f 123/123/123 341/341/341 124/124/124 
f 151/151/151 150/150/150 339/339/339 
f 339/339/339 338/338/338 151/151/151 
f 151/151/151 338/338/338 343/343/343 
f 343/343/343 353/353/353 151/151/151 
f 190/190/190 189/189/189 213/213/213 
f 213/213/213 460/460/460 190/190/190 
f 198/198/198 463/463/463 242/242/242 
f 242/242/242 214/214/214 198/198/198 
f 301/301/301 464/464/464 38/38/38 
f 38/38/38 37/37/37 301/301/301 
f 278/278/278 465/465/465 464/464/464 
f 464/464/464 301/301/301 278/278/278 
f 210/210/210 209/209/209 465/465/465 
f 465/465/465 278/278/278 210/210/210 
f 463/463/463 466/466/466 467/467/467 
f 467/467/467 242/242/242 463/463/463 
f 227/227/227 242/242/242 467/467/467 
f 467/467/467 468/468/468 227/227/227 
f 212/212/212 227/227/227 468/468/468 
f 468/468/468 469/469/469 212/212/212 
f 213/213/213 212/212/212 469/469/469 
f 469/469/469 459/459/459 213/213/213 
f 466/466/466 463/463/463 470/470/470 
f 192/192/192 470/470/470 463/463/463 
f 463/463/463 198/198/198 192/192/192 
f 470/470/470 192/192/192 184/184/184 
f 184/184/184 471/471/471 470/470/470 
f 471/471/471 184/184/184 183/183/183 
f 183/183/183 472/472/472 471/471/471 
f 174/174/174 459/459/459 469/469/469 
f 469/469/469 209/209/209 174/174/174 
f 209/209/209 469/469/469 468/468/468 
f 468/468/468 465/465/465 209/209/209 
f 467/467/467 464/464/464 465/465/465 
f 465/465/465 468/468/468 467/467/467 
f 464/464/464 467/467/467 466/466/466 
f 466/466/466 38/38/38 464/464/464 
f 470/470/470 13/13/13 38/38/38 
f 38/38/38 466/466/466 470/470/470 
f 471/471/471 14/14/14 13/13/13 
f 13/13/13 470/470/470 471/471/471 
f 14/14/14 471/471/471 472/472/472 
f 472/472/472 176/176/176 14/14/14 
f 459/459/459 174/174/174 175/175/175 
f 175/175/175 460/460/460 459/459/459 
f 156/156/156 157/157/157 319/319/319 
f 316/316/316 157/157/157 155/155/155 
f 155/155/155 317/317/317 316/316/316 
f 319/319/319 157/157/157 316/316/316 
f 473/473/473 474/474/474 374/374/374 
f 374/374/374 365/365/365 473/473/473 
f 353/353/353 343/343/343 475/475/475 
f 475/475/475 476/476/476 353/353/353 
f 477/477/477 473/473/473 365/365/365 
f 365/365/365 354/354/354 477/477/477 
f 354/354/354 353/353/353 476/476/476 
f 476/476/476 477/477/477 354/354/354 

g Stick1

v 484.933 1.36532 -357.83 
v 484.933 -0.197575 -357.83 
v 484.933 1.36532 -357.992 
v 484.933 -0.197575 -357.992 
v 484.718 -0.197575 -357.83 
v 484.933 -0.197575 -357.83 
v 484.718 1.36532 -357.83 
v 484.933 1.36532 -357.83 
v 484.933 -0.197575 -357.83 
v 484.718 -0.197575 -357.83 
v 484.933 -0.197575 -357.992 
v 484.718 -0.197575 -357.992 
v 484.718 -0.197575 -357.83 
v 484.718 1.36532 -357.83 
v 484.718 -0.197575 -357.992 
v 484.718 1.36532 -357.992 
v 484.718 1.36532 -357.992 
v 484.933 1.36532 -357.992 
v 484.718 -0.197575 -357.992 
v 484.933 -0.197575 -357.992 
v 484.718 1.36532 -357.83 
v 484.933 1.36532 -357.83 
v 484.718 1.36532 -357.992 
v 484.933 1.36532 -357.992 

vn 1 0 0 
vn 1 0 0 
vn 1 0 0 
vn 1 0 0 
vn 0 0 1 
vn 0 0 1 
vn 0 0 1 
vn 0 0 1 
vn 0 -1 0 
vn 0 -1 0 
vn 0 -1 0 
vn 0 -1 0 
vn -1 0 0 
vn -1 0 0 
vn -1 0 0 
vn -1 0 0 
vn 0 0 -1 
vn 0 0 -1 
vn 0 0 -1 
vn 0 0 -1 
vn 0 1 0 
vn 0 1 0 
vn 0 1 0 
vn 0 1 0 

vt 4.19536 -5.25 
vt 4 -5.25 
vt 4.19536 -5.27027 
vt 4 -5.27027 
vt 4.02682 -5.25 
vt 4 -5.25 
vt 4.02682 -5.44536 
vt 4 -5.44536 
vt 4.02682 -5.25 
vt 4 -5.25 
vt 4.02682 -5.27027 
vt 4 -5.27027 
vt 4.19536 -5.25 
vt 4 -5.25 
vt 4.19536 -5.27027 
vt 4 -5.27027 
vt 4.02682 -5.25 
vt 4 -5.25 
vt 4.02682 -5.44536 
vt 4 -5.44536 
vt 4.02682 -5.25 
vt 4 -5.25 
vt 4.02682 -5.27027 
vt 4 -5.27027 

usemtl Stick1Mtl

f 478/478/478 479/479/479 480/480/480 
f 480/480/480 479/479/479 481/481/481 
f 482/482/482 483/483/483 484/484/484 
f 484/484/484 483/483/483 485/485/485 
f 486/486/486 487/487/487 488/488/488 
f 488/488/488 487/487/487 489/489/489 
f 490/490/490 491/491/491 492/492/492 
f 492/492/492 491/491/491 493/493/493 
f 494/494/494 495/495/495 496/496/496 
f 496/496/496 495/495/495 497/497/497 
f 498/498/498 499/499/499 500/500/500 
f 500/500/500 499/499/499 501/501/501 

